<?xml version="1.0" standalone="no"?>
 <!DOCTYPE svg PUBLIC "-//W3C//DTD SVG 1.1//EN" 
 "http://www.w3.org/Graphics/SVG/1.1/DTD/svg11.dtd"> 
<svg xmlns="http://www.w3.org/2000/svg" version="1.1" 
    width="29.7002cm" height="21.0007cm" viewBox="0 0 116930 82680 ">
<title>SVG Picture created as pcb_1-B.Cu.svg date 2019/10/28 18:45:59 </title>
  <desc>Picture generated by PCBNEW </desc>
<g style="fill:#000000; fill-opacity:1;stroke:#000000; stroke-opacity:1;
stroke-linecap:round; stroke-linejoin:round; "
 transform="translate(0 0) scale(1 1)">
</g>
<g style="fill:#000000; fill-opacity:0.0; 
stroke:#000000; stroke-width:-0.000393701; stroke-opacity:1; 
stroke-linecap:round; stroke-linejoin:round;">
</g>
<g style="fill:#000000; fill-opacity:0.0; 
stroke:#000000; stroke-width:0; stroke-opacity:1; 
stroke-linecap:round; stroke-linejoin:round;">
</g>
<g style="fill:#000000; fill-opacity:1.0; 
stroke:#000000; stroke-width:0; stroke-opacity:1; 
stroke-linecap:round; stroke-linejoin:round;">
<polyline style="fill-rule:evenodd;"
points="77095,24034
77764,24034
77764,23365
77095,23365
77095,24034
" /> 
</g>
<g style="fill:#000000; fill-opacity:1.0; 
stroke:#000000; stroke-width:669.291; stroke-opacity:1; 
stroke-linecap:round; stroke-linejoin:round;">
</g>
<g style="fill:#000000; fill-opacity:0.0; 
stroke:#000000; stroke-width:669.291; stroke-opacity:1; 
stroke-linecap:round; stroke-linejoin:round;">
<path d="M76430 23700
L76430 23700
" />
</g>
<g style="fill:#000000; fill-opacity:0.0; 
stroke:#000000; stroke-width:0; stroke-opacity:1; 
stroke-linecap:round; stroke-linejoin:round;">
</g>
<g style="fill:#000000; fill-opacity:1.0; 
stroke:#000000; stroke-width:0; stroke-opacity:1; 
stroke-linecap:round; stroke-linejoin:round;">
<polyline style="fill-rule:evenodd;"
points="70564,15165
69895,15165
69895,15834
70564,15834
70564,15165
" /> 
</g>
<g style="fill:#000000; fill-opacity:1.0; 
stroke:#000000; stroke-width:669.291; stroke-opacity:1; 
stroke-linecap:round; stroke-linejoin:round;">
</g>
<g style="fill:#000000; fill-opacity:0.0; 
stroke:#000000; stroke-width:669.291; stroke-opacity:1; 
stroke-linecap:round; stroke-linejoin:round;">
<path d="M71230 15500
L71230 15500
" />
</g>
<g style="fill:#000000; fill-opacity:0.0; 
stroke:#000000; stroke-width:0; stroke-opacity:1; 
stroke-linecap:round; stroke-linejoin:round;">
</g>
<g style="fill:#000000; fill-opacity:1.0; 
stroke:#000000; stroke-width:0; stroke-opacity:1; 
stroke-linecap:round; stroke-linejoin:round;">
<polyline style="fill-rule:evenodd;"
points="75564,27034
75564,26365
74895,26365
74895,27034
75564,27034
" /> 
</g>
<g style="fill:#000000; fill-opacity:1.0; 
stroke:#000000; stroke-width:669.291; stroke-opacity:1; 
stroke-linecap:round; stroke-linejoin:round;">
</g>
<g style="fill:#000000; fill-opacity:0.0; 
stroke:#000000; stroke-width:669.291; stroke-opacity:1; 
stroke-linecap:round; stroke-linejoin:round;">
<path d="M75230 27700
L75230 27700
" />
</g>
<g style="fill:#000000; fill-opacity:0.0; 
stroke:#000000; stroke-width:0; stroke-opacity:1; 
stroke-linecap:round; stroke-linejoin:round;">
</g>
<g style="fill:#000000; fill-opacity:1.0; 
stroke:#000000; stroke-width:0; stroke-opacity:1; 
stroke-linecap:round; stroke-linejoin:round;">
<polyline style="fill-rule:evenodd;"
points="79595,26965
79595,27634
80264,27634
80264,26965
79595,26965
" /> 
</g>
<g style="fill:#000000; fill-opacity:1.0; 
stroke:#000000; stroke-width:669.291; stroke-opacity:1; 
stroke-linecap:round; stroke-linejoin:round;">
</g>
<g style="fill:#000000; fill-opacity:0.0; 
stroke:#000000; stroke-width:669.291; stroke-opacity:1; 
stroke-linecap:round; stroke-linejoin:round;">
<path d="M79930 26300
L79930 26300
" />
</g>
<g style="fill:#000000; fill-opacity:0.0; 
stroke:#000000; stroke-width:0; stroke-opacity:1; 
stroke-linecap:round; stroke-linejoin:round;">
</g>
<g style="fill:#000000; fill-opacity:1.0; 
stroke:#000000; stroke-width:0; stroke-opacity:1; 
stroke-linecap:round; stroke-linejoin:round;">
<polyline style="fill-rule:evenodd;"
points="78295,26965
78295,27634
78964,27634
78964,26965
78295,26965
" /> 
</g>
<g style="fill:#000000; fill-opacity:1.0; 
stroke:#000000; stroke-width:669.291; stroke-opacity:1; 
stroke-linecap:round; stroke-linejoin:round;">
</g>
<g style="fill:#000000; fill-opacity:0.0; 
stroke:#000000; stroke-width:669.291; stroke-opacity:1; 
stroke-linecap:round; stroke-linejoin:round;">
<path d="M78630 26300
L78630 26300
" />
</g>
<g style="fill:#000000; fill-opacity:0.0; 
stroke:#000000; stroke-width:0; stroke-opacity:1; 
stroke-linecap:round; stroke-linejoin:round;">
</g>
<g style="fill:#000000; fill-opacity:1.0; 
stroke:#000000; stroke-width:0; stroke-opacity:1; 
stroke-linecap:round; stroke-linejoin:round;">
<polyline style="fill-rule:evenodd;"
points="76364,20034
76364,19365
75695,19365
75695,20034
76364,20034
" /> 
</g>
<g style="fill:#000000; fill-opacity:1.0; 
stroke:#000000; stroke-width:669.291; stroke-opacity:1; 
stroke-linecap:round; stroke-linejoin:round;">
</g>
<g style="fill:#000000; fill-opacity:0.0; 
stroke:#000000; stroke-width:669.291; stroke-opacity:1; 
stroke-linecap:round; stroke-linejoin:round;">
<path d="M76030 20700
L76030 20700
" />
</g>
<g style="fill:#000000; fill-opacity:0.0; 
stroke:#000000; stroke-width:0; stroke-opacity:1; 
stroke-linecap:round; stroke-linejoin:round;">
</g>
<g style="fill:#000000; fill-opacity:1.0; 
stroke:#000000; stroke-width:0; stroke-opacity:1; 
stroke-linecap:round; stroke-linejoin:round;">
<polyline style="fill-rule:evenodd;"
points="70995,19165
70995,19834
71664,19834
71664,19165
70995,19165
" /> 
</g>
<g style="fill:#000000; fill-opacity:1.0; 
stroke:#000000; stroke-width:669.291; stroke-opacity:1; 
stroke-linecap:round; stroke-linejoin:round;">
</g>
<g style="fill:#000000; fill-opacity:0.0; 
stroke:#000000; stroke-width:669.291; stroke-opacity:1; 
stroke-linecap:round; stroke-linejoin:round;">
<path d="M71330 18500
L71330 18500
" />
</g>
<g style="fill:#000000; fill-opacity:0.0; 
stroke:#000000; stroke-width:0; stroke-opacity:1; 
stroke-linecap:round; stroke-linejoin:round;">
</g>
<g style="fill:#000000; fill-opacity:1.0; 
stroke:#000000; stroke-width:0; stroke-opacity:1; 
stroke-linecap:round; stroke-linejoin:round;">
<polyline style="fill-rule:evenodd;"
points="73217,20846
73217,20353
72626,20353
72626,20846
73217,20846
" /> 
<polyline style="fill-rule:evenodd;"
points="72233,20846
72233,20353
71642,20353
71642,20846
72233,20846
" /> 
<polyline style="fill-rule:evenodd;"
points="90467,16262
88892,16262
88892,17837
90467,17837
90467,16262
" /> 
<circle cx="89680" cy="20987" r="787.402" /> 
</g>
<g style="fill:#000000; fill-opacity:1.0; 
stroke:#000000; stroke-width:39.3701; stroke-opacity:1; 
stroke-linecap:round; stroke-linejoin:round;">
</g>
<g style="fill:#000000; fill-opacity:1.0; 
stroke:#000000; stroke-width:0; stroke-opacity:1; 
stroke-linecap:round; stroke-linejoin:round;">
<polyline style="fill-rule:evenodd;"
points="68152,16770
68507,16770
68507,16455
68152,16455
68152,16770
" /> 
<polyline style="fill-rule:evenodd;"
points="68152,15944
68507,15944
68507,15629
68152,15629
68152,15944
" /> 
<polyline style="fill-rule:evenodd;"
points="78581,14951
78581,13848
77478,13848
77478,14951
78581,14951
" /> 
</g>
<g style="fill:#000000; fill-opacity:1.0; 
stroke:#000000; stroke-width:1102.36; stroke-opacity:1; 
stroke-linecap:round; stroke-linejoin:round;">
</g>
<g style="fill:#000000; fill-opacity:0.0; 
stroke:#000000; stroke-width:1102.36; stroke-opacity:1; 
stroke-linecap:round; stroke-linejoin:round;">
<path d="M73030 14400
L73030 14400
" />
</g>
<g style="fill:#000000; fill-opacity:1.0; 
stroke:#000000; stroke-width:0; stroke-opacity:1; 
stroke-linecap:round; stroke-linejoin:round;">
<circle cx="87680.4" cy="33300" r="496.85" /> 
</g>
<g style="fill:#000000; fill-opacity:1.0; 
stroke:#000000; stroke-width:39.3701; stroke-opacity:1; 
stroke-linecap:round; stroke-linejoin:round;">
</g>
<g style="fill:#000000; fill-opacity:1.0; 
stroke:#000000; stroke-width:0; stroke-opacity:1; 
stroke-linecap:round; stroke-linejoin:round;">
<circle cx="89767" cy="33300" r="496.85" /> 
</g>
<g style="fill:#000000; fill-opacity:1.0; 
stroke:#000000; stroke-width:39.3701; stroke-opacity:1; 
stroke-linecap:round; stroke-linejoin:round;">
</g>
<g style="fill:#000000; fill-opacity:1.0; 
stroke:#000000; stroke-width:0; stroke-opacity:1; 
stroke-linecap:round; stroke-linejoin:round;">
<circle cx="91893" cy="33300" r="496.85" /> 
</g>
<g style="fill:#000000; fill-opacity:1.0; 
stroke:#000000; stroke-width:39.3701; stroke-opacity:1; 
stroke-linecap:round; stroke-linejoin:round;">
</g>
<g style="fill:#000000; fill-opacity:1.0; 
stroke:#000000; stroke-width:0; stroke-opacity:1; 
stroke-linecap:round; stroke-linejoin:round;">
<circle cx="93979.6" cy="33260.6" r="496.85" /> 
</g>
<g style="fill:#000000; fill-opacity:1.0; 
stroke:#000000; stroke-width:39.3701; stroke-opacity:1; 
stroke-linecap:round; stroke-linejoin:round;">
</g>
<g style="fill:#000000; fill-opacity:1.0; 
stroke:#000000; stroke-width:984.252; stroke-opacity:1; 
stroke-linecap:round; stroke-linejoin:round;">
</g>
<g style="fill:#000000; fill-opacity:0.0; 
stroke:#000000; stroke-width:984.252; stroke-opacity:1; 
stroke-linecap:round; stroke-linejoin:round;">
<path d="M95486 29300
L94896 29300
" />
<path d="M86825 29300
L86234 29300
" />
</g>
<g style="fill:#000000; fill-opacity:1.0; 
stroke:#000000; stroke-width:0; stroke-opacity:1; 
stroke-linecap:round; stroke-linejoin:round;">
<circle cx="99930" cy="28300" r="1181" /> 
</g>
<g style="fill:#000000; fill-opacity:1.0; 
stroke:#000000; stroke-width:39.3701; stroke-opacity:1; 
stroke-linecap:round; stroke-linejoin:round;">
</g>
<g style="fill:#000000; fill-opacity:1.0; 
stroke:#000000; stroke-width:0; stroke-opacity:1; 
stroke-linecap:round; stroke-linejoin:round;">
<circle cx="99930" cy="32300" r="1181" /> 
</g>
<g style="fill:#000000; fill-opacity:1.0; 
stroke:#000000; stroke-width:39.3701; stroke-opacity:1; 
stroke-linecap:round; stroke-linejoin:round;">
</g>
<g style="fill:#000000; fill-opacity:1.0; 
stroke:#000000; stroke-width:0; stroke-opacity:1; 
stroke-linecap:round; stroke-linejoin:round;">
<circle cx="66530" cy="34200" r="1181" /> 
</g>
<g style="fill:#000000; fill-opacity:1.0; 
stroke:#000000; stroke-width:39.3701; stroke-opacity:1; 
stroke-linecap:round; stroke-linejoin:round;">
</g>
<g style="fill:#000000; fill-opacity:1.0; 
stroke:#000000; stroke-width:0; stroke-opacity:1; 
stroke-linecap:round; stroke-linejoin:round;">
<circle cx="62530" cy="34200" r="1181" /> 
</g>
<g style="fill:#000000; fill-opacity:1.0; 
stroke:#000000; stroke-width:39.3701; stroke-opacity:1; 
stroke-linecap:round; stroke-linejoin:round;">
</g>
<g style="fill:#000000; fill-opacity:1.0; 
stroke:#000000; stroke-width:0; stroke-opacity:1; 
stroke-linecap:round; stroke-linejoin:round;">
<circle cx="62530" cy="18400" r="1181" /> 
</g>
<g style="fill:#000000; fill-opacity:1.0; 
stroke:#000000; stroke-width:39.3701; stroke-opacity:1; 
stroke-linecap:round; stroke-linejoin:round;">
</g>
<g style="fill:#000000; fill-opacity:1.0; 
stroke:#000000; stroke-width:0; stroke-opacity:1; 
stroke-linecap:round; stroke-linejoin:round;">
<circle cx="62530" cy="14400" r="1181" /> 
</g>
<g style="fill:#000000; fill-opacity:1.0; 
stroke:#000000; stroke-width:39.3701; stroke-opacity:1; 
stroke-linecap:round; stroke-linejoin:round;">
</g>
<g style="fill:#000000; fill-opacity:1.0; 
stroke:#000000; stroke-width:0; stroke-opacity:1; 
stroke-linecap:round; stroke-linejoin:round;">
<circle cx="99930" cy="17700" r="1181" /> 
</g>
<g style="fill:#000000; fill-opacity:1.0; 
stroke:#000000; stroke-width:39.3701; stroke-opacity:1; 
stroke-linecap:round; stroke-linejoin:round;">
</g>
<g style="fill:#000000; fill-opacity:1.0; 
stroke:#000000; stroke-width:0; stroke-opacity:1; 
stroke-linecap:round; stroke-linejoin:round;">
<circle cx="99930" cy="21700" r="1181" /> 
</g>
<g style="fill:#000000; fill-opacity:1.0; 
stroke:#000000; stroke-width:39.3701; stroke-opacity:1; 
stroke-linecap:round; stroke-linejoin:round;">
</g>
<g style="fill:#000000; fill-opacity:1.0; 
stroke:#000000; stroke-width:0; stroke-opacity:1; 
stroke-linecap:round; stroke-linejoin:round;">
<polyline style="fill-rule:evenodd;"
points="71814,34615
71145,34615
71145,35284
71814,35284
71814,34615
" /> 
</g>
<g style="fill:#000000; fill-opacity:1.0; 
stroke:#000000; stroke-width:669.291; stroke-opacity:1; 
stroke-linecap:round; stroke-linejoin:round;">
</g>
<g style="fill:#000000; fill-opacity:0.0; 
stroke:#000000; stroke-width:669.291; stroke-opacity:1; 
stroke-linecap:round; stroke-linejoin:round;">
<path d="M72480 34950
L72480 34950
" />
<path d="M73480 34950
L73480 34950
" />
<path d="M74480 34950
L74480 34950
" />
<path d="M75480 34950
L75480 34950
" />
<path d="M76480 34950
L76480 34950
" />
<path d="M77480 34950
L77480 34950
" />
</g>
<g style="fill:#000000; fill-opacity:0.0; 
stroke:#000000; stroke-width:0; stroke-opacity:1; 
stroke-linecap:round; stroke-linejoin:round;">
</g>
<g style="fill:#000000; fill-opacity:1.0; 
stroke:#000000; stroke-width:0; stroke-opacity:1; 
stroke-linecap:round; stroke-linejoin:round;">
<polyline style="fill-rule:evenodd;"
points="78964,32134
78964,31465
78295,31465
78295,32134
78964,32134
" /> 
<polyline style="fill-rule:evenodd;"
points="73664,22234
73664,21565
72995,21565
72995,22234
73664,22234
" /> 
<polyline style="fill-rule:evenodd;"
points="80764,29534
80764,28865
80095,28865
80095,29534
80764,29534
" /> 
<polyline style="fill-rule:evenodd;"
points="70514,25834
70514,25165
69845,25165
69845,25834
70514,25834
" /> 
<polyline style="fill-rule:evenodd;"
points="70264,28434
70264,27765
69595,27765
69595,28434
70264,28434
" /> 
<polyline style="fill-rule:evenodd;"
points="68164,14434
68164,13765
67495,13765
67495,14434
68164,14434
" /> 
<polyline style="fill-rule:evenodd;"
points="65984,13845
65275,13845
65275,14554
65984,14554
65984,13845
" /> 
</g>
<g style="fill:#000000; fill-opacity:1.0; 
stroke:#000000; stroke-width:708.661; stroke-opacity:1; 
stroke-linecap:round; stroke-linejoin:round;">
</g>
<g style="fill:#000000; fill-opacity:0.0; 
stroke:#000000; stroke-width:708.661; stroke-opacity:1; 
stroke-linecap:round; stroke-linejoin:round;">
<path d="M65630 15200
L65630 15200
" />
<path d="M65630 16200
L65630 16200
" />
</g>
<g style="fill:#000000; fill-opacity:0.0; 
stroke:#000000; stroke-width:0; stroke-opacity:1; 
stroke-linecap:round; stroke-linejoin:round;">
</g>
<g style="fill:#000000; fill-opacity:1.0; 
stroke:#000000; stroke-width:0; stroke-opacity:1; 
stroke-linecap:round; stroke-linejoin:round;">
<polyline style="fill-rule:evenodd;"
points="69860,16622
69860,16977
70333,16977
70333,16622
69860,16622
" /> 
<polyline style="fill-rule:evenodd;"
points="70726,16622
70726,16977
71199,16977
71199,16622
70726,16622
" /> 
<polyline style="fill-rule:evenodd;"
points="67252,16969
67607,16969
67607,16496
67252,16496
67252,16969
" /> 
<polyline style="fill-rule:evenodd;"
points="67252,16103
67607,16103
67607,15630
67252,15630
67252,16103
" /> 
<polyline style="fill-rule:evenodd;"
points="66807,18030
66452,18030
66452,18503
66807,18503
66807,18030
" /> 
<polyline style="fill-rule:evenodd;"
points="66807,18896
66452,18896
66452,19369
66807,19369
66807,18896
" /> 
<circle cx="62530" cy="21200" r="472.441" /> 
</g>
<g style="fill:#000000; fill-opacity:1.0; 
stroke:#000000; stroke-width:39.3701; stroke-opacity:1; 
stroke-linecap:round; stroke-linejoin:round;">
</g>
<g style="fill:#000000; fill-opacity:1.0; 
stroke:#000000; stroke-width:944.882; stroke-opacity:1; 
stroke-linecap:round; stroke-linejoin:round;">
</g>
<g style="fill:#000000; fill-opacity:0.0; 
stroke:#000000; stroke-width:944.882; stroke-opacity:1; 
stroke-linecap:round; stroke-linejoin:round;">
<path d="M62530 31200
L62530 31200
" />
</g>
<g style="fill:#000000; fill-opacity:0.0; 
stroke:#000000; stroke-width:0; stroke-opacity:1; 
stroke-linecap:round; stroke-linejoin:round;">
</g>
<g style="fill:#000000; fill-opacity:1.0; 
stroke:#000000; stroke-width:0; stroke-opacity:1; 
stroke-linecap:round; stroke-linejoin:round;">
<polyline style="fill-rule:evenodd;"
points="74981,19872
74981,19695
74410,19695
74410,19872
74981,19872
" /> 
<polyline style="fill-rule:evenodd;"
points="74981,19616
74981,19439
74410,19439
74410,19616
74981,19616
" /> 
<polyline style="fill-rule:evenodd;"
points="74981,19360
74981,19183
74410,19183
74410,19360
74981,19360
" /> 
<polyline style="fill-rule:evenodd;"
points="74981,19104
74981,18927
74410,18927
74410,19104
74981,19104
" /> 
<polyline style="fill-rule:evenodd;"
points="73249,19104
73249,18927
72678,18927
72678,19104
73249,19104
" /> 
<polyline style="fill-rule:evenodd;"
points="73249,19360
73249,19183
72678,19183
72678,19360
73249,19360
" /> 
<polyline style="fill-rule:evenodd;"
points="73249,19616
73249,19439
72678,19439
72678,19616
73249,19616
" /> 
<polyline style="fill-rule:evenodd;"
points="73249,19872
73249,19695
72678,19695
72678,19872
73249,19872
" /> 
</g>
<g style="fill:#000000; fill-opacity:1.0; 
stroke:#000000; stroke-width:800; stroke-opacity:1; 
stroke-linecap:round; stroke-linejoin:round;">
</g>
<g style="fill:#000000; fill-opacity:0.0; 
stroke:#000000; stroke-width:800; stroke-opacity:1; 
stroke-linecap:round; stroke-linejoin:round;">
<path d="M75730 22600
L75730 22400
" />
<path d="M76730 22600
L76730 22400
" />
<path d="M74730 22600
L74730 22400
" />
<path d="M70430 14100
L70430 14300
" />
<path d="M69430 14100
L69430 14300
" />
<path d="M71430 14100
L71430 14300
" />
</g>
<g style="fill:#000000; fill-opacity:0.0; 
stroke:#000000; stroke-width:0; stroke-opacity:1; 
stroke-linecap:round; stroke-linejoin:round;">
</g>
<g style="fill:#000000; fill-opacity:1.0; 
stroke:#000000; stroke-width:0; stroke-opacity:1; 
stroke-linecap:round; stroke-linejoin:round;">
<polyline style="fill-rule:evenodd;"
points="70092,19462
70092,19305
69659,19305
69659,19462
70092,19462
" /> 
<polyline style="fill-rule:evenodd;"
points="70092,19206
70092,19049
69659,19049
69659,19206
70092,19206
" /> 
<polyline style="fill-rule:evenodd;"
points="70092,18950
70092,18793
69659,18793
69659,18950
70092,18950
" /> 
<polyline style="fill-rule:evenodd;"
points="70092,18694
70092,18537
69659,18537
69659,18694
70092,18694
" /> 
<polyline style="fill-rule:evenodd;"
points="68400,18694
68400,18537
67967,18537
67967,18694
68400,18694
" /> 
<polyline style="fill-rule:evenodd;"
points="68400,18950
68400,18793
67967,18793
67967,18950
68400,18950
" /> 
<polyline style="fill-rule:evenodd;"
points="68400,19206
68400,19049
67967,19049
67967,19206
68400,19206
" /> 
<polyline style="fill-rule:evenodd;"
points="68400,19462
68400,19305
67967,19305
67967,19462
68400,19462
" /> 
<polyline style="fill-rule:evenodd;"
points="70410,12822
70410,13177
70883,13177
70883,12822
70410,12822
" /> 
<polyline style="fill-rule:evenodd;"
points="71276,12822
71276,13177
71749,13177
71749,12822
71276,12822
" /> 
<polyline style="fill-rule:evenodd;"
points="68760,12822
68760,13177
69233,13177
69233,12822
68760,12822
" /> 
<polyline style="fill-rule:evenodd;"
points="69626,12822
69626,13177
70099,13177
70099,12822
69626,12822
" /> 
<polyline style="fill-rule:evenodd;"
points="65361,27018
65598,27018
65598,26407
65361,26407
65361,27018
" /> 
<polyline style="fill-rule:evenodd;"
points="65861,27018
66098,27018
66098,26407
65861,26407
65861,27018
" /> 
<polyline style="fill-rule:evenodd;"
points="66361,27018
66598,27018
66598,26407
66361,26407
66361,27018
" /> 
<polyline style="fill-rule:evenodd;"
points="66861,27018
67098,27018
67098,26407
66861,26407
66861,27018
" /> 
<polyline style="fill-rule:evenodd;"
points="66861,24892
67098,24892
67098,24281
66861,24281
66861,24892
" /> 
<polyline style="fill-rule:evenodd;"
points="66361,24892
66598,24892
66598,24281
66361,24281
66361,24892
" /> 
<polyline style="fill-rule:evenodd;"
points="65861,24892
66098,24892
66098,24281
65861,24281
65861,24892
" /> 
<polyline style="fill-rule:evenodd;"
points="65361,24892
65598,24892
65598,24281
65361,24281
65361,24892
" /> 
<circle cx="79330" cy="35450" r="393.701" /> 
</g>
<g style="fill:#000000; fill-opacity:1.0; 
stroke:#000000; stroke-width:39.3701; stroke-opacity:1; 
stroke-linecap:round; stroke-linejoin:round;">
</g>
<g style="fill:#000000; fill-opacity:1.0; 
stroke:#000000; stroke-width:0; stroke-opacity:1; 
stroke-linecap:round; stroke-linejoin:round;">
<circle cx="68680" cy="31800" r="393.701" /> 
</g>
<g style="fill:#000000; fill-opacity:1.0; 
stroke:#000000; stroke-width:39.3701; stroke-opacity:1; 
stroke-linecap:round; stroke-linejoin:round;">
</g>
<g style="fill:#000000; fill-opacity:1.0; 
stroke:#000000; stroke-width:0; stroke-opacity:1; 
stroke-linecap:round; stroke-linejoin:round;">
<circle cx="81030" cy="21300" r="393.701" /> 
</g>
<g style="fill:#000000; fill-opacity:1.0; 
stroke:#000000; stroke-width:39.3701; stroke-opacity:1; 
stroke-linecap:round; stroke-linejoin:round;">
</g>
<g style="fill:#000000; fill-opacity:1.0; 
stroke:#000000; stroke-width:0; stroke-opacity:1; 
stroke-linecap:round; stroke-linejoin:round;">
<circle cx="95630" cy="26150" r="393.701" /> 
</g>
<g style="fill:#000000; fill-opacity:1.0; 
stroke:#000000; stroke-width:39.3701; stroke-opacity:1; 
stroke-linecap:round; stroke-linejoin:round;">
</g>
<g style="fill:#000000; fill-opacity:1.0; 
stroke:#000000; stroke-width:0; stroke-opacity:1; 
stroke-linecap:round; stroke-linejoin:round;">
<circle cx="66230" cy="21900" r="393.701" /> 
</g>
<g style="fill:#000000; fill-opacity:1.0; 
stroke:#000000; stroke-width:39.3701; stroke-opacity:1; 
stroke-linecap:round; stroke-linejoin:round;">
</g>
<g style="fill:#000000; fill-opacity:1.0; 
stroke:#000000; stroke-width:0; stroke-opacity:1; 
stroke-linecap:round; stroke-linejoin:round;">
<circle cx="74480" cy="31150" r="393.701" /> 
</g>
<g style="fill:#000000; fill-opacity:1.0; 
stroke:#000000; stroke-width:39.3701; stroke-opacity:1; 
stroke-linecap:round; stroke-linejoin:round;">
</g>
<g style="fill:#000000; fill-opacity:1.0; 
stroke:#000000; stroke-width:157.48; stroke-opacity:1; 
stroke-linecap:round; stroke-linejoin:round;">
</g>
<g style="fill:#000000; fill-opacity:0.0; 
stroke:#000000; stroke-width:157.48; stroke-opacity:1; 
stroke-linecap:round; stroke-linejoin:round;">
<path d="M66480 26712
L66480 28700
" />
<path d="M67430 29650
L70830 29650
" />
<path d="M66480 28700
L67430 29650
" />
<path d="M66480 24587
L66480 26712
" />
<path d="M68980 24450
L69030 24450
" />
<path d="M69030 24450
L68980 24450
" />
<path d="M67555 21325
L67755 21325
" />
<path d="M68980 22550
L68980 24450
" />
<path d="M68980 24450
L68980 26200
" />
<path d="M70080 27300
L70580 27300
" />
<path d="M70580 27300
L70830 27550
" />
<path d="M70830 27550
L70830 29650
" />
<path d="M68980 26200
L70080 27300
" />
<path d="M67755 21325
L68980 22550
" />
<path d="M70830 29650
L70830 34150
" />
<path d="M70830 34150
L70380 34600
" />
<path d="M70380 34600
L70380 35300
" />
<path d="M70380 35300
L70980 35900
" />
<path d="M70980 35900
L78880 35900
" />
<path d="M78880 35900
L79330 35450
" />
<path d="M67555 21325
L65630 19400
" />
<path d="M67507 19127
L68183 19127
" />
<path d="M67080 18700
L67507 19127
" />
<path d="M66080 18700
L67080 18700
" />
<path d="M65630 19150
L66080 18700
" />
<path d="M65630 19400
L65630 19150
" />
<path d="M67555 21325
L67530 21300
" />
<path d="M65980 26712
L65980 31600
" />
<path d="M65980 31600
L66280 31900
" />
<path d="M65980 26712
L65980 24587
" />
<path d="M65680 17600
L68130 17600
" />
<path d="M72005 15225
L72855 15225
" />
<path d="M72855 15225
L75855 18225
" />
<path d="M80505 21825
L80505 20225
" />
<path d="M80505 20225
L78180 17900
" />
<path d="M78180 17900
L76180 17900
" />
<path d="M76180 17900
L75855 18225
" />
<path d="M75063 19016
L74696 19016
" />
<path d="M75855 18225
L75063 19016
" />
<path d="M67880 31900
L67480 31900
" />
<path d="M67480 31900
L66280 31900
" />
<path d="M66280 31900
L65980 31900
" />
<path d="M65430 32450
L65180 32450
" />
<path d="M65980 31900
L65430 32450
" />
<path d="M68680 31800
L68330 31900
" />
<path d="M68330 31900
L67880 31900
" />
<path d="M67880 31900
L67830 31900
" />
</g>
<g style="fill:#000000; fill-opacity:0.0; 
stroke:#000000; stroke-width:393.701; stroke-opacity:1; 
stroke-linecap:round; stroke-linejoin:round;">
<path d="M79930 26300
L79930 22400
" />
<path d="M79930 22400
L80505 21825
" />
<path d="M80505 21825
L81030 21300
" />
<path d="M94780 27000
L91130 27000
" />
<path d="M95630 26150
L94780 27000
" />
</g>
<g style="fill:#000000; fill-opacity:0.0; 
stroke:#000000; stroke-width:1181.1; stroke-opacity:1; 
stroke-linecap:round; stroke-linejoin:round;">
<path d="M93979 33260
L93979 31799
" />
<path d="M93979 31799
L91130 28950
" />
<path d="M91130 28950
L91130 27000
" />
<path d="M91130 27000
L91130 21700
" />
<path d="M99930 21700
L91130 21700
" />
<path d="M91130 21700
L90392 21700
" />
<path d="M90392 21700
L89680 20987
" />
</g>
<g style="fill:#000000; fill-opacity:0.0; 
stroke:#000000; stroke-width:157.48; stroke-opacity:1; 
stroke-linecap:round; stroke-linejoin:round;">
<path d="M71513 13000
L71530 13000
" />
<path d="M71530 13000
L72130 13600
" />
<path d="M72130 13600
L72130 15100
" />
<path d="M72130 15100
L72005 15225
" />
<path d="M72005 15225
L71730 15500
" />
<path d="M71730 15500
L71230 15500
" />
<path d="M69876 18616
L69876 17896
" />
<path d="M67830 17300
L68130 17600
" />
<path d="M67830 16400
L67830 17300
" />
<path d="M68030 16200
L67830 16400
" />
<path d="M68730 16200
L68030 16200
" />
<path d="M68880 16350
L68730 16200
" />
<path d="M68880 16900
L68880 16350
" />
<path d="M69876 17896
L68880 16900
" />
<path d="M70280 20600
L71030 20600
" />
<path d="M71030 20600
L71937 20600
" />
<path d="M68880 19200
L70280 20600
" />
<path d="M68880 18350
L68880 19200
" />
<path d="M68130 17600
L68880 18350
" />
<path d="M64730 20100
L64730 18550
" />
<path d="M64730 18550
L65680 17600
" />
<path d="M66780 21900
L66780 21650
" />
<path d="M66780 21650
L66780 21550
" />
<path d="M66780 21550
L65330 20100
" />
<path d="M65330 20100
L64730 20100
" />
<path d="M64730 20100
L62030 20100
" />
<path d="M62030 20100
L61330 20800
" />
<path d="M61330 20800
L61330 31700
" />
<path d="M61330 31700
L62080 32450
" />
<path d="M62080 32450
L64530 32450
" />
<path d="M64530 32450
L65180 32450
" />
<path d="M65180 32450
L65330 32450
" />
<path d="M66780 21900
L66230 21900
" />
<path d="M70230 15500
L70230 16100
" />
<path d="M72922 20857
L72922 20600
" />
<path d="M72480 21300
L72922 20857
" />
<path d="M72480 22550
L72480 21300
" />
<path d="M72780 22850
L72480 22550
" />
<path d="M73580 22850
L72780 22850
" />
<path d="M73930 22500
L73580 22850
" />
<path d="M73930 18600
L73930 22500
" />
<path d="M72780 17450
L73930 18600
" />
<path d="M70780 17450
L72780 17450
" />
<path d="M70530 17200
L70780 17450
" />
<path d="M70530 16400
L70530 17200
" />
<path d="M70230 16100
L70530 16400
" />
<path d="M70430 14200
L70430 14800
" />
<path d="M70230 15000
L70230 15500
" />
<path d="M70430 14800
L70230 15000
" />
<path d="M68996 13000
L68996 13166
" />
<path d="M68996 13166
L69280 13450
" />
<path d="M69280 13450
L70130 13450
" />
<path d="M70130 13450
L70430 13750
" />
<path d="M70430 13750
L70430 14200
" />
<path d="M72963 19783
L72963 20558
" />
<path d="M72963 20558
L72922 20600
" />
<path d="M70180 25500
L76980 25500
" />
<path d="M76980 19700
L76030 19700
" />
<path d="M78080 20800
L76980 19700
" />
<path d="M78080 24400
L78080 20800
" />
<path d="M76980 25500
L78080 24400
" />
<path d="M76030 19700
L75430 19700
" />
<path d="M75430 19700
L75257 19527
" />
<path d="M75257 19527
L74696 19527
" />
<path d="M70963 16800
L72480 16800
" />
<path d="M74630 20500
L75480 20500
" />
<path d="M74180 20050
L74630 20500
" />
<path d="M74180 18500
L74180 20050
" />
<path d="M72480 16800
L74180 18500
" />
<path d="M76030 20700
L75680 20700
" />
<path d="M75013 19783
L74696 19783
" />
<path d="M75180 19950
L75013 19783
" />
<path d="M75180 20200
L75180 19950
" />
<path d="M75680 20700
L75480 20500
" />
<path d="M75480 20500
L75180 20200
" />
<path d="M71330 19500
L70880 19500
" />
<path d="M70507 19127
L69876 19127
" />
<path d="M70880 19500
L70507 19127
" />
<path d="M72963 19527
L71357 19527
" />
<path d="M71357 19527
L71330 19500
" />
<path d="M69876 19127
L69407 19127
" />
<path d="M69407 19127
L69330 19050
" />
<path d="M69330 19050
L69330 18000
" />
<path d="M69330 18000
L68330 17000
" />
<path d="M68330 17000
L68330 16613
" />
<path d="M66980 24587
L66980 23850
" />
<path d="M69230 28100
L69930 28100
" />
<path d="M68630 27500
L69230 28100
" />
<path d="M68630 24600
L68630 27500
" />
<path d="M67680 23650
L68630 24600
" />
<path d="M67180 23650
L67680 23650
" />
<path d="M66980 23850
L67180 23650
" />
<path d="M72963 19016
L72596 19016
" />
<path d="M72080 18500
L71330 18500
" />
<path d="M72596 19016
L72080 18500
" />
<path d="M74696 19272
L75207 19272
" />
<path d="M76880 28750
L74480 31150
" />
<path d="M76880 26700
L76880 28750
" />
<path d="M78430 25150
L76880 26700
" />
<path d="M78430 19050
L78430 25150
" />
<path d="M77580 18200
L78430 19050
" />
<path d="M76280 18200
L77580 18200
" />
<path d="M75207 19272
L76280 18200
" />
<path d="M72963 19272
L73352 19272
" />
<path d="M73530 19450
L73530 21700
" />
<path d="M73352 19272
L73530 19450
" />
<path d="M73530 21700
L73330 21900
" />
</g>
<g style="fill:#000000; fill-opacity:0.0; 
stroke:#000000; stroke-width:393.701; stroke-opacity:1; 
stroke-linecap:round; stroke-linejoin:round;">
<path d="M87430 17700
L84230 17700
" />
<path d="M80930 14400
L78030 14400
" />
<path d="M84230 17700
L80930 14400
" />
</g>
<g style="fill:#000000; fill-opacity:0.0; 
stroke:#000000; stroke-width:1181.1; stroke-opacity:1; 
stroke-linecap:round; stroke-linejoin:round;">
<path d="M87680 33300
L86030 33300
" />
<path d="M88080 17050
L89680 17050
" />
<path d="M84780 20350
L87430 17700
" />
<path d="M87430 17700
L88080 17050
" />
<path d="M84780 32050
L84780 20350
" />
<path d="M86030 33300
L84780 32050
" />
<path d="M99930 17700
L90330 17700
" />
<path d="M90330 17700
L89680 17050
" />
</g>
<g style="fill:#000000; fill-opacity:0.0; 
stroke:#000000; stroke-width:157.48; stroke-opacity:1; 
stroke-linecap:round; stroke-linejoin:round;">
<path d="M67880 15350
L67880 14150
" />
<path d="M67880 14150
L67830 14100
" />
<path d="M68380 15350
L67880 15350
" />
<path d="M67880 15350
L67530 15350
" />
<path d="M67430 15450
L67430 15866
" />
<path d="M67530 15350
L67430 15450
" />
<path d="M69930 17250
L69730 17250
" />
<path d="M68330 15400
L68330 15786
" />
<path d="M68380 15350
L68330 15400
" />
<path d="M68680 15350
L68380 15350
" />
<path d="M69130 15800
L68680 15350
" />
<path d="M69130 16650
L69130 15800
" />
<path d="M69730 17250
L69130 16650
" />
<path d="M69876 18872
L70307 18872
" />
<path d="M69930 17300
L69930 17250
" />
<path d="M69930 17250
L69930 16966
" />
<path d="M70430 17800
L69930 17300
" />
<path d="M70430 18750
L70430 17800
" />
<path d="M70307 18872
L70430 18750
" />
<path d="M69930 16966
L70096 16800
" />
</g>
<g style="fill:#000000; fill-opacity:0.0; 
stroke:#000000; stroke-width:1181.1; stroke-opacity:1; 
stroke-linecap:round; stroke-linejoin:round;">
<path d="M89767 33300
L89767 31887
" />
<path d="M86530 30450
L86530 29300
" />
<path d="M87230 31150
L86530 30450
" />
<path d="M89030 31150
L87230 31150
" />
<path d="M89767 31887
L89030 31150
" />
<path d="M99930 32300
L98130 32300
" />
<path d="M91892 34562
L91892 33300
" />
<path d="M92680 35350
L91892 34562
" />
<path d="M95080 35350
L92680 35350
" />
<path d="M98130 32300
L95080 35350
" />
<path d="M99930 28300
L97080 28300
" />
<path d="M96080 29300
L95191 29300
" />
<path d="M97080 28300
L96080 29300
" />
</g>
<g style="fill:#000000; fill-opacity:0.0; 
stroke:#000000; stroke-width:157.48; stroke-opacity:1; 
stroke-linecap:round; stroke-linejoin:round;">
<path d="M62530 31200
L62530 26850
" />
<path d="M65067 26300
L65480 26712
" />
<path d="M63080 26300
L65067 26300
" />
<path d="M62530 26850
L63080 26300
" />
<path d="M62530 21200
L62530 25400
" />
<path d="M65092 24587
L65480 24587
" />
<path d="M64880 24800
L65092 24587
" />
<path d="M64880 25450
L64880 24800
" />
<path d="M64480 25850
L64880 25450
" />
<path d="M62980 25850
L64480 25850
" />
<path d="M62530 25400
L62980 25850
" />
<path d="M66630 19133
L66630 19550
" />
<path d="M72480 28700
L72480 34950
" />
<path d="M70580 26800
L72480 28700
" />
<path d="M70130 26800
L70580 26800
" />
<path d="M69530 26200
L70130 26800
" />
<path d="M69530 22450
L69530 26200
" />
<path d="M66630 19550
L69530 22450
" />
<path d="M67430 16733
L67430 17050
" />
<path d="M66330 17050
L65630 16350
" />
<path d="M67430 17050
L66330 17050
" />
<path d="M65630 16350
L65630 16200
" />
<path d="M68183 18872
L67702 18872
" />
<path d="M66730 17950
L66630 18050
" />
<path d="M66880 17950
L66730 17950
" />
<path d="M67130 18200
L66880 17950
" />
<path d="M67130 18300
L67130 18200
" />
<path d="M67702 18872
L67130 18300
" />
<path d="M66630 18050
L66630 18266
" />
<path d="M70646 13000
L70680 13000
" />
<path d="M70680 13000
L71430 13750
" />
<path d="M71430 13750
L71430 14200
" />
<path d="M70646 13000
L69863 13000
" />
</g>
<g style="fill:#000000; fill-opacity:1.0; 
stroke:#000000; stroke-width:100; stroke-opacity:1; 
stroke-linecap:round; stroke-linejoin:round;">
<polyline style="fill-rule:evenodd;"
points="60065,37114
101394,37114
101394,32564
101267,32564
101064,33056
100688,33433
100197,33637
99665,33637
99173,33434
98796,33058
98792,33046
98439,33046
95608,35878
95608,35878
95365,36039
95080,36096
92680,36096
92680,36096
92394,36039
92151,35878
91832,35558
79880,35558
79796,35761
79641,35915
79439,35999
79221,36000
79144,35968
79046,36066
78969,36117
78880,36135
70980,36135
70890,36117
70813,36066
70213,35466
70213,35466
70162,35389
70144,35300
70144,35152
67467,35152
67331,35321
66841,35543
66303,35560
65800,35369
65728,35321
65592,35152
66530,34215
67467,35152
70144,35152
70144,34600
70162,34510
70213,34433
70221,34426
67890,34426
67699,34929
67651,35001
67482,35137
66545,34200
66514,34200
65577,35137
65408,35001
65186,34511
65185,34464
63867,34464
63664,34956
63288,35333
62797,35537
62265,35537
61773,35334
61396,34958
61192,34467
61192,33935
61395,33443
61771,33066
62262,32862
62794,32862
63286,33065
63663,33441
63867,33932
63867,34464
65185,34464
65169,33973
65360,33470
65408,33398
65577,33262
66514,34200
66545,34200
67482,33262
67651,33398
67873,33888
67890,34426
70221,34426
70594,34052
70594,33247
67467,33247
66530,34184
65592,33247
65728,33078
66218,32856
66756,32839
67259,33030
67331,33078
67467,33247
70594,33247
70594,29885
67430,29885
67340,29867
67263,29816
66313,28866
66262,28789
66244,28700
66244,27123
66240,27117
66195,27163
66132,27189
66033,27189
65990,27146
65990,26723
65998,26723
65998,26702
65990,26702
65990,26279
66033,26236
66132,26236
66195,26262
66240,26307
66244,26300
66244,24997
66240,24991
66195,25037
66132,25063
66033,25063
65990,25020
65990,24597
65998,24597
65998,24576
65990,24576
65990,24153
65969,24153
65969,24576
65961,24576
65961,24597
65969,24597
65969,25020
65926,25063
65827,25063
65764,25037
65719,24992
65712,25003
65660,25038
65598,25051
65361,25051
65303,25040
65250,25006
65215,24954
65202,24892
65202,24822
65190,24822
65115,24897
65115,25450
65097,25539
65046,25616
64646,26016
64573,26064
65067,26064
65156,26082
65233,26133
65350,26250
65361,26248
65598,26248
65656,26259
65709,26293
65719,26308
65764,26262
65827,26236
65926,26236
65969,26279
65969,26702
65961,26702
65961,26723
65969,26723
65969,27146
65926,27189
65827,27189
65764,27163
65719,27117
65712,27129
65660,27164
65598,27177
65361,27177
65303,27166
65250,27132
65215,27080
65202,27018
65202,26767
64969,26535
63177,26535
62765,26947
62765,30605
62770,30606
62974,30743
63110,30947
63158,31187
63158,31212
63110,31452
62974,31656
62770,31793
62530,31841
62289,31793
62085,31656
61949,31452
61901,31212
61901,31187
61949,30947
62085,30743
62289,30606
62294,30605
62294,26850
62312,26760
62363,26683
62913,26133
62986,26085
62980,26085
62890,26067
62813,26016
62363,25566
62312,25489
62294,25400
62294,21783
62174,21733
61997,21556
61901,21325
61901,21075
61996,20844
62173,20667
62404,20571
62654,20571
62885,20666
63062,20843
63158,21074
63158,21324
63063,21555
62886,21732
62765,21783
62765,25302
63077,25614
64382,25614
64644,25352
64644,24800
64644,24800
64662,24710
64684,24676
64713,24633
64713,24633
64926,24420
65003,24369
65092,24351
65202,24351
65202,24281
65213,24223
65247,24170
65299,24135
65361,24122
65598,24122
65656,24133
65709,24167
65719,24182
65764,24136
65827,24110
65926,24110
65969,24153
65990,24153
66033,24110
66132,24110
66195,24136
66240,24182
66247,24170
66299,24135
66361,24122
66598,24122
66656,24133
66709,24167
66730,24198
66744,24174
66744,23850
66762,23760
66813,23683
66813,23683
67013,23483
67090,23432
67180,23414
67680,23414
67769,23432
67846,23483
68744,24382
68744,22647
67657,21560
67555,21560
67465,21542
67388,21491
65463,19566
65412,19489
65394,19400
65394,19150
65412,19060
65463,18983
65782,18664
63867,18664
63664,19156
63288,19533
62797,19737
62265,19737
61773,19534
61396,19158
61192,18667
61192,18135
61395,17643
61771,17266
62262,17062
62794,17062
63286,17265
63663,17641
63867,18132
63867,18664
65782,18664
65913,18533
65990,18482
66080,18464
66293,18464
66293,18030
66304,17972
66338,17919
66390,17883
66452,17871
66476,17871
66563,17783
66640,17732
66730,17714
66879,17714
66880,17714
66969,17732
67046,17783
67046,17783
67296,18033
67347,18110
67365,18200
67365,18202
67799,18637
67807,18637
67807,18537
67818,18479
67852,18426
67905,18390
67967,18378
68400,18378
68457,18388
68511,18423
68546,18475
68559,18537
68559,18694
68549,18745
68559,18793
68559,18950
68549,19001
68559,19049
68559,19206
68549,19257
68559,19305
68559,19462
68548,19520
68514,19573
68462,19609
68400,19621
67967,19621
67909,19611
67855,19576
67820,19524
67807,19462
67807,19362
67507,19362
67418,19345
67341,19294
66982,18935
66966,18935
66966,19369
66955,19427
66921,19480
66904,19492
69696,22283
69747,22360
69765,22450
69765,25031
69783,25018
69845,25005
70514,25005
70572,25016
70625,25051
70661,25103
70674,25165
70674,25264
76882,25264
77844,24302
77844,24168
77826,24181
77764,24194
77095,24194
77037,24183
76984,24148
76948,24096
76935,24034
76935,23789
76927,23789
76855,23973
76718,24115
76537,24194
76519,24197
76440,24162
76440,23710
76419,23710
76419,24162
76340,24197
76322,24194
76141,24115
76004,23973
75932,23789
75967,23710
76419,23710
76440,23710
76892,23710
76927,23789
76935,23789
76935,23610
76927,23610
76892,23689
76440,23689
76440,23237
76419,23237
76419,23689
75967,23689
75932,23610
76004,23426
76141,23284
76322,23205
76340,23202
76419,23237
76440,23237
76519,23202
76537,23205
76718,23284
76855,23426
76927,23610
76935,23610
76935,23365
76946,23307
76981,23254
77033,23218
77095,23205
77764,23205
77822,23216
77844,23231
77844,22387
77286,22387
77286,22612
77243,22825
77123,23006
76942,23126
76730,23169
76517,23126
76336,23006
76235,22854
76126,23011
75938,23131
75829,23162
75740,23128
75740,22510
75748,22510
75748,22489
75740,22489
75740,21871
75719,21871
75719,22489
75711,22489
75711,22510
75719,22510
75719,23128
75630,23162
75521,23131
75333,23011
75224,22854
75123,23006
74942,23126
74730,23169
74517,23126
74336,23006
74216,22825
74173,22612
74173,22387
74216,22174
74336,21993
74517,21873
74730,21830
74942,21873
75123,21993
75224,22145
75333,21988
75521,21868
75630,21837
75719,21871
75740,21871
75829,21837
75938,21868
76126,21988
76235,22145
76336,21993
76517,21873
76730,21830
76942,21873
77123,21993
77243,22174
77286,22387
77844,22387
77844,20897
76882,19935
76524,19935
76524,20034
76513,20092
76478,20145
76426,20181
76364,20194
75695,20194
75637,20183
75584,20148
75548,20096
75535,20034
75535,19935
75430,19935
75411,19931
75415,19950
75415,20102
75646,20333
75646,20333
75670,20357
75673,20352
75832,20246
76020,20209
76039,20209
76227,20246
76386,20352
76493,20512
76530,20700
76493,20887
76386,21047
76227,21153
76039,21190
76020,21190
75832,21153
75673,21047
75583,20912
75513,20866
75382,20735
74630,20735
74540,20717
74463,20666
74165,20367
74165,22500
74147,22589
74096,22666
73746,23016
73669,23067
73580,23085
72780,23085
72690,23067
72613,23016
72313,22716
72262,22639
72244,22550
72244,22549
72244,21300
72262,21210
72313,21133
72504,20943
72480,20908
72467,20846
72467,20653
72404,20653
72404,20880
72378,20943
72330,20991
72267,21017
71991,21017
71948,20974
71948,20610
71927,20610
71927,20974
71884,21017
71608,21017
71545,20991
71497,20943
71471,20880
71471,20653
71514,20610
71927,20610
71948,20610
72361,20610
72404,20653
72467,20653
72467,20353
72473,20319
72404,20319
72404,20546
72361,20589
71948,20589
71948,20225
71927,20225
71927,20589
71514,20589
71471,20546
71471,20319
71497,20256
71545,20208
71608,20182
71884,20182
71927,20225
71948,20225
71991,20182
72267,20182
72330,20208
72378,20256
72404,20319
72473,20319
72478,20296
72512,20242
72564,20207
72626,20194
72728,20194
72728,20031
72678,20031
72620,20020
72567,19986
72531,19934
72519,19872
72519,19762
71824,19762
71824,19834
71813,19892
71778,19945
71726,19981
71664,19994
70995,19994
70937,19983
70884,19948
70848,19896
70835,19834
70835,19726
70790,19717
70713,19666
70410,19362
70252,19362
70252,19462
70241,19520
70207,19573
70154,19609
70092,19621
69659,19621
69602,19611
69548,19576
69513,19524
69500,19462
69500,19362
69407,19362
69318,19345
69241,19294
69163,19216
69112,19139
69094,19050
69094,18097
68163,17166
68163,17166
68112,17089
68094,17000
68094,16919
68094,16919
68041,16885
68006,16832
67993,16770
67993,16496
67766,16496
67766,16969
67755,17027
67721,17080
67669,17116
67651,17119
67647,17139
67596,17216
67519,17267
67430,17285
66330,17285
66240,17267
66163,17216
65661,16714
65630,16720
65434,16681
65268,16571
65158,16405
65119,16210
65119,16189
65158,15994
65268,15828
65434,15718
65526,15700
65434,15681
65268,15571
65158,15405
65119,15210
65119,15189
65158,14994
65268,14828
65434,14718
65457,14713
65275,14713
65217,14702
65164,14668
65162,14664
63867,14664
63664,15156
63288,15533
62797,15737
62265,15737
61773,15534
61396,15158
61192,14667
61192,14135
61395,13643
61771,13266
62262,13062
62794,13062
63286,13265
63663,13641
63867,14132
63867,14664
65162,14664
65128,14616
65116,14554
65116,13845
65127,13787
65161,13734
65213,13698
65275,13686
65984,13686
66042,13697
66095,13731
66131,13783
66143,13845
66143,14554
66132,14612
66098,14665
66046,14701
65984,14713
65802,14713
65825,14718
65991,14828
66101,14994
66140,15189
66140,15210
66101,15405
65991,15571
65825,15681
65733,15700
65825,15718
65991,15828
66101,15994
66140,16189
66140,16210
66101,16405
66068,16455
66427,16814
67093,16814
67093,16496
67104,16438
67138,16385
67190,16350
67252,16337
67607,16337
67665,16348
67718,16382
67753,16434
67766,16496
67993,16496
67993,16455
68004,16397
68038,16344
68090,16309
68152,16296
68507,16296
68565,16307
68618,16341
68653,16393
68666,16455
68666,16770
68655,16828
68621,16881
68575,16913
69496,17833
69547,17910
69565,18000
69565,18391
69625,18366
69823,18366
69865,18408
69865,18605
69857,18605
69857,18626
69865,18626
69865,18633
69887,18633
69887,18626
69894,18626
69894,18605
69887,18605
69887,18408
69929,18366
70127,18366
70190,18392
70194,18397
70194,17897
69782,17485
69730,17485
69640,17467
69563,17416
68963,16816
68963,16816
68912,16739
68894,16650
68894,15897
68666,15668
68666,15944
68655,16002
68621,16055
68569,16090
68507,16103
68152,16103
68094,16092
68041,16058
68006,16006
67993,15944
67993,15629
68001,15585
67757,15585
67766,15630
67766,16103
67755,16161
67721,16214
67669,16249
67607,16262
67252,16262
67194,16251
67141,16217
67106,16165
67093,16103
67093,15630
67104,15572
67138,15519
67190,15483
67194,15483
67194,15450
67212,15360
67263,15283
67363,15183
67440,15132
67530,15114
67644,15114
67644,14594
67495,14594
67437,14583
67384,14548
67348,14496
67335,14434
67335,13765
67346,13707
67381,13654
67433,13618
67495,13605
68164,13605
68222,13616
68275,13651
68311,13703
68324,13765
68324,14434
68313,14492
68278,14545
68226,14581
68164,14594
68115,14594
68115,15114
68680,15114
68769,15132
68846,15183
69296,15633
69347,15710
69365,15800
69365,16552
69701,16888
69701,16622
69712,16564
69746,16511
69798,16476
69860,16463
70261,16463
70063,16266
70012,16189
69994,16100
69994,16099
69994,15994
69895,15994
69837,15983
69784,15948
69748,15896
69735,15834
69735,15165
69746,15107
69781,15054
69833,15018
69895,15005
69994,15005
69994,15000
70012,14910
70063,14833
70063,14833
70129,14768
70036,14706
69930,14546
69823,14706
69642,14826
69430,14869
69217,14826
69036,14706
68916,14525
68873,14312
68873,14087
68916,13874
69036,13693
69133,13629
69113,13616
68834,13336
68760,13336
68702,13325
68649,13291
68613,13239
68601,13177
68601,12822
68612,12764
68646,12711
68698,12676
68760,12663
69233,12663
69291,12674
69344,12708
69379,12760
69392,12822
69392,13177
69385,13214
69475,13214
69467,13177
69467,12822
69478,12764
69512,12711
69564,12676
69626,12663
70099,12663
70157,12674
70210,12708
70246,12760
70246,12764
70262,12764
70262,12764
70296,12711
70348,12676
70410,12663
70883,12663
70941,12674
70994,12708
71029,12760
71042,12822
71042,13030
71105,13093
71105,13053
71148,13010
71502,13010
71502,13305
71459,13348
71360,13348
71571,13558
71642,13573
71823,13693
71943,13874
71986,14087
71986,14312
71943,14525
71823,14706
71642,14826
71430,14869
71217,14826
71036,14706
70930,14546
70823,14706
70662,14813
70647,14889
70596,14966
70556,15005
70564,15005
70622,15016
70675,15051
70711,15103
70724,15165
70724,15834
70713,15892
70678,15945
70626,15981
70564,15994
70465,15994
70465,16002
70696,16233
70747,16310
70765,16400
70765,16463
71199,16463
71257,16474
71310,16508
71346,16560
71346,16564
72480,16564
72569,16582
72646,16633
74346,18333
74397,18410
74415,18500
74415,18756
74642,18756
74685,18799
74685,19005
74677,19005
74677,19024
74714,19024
74714,19005
74706,19005
74706,18799
74749,18756
75015,18756
75078,18782
75126,18830
75152,18893
75152,18962
75110,19005
75142,19005
76113,18033
76190,17982
76280,17964
77580,17964
77669,17982
77746,18033
78596,18883
78647,18960
78665,19050
78665,25150
78647,25239
78596,25316
77115,26797
77115,28750
77097,28839
77046,28916
74998,30964
75029,31040
75030,31258
74946,31461
74791,31615
74589,31699
74371,31700
74168,31616
74014,31461
73930,31259
73929,31041
74013,30838
74168,30684
74370,30600
74588,30599
74665,30631
76644,28652
76644,27700
75730,27700
75693,27887
75586,28047
75427,28153
75239,28190
75220,28190
75032,28153
74873,28047
74766,27887
74729,27700
74766,27512
74873,27352
75032,27246
75220,27209
75239,27209
75427,27246
75586,27352
75693,27512
75730,27700
76644,27700
76644,26700
76644,26700
76662,26610
76713,26533
76882,26365
75724,26365
75724,27034
75713,27092
75678,27145
75626,27181
75564,27194
74895,27194
74837,27183
74784,27148
74748,27096
74735,27034
74735,26365
74746,26307
74781,26254
74833,26218
74895,26205
75564,26205
75622,26216
75675,26251
75711,26303
75724,26365
76882,26365
78194,25052
78194,24617
77146,25666
77069,25717
76980,25735
76979,25735
70674,25735
70674,25834
70663,25892
70628,25945
70576,25981
70514,25994
69845,25994
69787,25983
69765,25968
69765,26102
70227,26564
70579,26564
70580,26564
70669,26582
70746,26633
72646,28533
72697,28610
72715,28700
72715,34518
72827,34593
72933,34752
72970,34940
72970,34959
72933,35147
72827,35306
72667,35413
72480,35450
72292,35413
72132,35306
72026,35147
71997,35003
71985,35003
71985,35318
71959,35381
71911,35429
71848,35455
71533,35455
71490,35413
71490,34960
71469,34960
71469,35413
71426,35455
71111,35455
71048,35429
71000,35381
70974,35318
70974,35003
71016,34960
71469,34960
71490,34960
71943,34960
71985,35003
71997,35003
71989,34959
71989,34940
72026,34752
72132,34593
72150,34581
71985,34581
71985,34896
71943,34939
71490,34939
71490,34486
71469,34486
71469,34939
71016,34939
70974,34896
70974,34581
71000,34518
71048,34470
71111,34444
71426,34444
71469,34486
71490,34486
71533,34444
71848,34444
71911,34470
71959,34518
71985,34581
72150,34581
72244,34518
72244,28797
71065,27617
71065,34150
71047,34239
70996,34316
70615,34697
70615,35202
71077,35664
78782,35664
78811,35635
78780,35559
78779,35341
78863,35138
79018,34984
79123,34940
77970,34940
77970,34959
77933,35147
77827,35306
77667,35413
77480,35450
77292,35413
77132,35306
77026,35147
76989,34959
76989,34940
76970,34940
76970,34959
76933,35147
76827,35306
76667,35413
76480,35450
76292,35413
76132,35306
76026,35147
75989,34959
75989,34940
75970,34940
75970,34959
75933,35147
75827,35306
75667,35413
75480,35450
75292,35413
75132,35306
75026,35147
74989,34959
74989,34940
74970,34940
74970,34959
74933,35147
74827,35306
74667,35413
74480,35450
74292,35413
74132,35306
74026,35147
73989,34959
73989,34940
73970,34940
73970,34959
73933,35147
73827,35306
73667,35413
73480,35450
73292,35413
73132,35306
73026,35147
72989,34959
72989,34940
73026,34752
73132,34593
73292,34486
73480,34449
73667,34486
73827,34593
73933,34752
73970,34940
73989,34940
74026,34752
74132,34593
74292,34486
74480,34449
74667,34486
74827,34593
74933,34752
74970,34940
74989,34940
75026,34752
75132,34593
75292,34486
75480,34449
75667,34486
75827,34593
75933,34752
75970,34940
75989,34940
76026,34752
76132,34593
76292,34486
76480,34449
76667,34486
76827,34593
76933,34752
76970,34940
76989,34940
77026,34752
77132,34593
77292,34486
77480,34449
77667,34486
77827,34593
77933,34752
77970,34940
79123,34940
79220,34900
79438,34899
79641,34983
79795,35138
79879,35340
79880,35558
91832,35558
91364,35091
91202,34848
91146,34562
91146,34562
91146,33300
91202,33014
91364,32771
91607,32610
91892,32553
92178,32610
92421,32771
92582,33014
92639,33300
92639,34253
92989,34603
94770,34603
95654,33719
94423,33719
94371,33817
94128,33925
93862,33931
93614,33835
93587,33817
93535,33719
93979,33275
94423,33719
95654,33719
95996,33377
94650,33377
94554,33625
94536,33652
94438,33704
93994,33260
93964,33260
93520,33704
93422,33652
93314,33409
93308,33143
93404,32895
93422,32868
93520,32816
93964,33260
93994,33260
94438,32816
94536,32868
94644,33111
94650,33377
95996,33377
96572,32801
94423,32801
93979,33245
93535,32801
93587,32703
93830,32595
94096,32589
94344,32685
94371,32703
94423,32801
96572,32801
97486,31887
90513,31887
90513,31887
90513,33300
90457,33585
90295,33828
90052,33989
89767,34046
89481,33989
89238,33828
89077,33585
89020,33300
89020,32196
88720,31896
87230,31896
87230,31896
86944,31839
86701,31678
86001,30978
86001,30978
85840,30735
85829,30684
85783,30450
85783,30449
85783,29775
85757,29758
85617,29548
85567,29300
85617,29051
85757,28841
85968,28700
86167,28661
86244,28610
86530,28553
86815,28610
86892,28661
87091,28700
87302,28841
87442,29051
87492,29300
87442,29548
87302,29758
87276,29775
87276,30140
87539,30403
89029,30403
89030,30403
89315,30460
89558,30621
89558,30621
90295,31358
90457,31601
90513,31887
97486,31887
97601,31771
97844,31610
98130,31553
98130,31553
98791,31553
98795,31543
99171,31166
99662,30962
100194,30962
100686,31165
101063,31541
101267,32032
101267,32564
101394,32564
101394,28564
101267,28564
101064,29056
100688,29433
100197,29637
99665,29637
99173,29434
98796,29058
98792,29046
97389,29046
96608,29828
96608,29828
96365,29989
96080,30046
95191,30046
94905,29989
94828,29938
94629,29899
94419,29758
94278,29548
94229,29300
94278,29051
94419,28841
94629,28700
94828,28661
94905,28610
95191,28553
95770,28553
96551,27771
96794,27610
97080,27553
97080,27553
98791,27553
98795,27543
99171,27166
99662,26962
100194,26962
100686,27165
101063,27541
101267,28032
101267,28564
101394,28564
101394,22652
100867,22652
100731,22821
100241,23043
99703,23060
99200,22869
99128,22821
98992,22652
99930,21715
100867,22652
101394,22652
101394,21926
101290,21926
101099,22429
101051,22501
100882,22637
99945,21700
99914,21700
98977,22637
98808,22501
98586,22011
98575,21655
90333,21655
90245,21783
89897,21939
89516,21950
89160,21814
89114,21783
89026,21655
89680,21002
90333,21655
98575,21655
98569,21473
98692,21150
90643,21150
90507,21506
90476,21552
90348,21640
89695,20987
89664,20987
89011,21640
88883,21552
88727,21204
88716,20823
88852,20467
88883,20421
89011,20333
89664,20987
89695,20987
90348,20333
90476,20421
90632,20769
90643,21150
98692,21150
98760,20970
98808,20898
98977,20762
99914,21700
99945,21700
100882,20762
101051,20898
101273,21388
101290,21926
101394,21926
101394,20747
100867,20747
99930,21684
98992,20747
99128,20578
99618,20356
100156,20339
100659,20530
100731,20578
100867,20747
101394,20747
101394,20318
90333,20318
89680,20971
89026,20318
89114,20190
89462,20034
89843,20023
90199,20159
90245,20190
90333,20318
101394,20318
101394,17964
101267,17964
101064,18456
100688,18833
100197,19037
99665,19037
99173,18834
98796,18458
98792,18446
90330,18446
90330,18446
90044,18389
89801,18228
89570,17996
88892,17996
88834,17985
88781,17951
88745,17899
88733,17837
88733,17796
88389,17796
87958,18228
87958,18228
85526,20659
85526,31740
86339,32553
87680,32553
87966,32610
88208,32771
88370,33014
88427,33300
88370,33585
88208,33828
87966,33989
87680,34046
86030,34046
86030,34046
85744,33989
85501,33828
84251,32578
84090,32335
84033,32050
84033,32049
84033,31465
79124,31465
79124,32134
79113,32192
79078,32245
79026,32281
78964,32294
78295,32294
78237,32283
78184,32248
78148,32196
78135,32134
78135,31465
78146,31407
78181,31354
78233,31318
78295,31305
78964,31305
79022,31316
79075,31351
79111,31403
79124,31465
84033,31465
84033,28865
80924,28865
80924,29534
80913,29592
80878,29645
80826,29681
80764,29694
80095,29694
80037,29683
79984,29648
79948,29596
79935,29534
79935,28865
79946,28807
79981,28754
80033,28718
80095,28705
80764,28705
80822,28716
80875,28751
80911,28803
80924,28865
84033,28865
84033,26965
80424,26965
80424,27634
80413,27692
80378,27745
80326,27781
80264,27794
79595,27794
79537,27783
79484,27748
79448,27696
79435,27634
79435,26965
79124,26965
79124,27634
79113,27692
79078,27745
79026,27781
78964,27794
78295,27794
78237,27783
78184,27748
78148,27696
78135,27634
78135,26965
78146,26907
78181,26854
78233,26818
78295,26805
78964,26805
79022,26816
79075,26851
79111,26903
79124,26965
79435,26965
79446,26907
79481,26854
79533,26818
79595,26805
80264,26805
80322,26816
80375,26851
80411,26903
80424,26965
84033,26965
84033,26389
80427,26389
80424,26407
80345,26588
80203,26725
80019,26797
79940,26762
79940,26310
79919,26310
79919,26762
79840,26797
79656,26725
79514,26588
79435,26407
79432,26389
79127,26389
79124,26407
79045,26588
78903,26725
78719,26797
78640,26762
78640,26310
78619,26310
78619,26762
78540,26797
78356,26725
78214,26588
78135,26407
78132,26389
78167,26310
78619,26310
78640,26310
79092,26310
79127,26389
79432,26389
79467,26310
79919,26310
79940,26310
80392,26310
80427,26389
84033,26389
84033,26210
80427,26210
80392,26289
79940,26289
79940,25837
79919,25837
79919,26289
79467,26289
79432,26210
79127,26210
79092,26289
78640,26289
78640,25837
78619,25837
78619,26289
78167,26289
78132,26210
78135,26192
78214,26011
78356,25874
78540,25802
78619,25837
78640,25837
78719,25802
78903,25874
79045,26011
79124,26192
79127,26210
79432,26210
79435,26192
79514,26011
79656,25874
79840,25802
79919,25837
79940,25837
80019,25802
80203,25874
80345,26011
80424,26192
80427,26210
84033,26210
84033,20350
84090,20064
84251,19821
84251,19821
86020,18053
84230,18053
84094,18026
83980,17949
81620,15589
71727,15589
71655,15773
71518,15915
71337,15994
71319,15997
71240,15962
71240,15510
71219,15510
71219,15962
71140,15997
71122,15994
70941,15915
70804,15773
70732,15589
70767,15510
71219,15510
71240,15510
71692,15510
71727,15589
81620,15589
81440,15410
71727,15410
71692,15489
71240,15489
71240,15037
71219,15037
71219,15489
70767,15489
70732,15410
70804,15226
70941,15084
71122,15005
71140,15002
71219,15037
71240,15037
71319,15002
71337,15005
71518,15084
71655,15226
71727,15410
81440,15410
80783,14753
78740,14753
78740,14951
78729,15009
78695,15062
78643,15097
78581,15110
77478,15110
77420,15099
77367,15065
77332,15013
77319,14951
77319,14400
73751,14400
73697,14670
73544,14900
73314,15053
73043,15107
73016,15107
72745,15053
72515,14900
72362,14670
72308,14400
72362,14129
72515,13899
72745,13746
73016,13692
73043,13692
73314,13746
73544,13899
73697,14129
73751,14400
77319,14400
77319,13848
77330,13790
77364,13737
77416,13702
77478,13689
78581,13689
78639,13700
78692,13734
78727,13786
78740,13848
78740,14046
80930,14046
81065,14073
81179,14150
84376,17346
86726,17346
86901,17171
86901,17171
87551,16521
87794,16360
88080,16303
88080,16303
88733,16303
88733,16262
88744,16204
88778,16151
88830,16115
88892,16103
90467,16103
90525,16114
90578,16148
90614,16200
90626,16262
90626,16940
90639,16953
98791,16953
98795,16943
99171,16566
99662,16362
100194,16362
100686,16565
101063,16941
101267,17432
101267,17964
101394,17964
101394,13053
71920,13053
71920,13211
71894,13274
71846,13322
71783,13348
71566,13348
71523,13305
71523,13010
71877,13010
71920,13053
101394,13053
101394,12788
71920,12788
71920,12946
71877,12989
71523,12989
71523,12694
71502,12694
71502,12989
71148,12989
71105,12946
71105,12788
71131,12725
71179,12677
71242,12651
71459,12651
71502,12694
71523,12694
71566,12651
71783,12651
71846,12677
71894,12725
71920,12788
101394,12788
101394,11285
60065,11285
60065,37114
" /> 
</g>
<g style="fill:#FFFFFF; fill-opacity:1.0; 
stroke:#FFFFFF; stroke-width:100; stroke-opacity:1; 
stroke-linecap:round; stroke-linejoin:round;">
</g>
<g style="fill:#FFFFFF; fill-opacity:1.0; 
stroke:#FFFFFF; stroke-width:0; stroke-opacity:1; 
stroke-linecap:round; stroke-linejoin:round;">
<circle cx="79330" cy="35450" r="68.8976" /> 
</g>
<g style="fill:#FFFFFF; fill-opacity:1.0; 
stroke:#FFFFFF; stroke-width:39.3701; stroke-opacity:1; 
stroke-linecap:round; stroke-linejoin:round;">
</g>
<g style="fill:#FFFFFF; fill-opacity:1.0; 
stroke:#FFFFFF; stroke-width:0; stroke-opacity:1; 
stroke-linecap:round; stroke-linejoin:round;">
<circle cx="68680" cy="31800" r="68.8976" /> 
</g>
<g style="fill:#FFFFFF; fill-opacity:1.0; 
stroke:#FFFFFF; stroke-width:39.3701; stroke-opacity:1; 
stroke-linecap:round; stroke-linejoin:round;">
</g>
<g style="fill:#FFFFFF; fill-opacity:1.0; 
stroke:#FFFFFF; stroke-width:0; stroke-opacity:1; 
stroke-linecap:round; stroke-linejoin:round;">
<circle cx="81030" cy="21300" r="68.8976" /> 
</g>
<g style="fill:#FFFFFF; fill-opacity:1.0; 
stroke:#FFFFFF; stroke-width:39.3701; stroke-opacity:1; 
stroke-linecap:round; stroke-linejoin:round;">
</g>
<g style="fill:#FFFFFF; fill-opacity:1.0; 
stroke:#FFFFFF; stroke-width:0; stroke-opacity:1; 
stroke-linecap:round; stroke-linejoin:round;">
<circle cx="95630" cy="26150" r="68.8976" /> 
</g>
<g style="fill:#FFFFFF; fill-opacity:1.0; 
stroke:#FFFFFF; stroke-width:39.3701; stroke-opacity:1; 
stroke-linecap:round; stroke-linejoin:round;">
</g>
<g style="fill:#FFFFFF; fill-opacity:1.0; 
stroke:#FFFFFF; stroke-width:0; stroke-opacity:1; 
stroke-linecap:round; stroke-linejoin:round;">
<circle cx="66230" cy="21900" r="68.8976" /> 
</g>
<g style="fill:#FFFFFF; fill-opacity:1.0; 
stroke:#FFFFFF; stroke-width:39.3701; stroke-opacity:1; 
stroke-linecap:round; stroke-linejoin:round;">
</g>
<g style="fill:#FFFFFF; fill-opacity:1.0; 
stroke:#FFFFFF; stroke-width:0; stroke-opacity:1; 
stroke-linecap:round; stroke-linejoin:round;">
<circle cx="74480" cy="31150" r="68.8976" /> 
</g>
<g style="fill:#FFFFFF; fill-opacity:1.0; 
stroke:#FFFFFF; stroke-width:39.3701; stroke-opacity:1; 
stroke-linecap:round; stroke-linejoin:round;">
</g>
<g style="fill:#FFFFFF; fill-opacity:1.0; 
stroke:#FFFFFF; stroke-width:0; stroke-opacity:1; 
stroke-linecap:round; stroke-linejoin:round;">
<circle cx="77430" cy="23700" r="68.8976" /> 
</g>
<g style="fill:#FFFFFF; fill-opacity:1.0; 
stroke:#FFFFFF; stroke-width:39.3701; stroke-opacity:1; 
stroke-linecap:round; stroke-linejoin:round;">
</g>
<g style="fill:#FFFFFF; fill-opacity:1.0; 
stroke:#FFFFFF; stroke-width:0; stroke-opacity:1; 
stroke-linecap:round; stroke-linejoin:round;">
<circle cx="76430" cy="23700" r="68.8976" /> 
</g>
<g style="fill:#FFFFFF; fill-opacity:1.0; 
stroke:#FFFFFF; stroke-width:39.3701; stroke-opacity:1; 
stroke-linecap:round; stroke-linejoin:round;">
</g>
<g style="fill:#FFFFFF; fill-opacity:1.0; 
stroke:#FFFFFF; stroke-width:0; stroke-opacity:1; 
stroke-linecap:round; stroke-linejoin:round;">
<circle cx="70230" cy="15500" r="68.8976" /> 
</g>
<g style="fill:#FFFFFF; fill-opacity:1.0; 
stroke:#FFFFFF; stroke-width:39.3701; stroke-opacity:1; 
stroke-linecap:round; stroke-linejoin:round;">
</g>
<g style="fill:#FFFFFF; fill-opacity:1.0; 
stroke:#FFFFFF; stroke-width:0; stroke-opacity:1; 
stroke-linecap:round; stroke-linejoin:round;">
<circle cx="71230" cy="15500" r="68.8976" /> 
</g>
<g style="fill:#FFFFFF; fill-opacity:1.0; 
stroke:#FFFFFF; stroke-width:39.3701; stroke-opacity:1; 
stroke-linecap:round; stroke-linejoin:round;">
</g>
<g style="fill:#FFFFFF; fill-opacity:1.0; 
stroke:#FFFFFF; stroke-width:0; stroke-opacity:1; 
stroke-linecap:round; stroke-linejoin:round;">
<circle cx="75230" cy="26700" r="68.8976" /> 
</g>
<g style="fill:#FFFFFF; fill-opacity:1.0; 
stroke:#FFFFFF; stroke-width:39.3701; stroke-opacity:1; 
stroke-linecap:round; stroke-linejoin:round;">
</g>
<g style="fill:#FFFFFF; fill-opacity:1.0; 
stroke:#FFFFFF; stroke-width:0; stroke-opacity:1; 
stroke-linecap:round; stroke-linejoin:round;">
<circle cx="75230" cy="27700" r="68.8976" /> 
</g>
<g style="fill:#FFFFFF; fill-opacity:1.0; 
stroke:#FFFFFF; stroke-width:39.3701; stroke-opacity:1; 
stroke-linecap:round; stroke-linejoin:round;">
</g>
<g style="fill:#FFFFFF; fill-opacity:1.0; 
stroke:#FFFFFF; stroke-width:0; stroke-opacity:1; 
stroke-linecap:round; stroke-linejoin:round;">
<circle cx="79930" cy="27300" r="68.8976" /> 
</g>
<g style="fill:#FFFFFF; fill-opacity:1.0; 
stroke:#FFFFFF; stroke-width:39.3701; stroke-opacity:1; 
stroke-linecap:round; stroke-linejoin:round;">
</g>
<g style="fill:#FFFFFF; fill-opacity:1.0; 
stroke:#FFFFFF; stroke-width:0; stroke-opacity:1; 
stroke-linecap:round; stroke-linejoin:round;">
<circle cx="79930" cy="26300" r="68.8976" /> 
</g>
<g style="fill:#FFFFFF; fill-opacity:1.0; 
stroke:#FFFFFF; stroke-width:39.3701; stroke-opacity:1; 
stroke-linecap:round; stroke-linejoin:round;">
</g>
<g style="fill:#FFFFFF; fill-opacity:1.0; 
stroke:#FFFFFF; stroke-width:0; stroke-opacity:1; 
stroke-linecap:round; stroke-linejoin:round;">
<circle cx="78630" cy="27300" r="68.8976" /> 
</g>
<g style="fill:#FFFFFF; fill-opacity:1.0; 
stroke:#FFFFFF; stroke-width:39.3701; stroke-opacity:1; 
stroke-linecap:round; stroke-linejoin:round;">
</g>
<g style="fill:#FFFFFF; fill-opacity:1.0; 
stroke:#FFFFFF; stroke-width:0; stroke-opacity:1; 
stroke-linecap:round; stroke-linejoin:round;">
<circle cx="78630" cy="26300" r="68.8976" /> 
</g>
<g style="fill:#FFFFFF; fill-opacity:1.0; 
stroke:#FFFFFF; stroke-width:39.3701; stroke-opacity:1; 
stroke-linecap:round; stroke-linejoin:round;">
</g>
<g style="fill:#FFFFFF; fill-opacity:1.0; 
stroke:#FFFFFF; stroke-width:0; stroke-opacity:1; 
stroke-linecap:round; stroke-linejoin:round;">
<circle cx="76030" cy="19700" r="68.8976" /> 
</g>
<g style="fill:#FFFFFF; fill-opacity:1.0; 
stroke:#FFFFFF; stroke-width:39.3701; stroke-opacity:1; 
stroke-linecap:round; stroke-linejoin:round;">
</g>
<g style="fill:#FFFFFF; fill-opacity:1.0; 
stroke:#FFFFFF; stroke-width:0; stroke-opacity:1; 
stroke-linecap:round; stroke-linejoin:round;">
<circle cx="76030" cy="20700" r="68.8976" /> 
</g>
<g style="fill:#FFFFFF; fill-opacity:1.0; 
stroke:#FFFFFF; stroke-width:39.3701; stroke-opacity:1; 
stroke-linecap:round; stroke-linejoin:round;">
</g>
<g style="fill:#FFFFFF; fill-opacity:1.0; 
stroke:#FFFFFF; stroke-width:0; stroke-opacity:1; 
stroke-linecap:round; stroke-linejoin:round;">
<circle cx="71330" cy="19500" r="68.8976" /> 
</g>
<g style="fill:#FFFFFF; fill-opacity:1.0; 
stroke:#FFFFFF; stroke-width:39.3701; stroke-opacity:1; 
stroke-linecap:round; stroke-linejoin:round;">
</g>
<g style="fill:#FFFFFF; fill-opacity:1.0; 
stroke:#FFFFFF; stroke-width:0; stroke-opacity:1; 
stroke-linecap:round; stroke-linejoin:round;">
<circle cx="71330" cy="18500" r="68.8976" /> 
</g>
<g style="fill:#FFFFFF; fill-opacity:1.0; 
stroke:#FFFFFF; stroke-width:39.3701; stroke-opacity:1; 
stroke-linecap:round; stroke-linejoin:round;">
</g>
<g style="fill:#FFFFFF; fill-opacity:1.0; 
stroke:#FFFFFF; stroke-width:0; stroke-opacity:1; 
stroke-linecap:round; stroke-linejoin:round;">
<circle cx="89680" cy="17050" r="68.8976" /> 
</g>
<g style="fill:#FFFFFF; fill-opacity:1.0; 
stroke:#FFFFFF; stroke-width:39.3701; stroke-opacity:1; 
stroke-linecap:round; stroke-linejoin:round;">
</g>
<g style="fill:#FFFFFF; fill-opacity:1.0; 
stroke:#FFFFFF; stroke-width:0; stroke-opacity:1; 
stroke-linecap:round; stroke-linejoin:round;">
<circle cx="89680" cy="20987" r="68.8976" /> 
</g>
<g style="fill:#FFFFFF; fill-opacity:1.0; 
stroke:#FFFFFF; stroke-width:39.3701; stroke-opacity:1; 
stroke-linecap:round; stroke-linejoin:round;">
</g>
<g style="fill:#FFFFFF; fill-opacity:1.0; 
stroke:#FFFFFF; stroke-width:0; stroke-opacity:1; 
stroke-linecap:round; stroke-linejoin:round;">
<circle cx="78030" cy="14400" r="68.8976" /> 
</g>
<g style="fill:#FFFFFF; fill-opacity:1.0; 
stroke:#FFFFFF; stroke-width:39.3701; stroke-opacity:1; 
stroke-linecap:round; stroke-linejoin:round;">
</g>
<g style="fill:#FFFFFF; fill-opacity:1.0; 
stroke:#FFFFFF; stroke-width:0; stroke-opacity:1; 
stroke-linecap:round; stroke-linejoin:round;">
<circle cx="73030" cy="14400" r="68.8976" /> 
</g>
<g style="fill:#FFFFFF; fill-opacity:1.0; 
stroke:#FFFFFF; stroke-width:39.3701; stroke-opacity:1; 
stroke-linecap:round; stroke-linejoin:round;">
</g>
<g style="fill:#FFFFFF; fill-opacity:1.0; 
stroke:#FFFFFF; stroke-width:0; stroke-opacity:1; 
stroke-linecap:round; stroke-linejoin:round;">
<circle cx="87680.4" cy="33300" r="68.8976" /> 
</g>
<g style="fill:#FFFFFF; fill-opacity:1.0; 
stroke:#FFFFFF; stroke-width:39.3701; stroke-opacity:1; 
stroke-linecap:round; stroke-linejoin:round;">
</g>
<g style="fill:#FFFFFF; fill-opacity:1.0; 
stroke:#FFFFFF; stroke-width:0; stroke-opacity:1; 
stroke-linecap:round; stroke-linejoin:round;">
<circle cx="89767" cy="33300" r="68.8976" /> 
</g>
<g style="fill:#FFFFFF; fill-opacity:1.0; 
stroke:#FFFFFF; stroke-width:39.3701; stroke-opacity:1; 
stroke-linecap:round; stroke-linejoin:round;">
</g>
<g style="fill:#FFFFFF; fill-opacity:1.0; 
stroke:#FFFFFF; stroke-width:0; stroke-opacity:1; 
stroke-linecap:round; stroke-linejoin:round;">
<circle cx="91893" cy="33300" r="68.8976" /> 
</g>
<g style="fill:#FFFFFF; fill-opacity:1.0; 
stroke:#FFFFFF; stroke-width:39.3701; stroke-opacity:1; 
stroke-linecap:round; stroke-linejoin:round;">
</g>
<g style="fill:#FFFFFF; fill-opacity:1.0; 
stroke:#FFFFFF; stroke-width:0; stroke-opacity:1; 
stroke-linecap:round; stroke-linejoin:round;">
<circle cx="93979.6" cy="33260.6" r="68.8976" /> 
</g>
<g style="fill:#FFFFFF; fill-opacity:1.0; 
stroke:#FFFFFF; stroke-width:39.3701; stroke-opacity:1; 
stroke-linecap:round; stroke-linejoin:round;">
</g>
<g style="fill:#FFFFFF; fill-opacity:1.0; 
stroke:#FFFFFF; stroke-width:0; stroke-opacity:1; 
stroke-linecap:round; stroke-linejoin:round;">
<circle cx="95191.4" cy="29300" r="68.8976" /> 
</g>
<g style="fill:#FFFFFF; fill-opacity:1.0; 
stroke:#FFFFFF; stroke-width:39.3701; stroke-opacity:1; 
stroke-linecap:round; stroke-linejoin:round;">
</g>
<g style="fill:#FFFFFF; fill-opacity:1.0; 
stroke:#FFFFFF; stroke-width:0; stroke-opacity:1; 
stroke-linecap:round; stroke-linejoin:round;">
<circle cx="86530" cy="29300" r="68.8976" /> 
</g>
<g style="fill:#FFFFFF; fill-opacity:1.0; 
stroke:#FFFFFF; stroke-width:39.3701; stroke-opacity:1; 
stroke-linecap:round; stroke-linejoin:round;">
</g>
<g style="fill:#FFFFFF; fill-opacity:1.0; 
stroke:#FFFFFF; stroke-width:0; stroke-opacity:1; 
stroke-linecap:round; stroke-linejoin:round;">
<circle cx="99930" cy="28300" r="68.8976" /> 
</g>
<g style="fill:#FFFFFF; fill-opacity:1.0; 
stroke:#FFFFFF; stroke-width:39.3701; stroke-opacity:1; 
stroke-linecap:round; stroke-linejoin:round;">
</g>
<g style="fill:#FFFFFF; fill-opacity:1.0; 
stroke:#FFFFFF; stroke-width:0; stroke-opacity:1; 
stroke-linecap:round; stroke-linejoin:round;">
<circle cx="99930" cy="32300" r="68.8976" /> 
</g>
<g style="fill:#FFFFFF; fill-opacity:1.0; 
stroke:#FFFFFF; stroke-width:39.3701; stroke-opacity:1; 
stroke-linecap:round; stroke-linejoin:round;">
</g>
<g style="fill:#FFFFFF; fill-opacity:1.0; 
stroke:#FFFFFF; stroke-width:0; stroke-opacity:1; 
stroke-linecap:round; stroke-linejoin:round;">
<circle cx="66530" cy="34200" r="68.8976" /> 
</g>
<g style="fill:#FFFFFF; fill-opacity:1.0; 
stroke:#FFFFFF; stroke-width:39.3701; stroke-opacity:1; 
stroke-linecap:round; stroke-linejoin:round;">
</g>
<g style="fill:#FFFFFF; fill-opacity:1.0; 
stroke:#FFFFFF; stroke-width:0; stroke-opacity:1; 
stroke-linecap:round; stroke-linejoin:round;">
<circle cx="62530" cy="34200" r="68.8976" /> 
</g>
<g style="fill:#FFFFFF; fill-opacity:1.0; 
stroke:#FFFFFF; stroke-width:39.3701; stroke-opacity:1; 
stroke-linecap:round; stroke-linejoin:round;">
</g>
<g style="fill:#FFFFFF; fill-opacity:1.0; 
stroke:#FFFFFF; stroke-width:0; stroke-opacity:1; 
stroke-linecap:round; stroke-linejoin:round;">
<circle cx="62530" cy="18400" r="68.8976" /> 
</g>
<g style="fill:#FFFFFF; fill-opacity:1.0; 
stroke:#FFFFFF; stroke-width:39.3701; stroke-opacity:1; 
stroke-linecap:round; stroke-linejoin:round;">
</g>
<g style="fill:#FFFFFF; fill-opacity:1.0; 
stroke:#FFFFFF; stroke-width:0; stroke-opacity:1; 
stroke-linecap:round; stroke-linejoin:round;">
<circle cx="62530" cy="14400" r="68.8976" /> 
</g>
<g style="fill:#FFFFFF; fill-opacity:1.0; 
stroke:#FFFFFF; stroke-width:39.3701; stroke-opacity:1; 
stroke-linecap:round; stroke-linejoin:round;">
</g>
<g style="fill:#FFFFFF; fill-opacity:1.0; 
stroke:#FFFFFF; stroke-width:0; stroke-opacity:1; 
stroke-linecap:round; stroke-linejoin:round;">
<circle cx="99930" cy="17700" r="68.8976" /> 
</g>
<g style="fill:#FFFFFF; fill-opacity:1.0; 
stroke:#FFFFFF; stroke-width:39.3701; stroke-opacity:1; 
stroke-linecap:round; stroke-linejoin:round;">
</g>
<g style="fill:#FFFFFF; fill-opacity:1.0; 
stroke:#FFFFFF; stroke-width:0; stroke-opacity:1; 
stroke-linecap:round; stroke-linejoin:round;">
<circle cx="99930" cy="21700" r="68.8976" /> 
</g>
<g style="fill:#FFFFFF; fill-opacity:1.0; 
stroke:#FFFFFF; stroke-width:39.3701; stroke-opacity:1; 
stroke-linecap:round; stroke-linejoin:round;">
</g>
<g style="fill:#FFFFFF; fill-opacity:1.0; 
stroke:#FFFFFF; stroke-width:0; stroke-opacity:1; 
stroke-linecap:round; stroke-linejoin:round;">
<circle cx="71480" cy="34950" r="68.8976" /> 
</g>
<g style="fill:#FFFFFF; fill-opacity:1.0; 
stroke:#FFFFFF; stroke-width:39.3701; stroke-opacity:1; 
stroke-linecap:round; stroke-linejoin:round;">
</g>
<g style="fill:#FFFFFF; fill-opacity:1.0; 
stroke:#FFFFFF; stroke-width:0; stroke-opacity:1; 
stroke-linecap:round; stroke-linejoin:round;">
<circle cx="72480" cy="34950" r="68.8976" /> 
</g>
<g style="fill:#FFFFFF; fill-opacity:1.0; 
stroke:#FFFFFF; stroke-width:39.3701; stroke-opacity:1; 
stroke-linecap:round; stroke-linejoin:round;">
</g>
<g style="fill:#FFFFFF; fill-opacity:1.0; 
stroke:#FFFFFF; stroke-width:0; stroke-opacity:1; 
stroke-linecap:round; stroke-linejoin:round;">
<circle cx="73480" cy="34950" r="68.8976" /> 
</g>
<g style="fill:#FFFFFF; fill-opacity:1.0; 
stroke:#FFFFFF; stroke-width:39.3701; stroke-opacity:1; 
stroke-linecap:round; stroke-linejoin:round;">
</g>
<g style="fill:#FFFFFF; fill-opacity:1.0; 
stroke:#FFFFFF; stroke-width:0; stroke-opacity:1; 
stroke-linecap:round; stroke-linejoin:round;">
<circle cx="74480" cy="34950" r="68.8976" /> 
</g>
<g style="fill:#FFFFFF; fill-opacity:1.0; 
stroke:#FFFFFF; stroke-width:39.3701; stroke-opacity:1; 
stroke-linecap:round; stroke-linejoin:round;">
</g>
<g style="fill:#FFFFFF; fill-opacity:1.0; 
stroke:#FFFFFF; stroke-width:0; stroke-opacity:1; 
stroke-linecap:round; stroke-linejoin:round;">
<circle cx="75480" cy="34950" r="68.8976" /> 
</g>
<g style="fill:#FFFFFF; fill-opacity:1.0; 
stroke:#FFFFFF; stroke-width:39.3701; stroke-opacity:1; 
stroke-linecap:round; stroke-linejoin:round;">
</g>
<g style="fill:#FFFFFF; fill-opacity:1.0; 
stroke:#FFFFFF; stroke-width:0; stroke-opacity:1; 
stroke-linecap:round; stroke-linejoin:round;">
<circle cx="76480" cy="34950" r="68.8976" /> 
</g>
<g style="fill:#FFFFFF; fill-opacity:1.0; 
stroke:#FFFFFF; stroke-width:39.3701; stroke-opacity:1; 
stroke-linecap:round; stroke-linejoin:round;">
</g>
<g style="fill:#FFFFFF; fill-opacity:1.0; 
stroke:#FFFFFF; stroke-width:0; stroke-opacity:1; 
stroke-linecap:round; stroke-linejoin:round;">
<circle cx="77480" cy="34950" r="68.8976" /> 
</g>
<g style="fill:#FFFFFF; fill-opacity:1.0; 
stroke:#FFFFFF; stroke-width:39.3701; stroke-opacity:1; 
stroke-linecap:round; stroke-linejoin:round;">
</g>
<g style="fill:#FFFFFF; fill-opacity:1.0; 
stroke:#FFFFFF; stroke-width:0; stroke-opacity:1; 
stroke-linecap:round; stroke-linejoin:round;">
<circle cx="78630" cy="31800" r="68.8976" /> 
</g>
<g style="fill:#FFFFFF; fill-opacity:1.0; 
stroke:#FFFFFF; stroke-width:39.3701; stroke-opacity:1; 
stroke-linecap:round; stroke-linejoin:round;">
</g>
<g style="fill:#FFFFFF; fill-opacity:1.0; 
stroke:#FFFFFF; stroke-width:0; stroke-opacity:1; 
stroke-linecap:round; stroke-linejoin:round;">
<circle cx="73330" cy="21900" r="68.8976" /> 
</g>
<g style="fill:#FFFFFF; fill-opacity:1.0; 
stroke:#FFFFFF; stroke-width:39.3701; stroke-opacity:1; 
stroke-linecap:round; stroke-linejoin:round;">
</g>
<g style="fill:#FFFFFF; fill-opacity:1.0; 
stroke:#FFFFFF; stroke-width:0; stroke-opacity:1; 
stroke-linecap:round; stroke-linejoin:round;">
<circle cx="80430" cy="29200" r="68.8976" /> 
</g>
<g style="fill:#FFFFFF; fill-opacity:1.0; 
stroke:#FFFFFF; stroke-width:39.3701; stroke-opacity:1; 
stroke-linecap:round; stroke-linejoin:round;">
</g>
<g style="fill:#FFFFFF; fill-opacity:1.0; 
stroke:#FFFFFF; stroke-width:0; stroke-opacity:1; 
stroke-linecap:round; stroke-linejoin:round;">
<circle cx="70180" cy="25500" r="68.8976" /> 
</g>
<g style="fill:#FFFFFF; fill-opacity:1.0; 
stroke:#FFFFFF; stroke-width:39.3701; stroke-opacity:1; 
stroke-linecap:round; stroke-linejoin:round;">
</g>
<g style="fill:#FFFFFF; fill-opacity:1.0; 
stroke:#FFFFFF; stroke-width:0; stroke-opacity:1; 
stroke-linecap:round; stroke-linejoin:round;">
<circle cx="69930" cy="28100" r="68.8976" /> 
</g>
<g style="fill:#FFFFFF; fill-opacity:1.0; 
stroke:#FFFFFF; stroke-width:39.3701; stroke-opacity:1; 
stroke-linecap:round; stroke-linejoin:round;">
</g>
<g style="fill:#FFFFFF; fill-opacity:1.0; 
stroke:#FFFFFF; stroke-width:0; stroke-opacity:1; 
stroke-linecap:round; stroke-linejoin:round;">
<circle cx="67830" cy="14100" r="68.8976" /> 
</g>
<g style="fill:#FFFFFF; fill-opacity:1.0; 
stroke:#FFFFFF; stroke-width:39.3701; stroke-opacity:1; 
stroke-linecap:round; stroke-linejoin:round;">
</g>
<g style="fill:#FFFFFF; fill-opacity:1.0; 
stroke:#FFFFFF; stroke-width:0; stroke-opacity:1; 
stroke-linecap:round; stroke-linejoin:round;">
<circle cx="65630" cy="14200" r="68.8976" /> 
</g>
<g style="fill:#FFFFFF; fill-opacity:1.0; 
stroke:#FFFFFF; stroke-width:39.3701; stroke-opacity:1; 
stroke-linecap:round; stroke-linejoin:round;">
</g>
<g style="fill:#FFFFFF; fill-opacity:1.0; 
stroke:#FFFFFF; stroke-width:0; stroke-opacity:1; 
stroke-linecap:round; stroke-linejoin:round;">
<circle cx="65630" cy="15200" r="68.8976" /> 
</g>
<g style="fill:#FFFFFF; fill-opacity:1.0; 
stroke:#FFFFFF; stroke-width:39.3701; stroke-opacity:1; 
stroke-linecap:round; stroke-linejoin:round;">
</g>
<g style="fill:#FFFFFF; fill-opacity:1.0; 
stroke:#FFFFFF; stroke-width:0; stroke-opacity:1; 
stroke-linecap:round; stroke-linejoin:round;">
<circle cx="65630" cy="16200" r="68.8976" /> 
</g>
<g style="fill:#FFFFFF; fill-opacity:1.0; 
stroke:#FFFFFF; stroke-width:39.3701; stroke-opacity:1; 
stroke-linecap:round; stroke-linejoin:round;">
</g>
<g style="fill:#FFFFFF; fill-opacity:1.0; 
stroke:#FFFFFF; stroke-width:0; stroke-opacity:1; 
stroke-linecap:round; stroke-linejoin:round;">
<circle cx="62530" cy="21200" r="68.8976" /> 
</g>
<g style="fill:#FFFFFF; fill-opacity:1.0; 
stroke:#FFFFFF; stroke-width:39.3701; stroke-opacity:1; 
stroke-linecap:round; stroke-linejoin:round;">
</g>
<g style="fill:#FFFFFF; fill-opacity:1.0; 
stroke:#FFFFFF; stroke-width:0; stroke-opacity:1; 
stroke-linecap:round; stroke-linejoin:round;">
<circle cx="62530" cy="31200" r="68.8976" /> 
</g>
<g style="fill:#FFFFFF; fill-opacity:1.0; 
stroke:#FFFFFF; stroke-width:39.3701; stroke-opacity:1; 
stroke-linecap:round; stroke-linejoin:round;">
</g>
<g style="fill:#FFFFFF; fill-opacity:1.0; 
stroke:#FFFFFF; stroke-width:0; stroke-opacity:1; 
stroke-linecap:round; stroke-linejoin:round;">
<circle cx="75730" cy="22500" r="68.8976" /> 
</g>
<g style="fill:#FFFFFF; fill-opacity:1.0; 
stroke:#FFFFFF; stroke-width:39.3701; stroke-opacity:1; 
stroke-linecap:round; stroke-linejoin:round;">
</g>
<g style="fill:#FFFFFF; fill-opacity:1.0; 
stroke:#FFFFFF; stroke-width:0; stroke-opacity:1; 
stroke-linecap:round; stroke-linejoin:round;">
<circle cx="76730" cy="22500" r="68.8976" /> 
</g>
<g style="fill:#FFFFFF; fill-opacity:1.0; 
stroke:#FFFFFF; stroke-width:39.3701; stroke-opacity:1; 
stroke-linecap:round; stroke-linejoin:round;">
</g>
<g style="fill:#FFFFFF; fill-opacity:1.0; 
stroke:#FFFFFF; stroke-width:0; stroke-opacity:1; 
stroke-linecap:round; stroke-linejoin:round;">
<circle cx="74730" cy="22500" r="68.8976" /> 
</g>
<g style="fill:#FFFFFF; fill-opacity:1.0; 
stroke:#FFFFFF; stroke-width:39.3701; stroke-opacity:1; 
stroke-linecap:round; stroke-linejoin:round;">
</g>
<g style="fill:#FFFFFF; fill-opacity:1.0; 
stroke:#FFFFFF; stroke-width:0; stroke-opacity:1; 
stroke-linecap:round; stroke-linejoin:round;">
<circle cx="70430" cy="14200" r="68.8976" /> 
</g>
<g style="fill:#FFFFFF; fill-opacity:1.0; 
stroke:#FFFFFF; stroke-width:39.3701; stroke-opacity:1; 
stroke-linecap:round; stroke-linejoin:round;">
</g>
<g style="fill:#FFFFFF; fill-opacity:1.0; 
stroke:#FFFFFF; stroke-width:0; stroke-opacity:1; 
stroke-linecap:round; stroke-linejoin:round;">
<circle cx="69430" cy="14200" r="68.8976" /> 
</g>
<g style="fill:#FFFFFF; fill-opacity:1.0; 
stroke:#FFFFFF; stroke-width:39.3701; stroke-opacity:1; 
stroke-linecap:round; stroke-linejoin:round;">
</g>
<g style="fill:#FFFFFF; fill-opacity:1.0; 
stroke:#FFFFFF; stroke-width:0; stroke-opacity:1; 
stroke-linecap:round; stroke-linejoin:round;">
<circle cx="71430" cy="14200" r="68.8976" /> 
</g>
<g style="fill:#FFFFFF; fill-opacity:1.0; 
stroke:#FFFFFF; stroke-width:39.3701; stroke-opacity:1; 
stroke-linecap:round; stroke-linejoin:round;">
</g>
<g style="fill:#000000; fill-opacity:1.0; 
stroke:#000000; stroke-width:39.3701; stroke-opacity:1; 
stroke-linecap:round; stroke-linejoin:round;">
</g> 
</svg>
