<?xml version="1.0" standalone="no"?>
 <!DOCTYPE svg PUBLIC "-//W3C//DTD SVG 1.1//EN" 
 "http://www.w3.org/Graphics/SVG/1.1/DTD/svg11.dtd"> 
<svg xmlns="http://www.w3.org/2000/svg" version="1.1" 
    width="29.7002cm" height="21.0007cm" viewBox="0 0 116930 82680 ">
<title>SVG Picture created as pcb_1-F.SilkS.svg date 2019/10/28 14:43:04 </title>
  <desc>Picture generated by PCBNEW </desc>
<g style="fill:#000000; fill-opacity:1;stroke:#000000; stroke-opacity:1;
stroke-linecap:round; stroke-linejoin:round; "
 transform="translate(0 0) scale(1 1)">
</g>
<g style="fill:#000000; fill-opacity:0.0; 
stroke:#000000; stroke-width:-0.000393701; stroke-opacity:1; 
stroke-linecap:round; stroke-linejoin:round;">
</g>
<g style="fill:#000000; fill-opacity:0.0; 
stroke:#000000; stroke-width:47.2441; stroke-opacity:1; 
stroke-linecap:round; stroke-linejoin:round;">
<path d="M75906 24223
L75906 23176
" />
<path d="M76930 24223
L75906 24223
" />
<path d="M76930 23176
L75906 23176
" />
<path d="M76930 24223
L76930 23176
" />
<path d="M77430 24223
L77953 24223
" />
<path d="M77953 24223
L77953 23700
" />
<path d="M71753 14976
L71753 16023
" />
<path d="M70730 14976
L71753 14976
" />
<path d="M70730 16023
L71753 16023
" />
<path d="M70730 14976
L70730 16023
" />
<path d="M70230 14976
L69706 14976
" />
<path d="M69706 14976
L69706 15500
" />
<path d="M75753 28223
L74706 28223
" />
<path d="M75753 27200
L75753 28223
" />
<path d="M74706 27200
L74706 28223
" />
<path d="M75753 27200
L74706 27200
" />
<path d="M75753 26700
L75753 26176
" />
<path d="M75753 26176
L75230 26176
" />
<path d="M79406 25776
L80453 25776
" />
<path d="M79406 26800
L79406 25776
" />
<path d="M80453 26800
L80453 25776
" />
<path d="M79406 26800
L80453 26800
" />
<path d="M79406 27300
L79406 27823
" />
<path d="M79406 27823
L79930 27823
" />
<path d="M78106 25776
L79153 25776
" />
<path d="M78106 26800
L78106 25776
" />
<path d="M79153 26800
L79153 25776
" />
<path d="M78106 26800
L79153 26800
" />
<path d="M78106 27300
L78106 27823
" />
<path d="M78106 27823
L78630 27823
" />
<path d="M76553 21223
L75506 21223
" />
<path d="M76553 20200
L76553 21223
" />
<path d="M75506 20200
L75506 21223
" />
<path d="M76553 20200
L75506 20200
" />
<path d="M76553 19700
L76553 19176
" />
<path d="M76553 19176
L76030 19176
" />
<path d="M70806 17976
L71853 17976
" />
<path d="M70806 19000
L70806 17976
" />
<path d="M71853 19000
L71853 17976
" />
<path d="M70806 19000
L71853 19000
" />
<path d="M70806 19500
L70806 20023
" />
<path d="M70806 20023
L71330 20023
" />
<path d="M77126 25134
L76733 25134
" />
<path d="M76733 24465
L77126 24465
" />
<path d="M78326 30534
L77933 30534
" />
<path d="M77933 29865
L78326 29865
" />
<path d="M74633 29865
L75026 29865
" />
<path d="M75026 30534
L74633 30534
" />
<path d="M77526 29634
L77133 29634
" />
<path d="M77133 28965
L77526 28965
" />
<circle cx="89680" cy="19018.5" r="6925.2" /> 
<path d="M82770 19018
L96589 19018
" />
<path d="M82770 19034
L96589 19034
" />
<path d="M82770 19050
L96589 19050
" />
<path d="M82770 19065
L96589 19065
" />
<path d="M82770 19081
L96589 19081
" />
<path d="M82770 19097
L96589 19097
" />
<path d="M82770 19112
L96589 19112
" />
<path d="M82771 19128
L96588 19128
" />
<path d="M82771 19144
L96588 19144
" />
<path d="M82771 19160
L96588 19160
" />
<path d="M82772 19175
L96587 19175
" />
<path d="M82772 19191
L96587 19191
" />
<path d="M82772 19207
L96587 19207
" />
<path d="M82773 19223
L96586 19223
" />
<path d="M82773 19238
L96586 19238
" />
<path d="M82774 19254
L96585 19254
" />
<path d="M82774 19270
L96585 19270
" />
<path d="M82775 19286
L96584 19286
" />
<path d="M82776 19302
L96583 19302
" />
<path d="M82776 19318
L96583 19318
" />
<path d="M82777 19333
L96582 19333
" />
<path d="M82778 19349
L96581 19349
" />
<path d="M82779 19365
L96580 19365
" />
<path d="M82780 19381
L96580 19381
" />
<path d="M82780 19396
L96579 19396
" />
<path d="M82781 19412
L96578 19412
" />
<path d="M82782 19428
L96577 19428
" />
<path d="M82783 19444
L96576 19444
" />
<path d="M82784 19459
L96575 19459
" />
<path d="M82785 19475
L96574 19475
" />
<path d="M82786 19491
L96573 19491
" />
<path d="M82787 19507
L96572 19507
" />
<path d="M82788 19522
L96571 19522
" />
<path d="M82789 19538
L96570 19538
" />
<path d="M82791 19554
L96568 19554
" />
<path d="M82792 19570
L96567 19570
" />
<path d="M82793 19585
L96566 19585
" />
<path d="M82794 19601
L96565 19601
" />
<path d="M82796 19617
L96563 19617
" />
<path d="M82797 19633
L96562 19633
" />
<path d="M82798 19648
L96561 19648
" />
<path d="M82800 19664
L96559 19664
" />
<path d="M82802 19680
L96557 19680
" />
<path d="M82803 19696
L96556 19696
" />
<path d="M82805 19711
L96554 19711
" />
<path d="M82806 19727
L96553 19727
" />
<path d="M82808 19743
L96551 19743
" />
<path d="M82809 19759
L96550 19759
" />
<path d="M82811 19774
L96548 19774
" />
<path d="M82813 19790
L96546 19790
" />
<path d="M82815 19806
L96544 19806
" />
<path d="M82817 19822
L96542 19822
" />
<path d="M82818 19837
L96541 19837
" />
<path d="M82820 19853
L96539 19853
" />
<path d="M82822 19869
L96537 19869
" />
<path d="M82824 19885
L96535 19885
" />
<path d="M82826 19900
L96533 19900
" />
<path d="M82828 19916
L96531 19916
" />
<path d="M82830 19932
L96529 19932
" />
<path d="M82833 19948
L96526 19948
" />
<path d="M82835 19963
L96524 19963
" />
<path d="M82837 19979
L96522 19979
" />
<path d="M82839 19995
L96520 19995
" />
<path d="M82841 20011
L96518 20011
" />
<path d="M82844 20026
L96515 20026
" />
<path d="M82846 20042
L96513 20042
" />
<path d="M82848 20058
L96511 20058
" />
<path d="M82851 20074
L96508 20074
" />
<path d="M82853 20089
L96506 20089
" />
<path d="M82855 20105
L96504 20105
" />
<path d="M82858 20121
L96501 20121
" />
<path d="M82861 20137
L88821 20137
" />
<path d="M90538 20137
L96498 20137
" />
<path d="M82863 20152
L88821 20152
" />
<path d="M90538 20152
L96496 20152
" />
<path d="M82866 20168
L88821 20168
" />
<path d="M90538 20168
L96493 20168
" />
<path d="M82868 20184
L88821 20184
" />
<path d="M90538 20184
L96491 20184
" />
<path d="M82871 20200
L88821 20200
" />
<path d="M90538 20200
L96488 20200
" />
<path d="M82874 20215
L88821 20215
" />
<path d="M90538 20215
L96485 20215
" />
<path d="M82877 20231
L88821 20231
" />
<path d="M90538 20231
L96482 20231
" />
<path d="M82880 20247
L88821 20247
" />
<path d="M90538 20247
L96480 20247
" />
<path d="M82883 20262
L88821 20262
" />
<path d="M90538 20262
L96476 20262
" />
<path d="M82885 20278
L88821 20278
" />
<path d="M90538 20278
L96474 20278
" />
<path d="M82888 20294
L88821 20294
" />
<path d="M90538 20294
L96471 20294
" />
<path d="M82891 20310
L88821 20310
" />
<path d="M90538 20310
L96468 20310
" />
<path d="M82894 20325
L88821 20325
" />
<path d="M90538 20325
L96465 20325
" />
<path d="M82897 20341
L88821 20341
" />
<path d="M90538 20341
L96462 20341
" />
<path d="M82900 20357
L88821 20357
" />
<path d="M90538 20357
L96459 20357
" />
<path d="M82904 20373
L88821 20373
" />
<path d="M90538 20373
L96455 20373
" />
<path d="M82907 20388
L88821 20388
" />
<path d="M90538 20388
L96452 20388
" />
<path d="M82910 20404
L88821 20404
" />
<path d="M90538 20404
L96449 20404
" />
<path d="M82913 20420
L88821 20420
" />
<path d="M90538 20420
L96446 20420
" />
<path d="M82917 20436
L88821 20436
" />
<path d="M90538 20436
L96442 20436
" />
<path d="M82920 20451
L88821 20451
" />
<path d="M90538 20451
L96439 20451
" />
<path d="M82923 20467
L88821 20467
" />
<path d="M90538 20467
L96436 20467
" />
<path d="M82926 20483
L88821 20483
" />
<path d="M90538 20483
L96433 20483
" />
<path d="M82930 20499
L88821 20499
" />
<path d="M90538 20499
L96429 20499
" />
<path d="M82933 20514
L88821 20514
" />
<path d="M90538 20514
L96426 20514
" />
<path d="M82937 20530
L88821 20530
" />
<path d="M90538 20530
L96422 20530
" />
<path d="M82941 20546
L88821 20546
" />
<path d="M90538 20546
L96418 20546
" />
<path d="M82944 20562
L88821 20562
" />
<path d="M90538 20562
L96415 20562
" />
<path d="M82948 20577
L88821 20577
" />
<path d="M90538 20577
L96411 20577
" />
<path d="M82951 20593
L88821 20593
" />
<path d="M90538 20593
L96408 20593
" />
<path d="M82955 20609
L88821 20609
" />
<path d="M90538 20609
L96404 20609
" />
<path d="M82959 20625
L88821 20625
" />
<path d="M90538 20625
L96400 20625
" />
<path d="M82963 20640
L88821 20640
" />
<path d="M90538 20640
L96396 20640
" />
<path d="M82966 20656
L88821 20656
" />
<path d="M90538 20656
L96393 20656
" />
<path d="M82970 20672
L88821 20672
" />
<path d="M90538 20672
L96389 20672
" />
<path d="M82974 20688
L88821 20688
" />
<path d="M90538 20688
L96385 20688
" />
<path d="M82978 20703
L88821 20703
" />
<path d="M90538 20703
L96381 20703
" />
<path d="M82982 20719
L88821 20719
" />
<path d="M90538 20719
L96377 20719
" />
<path d="M82986 20735
L88821 20735
" />
<path d="M90538 20735
L96373 20735
" />
<path d="M82990 20751
L88821 20751
" />
<path d="M90538 20751
L96369 20751
" />
<path d="M82994 20766
L88821 20766
" />
<path d="M90538 20766
L96365 20766
" />
<path d="M82998 20782
L88821 20782
" />
<path d="M90538 20782
L96361 20782
" />
<path d="M83002 20798
L88821 20798
" />
<path d="M90538 20798
L96357 20798
" />
<path d="M83007 20814
L88821 20814
" />
<path d="M90538 20814
L96352 20814
" />
<path d="M83011 20829
L88821 20829
" />
<path d="M90538 20829
L96348 20829
" />
<path d="M83015 20845
L88821 20845
" />
<path d="M90538 20845
L96344 20845
" />
<path d="M83020 20861
L88821 20861
" />
<path d="M90538 20861
L96339 20861
" />
<path d="M83024 20877
L88821 20877
" />
<path d="M90538 20877
L96335 20877
" />
<path d="M83028 20892
L88821 20892
" />
<path d="M90538 20892
L96331 20892
" />
<path d="M83033 20908
L88821 20908
" />
<path d="M90538 20908
L96326 20908
" />
<path d="M83037 20924
L88821 20924
" />
<path d="M90538 20924
L96322 20924
" />
<path d="M83042 20940
L88821 20940
" />
<path d="M90538 20940
L96317 20940
" />
<path d="M83046 20955
L88821 20955
" />
<path d="M90538 20955
L96313 20955
" />
<path d="M83051 20971
L88821 20971
" />
<path d="M90538 20971
L96308 20971
" />
<path d="M83055 20987
L88821 20987
" />
<path d="M90538 20987
L96304 20987
" />
<path d="M83060 21003
L88821 21003
" />
<path d="M90538 21003
L96299 21003
" />
<path d="M83065 21018
L88821 21018
" />
<path d="M90538 21018
L96294 21018
" />
<path d="M83070 21034
L88821 21034
" />
<path d="M90538 21034
L96289 21034
" />
<path d="M83074 21050
L88821 21050
" />
<path d="M90538 21050
L96285 21050
" />
<path d="M83080 21066
L88821 21066
" />
<path d="M90538 21066
L96280 21066
" />
<path d="M83084 21081
L88821 21081
" />
<path d="M90538 21081
L96275 21081
" />
<path d="M83089 21097
L88821 21097
" />
<path d="M90538 21097
L96270 21097
" />
<path d="M83094 21113
L88821 21113
" />
<path d="M90538 21113
L96265 21113
" />
<path d="M83099 21129
L88821 21129
" />
<path d="M90538 21129
L96260 21129
" />
<path d="M83104 21144
L88821 21144
" />
<path d="M90538 21144
L96255 21144
" />
<path d="M83109 21160
L88821 21160
" />
<path d="M90538 21160
L96250 21160
" />
<path d="M83115 21176
L88821 21176
" />
<path d="M90538 21176
L96244 21176
" />
<path d="M83120 21192
L88821 21192
" />
<path d="M90538 21192
L96239 21192
" />
<path d="M83125 21207
L88821 21207
" />
<path d="M90538 21207
L96234 21207
" />
<path d="M83130 21223
L88821 21223
" />
<path d="M90538 21223
L96229 21223
" />
<path d="M83135 21239
L88821 21239
" />
<path d="M90538 21239
L96224 21239
" />
<path d="M83141 21255
L88821 21255
" />
<path d="M90538 21255
L96218 21255
" />
<path d="M83146 21270
L88821 21270
" />
<path d="M90538 21270
L96213 21270
" />
<path d="M83152 21286
L88821 21286
" />
<path d="M90538 21286
L96207 21286
" />
<path d="M83157 21302
L88821 21302
" />
<path d="M90538 21302
L96202 21302
" />
<path d="M83163 21318
L88821 21318
" />
<path d="M90538 21318
L96196 21318
" />
<path d="M83168 21333
L88821 21333
" />
<path d="M90538 21333
L96191 21333
" />
<path d="M83174 21349
L88821 21349
" />
<path d="M90538 21349
L96185 21349
" />
<path d="M83180 21365
L88821 21365
" />
<path d="M90538 21365
L96180 21365
" />
<path d="M83185 21381
L88821 21381
" />
<path d="M90538 21381
L96174 21381
" />
<path d="M83191 21396
L88821 21396
" />
<path d="M90538 21396
L96168 21396
" />
<path d="M83197 21412
L88821 21412
" />
<path d="M90538 21412
L96162 21412
" />
<path d="M83202 21428
L88821 21428
" />
<path d="M90538 21428
L96157 21428
" />
<path d="M83208 21444
L88821 21444
" />
<path d="M90538 21444
L96151 21444
" />
<path d="M83214 21459
L88821 21459
" />
<path d="M90538 21459
L96145 21459
" />
<path d="M83220 21475
L88821 21475
" />
<path d="M90538 21475
L96139 21475
" />
<path d="M83226 21491
L88821 21491
" />
<path d="M90538 21491
L96133 21491
" />
<path d="M83232 21507
L88821 21507
" />
<path d="M90538 21507
L96127 21507
" />
<path d="M83239 21522
L88821 21522
" />
<path d="M90538 21522
L96120 21522
" />
<path d="M83244 21538
L88821 21538
" />
<path d="M90538 21538
L96115 21538
" />
<path d="M83251 21554
L88821 21554
" />
<path d="M90538 21554
L96108 21554
" />
<path d="M83257 21570
L88821 21570
" />
<path d="M90538 21570
L96102 21570
" />
<path d="M83263 21585
L88821 21585
" />
<path d="M90538 21585
L96096 21585
" />
<path d="M83270 21601
L88821 21601
" />
<path d="M90538 21601
L96089 21601
" />
<path d="M83276 21617
L88821 21617
" />
<path d="M90538 21617
L96083 21617
" />
<path d="M83282 21633
L88821 21633
" />
<path d="M90538 21633
L96077 21633
" />
<path d="M83289 21648
L88821 21648
" />
<path d="M90538 21648
L96070 21648
" />
<path d="M83295 21664
L88821 21664
" />
<path d="M90538 21664
L96064 21664
" />
<path d="M83302 21680
L88821 21680
" />
<path d="M90538 21680
L96057 21680
" />
<path d="M83308 21696
L88821 21696
" />
<path d="M90538 21696
L96051 21696
" />
<path d="M83315 21711
L88821 21711
" />
<path d="M90538 21711
L96044 21711
" />
<path d="M83322 21727
L88821 21727
" />
<path d="M90538 21727
L96037 21727
" />
<path d="M83328 21743
L88821 21743
" />
<path d="M90538 21743
L96031 21743
" />
<path d="M83335 21759
L88821 21759
" />
<path d="M90538 21759
L96024 21759
" />
<path d="M83342 21774
L88821 21774
" />
<path d="M90538 21774
L96017 21774
" />
<path d="M83349 21790
L88821 21790
" />
<path d="M90538 21790
L96010 21790
" />
<path d="M83355 21806
L88821 21806
" />
<path d="M90538 21806
L96004 21806
" />
<path d="M83363 21822
L88821 21822
" />
<path d="M90538 21822
L95996 21822
" />
<path d="M83370 21837
L88821 21837
" />
<path d="M90538 21837
L95989 21837
" />
<path d="M83377 21853
L95982 21853
" />
<path d="M83384 21869
L95975 21869
" />
<path d="M83391 21885
L95968 21885
" />
<path d="M83398 21900
L95961 21900
" />
<path d="M83405 21916
L95954 21916
" />
<path d="M83413 21932
L95946 21932
" />
<path d="M83420 21948
L95939 21948
" />
<path d="M83427 21963
L95932 21963
" />
<path d="M83435 21979
L95924 21979
" />
<path d="M83442 21995
L95917 21995
" />
<path d="M83450 22011
L95909 22011
" />
<path d="M83457 22026
L95902 22026
" />
<path d="M83465 22042
L95894 22042
" />
<path d="M83472 22058
L95887 22058
" />
<path d="M83480 22074
L95879 22074
" />
<path d="M83488 22089
L95871 22089
" />
<path d="M83496 22105
L95863 22105
" />
<path d="M83504 22121
L95855 22121
" />
<path d="M83511 22137
L95848 22137
" />
<path d="M83520 22152
L95839 22152
" />
<path d="M83528 22168
L95831 22168
" />
<path d="M83535 22184
L95824 22184
" />
<path d="M83544 22200
L95815 22200
" />
<path d="M83552 22215
L95807 22215
" />
<path d="M83560 22231
L95799 22231
" />
<path d="M83568 22246
L95791 22246
" />
<path d="M83577 22262
L95782 22262
" />
<path d="M83585 22278
L95774 22278
" />
<path d="M83594 22294
L95765 22294
" />
<path d="M83602 22309
L95757 22309
" />
<path d="M83611 22325
L95748 22325
" />
<path d="M83619 22341
L95740 22341
" />
<path d="M83628 22357
L95731 22357
" />
<path d="M83637 22372
L95722 22372
" />
<path d="M83645 22388
L95714 22388
" />
<path d="M83654 22404
L95705 22404
" />
<path d="M83663 22420
L95696 22420
" />
<path d="M83672 22435
L95687 22435
" />
<path d="M83681 22451
L95678 22451
" />
<path d="M83690 22467
L95669 22467
" />
<path d="M83699 22483
L95660 22483
" />
<path d="M83708 22498
L95651 22498
" />
<path d="M83717 22514
L95642 22514
" />
<path d="M83726 22530
L95633 22530
" />
<path d="M83736 22546
L95623 22546
" />
<path d="M83745 22561
L95614 22561
" />
<path d="M83754 22577
L95605 22577
" />
<path d="M83764 22593
L95595 22593
" />
<path d="M83773 22609
L95586 22609
" />
<path d="M83783 22624
L95576 22624
" />
<path d="M83792 22640
L95567 22640
" />
<path d="M83802 22656
L95557 22656
" />
<path d="M83812 22672
L95547 22672
" />
<path d="M83822 22687
L95537 22687
" />
<path d="M83832 22703
L95527 22703
" />
<path d="M83842 22719
L95517 22719
" />
<path d="M83852 22735
L95507 22735
" />
<path d="M83862 22750
L95497 22750
" />
<path d="M83872 22766
L95487 22766
" />
<path d="M83882 22782
L95477 22782
" />
<path d="M83892 22798
L95467 22798
" />
<path d="M83902 22813
L95457 22813
" />
<path d="M83913 22829
L95446 22829
" />
<path d="M83923 22845
L95436 22845
" />
<path d="M83934 22861
L95425 22861
" />
<path d="M83944 22876
L95415 22876
" />
<path d="M83955 22892
L95404 22892
" />
<path d="M83965 22908
L95394 22908
" />
<path d="M83976 22924
L95383 22924
" />
<path d="M83987 22939
L95372 22939
" />
<path d="M83998 22955
L95361 22955
" />
<path d="M84009 22971
L95350 22971
" />
<path d="M84020 22987
L95339 22987
" />
<path d="M84031 23002
L95328 23002
" />
<path d="M84042 23018
L95317 23018
" />
<path d="M84053 23034
L95306 23034
" />
<path d="M84064 23050
L95295 23050
" />
<path d="M84076 23065
L95283 23065
" />
<path d="M84087 23081
L95272 23081
" />
<path d="M84098 23097
L95261 23097
" />
<path d="M84110 23112
L95249 23112
" />
<path d="M84122 23128
L95237 23128
" />
<path d="M84133 23144
L95226 23144
" />
<path d="M84145 23160
L95214 23160
" />
<path d="M84157 23175
L95202 23175
" />
<path d="M84168 23191
L95191 23191
" />
<path d="M84180 23207
L95179 23207
" />
<path d="M84192 23223
L95167 23223
" />
<path d="M84205 23238
L95154 23238
" />
<path d="M84217 23254
L95142 23254
" />
<path d="M84229 23270
L95130 23270
" />
<path d="M84241 23286
L95118 23286
" />
<path d="M84254 23301
L95105 23301
" />
<path d="M84266 23317
L95093 23317
" />
<path d="M84278 23333
L95081 23333
" />
<path d="M84291 23349
L95068 23349
" />
<path d="M84304 23364
L95055 23364
" />
<path d="M84317 23380
L95042 23380
" />
<path d="M84329 23396
L95030 23396
" />
<path d="M84342 23412
L95017 23412
" />
<path d="M84355 23427
L95004 23427
" />
<path d="M84368 23443
L94991 23443
" />
<path d="M84381 23459
L94978 23459
" />
<path d="M84394 23475
L94965 23475
" />
<path d="M84408 23490
L94951 23490
" />
<path d="M84421 23506
L94938 23506
" />
<path d="M84435 23522
L94924 23522
" />
<path d="M84448 23538
L94911 23538
" />
<path d="M84462 23553
L94897 23553
" />
<path d="M84476 23569
L94883 23569
" />
<path d="M84489 23585
L94870 23585
" />
<path d="M84503 23601
L94856 23601
" />
<path d="M84517 23616
L94842 23616
" />
<path d="M84531 23632
L94828 23632
" />
<path d="M84545 23648
L94814 23648
" />
<path d="M84559 23664
L94800 23664
" />
<path d="M84574 23679
L94785 23679
" />
<path d="M84588 23695
L94771 23695
" />
<path d="M84602 23711
L94757 23711
" />
<path d="M84617 23727
L94742 23727
" />
<path d="M84631 23742
L94728 23742
" />
<path d="M84646 23758
L94713 23758
" />
<path d="M84661 23774
L94698 23774
" />
<path d="M84676 23790
L94683 23790
" />
<path d="M84691 23805
L94668 23805
" />
<path d="M84706 23821
L94653 23821
" />
<path d="M84722 23837
L94637 23837
" />
<path d="M84737 23853
L94622 23853
" />
<path d="M84752 23868
L94607 23868
" />
<path d="M84768 23884
L94591 23884
" />
<path d="M84783 23900
L94576 23900
" />
<path d="M84799 23916
L94560 23916
" />
<path d="M84815 23931
L94544 23931
" />
<path d="M84831 23947
L94528 23947
" />
<path d="M84847 23963
L94512 23963
" />
<path d="M84863 23979
L94496 23979
" />
<path d="M84879 23994
L94480 23994
" />
<path d="M84895 24010
L94464 24010
" />
<path d="M84912 24026
L94447 24026
" />
<path d="M84928 24042
L94431 24042
" />
<path d="M84945 24057
L94414 24057
" />
<path d="M84962 24073
L94397 24073
" />
<path d="M84979 24089
L94380 24089
" />
<path d="M84996 24105
L94363 24105
" />
<path d="M85013 24120
L94346 24120
" />
<path d="M85030 24136
L94329 24136
" />
<path d="M85047 24152
L94312 24152
" />
<path d="M85065 24168
L94294 24168
" />
<path d="M85082 24183
L94277 24183
" />
<path d="M85100 24199
L94259 24199
" />
<path d="M85118 24215
L94241 24215
" />
<path d="M85136 24231
L94223 24231
" />
<path d="M85154 24246
L94205 24246
" />
<path d="M85172 24262
L94187 24262
" />
<path d="M85191 24278
L94168 24278
" />
<path d="M85209 24294
L94150 24294
" />
<path d="M85228 24309
L94131 24309
" />
<path d="M85246 24325
L94113 24325
" />
<path d="M85265 24341
L94094 24341
" />
<path d="M85284 24357
L94075 24357
" />
<path d="M85303 24372
L94056 24372
" />
<path d="M85322 24388
L94037 24388
" />
<path d="M85342 24404
L94017 24404
" />
<path d="M85361 24420
L93998 24420
" />
<path d="M85381 24435
L93978 24435
" />
<path d="M85401 24451
L93958 24451
" />
<path d="M85421 24467
L93938 24467
" />
<path d="M85441 24483
L93918 24483
" />
<path d="M85461 24498
L93898 24498
" />
<path d="M85482 24514
L93877 24514
" />
<path d="M85502 24530
L93857 24530
" />
<path d="M85523 24546
L93836 24546
" />
<path d="M85544 24561
L93815 24561
" />
<path d="M85565 24577
L93794 24577
" />
<path d="M85587 24593
L93772 24593
" />
<path d="M85608 24609
L93751 24609
" />
<path d="M85630 24624
L93730 24624
" />
<path d="M85652 24640
L93707 24640
" />
<path d="M85674 24656
L93685 24656
" />
<path d="M85696 24672
L93663 24672
" />
<path d="M85718 24687
L93641 24687
" />
<path d="M85741 24703
L93618 24703
" />
<path d="M85763 24719
L93596 24719
" />
<path d="M85786 24735
L93573 24735
" />
<path d="M85809 24750
L93550 24750
" />
<path d="M85833 24766
L93526 24766
" />
<path d="M85856 24782
L93503 24782
" />
<path d="M85880 24798
L93479 24798
" />
<path d="M85904 24813
L93455 24813
" />
<path d="M85928 24829
L93431 24829
" />
<path d="M85952 24845
L93407 24845
" />
<path d="M85977 24861
L93382 24861
" />
<path d="M86002 24876
L93357 24876
" />
<path d="M86027 24892
L93332 24892
" />
<path d="M86052 24908
L93307 24908
" />
<path d="M86078 24924
L93281 24924
" />
<path d="M86104 24939
L93255 24939
" />
<path d="M86130 24955
L93229 24955
" />
<path d="M86156 24971
L93203 24971
" />
<path d="M86183 24987
L93176 24987
" />
<path d="M86210 25002
L93149 25002
" />
<path d="M86237 25018
L93122 25018
" />
<path d="M86265 25034
L93094 25034
" />
<path d="M86292 25050
L93067 25050
" />
<path d="M86320 25065
L93039 25065
" />
<path d="M86349 25081
L93010 25081
" />
<path d="M86377 25097
L92982 25097
" />
<path d="M86406 25112
L92953 25112
" />
<path d="M86436 25128
L92923 25128
" />
<path d="M86465 25144
L92894 25144
" />
<path d="M86496 25160
L92863 25160
" />
<path d="M86526 25175
L92833 25175
" />
<path d="M86557 25191
L92802 25191
" />
<path d="M86588 25207
L92771 25207
" />
<path d="M86619 25223
L92740 25223
" />
<path d="M86652 25238
L92707 25238
" />
<path d="M86684 25254
L92675 25254
" />
<path d="M86717 25270
L92642 25270
" />
<path d="M86750 25286
L92609 25286
" />
<path d="M86783 25301
L92576 25301
" />
<path d="M86818 25317
L92541 25317
" />
<path d="M86853 25333
L92506 25333
" />
<path d="M86888 25349
L92471 25349
" />
<path d="M86924 25364
L92435 25364
" />
<path d="M86960 25380
L92399 25380
" />
<path d="M86997 25396
L92362 25396
" />
<path d="M87035 25412
L92324 25412
" />
<path d="M87072 25427
L92287 25427
" />
<path d="M87111 25443
L92248 25443
" />
<path d="M87151 25459
L92208 25459
" />
<path d="M87191 25475
L92168 25475
" />
<path d="M87232 25490
L92127 25490
" />
<path d="M87274 25506
L92085 25506
" />
<path d="M87317 25522
L92042 25522
" />
<path d="M87360 25538
L91999 25538
" />
<path d="M87405 25553
L91954 25553
" />
<path d="M87450 25569
L91909 25569
" />
<path d="M87496 25585
L91863 25585
" />
<path d="M87544 25601
L91815 25601
" />
<path d="M87593 25616
L91766 25616
" />
<path d="M87643 25632
L91716 25632
" />
<path d="M87694 25648
L91665 25648
" />
<path d="M87747 25664
L91612 25664
" />
<path d="M87802 25679
L91557 25679
" />
<path d="M87858 25695
L91501 25695
" />
<path d="M87917 25711
L91442 25711
" />
<path d="M87977 25727
L91382 25727
" />
<path d="M88040 25742
L91319 25742
" />
<path d="M88105 25758
L91254 25758
" />
<path d="M88173 25774
L91186 25774
" />
<path d="M88245 25790
L91114 25790
" />
<path d="M88320 25805
L91039 25805
" />
<path d="M88401 25821
L90958 25821
" />
<path d="M88486 25837
L90873 25837
" />
<path d="M88579 25853
L90780 25853
" />
<path d="M88680 25868
L90679 25868
" />
<path d="M88792 25884
L90567 25884
" />
<path d="M88922 25900
L90437 25900
" />
<path d="M89078 25916
L90281 25916
" />
<path d="M89291 25931
L90068 25931
" />
<path d="M89680 15002
L89680 16183
" />
<path d="M89089 15593
L90270 15593
" />
<path d="M77305 13648
L77305 15151
" />
<path d="M77305 15151
L73754 15151
" />
<path d="M73754 15151
L73754 13648
" />
<path d="M73754 13648
L77305 13648
" />
<path d="M77407 14400
L77305 14400
" />
<path d="M73652 14400
L73754 14400
" />
<path d="M76756 13648
L76756 15151
" />
</g>
<g style="fill:#000000; fill-opacity:0.0; 
stroke:#000000; stroke-width:59.0551; stroke-opacity:1; 
stroke-linecap:round; stroke-linejoin:round;">
<path d="M86263 34008
L95396 34008
" />
<path d="M95396 34008
L95396 32591
" />
<path d="M95396 32591
L86263 32591
" />
<path d="M86263 32591
L86263 34008
" />
</g>
<g style="fill:#000000; fill-opacity:0.0; 
stroke:#000000; stroke-width:47.2441; stroke-opacity:1; 
stroke-linecap:round; stroke-linejoin:round;">
<path d="M88498 30284
L88498 31268
" />
<path d="M88498 27331
L88498 28315
" />
<path d="M93222 27331
L93222 28315
" />
<path d="M93222 31268
L93222 30284
" />
<path d="M89089 29300
L92632 29300
" />
<path d="M89089 30284
L89089 28315
" />
<path d="M92632 30284
L92632 28315
" />
<path d="M94797 30048
L94797 30284
" />
<path d="M86923 28551
L86923 28315
" />
<path d="M86923 28315
L94797 28315
" />
<path d="M94797 28315
L94797 28551
" />
<path d="M94797 30284
L86923 30284
" />
<path d="M86923 30284
L86923 30048
" />
<path d="M95585 30048
L95585 31268
" />
<path d="M86136 28551
L86136 27331
" />
<path d="M86136 27331
L95585 27331
" />
<path d="M95585 27331
L95585 28551
" />
<path d="M95585 31268
L86136 31268
" />
<path d="M86136 31268
L86136 30048
" />
<path d="M78003 34426
L78003 35473
" />
<path d="M71980 34426
L78003 34426
" />
<path d="M71980 35473
L78003 35473
" />
<path d="M71980 34426
L71980 35473
" />
<path d="M71480 34426
L70956 34426
" />
<path d="M70956 34426
L70956 34950
" />
<path d="M79153 32323
L78106 32323
" />
<path d="M79153 32300
L79153 32323
" />
<path d="M78106 32300
L78106 32323
" />
<path d="M79153 32300
L78106 32300
" />
<path d="M79153 31800
L79153 31276
" />
<path d="M79153 31276
L78630 31276
" />
<path d="M73853 22423
L72806 22423
" />
<path d="M73853 22400
L73853 22423
" />
<path d="M72806 22400
L72806 22423
" />
<path d="M73853 22400
L72806 22400
" />
<path d="M73853 21900
L73853 21376
" />
<path d="M73853 21376
L73330 21376
" />
<path d="M80953 29723
L79906 29723
" />
<path d="M80953 29700
L80953 29723
" />
<path d="M79906 29700
L79906 29723
" />
<path d="M80953 29700
L79906 29700
" />
<path d="M80953 29200
L80953 28676
" />
<path d="M80953 28676
L80430 28676
" />
<path d="M70703 26023
L69656 26023
" />
<path d="M70703 26000
L70703 26023
" />
<path d="M69656 26000
L69656 26023
" />
<path d="M70703 26000
L69656 26000
" />
<path d="M70703 25500
L70703 24976
" />
<path d="M70703 24976
L70180 24976
" />
<path d="M70453 28623
L69406 28623
" />
<path d="M70453 28600
L70453 28623
" />
<path d="M69406 28600
L69406 28623
" />
<path d="M70453 28600
L69406 28600
" />
<path d="M70453 28100
L70453 27576
" />
<path d="M70453 27576
L69930 27576
" />
<path d="M68353 14623
L67306 14623
" />
<path d="M68353 14600
L68353 14623
" />
<path d="M67306 14600
L67306 14623
" />
<path d="M68353 14600
L67306 14600
" />
<path d="M68353 14100
L68353 13576
" />
<path d="M68353 13576
L67830 13576
" />
<path d="M64795 13577
L64795 16822
" />
<path d="M66169 13577
L66169 16822
" />
<path d="M64795 13577
L66169 13577
" />
<path d="M64795 16822
L66169 16822
" />
<path d="M64795 14570
L65216 14570
" />
<path d="M66043 14570
L66169 14570
" />
<path d="M64795 15830
L65417 15830
" />
<path d="M65842 15830
L66169 15830
" />
<path d="M69626 29732
L69233 29732
" />
<path d="M69233 30267
L69626 30267
" />
<path d="M71626 29732
L71233 29732
" />
<path d="M71233 30267
L71626 30267
" />
<path d="M61620 23833
L63439 23833
" />
<path d="M63439 23833
L63439 28566
" />
<path d="M63439 28566
L61620 28566
" />
<path d="M61620 28566
L61620 23833
" />
<path d="M62530 21743
L62530 23833
" />
<path d="M62530 30656
L62530 28566
" />
</g>
<g style="fill:#000000; fill-opacity:0.0; 
stroke:#000000; stroke-width:59.0551; stroke-opacity:1; 
stroke-linecap:round; stroke-linejoin:round;">
<path d="M71589 31240
L71589 31309
" />
<path d="M70270 31240
L70270 31338
" />
<path d="M70270 32559
L70270 32461
" />
<path d="M71589 32559
L71589 32461
" />
<path d="M71589 31240
L70270 31240
" />
<path d="M71589 32559
L70270 32559
" />
<path d="M71589 31309
L72081 31309
" />
<path d="M77089 31759
L77020 31759
" />
<path d="M77089 30440
L76991 30440
" />
<path d="M75770 30440
L75868 30440
" />
<path d="M75770 31759
L75868 31759
" />
<path d="M77089 31759
L77089 30440
" />
<path d="M75770 31759
L75770 30440
" />
<path d="M77020 31759
L77020 32251
" />
<path d="M75970 26540
L76039 26540
" />
<path d="M75970 27859
L76068 27859
" />
<path d="M77289 27859
L77191 27859
" />
<path d="M77289 26540
L77191 26540
" />
<path d="M75970 26540
L75970 27859
" />
<path d="M77289 26540
L77289 27859
" />
<path d="M76039 26540
L76039 26048
" />
<path d="M77630 23150
L77630 21800
" />
<path d="M73830 23150
L73830 21800
" />
<path d="M77830 23600
L73630 23600
" />
<path d="M76430 23200
L76430 23700
" />
<path d="M75030 23200
L75030 23700
" />
<path d="M73630 23150
L77830 23150
" />
<path d="M77830 21800
L73630 21800
" />
<path d="M73630 23700
L73630 21800
" />
<path d="M77830 23700
L77830 21800
" />
<path d="M77830 23700
L73630 23700
" />
<path d="M68530 13550
L68530 14900
" />
<path d="M72330 13550
L72330 14900
" />
<path d="M68330 13100
L72530 13100
" />
<path d="M69730 13500
L69730 13000
" />
<path d="M71130 13500
L71130 13000
" />
<path d="M72530 13550
L68330 13550
" />
<path d="M68330 14900
L72530 14900
" />
<path d="M72530 13000
L72530 14900
" />
<path d="M68330 13000
L68330 14900
" />
<path d="M68330 13000
L72530 13000
" />
</g> 
</svg>
