<?xml version="1.0" standalone="no"?>
 <!DOCTYPE svg PUBLIC "-//W3C//DTD SVG 1.1//EN" 
 "http://www.w3.org/Graphics/SVG/1.1/DTD/svg11.dtd"> 
<svg xmlns="http://www.w3.org/2000/svg" version="1.1" 
    width="29.7002cm" height="21.0007cm" viewBox="0 0 116930 82680 ">
<title>SVG Picture created as pcb_1-B.SilkS.svg date 2019/10/28 14:43:04 </title>
  <desc>Picture generated by PCBNEW </desc>
<g style="fill:#000000; fill-opacity:1;stroke:#000000; stroke-opacity:1;
stroke-linecap:round; stroke-linejoin:round; "
 transform="translate(0 0) scale(1 1)">
</g>
<g style="fill:#000000; fill-opacity:0.0; 
stroke:#000000; stroke-width:-0.000393701; stroke-opacity:1; 
stroke-linecap:round; stroke-linejoin:round;">
</g>
<g style="fill:#000000; fill-opacity:0.0; 
stroke:#000000; stroke-width:47.2441; stroke-opacity:1; 
stroke-linecap:round; stroke-linejoin:round;">
<path d="M72233 20934
L72626 20934
" />
<path d="M72626 20265
L72233 20265
" />
<path d="M68015 16829
L68644 16829
" />
<path d="M68644 16829
L68644 15806
" />
<path d="M68015 16829
L68015 15806
" />
<path d="M70726 17067
L70333 17067
" />
<path d="M70333 16532
L70726 16532
" />
<path d="M67697 16103
L67697 16496
" />
<path d="M67162 16496
L67162 16103
" />
<path d="M66362 18896
L66362 18503
" />
<path d="M66897 18503
L66897 18896
" />
</g>
<g style="fill:#000000; fill-opacity:0.0; 
stroke:#000000; stroke-width:59.0551; stroke-opacity:1; 
stroke-linecap:round; stroke-linejoin:round;">
<path d="M74489 20059
L74489 19990
" />
<path d="M73170 20059
L73170 19961
" />
<path d="M73170 18740
L73170 18838
" />
<path d="M74489 18740
L74489 18838
" />
<path d="M74489 20059
L73170 20059
" />
<path d="M74489 18740
L73170 18740
" />
<path d="M74489 19990
L74981 19990
" />
<path d="M69669 19639
L69669 19590
" />
<path d="M68390 19639
L68390 19551
" />
<path d="M68390 18360
L68390 18448
" />
<path d="M69669 18360
L69669 18448
" />
<path d="M69669 19639
L68390 19639
" />
<path d="M69669 18360
L68390 18360
" />
<path d="M69669 19590
L70092 19590
" />
</g>
<g style="fill:#000000; fill-opacity:0.0; 
stroke:#000000; stroke-width:47.2441; stroke-opacity:1; 
stroke-linecap:round; stroke-linejoin:round;">
<path d="M71276 13267
L70883 13267
" />
<path d="M70883 12732
L71276 12732
" />
<path d="M69626 13267
L69233 13267
" />
<path d="M69233 12732
L69626 12732
" />
</g>
<g style="fill:#000000; fill-opacity:0.0; 
stroke:#000000; stroke-width:59.0551; stroke-opacity:1; 
stroke-linecap:round; stroke-linejoin:round;">
<path d="M65813 23186
L65813 23205
" />
<path d="M67446 23186
L67446 23243
" />
<path d="M67446 25213
L67446 25156
" />
<path d="M65813 25213
L65813 25156
" />
<path d="M65813 23186
L67446 23186
" />
<path d="M65813 25213
L67446 25213
" />
<path d="M65813 23205
L65261 23205
" />
</g> 
</svg>
