<?xml version="1.0" standalone="no"?>
 <!DOCTYPE svg PUBLIC "-//W3C//DTD SVG 1.1//EN" 
 "http://www.w3.org/Graphics/SVG/1.1/DTD/svg11.dtd"> 
<svg xmlns="http://www.w3.org/2000/svg" version="1.1" 
    width="29.7002cm" height="21.0007cm" viewBox="0 0 116930 82680 ">
<title>SVG Picture created as pcb_1-F.Cu.svg date 2019/10/28 18:45:59 </title>
  <desc>Picture generated by PCBNEW </desc>
<g style="fill:#000000; fill-opacity:1;stroke:#000000; stroke-opacity:1;
stroke-linecap:round; stroke-linejoin:round; "
 transform="translate(0 0) scale(1 1)">
</g>
<g style="fill:#000000; fill-opacity:0.0; 
stroke:#000000; stroke-width:-0.000393701; stroke-opacity:1; 
stroke-linecap:round; stroke-linejoin:round;">
</g>
<g style="fill:#000000; fill-opacity:0.0; 
stroke:#000000; stroke-width:0; stroke-opacity:1; 
stroke-linecap:round; stroke-linejoin:round;">
</g>
<g style="fill:#000000; fill-opacity:1.0; 
stroke:#000000; stroke-width:0; stroke-opacity:1; 
stroke-linecap:round; stroke-linejoin:round;">
<polyline style="fill-rule:evenodd;"
points="77095,24034
77764,24034
77764,23365
77095,23365
77095,24034
" /> 
</g>
<g style="fill:#000000; fill-opacity:1.0; 
stroke:#000000; stroke-width:669.291; stroke-opacity:1; 
stroke-linecap:round; stroke-linejoin:round;">
</g>
<g style="fill:#000000; fill-opacity:0.0; 
stroke:#000000; stroke-width:669.291; stroke-opacity:1; 
stroke-linecap:round; stroke-linejoin:round;">
<path d="M76430 23700
L76430 23700
" />
</g>
<g style="fill:#000000; fill-opacity:0.0; 
stroke:#000000; stroke-width:0; stroke-opacity:1; 
stroke-linecap:round; stroke-linejoin:round;">
</g>
<g style="fill:#000000; fill-opacity:1.0; 
stroke:#000000; stroke-width:0; stroke-opacity:1; 
stroke-linecap:round; stroke-linejoin:round;">
<polyline style="fill-rule:evenodd;"
points="70564,15165
69895,15165
69895,15834
70564,15834
70564,15165
" /> 
</g>
<g style="fill:#000000; fill-opacity:1.0; 
stroke:#000000; stroke-width:669.291; stroke-opacity:1; 
stroke-linecap:round; stroke-linejoin:round;">
</g>
<g style="fill:#000000; fill-opacity:0.0; 
stroke:#000000; stroke-width:669.291; stroke-opacity:1; 
stroke-linecap:round; stroke-linejoin:round;">
<path d="M71230 15500
L71230 15500
" />
</g>
<g style="fill:#000000; fill-opacity:0.0; 
stroke:#000000; stroke-width:0; stroke-opacity:1; 
stroke-linecap:round; stroke-linejoin:round;">
</g>
<g style="fill:#000000; fill-opacity:1.0; 
stroke:#000000; stroke-width:0; stroke-opacity:1; 
stroke-linecap:round; stroke-linejoin:round;">
<polyline style="fill-rule:evenodd;"
points="75564,27034
75564,26365
74895,26365
74895,27034
75564,27034
" /> 
</g>
<g style="fill:#000000; fill-opacity:1.0; 
stroke:#000000; stroke-width:669.291; stroke-opacity:1; 
stroke-linecap:round; stroke-linejoin:round;">
</g>
<g style="fill:#000000; fill-opacity:0.0; 
stroke:#000000; stroke-width:669.291; stroke-opacity:1; 
stroke-linecap:round; stroke-linejoin:round;">
<path d="M75230 27700
L75230 27700
" />
</g>
<g style="fill:#000000; fill-opacity:0.0; 
stroke:#000000; stroke-width:0; stroke-opacity:1; 
stroke-linecap:round; stroke-linejoin:round;">
</g>
<g style="fill:#000000; fill-opacity:1.0; 
stroke:#000000; stroke-width:0; stroke-opacity:1; 
stroke-linecap:round; stroke-linejoin:round;">
<polyline style="fill-rule:evenodd;"
points="79595,26965
79595,27634
80264,27634
80264,26965
79595,26965
" /> 
</g>
<g style="fill:#000000; fill-opacity:1.0; 
stroke:#000000; stroke-width:669.291; stroke-opacity:1; 
stroke-linecap:round; stroke-linejoin:round;">
</g>
<g style="fill:#000000; fill-opacity:0.0; 
stroke:#000000; stroke-width:669.291; stroke-opacity:1; 
stroke-linecap:round; stroke-linejoin:round;">
<path d="M79930 26300
L79930 26300
" />
</g>
<g style="fill:#000000; fill-opacity:0.0; 
stroke:#000000; stroke-width:0; stroke-opacity:1; 
stroke-linecap:round; stroke-linejoin:round;">
</g>
<g style="fill:#000000; fill-opacity:1.0; 
stroke:#000000; stroke-width:0; stroke-opacity:1; 
stroke-linecap:round; stroke-linejoin:round;">
<polyline style="fill-rule:evenodd;"
points="78295,26965
78295,27634
78964,27634
78964,26965
78295,26965
" /> 
</g>
<g style="fill:#000000; fill-opacity:1.0; 
stroke:#000000; stroke-width:669.291; stroke-opacity:1; 
stroke-linecap:round; stroke-linejoin:round;">
</g>
<g style="fill:#000000; fill-opacity:0.0; 
stroke:#000000; stroke-width:669.291; stroke-opacity:1; 
stroke-linecap:round; stroke-linejoin:round;">
<path d="M78630 26300
L78630 26300
" />
</g>
<g style="fill:#000000; fill-opacity:0.0; 
stroke:#000000; stroke-width:0; stroke-opacity:1; 
stroke-linecap:round; stroke-linejoin:round;">
</g>
<g style="fill:#000000; fill-opacity:1.0; 
stroke:#000000; stroke-width:0; stroke-opacity:1; 
stroke-linecap:round; stroke-linejoin:round;">
<polyline style="fill-rule:evenodd;"
points="76364,20034
76364,19365
75695,19365
75695,20034
76364,20034
" /> 
</g>
<g style="fill:#000000; fill-opacity:1.0; 
stroke:#000000; stroke-width:669.291; stroke-opacity:1; 
stroke-linecap:round; stroke-linejoin:round;">
</g>
<g style="fill:#000000; fill-opacity:0.0; 
stroke:#000000; stroke-width:669.291; stroke-opacity:1; 
stroke-linecap:round; stroke-linejoin:round;">
<path d="M76030 20700
L76030 20700
" />
</g>
<g style="fill:#000000; fill-opacity:0.0; 
stroke:#000000; stroke-width:0; stroke-opacity:1; 
stroke-linecap:round; stroke-linejoin:round;">
</g>
<g style="fill:#000000; fill-opacity:1.0; 
stroke:#000000; stroke-width:0; stroke-opacity:1; 
stroke-linecap:round; stroke-linejoin:round;">
<polyline style="fill-rule:evenodd;"
points="70995,19165
70995,19834
71664,19834
71664,19165
70995,19165
" /> 
</g>
<g style="fill:#000000; fill-opacity:1.0; 
stroke:#000000; stroke-width:669.291; stroke-opacity:1; 
stroke-linecap:round; stroke-linejoin:round;">
</g>
<g style="fill:#000000; fill-opacity:0.0; 
stroke:#000000; stroke-width:669.291; stroke-opacity:1; 
stroke-linecap:round; stroke-linejoin:round;">
<path d="M71330 18500
L71330 18500
" />
</g>
<g style="fill:#000000; fill-opacity:0.0; 
stroke:#000000; stroke-width:0; stroke-opacity:1; 
stroke-linecap:round; stroke-linejoin:round;">
</g>
<g style="fill:#000000; fill-opacity:1.0; 
stroke:#000000; stroke-width:0; stroke-opacity:1; 
stroke-linecap:round; stroke-linejoin:round;">
<polyline style="fill-rule:evenodd;"
points="76142,24553
76142,25046
76733,25046
76733,24553
76142,24553
" /> 
<polyline style="fill-rule:evenodd;"
points="77126,24553
77126,25046
77717,25046
77717,24553
77126,24553
" /> 
<polyline style="fill-rule:evenodd;"
points="77342,29953
77342,30446
77933,30446
77933,29953
77342,29953
" /> 
<polyline style="fill-rule:evenodd;"
points="78326,29953
78326,30446
78917,30446
78917,29953
78326,29953
" /> 
<polyline style="fill-rule:evenodd;"
points="75617,30446
75617,29953
75026,29953
75026,30446
75617,30446
" /> 
<polyline style="fill-rule:evenodd;"
points="74633,30446
74633,29953
74042,29953
74042,30446
74633,30446
" /> 
<polyline style="fill-rule:evenodd;"
points="76542,29053
76542,29546
77133,29546
77133,29053
76542,29053
" /> 
<polyline style="fill-rule:evenodd;"
points="77526,29053
77526,29546
78117,29546
78117,29053
77526,29053
" /> 
<polyline style="fill-rule:evenodd;"
points="90467,16262
88892,16262
88892,17837
90467,17837
90467,16262
" /> 
<circle cx="89680" cy="20987" r="787.402" /> 
</g>
<g style="fill:#000000; fill-opacity:1.0; 
stroke:#000000; stroke-width:39.3701; stroke-opacity:1; 
stroke-linecap:round; stroke-linejoin:round;">
</g>
<g style="fill:#000000; fill-opacity:1.0; 
stroke:#000000; stroke-width:0; stroke-opacity:1; 
stroke-linecap:round; stroke-linejoin:round;">
<polyline style="fill-rule:evenodd;"
points="78581,14951
78581,13848
77478,13848
77478,14951
78581,14951
" /> 
</g>
<g style="fill:#000000; fill-opacity:1.0; 
stroke:#000000; stroke-width:1102.36; stroke-opacity:1; 
stroke-linecap:round; stroke-linejoin:round;">
</g>
<g style="fill:#000000; fill-opacity:0.0; 
stroke:#000000; stroke-width:1102.36; stroke-opacity:1; 
stroke-linecap:round; stroke-linejoin:round;">
<path d="M73030 14400
L73030 14400
" />
</g>
<g style="fill:#000000; fill-opacity:1.0; 
stroke:#000000; stroke-width:0; stroke-opacity:1; 
stroke-linecap:round; stroke-linejoin:round;">
<circle cx="87680.4" cy="33300" r="496.85" /> 
</g>
<g style="fill:#000000; fill-opacity:1.0; 
stroke:#000000; stroke-width:39.3701; stroke-opacity:1; 
stroke-linecap:round; stroke-linejoin:round;">
</g>
<g style="fill:#000000; fill-opacity:1.0; 
stroke:#000000; stroke-width:0; stroke-opacity:1; 
stroke-linecap:round; stroke-linejoin:round;">
<circle cx="89767" cy="33300" r="496.85" /> 
</g>
<g style="fill:#000000; fill-opacity:1.0; 
stroke:#000000; stroke-width:39.3701; stroke-opacity:1; 
stroke-linecap:round; stroke-linejoin:round;">
</g>
<g style="fill:#000000; fill-opacity:1.0; 
stroke:#000000; stroke-width:0; stroke-opacity:1; 
stroke-linecap:round; stroke-linejoin:round;">
<circle cx="91893" cy="33300" r="496.85" /> 
</g>
<g style="fill:#000000; fill-opacity:1.0; 
stroke:#000000; stroke-width:39.3701; stroke-opacity:1; 
stroke-linecap:round; stroke-linejoin:round;">
</g>
<g style="fill:#000000; fill-opacity:1.0; 
stroke:#000000; stroke-width:0; stroke-opacity:1; 
stroke-linecap:round; stroke-linejoin:round;">
<circle cx="93979.6" cy="33260.6" r="496.85" /> 
</g>
<g style="fill:#000000; fill-opacity:1.0; 
stroke:#000000; stroke-width:39.3701; stroke-opacity:1; 
stroke-linecap:round; stroke-linejoin:round;">
</g>
<g style="fill:#000000; fill-opacity:1.0; 
stroke:#000000; stroke-width:984.252; stroke-opacity:1; 
stroke-linecap:round; stroke-linejoin:round;">
</g>
<g style="fill:#000000; fill-opacity:0.0; 
stroke:#000000; stroke-width:984.252; stroke-opacity:1; 
stroke-linecap:round; stroke-linejoin:round;">
<path d="M95486 29300
L94896 29300
" />
<path d="M86825 29300
L86234 29300
" />
</g>
<g style="fill:#000000; fill-opacity:1.0; 
stroke:#000000; stroke-width:0; stroke-opacity:1; 
stroke-linecap:round; stroke-linejoin:round;">
<circle cx="99930" cy="28300" r="1181" /> 
</g>
<g style="fill:#000000; fill-opacity:1.0; 
stroke:#000000; stroke-width:39.3701; stroke-opacity:1; 
stroke-linecap:round; stroke-linejoin:round;">
</g>
<g style="fill:#000000; fill-opacity:1.0; 
stroke:#000000; stroke-width:0; stroke-opacity:1; 
stroke-linecap:round; stroke-linejoin:round;">
<circle cx="99930" cy="32300" r="1181" /> 
</g>
<g style="fill:#000000; fill-opacity:1.0; 
stroke:#000000; stroke-width:39.3701; stroke-opacity:1; 
stroke-linecap:round; stroke-linejoin:round;">
</g>
<g style="fill:#000000; fill-opacity:1.0; 
stroke:#000000; stroke-width:0; stroke-opacity:1; 
stroke-linecap:round; stroke-linejoin:round;">
<circle cx="66530" cy="34200" r="1181" /> 
</g>
<g style="fill:#000000; fill-opacity:1.0; 
stroke:#000000; stroke-width:39.3701; stroke-opacity:1; 
stroke-linecap:round; stroke-linejoin:round;">
</g>
<g style="fill:#000000; fill-opacity:1.0; 
stroke:#000000; stroke-width:0; stroke-opacity:1; 
stroke-linecap:round; stroke-linejoin:round;">
<circle cx="62530" cy="34200" r="1181" /> 
</g>
<g style="fill:#000000; fill-opacity:1.0; 
stroke:#000000; stroke-width:39.3701; stroke-opacity:1; 
stroke-linecap:round; stroke-linejoin:round;">
</g>
<g style="fill:#000000; fill-opacity:1.0; 
stroke:#000000; stroke-width:0; stroke-opacity:1; 
stroke-linecap:round; stroke-linejoin:round;">
<circle cx="62530" cy="18400" r="1181" /> 
</g>
<g style="fill:#000000; fill-opacity:1.0; 
stroke:#000000; stroke-width:39.3701; stroke-opacity:1; 
stroke-linecap:round; stroke-linejoin:round;">
</g>
<g style="fill:#000000; fill-opacity:1.0; 
stroke:#000000; stroke-width:0; stroke-opacity:1; 
stroke-linecap:round; stroke-linejoin:round;">
<circle cx="62530" cy="14400" r="1181" /> 
</g>
<g style="fill:#000000; fill-opacity:1.0; 
stroke:#000000; stroke-width:39.3701; stroke-opacity:1; 
stroke-linecap:round; stroke-linejoin:round;">
</g>
<g style="fill:#000000; fill-opacity:1.0; 
stroke:#000000; stroke-width:0; stroke-opacity:1; 
stroke-linecap:round; stroke-linejoin:round;">
<circle cx="99930" cy="17700" r="1181" /> 
</g>
<g style="fill:#000000; fill-opacity:1.0; 
stroke:#000000; stroke-width:39.3701; stroke-opacity:1; 
stroke-linecap:round; stroke-linejoin:round;">
</g>
<g style="fill:#000000; fill-opacity:1.0; 
stroke:#000000; stroke-width:0; stroke-opacity:1; 
stroke-linecap:round; stroke-linejoin:round;">
<circle cx="99930" cy="21700" r="1181" /> 
</g>
<g style="fill:#000000; fill-opacity:1.0; 
stroke:#000000; stroke-width:39.3701; stroke-opacity:1; 
stroke-linecap:round; stroke-linejoin:round;">
</g>
<g style="fill:#000000; fill-opacity:1.0; 
stroke:#000000; stroke-width:0; stroke-opacity:1; 
stroke-linecap:round; stroke-linejoin:round;">
<polyline style="fill-rule:evenodd;"
points="71814,34615
71145,34615
71145,35284
71814,35284
71814,34615
" /> 
</g>
<g style="fill:#000000; fill-opacity:1.0; 
stroke:#000000; stroke-width:669.291; stroke-opacity:1; 
stroke-linecap:round; stroke-linejoin:round;">
</g>
<g style="fill:#000000; fill-opacity:0.0; 
stroke:#000000; stroke-width:669.291; stroke-opacity:1; 
stroke-linecap:round; stroke-linejoin:round;">
<path d="M72480 34950
L72480 34950
" />
<path d="M73480 34950
L73480 34950
" />
<path d="M74480 34950
L74480 34950
" />
<path d="M75480 34950
L75480 34950
" />
<path d="M76480 34950
L76480 34950
" />
<path d="M77480 34950
L77480 34950
" />
</g>
<g style="fill:#000000; fill-opacity:0.0; 
stroke:#000000; stroke-width:0; stroke-opacity:1; 
stroke-linecap:round; stroke-linejoin:round;">
</g>
<g style="fill:#000000; fill-opacity:1.0; 
stroke:#000000; stroke-width:0; stroke-opacity:1; 
stroke-linecap:round; stroke-linejoin:round;">
<polyline style="fill-rule:evenodd;"
points="78964,32134
78964,31465
78295,31465
78295,32134
78964,32134
" /> 
<polyline style="fill-rule:evenodd;"
points="73664,22234
73664,21565
72995,21565
72995,22234
73664,22234
" /> 
<polyline style="fill-rule:evenodd;"
points="80764,29534
80764,28865
80095,28865
80095,29534
80764,29534
" /> 
<polyline style="fill-rule:evenodd;"
points="70514,25834
70514,25165
69845,25165
69845,25834
70514,25834
" /> 
<polyline style="fill-rule:evenodd;"
points="70264,28434
70264,27765
69595,27765
69595,28434
70264,28434
" /> 
<polyline style="fill-rule:evenodd;"
points="68164,14434
68164,13765
67495,13765
67495,14434
68164,14434
" /> 
<polyline style="fill-rule:evenodd;"
points="65984,13845
65275,13845
65275,14554
65984,14554
65984,13845
" /> 
</g>
<g style="fill:#000000; fill-opacity:1.0; 
stroke:#000000; stroke-width:708.661; stroke-opacity:1; 
stroke-linecap:round; stroke-linejoin:round;">
</g>
<g style="fill:#000000; fill-opacity:0.0; 
stroke:#000000; stroke-width:708.661; stroke-opacity:1; 
stroke-linecap:round; stroke-linejoin:round;">
<path d="M65630 15200
L65630 15200
" />
<path d="M65630 16200
L65630 16200
" />
</g>
<g style="fill:#000000; fill-opacity:0.0; 
stroke:#000000; stroke-width:0; stroke-opacity:1; 
stroke-linecap:round; stroke-linejoin:round;">
</g>
<g style="fill:#000000; fill-opacity:1.0; 
stroke:#000000; stroke-width:0; stroke-opacity:1; 
stroke-linecap:round; stroke-linejoin:round;">
<polyline style="fill-rule:evenodd;"
points="68760,29822
68760,30177
69233,30177
69233,29822
68760,29822
" /> 
<polyline style="fill-rule:evenodd;"
points="69626,29822
69626,30177
70099,30177
70099,29822
69626,29822
" /> 
<polyline style="fill-rule:evenodd;"
points="70760,29822
70760,30177
71233,30177
71233,29822
70760,29822
" /> 
<polyline style="fill-rule:evenodd;"
points="71626,29822
71626,30177
72099,30177
72099,29822
71626,29822
" /> 
<circle cx="62530" cy="21200" r="472.441" /> 
</g>
<g style="fill:#000000; fill-opacity:1.0; 
stroke:#000000; stroke-width:39.3701; stroke-opacity:1; 
stroke-linecap:round; stroke-linejoin:round;">
</g>
<g style="fill:#000000; fill-opacity:1.0; 
stroke:#000000; stroke-width:944.882; stroke-opacity:1; 
stroke-linecap:round; stroke-linejoin:round;">
</g>
<g style="fill:#000000; fill-opacity:0.0; 
stroke:#000000; stroke-width:944.882; stroke-opacity:1; 
stroke-linecap:round; stroke-linejoin:round;">
<path d="M62530 31200
L62530 31200
" />
</g>
<g style="fill:#000000; fill-opacity:0.0; 
stroke:#000000; stroke-width:0; stroke-opacity:1; 
stroke-linecap:round; stroke-linejoin:round;">
</g>
<g style="fill:#000000; fill-opacity:1.0; 
stroke:#000000; stroke-width:0; stroke-opacity:1; 
stroke-linecap:round; stroke-linejoin:round;">
<polyline style="fill-rule:evenodd;"
points="76725,32251
76902,32251
76902,31680
76725,31680
76725,32251
" /> 
<polyline style="fill-rule:evenodd;"
points="76469,32251
76646,32251
76646,31680
76469,31680
76469,32251
" /> 
<polyline style="fill-rule:evenodd;"
points="76213,32251
76390,32251
76390,31680
76213,31680
76213,32251
" /> 
<polyline style="fill-rule:evenodd;"
points="75957,32251
76134,32251
76134,31680
75957,31680
75957,32251
" /> 
<polyline style="fill-rule:evenodd;"
points="75957,30519
76134,30519
76134,29948
75957,29948
75957,30519
" /> 
<polyline style="fill-rule:evenodd;"
points="76213,30519
76390,30519
76390,29948
76213,29948
76213,30519
" /> 
<polyline style="fill-rule:evenodd;"
points="76469,30519
76646,30519
76646,29948
76469,29948
76469,30519
" /> 
<polyline style="fill-rule:evenodd;"
points="76725,30519
76902,30519
76902,29948
76725,29948
76725,30519
" /> 
<polyline style="fill-rule:evenodd;"
points="76334,26048
76157,26048
76157,26619
76334,26619
76334,26048
" /> 
<polyline style="fill-rule:evenodd;"
points="76590,26048
76413,26048
76413,26619
76590,26619
76590,26048
" /> 
<polyline style="fill-rule:evenodd;"
points="76846,26048
76669,26048
76669,26619
76846,26619
76846,26048
" /> 
<polyline style="fill-rule:evenodd;"
points="77102,26048
76925,26048
76925,26619
77102,26619
77102,26048
" /> 
<polyline style="fill-rule:evenodd;"
points="77102,27780
76925,27780
76925,28351
77102,28351
77102,27780
" /> 
<polyline style="fill-rule:evenodd;"
points="76846,27780
76669,27780
76669,28351
76846,28351
76846,27780
" /> 
<polyline style="fill-rule:evenodd;"
points="76590,27780
76413,27780
76413,28351
76590,28351
76590,27780
" /> 
<polyline style="fill-rule:evenodd;"
points="76334,27780
76157,27780
76157,28351
76334,28351
76334,27780
" /> 
</g>
<g style="fill:#000000; fill-opacity:1.0; 
stroke:#000000; stroke-width:800; stroke-opacity:1; 
stroke-linecap:round; stroke-linejoin:round;">
</g>
<g style="fill:#000000; fill-opacity:0.0; 
stroke:#000000; stroke-width:800; stroke-opacity:1; 
stroke-linecap:round; stroke-linejoin:round;">
<path d="M75730 22600
L75730 22400
" />
<path d="M76730 22600
L76730 22400
" />
<path d="M74730 22600
L74730 22400
" />
<path d="M70430 14100
L70430 14300
" />
<path d="M69430 14100
L69430 14300
" />
<path d="M71430 14100
L71430 14300
" />
</g>
<g style="fill:#000000; fill-opacity:0.0; 
stroke:#000000; stroke-width:0; stroke-opacity:1; 
stroke-linecap:round; stroke-linejoin:round;">
</g>
<g style="fill:#000000; fill-opacity:1.0; 
stroke:#000000; stroke-width:0; stroke-opacity:1; 
stroke-linecap:round; stroke-linejoin:round;">
<polyline style="fill-rule:evenodd;"
points="72348,31118
72348,30881
71737,30881
71737,31118
72348,31118
" /> 
<polyline style="fill-rule:evenodd;"
points="72348,31618
72348,31381
71737,31381
71737,31618
72348,31618
" /> 
<polyline style="fill-rule:evenodd;"
points="72348,32118
72348,31881
71737,31881
71737,32118
72348,32118
" /> 
<polyline style="fill-rule:evenodd;"
points="72348,32618
72348,32381
71737,32381
71737,32618
72348,32618
" /> 
<polyline style="fill-rule:evenodd;"
points="70222,32618
70222,32381
69611,32381
69611,32618
70222,32618
" /> 
<polyline style="fill-rule:evenodd;"
points="70222,32118
70222,31881
69611,31881
69611,32118
70222,32118
" /> 
<polyline style="fill-rule:evenodd;"
points="70222,31618
70222,31381
69611,31381
69611,31618
70222,31618
" /> 
<polyline style="fill-rule:evenodd;"
points="70222,31118
70222,30881
69611,30881
69611,31118
70222,31118
" /> 
<circle cx="79330" cy="35450" r="393.701" /> 
</g>
<g style="fill:#000000; fill-opacity:1.0; 
stroke:#000000; stroke-width:39.3701; stroke-opacity:1; 
stroke-linecap:round; stroke-linejoin:round;">
</g>
<g style="fill:#000000; fill-opacity:1.0; 
stroke:#000000; stroke-width:0; stroke-opacity:1; 
stroke-linecap:round; stroke-linejoin:round;">
<circle cx="68680" cy="31800" r="393.701" /> 
</g>
<g style="fill:#000000; fill-opacity:1.0; 
stroke:#000000; stroke-width:39.3701; stroke-opacity:1; 
stroke-linecap:round; stroke-linejoin:round;">
</g>
<g style="fill:#000000; fill-opacity:1.0; 
stroke:#000000; stroke-width:0; stroke-opacity:1; 
stroke-linecap:round; stroke-linejoin:round;">
<circle cx="81030" cy="21300" r="393.701" /> 
</g>
<g style="fill:#000000; fill-opacity:1.0; 
stroke:#000000; stroke-width:39.3701; stroke-opacity:1; 
stroke-linecap:round; stroke-linejoin:round;">
</g>
<g style="fill:#000000; fill-opacity:1.0; 
stroke:#000000; stroke-width:0; stroke-opacity:1; 
stroke-linecap:round; stroke-linejoin:round;">
<circle cx="95630" cy="26150" r="393.701" /> 
</g>
<g style="fill:#000000; fill-opacity:1.0; 
stroke:#000000; stroke-width:39.3701; stroke-opacity:1; 
stroke-linecap:round; stroke-linejoin:round;">
</g>
<g style="fill:#000000; fill-opacity:1.0; 
stroke:#000000; stroke-width:0; stroke-opacity:1; 
stroke-linecap:round; stroke-linejoin:round;">
<circle cx="66230" cy="21900" r="393.701" /> 
</g>
<g style="fill:#000000; fill-opacity:1.0; 
stroke:#000000; stroke-width:39.3701; stroke-opacity:1; 
stroke-linecap:round; stroke-linejoin:round;">
</g>
<g style="fill:#000000; fill-opacity:1.0; 
stroke:#000000; stroke-width:0; stroke-opacity:1; 
stroke-linecap:round; stroke-linejoin:round;">
<circle cx="74480" cy="31150" r="393.701" /> 
</g>
<g style="fill:#000000; fill-opacity:1.0; 
stroke:#000000; stroke-width:39.3701; stroke-opacity:1; 
stroke-linecap:round; stroke-linejoin:round;">
</g>
<g style="fill:#000000; fill-opacity:1.0; 
stroke:#000000; stroke-width:157.48; stroke-opacity:1; 
stroke-linecap:round; stroke-linejoin:round;">
</g>
<g style="fill:#000000; fill-opacity:0.0; 
stroke:#000000; stroke-width:157.48; stroke-opacity:1; 
stroke-linecap:round; stroke-linejoin:round;">
<path d="M72042 32000
L74930 32000
" />
<path d="M75530 31400
L76680 31400
" />
<path d="M74930 32000
L75530 31400
" />
<path d="M80005 34775
L80155 34775
" />
<path d="M79330 35450
L80005 34775
" />
<path d="M80080 34850
L77580 32350
" />
<path d="M77580 32350
L77580 31750
" />
<path d="M77580 31750
L77230 31400
" />
<path d="M77230 31400
L76680 31400
" />
</g>
<g style="fill:#000000; fill-opacity:0.0; 
stroke:#000000; stroke-width:393.701; stroke-opacity:1; 
stroke-linecap:round; stroke-linejoin:round;">
<path d="M79480 23050
L81880 25450
" />
<path d="M77430 23050
L79480 23050
" />
<path d="M81880 33050
L80155 34775
" />
<path d="M80155 34775
L80080 34850
" />
<path d="M81880 25450
L81880 33050
" />
<path d="M76730 22500
L76880 22500
" />
<path d="M76880 22500
L77430 23050
" />
<path d="M77430 23050
L77430 23700
" />
</g>
<g style="fill:#000000; fill-opacity:0.0; 
stroke:#000000; stroke-width:157.48; stroke-opacity:1; 
stroke-linecap:round; stroke-linejoin:round;">
<path d="M77422 24800
L77422 23707
" />
<path d="M77422 23707
L77430 23700
" />
<path d="M77013 26333
L77013 25816
" />
<path d="M77422 25407
L77422 24800
" />
<path d="M77013 25816
L77422 25407
" />
<path d="M76813 31533
L76813 31966
" />
<path d="M76680 31400
L76813 31533
" />
<path d="M69917 31000
L70580 31000
" />
<path d="M70580 31000
L71080 31500
" />
<path d="M72042 31500
L71080 31500
" />
<path d="M71080 31500
L70930 31500
" />
<path d="M70430 32000
L69917 32000
" />
<path d="M70930 31500
L70430 32000
" />
<path d="M69917 32000
L69030 32000
" />
<path d="M68680 32100
L68680 31800
" />
<path d="M69030 32000
L68680 32100
" />
<path d="M72680 30000
L72680 17900
" />
<path d="M82330 20600
L82330 22600
" />
<path d="M75230 13500
L82330 20600
" />
<path d="M72730 13500
L75230 13500
" />
<path d="M72280 13950
L72730 13500
" />
<path d="M72280 17500
L72280 13950
" />
<path d="M72680 17900
L72280 17500
" />
<path d="M78630 26300
L78630 25950
" />
<path d="M79330 29700
L78622 29700
" />
<path d="M79780 30150
L79330 29700
" />
<path d="M80880 30150
L79780 30150
" />
<path d="M81330 29700
L80880 30150
" />
<path d="M81330 25800
L81330 29700
" />
<path d="M80880 25350
L81330 25800
" />
<path d="M79230 25350
L80880 25350
" />
<path d="M78630 25950
L79230 25350
" />
<path d="M76502 26333
L76502 26572
" />
<path d="M76502 26572
L76880 26950
" />
<path d="M78030 26300
L78630 26300
" />
<path d="M77380 26950
L78030 26300
" />
<path d="M76880 26950
L77380 26950
" />
<path d="M75580 24800
L76437 24800
" />
<path d="M76502 26333
L76502 25722
" />
<path d="M76502 25722
L76530 25750
" />
<path d="M76430 23700
L75730 23700
" />
<path d="M75730 23700
L75580 23850
" />
<path d="M76757 26333
L76757 25977
" />
<path d="M75580 25200
L75580 24800
" />
<path d="M75580 24800
L75580 23850
" />
<path d="M75580 23850
L75580 22650
" />
<path d="M75880 25500
L75580 25200
" />
<path d="M76280 25500
L75880 25500
" />
<path d="M76757 25977
L76530 25750
" />
<path d="M76530 25750
L76280 25500
" />
<path d="M75580 22650
L75730 22500
" />
<path d="M79230 26500
L79230 26400
" />
<path d="M79330 26300
L79930 26300
" />
<path d="M79230 26400
L79330 26300
" />
<path d="M77013 28066
L79013 28066
" />
<path d="M79030 26300
L78630 26300
" />
<path d="M79280 26550
L79230 26500
" />
<path d="M79230 26500
L79030 26300
" />
<path d="M79280 27800
L79280 26550
" />
<path d="M79013 28066
L79280 27800
" />
<path d="M74337 30200
L74380 30200
" />
<path d="M74380 30200
L74830 30650
" />
<path d="M76046 30533
L76046 30233
" />
<path d="M75930 30650
L76046 30533
" />
<path d="M74830 30650
L75930 30650
" />
<path d="M78622 30200
L78622 29700
" />
<path d="M78622 29700
L78622 29542
" />
<path d="M78622 29542
L78380 29300
" />
<path d="M78380 29300
L77822 29300
" />
<path d="M74337 30200
L73480 30200
" />
<path d="M73280 30000
L72680 30000
" />
<path d="M72680 30000
L71863 30000
" />
<path d="M73480 30200
L73280 30000
" />
</g>
<g style="fill:#000000; fill-opacity:0.0; 
stroke:#000000; stroke-width:393.701; stroke-opacity:1; 
stroke-linecap:round; stroke-linejoin:round;">
<path d="M81030 21300
L82330 22600
" />
<path d="M82330 22600
L85830 26100
" />
<path d="M85830 26100
L85830 27300
" />
<path d="M66530 34200
L68030 34200
" />
<path d="M68030 34200
L69780 35950
" />
<path d="M83530 29600
L85830 27300
" />
<path d="M83530 33700
L83530 29600
" />
<path d="M80830 36400
L83530 33700
" />
<path d="M70130 36400
L80830 36400
" />
<path d="M69780 36050
L70130 36400
" />
<path d="M69780 35950
L69780 36050
" />
<path d="M86980 26150
L95630 26150
" />
<path d="M85830 27300
L86980 26150
" />
</g>
<g style="fill:#000000; fill-opacity:0.0; 
stroke:#000000; stroke-width:157.48; stroke-opacity:1; 
stroke-linecap:round; stroke-linejoin:round;">
<path d="M68430 35650
L68430 34200
" />
<path d="M68030 36050
L68430 35650
" />
<path d="M61880 36050
L68030 36050
" />
<path d="M60780 34950
L61880 36050
" />
<path d="M60780 27350
L60780 34950
" />
<path d="M66230 21900
L60780 27350
" />
<path d="M66530 34200
L68430 34200
" />
<path d="M68430 34200
L69180 34200
" />
<path d="M69180 34200
L71180 34200
" />
<path d="M71480 34500
L71480 34950
" />
<path d="M71180 34200
L71480 34500
" />
<path d="M76246 26333
L75596 26333
" />
<path d="M75596 26333
L75230 26700
" />
<path d="M76246 28066
L75596 28066
" />
<path d="M75596 28066
L75230 27700
" />
<path d="M79930 28400
L77630 28400
" />
<path d="M77330 28700
L76757 28700
" />
<path d="M77630 28400
L77330 28700
" />
<path d="M79930 27300
L79930 28400
" />
<path d="M79930 28400
L79930 28700
" />
<path d="M79930 28700
L80430 29200
" />
<path d="M76757 28066
L76757 28700
" />
<path d="M76757 28700
L76757 29220
" />
<path d="M76757 29220
L76837 29300
" />
<path d="M76557 30233
L76557 29579
" />
<path d="M76557 29579
L76837 29300
" />
<path d="M76502 28066
L76502 27577
" />
<path d="M76780 27300
L78630 27300
" />
<path d="M76502 27577
L76780 27300
" />
<path d="M72042 31000
L71530 31000
" />
<path d="M70480 30400
L70480 30000
" />
<path d="M70530 30450
L70480 30400
" />
<path d="M70980 30450
L70530 30450
" />
<path d="M71530 31000
L70980 30450
" />
<path d="M70180 25500
L70180 26050
" />
<path d="M70480 29350
L70480 30000
" />
<path d="M71680 28150
L70480 29350
" />
<path d="M71680 27550
L71680 28150
" />
<path d="M70180 26050
L71680 27550
" />
<path d="M69863 30000
L70480 30000
" />
<path d="M70480 30000
L70996 30000
" />
<path d="M69917 31500
L69430 31500
" />
<path d="M69430 28600
L69930 28100
" />
<path d="M69430 30400
L69430 28600
" />
<path d="M69130 30700
L69430 30400
" />
<path d="M69130 31200
L69130 30700
" />
<path d="M69430 31500
L69130 31200
" />
<path d="M69930 28100
L69780 28100
" />
<path d="M69780 28100
L69180 27500
" />
<path d="M70880 18500
L71330 18500
" />
<path d="M70580 18800
L70880 18500
" />
<path d="M70580 19750
L70580 18800
" />
<path d="M69180 21150
L70580 19750
" />
<path d="M69180 27500
L69180 21150
" />
<path d="M74680 30950
L77680 30950
" />
<path d="M74480 31150
L74680 30950
" />
<path d="M78630 31800
L78530 31800
" />
<path d="M78530 31800
L77680 30950
" />
<path d="M77680 30950
L77430 30700
" />
<path d="M77430 30700
L77430 30407
" />
<path d="M77430 30407
L77637 30200
" />
<path d="M77637 30200
L76847 30200
" />
<path d="M76847 30200
L76813 30233
" />
<path d="M76302 30233
L76302 29722
" />
<path d="M75780 29200
L74730 29200
" />
<path d="M76302 29722
L75780 29200
" />
<path d="M75322 30200
L75322 29792
" />
<path d="M73330 27800
L73330 21900
" />
<path d="M75322 29792
L74730 29200
" />
<path d="M74730 29200
L73330 27800
" />
</g>
<g style="fill:#000000; fill-opacity:0.0; 
stroke:#000000; stroke-width:393.701; stroke-opacity:1; 
stroke-linecap:round; stroke-linejoin:round;">
<path d="M68280 12750
L77130 12750
" />
<path d="M77130 12750
L78030 13650
" />
<path d="M78030 13650
L78030 14400
" />
<path d="M69430 14200
L69430 13900
" />
<path d="M69430 13900
L68280 12750
" />
<path d="M68280 12750
L67330 12750
" />
<path d="M67330 12750
L66680 13400
" />
<path d="M66680 13400
L66680 14700
" />
<path d="M66680 14700
L66180 15200
" />
<path d="M66180 15200
L65630 15200
" />
<path d="M73030 14400
L73030 14850
" />
<path d="M73030 14850
L77030 18850
" />
<path d="M77030 18850
L77030 21200
" />
<path d="M77030 21200
L76680 21550
" />
<path d="M76680 21550
L75130 21550
" />
<path d="M75130 21550
L74730 21950
" />
<path d="M74730 21950
L74730 22500
" />
</g>
<g style="fill:#000000; fill-opacity:0.0; 
stroke:#000000; stroke-width:1181.1; stroke-opacity:1; 
stroke-linecap:round; stroke-linejoin:round;">
<path d="M62530 31200
L62530 34200
" />
</g>
<g style="fill:#000000; fill-opacity:0.0; 
stroke:#000000; stroke-width:157.48; stroke-opacity:1; 
stroke-linecap:round; stroke-linejoin:round;">
<path d="M62530 31200
L65480 31200
" />
<path d="M66680 30000
L68996 30000
" />
<path d="M65480 31200
L66680 30000
" />
</g>
<g style="fill:#000000; fill-opacity:0.0; 
stroke:#000000; stroke-width:1181.1; stroke-opacity:1; 
stroke-linecap:round; stroke-linejoin:round;">
<path d="M62530 18400
L62530 21200
" />
</g>
<g style="fill:#000000; fill-opacity:0.0; 
stroke:#000000; stroke-width:393.701; stroke-opacity:1; 
stroke-linecap:round; stroke-linejoin:round;">
<path d="M62530 14400
L64080 14400
" />
<path d="M64280 14200
L65630 14200
" />
<path d="M64080 14400
L64280 14200
" />
</g>
<g style="fill:#000000; fill-opacity:0.0; 
stroke:#000000; stroke-width:157.48; stroke-opacity:1; 
stroke-linecap:round; stroke-linejoin:round;">
<path d="M74480 34950
L74480 33700
" />
<path d="M73280 32500
L72042 32500
" />
<path d="M74480 33700
L73280 32500
" />
<path d="M69917 32500
L69380 32500
" />
<path d="M73480 34350
L73480 34950
" />
<path d="M72980 33850
L73480 34350
" />
<path d="M69680 33850
L72980 33850
" />
<path d="M69080 33250
L69680 33850
" />
<path d="M69080 32800
L69080 33250
" />
<path d="M69380 32500
L69080 32800
" />
<path d="M76480 34950
L76480 33050
" />
<path d="M76302 32872
L76302 31966
" />
<path d="M76480 33050
L76302 32872
" />
<path d="M75480 34950
L75480 33350
" />
<path d="M76046 32783
L76046 31966
" />
<path d="M75480 33350
L76046 32783
" />
<path d="M77480 34950
L77480 33550
" />
<path d="M76557 32627
L76557 31966
" />
<path d="M77480 33550
L76557 32627
" />
</g>
<g style="fill:#000000; fill-opacity:1.0; 
stroke:#000000; stroke-width:100; stroke-opacity:1; 
stroke-linecap:round; stroke-linejoin:round;">
<polyline style="fill-rule:evenodd;"
points="60065,37114
101394,37114
101394,33719
94423,33719
94371,33817
94128,33925
93862,33931
93614,33835
93587,33817
93535,33719
93979,33275
94423,33719
101394,33719
101394,32564
101267,32564
101064,33056
100688,33433
100197,33637
99665,33637
99173,33434
99116,33377
94650,33377
94554,33625
94536,33652
94438,33704
93994,33260
93964,33260
93520,33704
93422,33652
93323,33429
92546,33429
92447,33669
92263,33853
92023,33953
91763,33953
91523,33854
91339,33670
91239,33430
91239,33429
90420,33429
90321,33669
90137,33853
89897,33953
89637,33953
89397,33854
89213,33670
89113,33430
89113,33429
88333,33429
88234,33669
88050,33853
87810,33953
87551,33953
87310,33854
87127,33670
87027,33430
87027,33170
87126,32930
87309,32746
87549,32646
87809,32646
88049,32745
88233,32929
88333,33169
88333,33429
89113,33429
89113,33170
89212,32930
89396,32746
89636,32646
89896,32646
90136,32745
90320,32929
90420,33169
90420,33429
91239,33429
91239,33170
91338,32930
91522,32746
91762,32646
92022,32646
92262,32745
92446,32929
92546,33169
92546,33429
93323,33429
93314,33409
93308,33143
93404,32895
93422,32868
93520,32816
93964,33260
93994,33260
94438,32816
94536,32868
94644,33111
94650,33377
99116,33377
98796,33058
98690,32801
94423,32801
93979,33245
93535,32801
93587,32703
93830,32595
94096,32589
94344,32685
94371,32703
94423,32801
98690,32801
98592,32567
98592,32035
98795,31543
99171,31166
99662,30962
100194,30962
100686,31165
101063,31541
101267,32032
101267,32564
101394,32564
101394,28564
101267,28564
101064,29056
100688,29433
100197,29637
99665,29637
99173,29434
99038,29300
96153,29300
96104,29548
95963,29758
95753,29899
95505,29948
94877,29948
94629,29899
94419,29758
94278,29548
94229,29300
87492,29300
87442,29548
87302,29758
87091,29899
86843,29948
86216,29948
85968,29899
85757,29758
85617,29548
85567,29300
85617,29051
85757,28841
85968,28700
86216,28651
86843,28651
87091,28700
87302,28841
87442,29051
87492,29300
94229,29300
94278,29051
94419,28841
94629,28700
94877,28651
95505,28651
95753,28700
95963,28841
96104,29051
96153,29300
99038,29300
98796,29058
98592,28567
98592,28035
98795,27543
99171,27166
99662,26962
100194,26962
100686,27165
101063,27541
101267,28032
101267,28564
101394,28564
101394,25450
82233,25450
82233,33050
82206,33185
82129,33299
80329,35099
80215,35176
80080,35203
79944,35176
79939,35172
79848,35264
79879,35340
79880,35558
79796,35761
79641,35915
79439,35999
79221,36000
79018,35916
78864,35761
78780,35559
78779,35341
78863,35138
79018,34984
79220,34900
79438,34899
79515,34931
79672,34775
77413,32516
77362,32439
77344,32350
77344,31847
77132,31635
77052,31635
77061,31680
77061,32251
77050,32309
77016,32362
76964,32398
76902,32410
76792,32410
76792,32530
77646,33383
77697,33460
77715,33550
77715,34518
77827,34593
77933,34752
77970,34940
77970,34959
77933,35147
77827,35306
77667,35413
77480,35450
77292,35413
77132,35306
77026,35147
76989,34959
76989,34940
77026,34752
77132,34593
77244,34518
77244,33647
76715,33117
76715,34518
76827,34593
76933,34752
76970,34940
76970,34959
76933,35147
76827,35306
76667,35413
76480,35450
76292,35413
76132,35306
76026,35147
75989,34959
75989,34940
76026,34752
76132,34593
76244,34518
76244,33147
76135,33038
76135,33038
76131,33031
75715,33447
75715,34518
75827,34593
75933,34752
75970,34940
75970,34959
75933,35147
75827,35306
75667,35413
75480,35450
75292,35413
75132,35306
75026,35147
74989,34959
74989,34940
75026,34752
75132,34593
75244,34518
75244,33350
75262,33260
75313,33183
75811,32686
75811,32314
75810,32313
75798,32251
75798,31680
75806,31635
75627,31635
75096,32166
75096,32166
75019,32217
74930,32235
72453,32235
72431,32250
72455,32264
73280,32264
73369,32282
73446,32333
74646,33533
74697,33610
74715,33700
74715,34518
74827,34593
74933,34752
74970,34940
74970,34959
74933,35147
74827,35306
74667,35413
74480,35450
74292,35413
74132,35306
74026,35147
73989,34959
73989,34940
73970,34940
73970,34959
73933,35147
73827,35306
73667,35413
73480,35450
73292,35413
73132,35306
73026,35147
72989,34959
72989,34940
72970,34940
72970,34959
72933,35147
72827,35306
72667,35413
72480,35450
72292,35413
72132,35306
72026,35147
71997,35003
71985,35003
71985,35318
71959,35381
71911,35429
71848,35455
71533,35455
71490,35413
71490,34960
71469,34960
71469,35413
71426,35455
71111,35455
71048,35429
71000,35381
70974,35318
70974,35152
67467,35152
67331,35321
66841,35543
66303,35560
65800,35369
65728,35321
65592,35152
66530,34215
67467,35152
70974,35152
70974,35003
71016,34960
71469,34960
71490,34960
71943,34960
71985,35003
71997,35003
71989,34959
71989,34940
72026,34752
72132,34593
72150,34581
71985,34581
71985,34896
71943,34939
71490,34939
71490,34486
71469,34486
71469,34939
71016,34939
70974,34896
70974,34581
71000,34518
71048,34470
71111,34444
71426,34444
71469,34486
71490,34486
71533,34444
71848,34444
71911,34470
71959,34518
71985,34581
72150,34581
72292,34486
72480,34449
72667,34486
72827,34593
72933,34752
72970,34940
72989,34940
73026,34752
73132,34593
73244,34518
73244,34447
73223,34426
67890,34426
67699,34929
67651,35001
67482,35137
66545,34200
66514,34200
65577,35137
65408,35001
65186,34511
65169,33973
65360,33470
65408,33398
65577,33262
66514,34200
66545,34200
67482,33262
67651,33398
67873,33888
67890,34426
73223,34426
72882,34085
69680,34085
69590,34067
69513,34016
68913,33416
68913,33416
68862,33339
68844,33250
68844,33247
67467,33247
66530,34184
65592,33247
65728,33078
66218,32856
66756,32839
67259,33030
67331,33078
67467,33247
68844,33247
68844,32800
68844,32800
68862,32710
68913,32633
69213,32333
69290,32282
69380,32264
69506,32264
69512,32260
69466,32215
69440,32152
69440,32053
69483,32010
69906,32010
69906,32018
69927,32018
69927,32010
70350,32010
70393,32053
70393,32152
70367,32215
70322,32260
70333,32267
70368,32319
70381,32381
70381,32618
70370,32676
70336,32729
70284,32764
70222,32777
69611,32777
69553,32766
69504,32735
69477,32735
69315,32897
69315,33152
69777,33614
72980,33614
73069,33632
73146,33683
73646,34183
73697,34260
73715,34350
73715,34518
73827,34593
73933,34752
73970,34940
73989,34940
74026,34752
74132,34593
74244,34518
74244,33797
73182,32735
72453,32735
72410,32764
72348,32777
71737,32777
71679,32766
71626,32732
71591,32680
71578,32618
71578,32381
71589,32323
71623,32270
71654,32249
71626,32232
71591,32180
71578,32118
71578,31881
71589,31823
71623,31770
71638,31760
71592,31715
71566,31652
71566,31553
71609,31510
72032,31510
72032,31518
72053,31518
72053,31510
72476,31510
72519,31553
72519,31652
72493,31715
72447,31760
72455,31764
74832,31764
75363,31233
75436,31185
75030,31185
75030,31258
74946,31461
74791,31615
74589,31699
74371,31700
74168,31616
74014,31461
73966,31347
72519,31347
72519,31446
72476,31489
72053,31489
72053,31481
72032,31481
72032,31489
71609,31489
71566,31446
71566,31347
71592,31284
71637,31239
71630,31235
71530,31235
71440,31217
71363,31166
71045,30847
70393,30847
70393,30946
70350,30989
69927,30989
69927,30753
69906,30753
69906,30989
69483,30989
69440,30946
69440,30847
69466,30784
69514,30736
69577,30710
69863,30710
69906,30753
69927,30753
69970,30710
70256,30710
70319,30736
70367,30784
70393,30847
71045,30847
70882,30685
70530,30685
70440,30667
70363,30616
70313,30566
70262,30489
70244,30400
70244,30239
70213,30288
70161,30323
70099,30336
69665,30336
69665,30400
69647,30489
69596,30566
69365,30797
69365,31102
69459,31196
69440,31152
69440,31053
69483,31010
69906,31010
69906,31018
69927,31018
69927,31010
70350,31010
70393,31053
70393,31152
70367,31215
70322,31260
70333,31267
70368,31319
70381,31381
70381,31618
70370,31676
70336,31729
70321,31739
70367,31784
70393,31847
70393,31946
70350,31989
69927,31989
69927,31981
69906,31981
69906,31989
69483,31989
69440,31946
69440,31847
69466,31784
69512,31739
69504,31735
69430,31735
69340,31717
69263,31666
68963,31366
68912,31289
68894,31200
68894,31199
68894,30700
68894,30700
68912,30610
68963,30533
69161,30336
68760,30336
68702,30325
68649,30291
68613,30239
68613,30235
66777,30235
65646,31366
65569,31417
65480,31435
63276,31435
63276,33061
63286,33065
63663,33441
63867,33932
63867,34464
63664,34956
63288,35333
62797,35537
62265,35537
61773,35334
61396,34958
61192,34467
61192,33935
61395,33443
61771,33066
61783,33062
61783,31200
61840,30914
62001,30671
62244,30510
62530,30453
62815,30510
63058,30671
63219,30914
63230,30964
65382,30964
66513,29833
66590,29782
66680,29764
68612,29764
68612,29764
68646,29711
68698,29676
68760,29663
69194,29663
69194,28600
69212,28510
69263,28433
69435,28261
69435,28088
69013,27666
69013,27666
68962,27589
68944,27500
68944,21150
68962,21060
69013,20983
69013,20983
70344,19652
70344,18800
70344,18800
70362,18710
70393,18664
63867,18664
63664,19156
63288,19533
63276,19537
63276,21200
63219,21485
63058,21728
62815,21889
62530,21946
62244,21889
62001,21728
61840,21485
61783,21200
61783,19538
61773,19534
61396,19158
61192,18667
61192,18135
61395,17643
61771,17266
62262,17062
62794,17062
63286,17265
63663,17641
63867,18132
63867,18664
70393,18664
70413,18633
70713,18333
70790,18282
70880,18264
70898,18264
70973,18152
71132,18046
71320,18009
71339,18009
71527,18046
71686,18152
71793,18312
71830,18500
71793,18687
71686,18847
71527,18953
71339,18990
71320,18990
71132,18953
70973,18847
70929,18782
70815,18897
70815,19750
70797,19839
70746,19916
69415,21247
69415,27402
69618,27605
70264,27605
70322,27616
70375,27651
70411,27703
70424,27765
70424,28434
70413,28492
70378,28545
70326,28581
70264,28594
69768,28594
69665,28697
69665,29663
70099,29663
70157,29674
70210,29708
70244,29759
70244,29350
70262,29260
70313,29183
71444,28052
71444,27647
70013,26216
69962,26139
69944,26050
69944,26049
69944,25994
69845,25994
69787,25983
69734,25948
69698,25896
69685,25834
69685,25165
69696,25107
69731,25054
69783,25018
69845,25005
70514,25005
70572,25016
70625,25051
70661,25103
70674,25165
70674,25834
70663,25892
70628,25945
70576,25981
70514,25994
70456,25994
71846,27383
71897,27460
71915,27550
71915,28150
71897,28239
71846,28316
70715,29447
70715,29672
70760,29663
71233,29663
71291,29674
71344,29708
71379,29760
71392,29822
71392,30177
71381,30235
71347,30288
71295,30323
71233,30336
71198,30336
71627,30764
71632,30764
71675,30735
71737,30722
72348,30722
72406,30733
72459,30767
72494,30819
72507,30881
72507,31118
72496,31176
72462,31229
72447,31239
72493,31284
72519,31347
73966,31347
73930,31259
73929,31041
74013,30838
74168,30684
74328,30617
74327,30617
74327,30574
74284,30617
74008,30617
73945,30591
73897,30543
73871,30480
73871,30253
73914,30210
74327,30210
74327,30218
74348,30218
74348,30210
74761,30210
74804,30253
74804,30480
74778,30543
74730,30591
74667,30617
74631,30617
74791,30683
74822,30714
77197,30714
77194,30700
77194,30699
77194,30503
77183,30446
77183,30435
77061,30435
77061,30519
77050,30577
77016,30630
76964,30666
76902,30678
76725,30678
76684,30670
76646,30678
76469,30678
76428,30670
76390,30678
76213,30678
76202,30676
76168,30690
76099,30690
76056,30647
76056,30532
76054,30519
76054,30244
76035,30244
76035,30647
75992,30690
75923,30690
75860,30664
75812,30616
75786,30553
75786,30287
75829,30244
76035,30244
76054,30244
76054,30215
76035,30215
76035,30223
75829,30223
75786,30180
75786,29914
75812,29851
75860,29803
75923,29777
75992,29777
76035,29819
76035,29787
75682,29435
75297,29435
75488,29625
75539,29702
75557,29792
75557,29794
75617,29794
75675,29805
75728,29839
75764,29891
75776,29953
75776,30446
75765,30503
75731,30557
75679,30592
75617,30605
75026,30605
74968,30594
74915,30560
74880,30508
74867,30446
74867,29953
74873,29919
74804,29919
74804,30146
74761,30189
74348,30189
74348,29825
74327,29825
74327,30189
73914,30189
73871,30146
73871,30053
72270,30053
72270,30211
72244,30274
72196,30322
72133,30348
71916,30348
71873,30305
71873,30010
71852,30010
71852,30305
71809,30348
71592,30348
71529,30322
71481,30274
71455,30211
71455,30053
71498,30010
71852,30010
71873,30010
72227,30010
72270,30053
73871,30053
73871,29919
73897,29856
73945,29808
73993,29788
72270,29788
72270,29946
72227,29989
71873,29989
71873,29694
71852,29694
71852,29989
71498,29989
71455,29946
71455,29788
71481,29725
71529,29677
71592,29651
71809,29651
71852,29694
71873,29694
71916,29651
72133,29651
72196,29677
72244,29725
72270,29788
73993,29788
74008,29782
74284,29782
74327,29825
74348,29825
74391,29782
74667,29782
74730,29808
74778,29856
74804,29919
74873,29919
74878,29896
74912,29842
74964,29807
74998,29800
74563,29366
73163,27966
73163,27966
73112,27889
73094,27800
73094,22394
72995,22394
72937,22383
72884,22348
72848,22296
72835,22234
72835,21565
72846,21507
72881,21454
72933,21418
72995,21405
73664,21405
73722,21416
73775,21451
73811,21503
73824,21565
73824,22234
73813,22292
73778,22345
73726,22381
73664,22394
73565,22394
73565,27702
74827,28964
75780,28964
75869,28982
75946,29033
76365,29453
76383,29426
76383,29053
76394,28996
76428,28942
76480,28907
76522,28898
76522,28510
76413,28510
76372,28503
76334,28510
76157,28510
76099,28500
76046,28465
76010,28413
75998,28351
75998,28301
75596,28301
75506,28283
75429,28232
75363,28166
75239,28190
75220,28190
75032,28153
74873,28047
74766,27887
74729,27700
74766,27512
74873,27352
75032,27246
75220,27209
75239,27209
75427,27246
75586,27352
75693,27512
75730,27700
75704,27831
75998,27831
75998,27780
76009,27722
76043,27669
76095,27633
76157,27621
76267,27621
76267,27577
76267,27577
76284,27488
76335,27411
76613,27133
76690,27082
76780,27064
78135,27064
78135,26965
78146,26907
78181,26854
78233,26818
78295,26805
78964,26805
79022,26816
79075,26851
79111,26903
79124,26965
79124,27634
79113,27692
79078,27745
79026,27781
78964,27794
78295,27794
78237,27783
78184,27748
78182,27746
77273,27746
77273,28012
77230,28055
77024,28055
77024,27652
77067,27609
77136,27609
77199,27635
77247,27683
77273,27746
78182,27746
78148,27696
78135,27634
78135,27535
76877,27535
76791,27621
76846,27621
76857,27623
76891,27609
76960,27609
77003,27652
77003,27767
77005,27780
77005,28084
77024,28084
77024,28076
77230,28076
77273,28119
77273,28385
77247,28448
77231,28464
77232,28464
77463,28233
77540,28182
77630,28164
79694,28164
79694,27794
79595,27794
79537,27783
79484,27748
79448,27696
79435,27634
79435,26965
79446,26907
79481,26854
79533,26818
79595,26805
80264,26805
80322,26816
80375,26851
80411,26903
80424,26965
80424,27634
80413,27692
80378,27745
80326,27781
80264,27794
80165,27794
80165,28602
80268,28705
80764,28705
80822,28716
80875,28751
80911,28803
80924,28865
80924,29534
80913,29592
80878,29645
80826,29681
80764,29694
80095,29694
80037,29683
79984,29648
79948,29596
79935,29534
79935,29353
78288,29353
78288,29580
78262,29643
78214,29691
78151,29717
77875,29717
77832,29674
77832,29310
77811,29310
77811,29674
77768,29717
77492,29717
77429,29691
77381,29643
77355,29580
77355,29353
77398,29310
77811,29310
77832,29310
78245,29310
78288,29353
79935,29353
79935,29038
79917,29019
78288,29019
78288,29246
78245,29289
77832,29289
77832,28925
77875,28882
78151,28882
78214,28908
78262,28956
78288,29019
79917,29019
79763,28866
79712,28789
79694,28700
79694,28635
77727,28635
77496,28866
77436,28905
77492,28882
77768,28882
77811,28925
77811,29289
77398,29289
77355,29246
77355,29019
77381,28956
77424,28914
77419,28917
77330,28935
77329,28935
77237,28935
77244,28939
77279,28991
77292,29053
77292,29546
77281,29603
77247,29657
77195,29692
77133,29705
76792,29705
76792,29789
76902,29789
76960,29799
77013,29834
77049,29886
77061,29948
77061,29964
77183,29964
77183,29953
77194,29896
77228,29842
77280,29807
77342,29794
77933,29794
77991,29805
78044,29839
78079,29891
78092,29953
78092,30446
78081,30503
78047,30557
77995,30592
77933,30605
77667,30605
77846,30783
78368,31305
78964,31305
79022,31316
79075,31351
79111,31403
79124,31465
79124,32134
79113,32192
79078,32245
79026,32281
78964,32294
78295,32294
78237,32283
78184,32248
78148,32196
78135,32134
78135,31738
77582,31185
77323,31185
77396,31233
77746,31583
77797,31660
77815,31750
77815,32252
79996,34434
81526,32903
81526,30253
79088,30253
79088,30480
79062,30543
79014,30591
78951,30617
78675,30617
78632,30574
78632,30210
78611,30210
78611,30574
78568,30617
78292,30617
78229,30591
78181,30543
78155,30480
78155,30253
78198,30210
78611,30210
78632,30210
79045,30210
79088,30253
81526,30253
81526,29919
79088,29919
79088,30146
79045,30189
78632,30189
78632,29825
78611,29825
78611,30189
78198,30189
78155,30146
78155,29919
78181,29856
78229,29808
78292,29782
78568,29782
78611,29825
78632,29825
78675,29782
78951,29782
79014,29808
79062,29856
79088,29919
81526,29919
81526,26389
80427,26389
80424,26407
80345,26588
80203,26725
80019,26797
79940,26762
79940,26310
79919,26310
79919,26762
79840,26797
79656,26725
79514,26588
79435,26407
79432,26389
79127,26389
79124,26407
79045,26588
78903,26725
78719,26797
78640,26762
78640,26310
78619,26310
78619,26762
78540,26797
78356,26725
78214,26588
78135,26407
78132,26389
78167,26310
78619,26310
78640,26310
79092,26310
79127,26389
79432,26389
79467,26310
79919,26310
79940,26310
80392,26310
80427,26389
81526,26389
81526,26210
80427,26210
80392,26289
79940,26289
79940,25837
79919,25837
79919,26289
79467,26289
79432,26210
79127,26210
79092,26289
78640,26289
78640,25837
78619,25837
78619,26289
78167,26289
78132,26210
78135,26192
78214,26011
78356,25874
78540,25802
78619,25837
78640,25837
78719,25802
78903,25874
79045,26011
79124,26192
79127,26210
79432,26210
79435,26192
79514,26011
79656,25874
79840,25802
79919,25837
79940,25837
80019,25802
80203,25874
80345,26011
80424,26192
80427,26210
81526,26210
81526,25596
79333,23403
77924,23403
77924,24034
77913,24092
77878,24145
77826,24181
77764,24194
77657,24194
77657,24394
77717,24394
77775,24405
77828,24439
77864,24491
77876,24553
77876,25046
77865,25103
77831,25157
77779,25192
77717,25205
77657,25205
77657,25407
77639,25497
77588,25574
77248,25913
77248,25985
77249,25986
77261,26048
77261,26619
77250,26677
77216,26730
77164,26766
77102,26778
76925,26778
76914,26776
76880,26790
76811,26790
76768,26747
76768,26632
76765,26619
76765,26387
76761,26387
76761,26653
76747,26688
76747,26747
76704,26790
76635,26790
76630,26788
76624,26790
76555,26790
76512,26747
76512,26688
76498,26653
76498,26387
76512,26372
76512,26344
76747,26344
76747,26372
76761,26387
76765,26387
76765,26048
76768,26034
76768,26014
76761,26014
76761,26280
76747,26294
76747,26323
76512,26323
76512,26294
76498,26280
76498,26048
76494,26048
76494,26619
76491,26633
76491,26747
76448,26790
76379,26790
76345,26776
76334,26778
76157,26778
76099,26767
76046,26733
76010,26681
75998,26619
75998,26568
75724,26568
75724,27034
75713,27092
75678,27145
75626,27181
75564,27194
74895,27194
74837,27183
74784,27148
74748,27096
74735,27034
74735,26365
74746,26307
74781,26254
74833,26218
74895,26205
75391,26205
75429,26167
75506,26116
75596,26098
75998,26098
75998,26048
76009,25990
76043,25937
76095,25901
76157,25889
76334,25889
76345,25891
76379,25877
76448,25877
76491,25919
76491,26035
76494,26048
76498,26048
76498,26014
76512,25979
76512,25919
76555,25877
76624,25877
76630,25879
76635,25877
76704,25877
76747,25919
76747,25979
76761,26014
76768,26014
76768,25919
76778,25909
76778,25816
76796,25726
76847,25649
76847,25649
77187,25310
77187,25205
77126,25205
77068,25194
77015,25160
76980,25108
76967,25046
76967,24853
76904,24853
76904,25080
76878,25143
76830,25191
76767,25217
76491,25217
76448,25174
76448,24810
76427,24810
76427,25174
76384,25217
76108,25217
76045,25191
75997,25143
75971,25080
75971,24853
76014,24810
76427,24810
76448,24810
76861,24810
76904,24853
76967,24853
76967,24553
76973,24519
76904,24519
76904,24746
76861,24789
76448,24789
76448,24425
76427,24425
76427,24789
76014,24789
75971,24746
75971,24519
75997,24456
76045,24408
76108,24382
76384,24382
76427,24425
76448,24425
76491,24382
76767,24382
76830,24408
76878,24456
76904,24519
76973,24519
76978,24496
77012,24442
77064,24407
77126,24394
77187,24394
77187,24194
77095,24194
77037,24183
76984,24148
76948,24096
76935,24034
76935,23789
76927,23789
76855,23973
76718,24115
76537,24194
76519,24197
76440,24162
76440,23710
76419,23710
76419,24162
76340,24197
76322,24194
76141,24115
76004,23973
75932,23789
75967,23710
76419,23710
76440,23710
76892,23710
76927,23789
76935,23789
76935,23610
76927,23610
76892,23689
76440,23689
76440,23237
76419,23237
76419,23689
75967,23689
75932,23610
76004,23426
76141,23284
76322,23205
76340,23202
76419,23237
76440,23237
76519,23202
76537,23205
76718,23284
76855,23426
76927,23610
76935,23610
76935,23365
76946,23307
76981,23254
77033,23218
77076,23209
77076,23196
76981,23100
76942,23126
76730,23169
76517,23126
76336,23006
76235,22854
76126,23011
75938,23131
75829,23162
75740,23128
75740,22510
75748,22510
75748,22489
75740,22489
75740,22481
75719,22481
75719,22489
75711,22489
75711,22510
75719,22510
75719,23128
75630,23162
75521,23131
75333,23011
75224,22854
75123,23006
74942,23126
74730,23169
74517,23126
74336,23006
74216,22825
74173,22612
74173,22387
74216,22174
74336,21993
74376,21966
74376,21950
74403,21814
74480,21700
74880,21300
74994,21223
75130,21196
76533,21196
76676,21053
76676,20700
76530,20700
76493,20887
76386,21047
76227,21153
76039,21190
76020,21190
75832,21153
75673,21047
75566,20887
75529,20700
75566,20512
75673,20352
75832,20246
76020,20209
76039,20209
76227,20246
76386,20352
76493,20512
76530,20700
76676,20700
76676,19365
76524,19365
76524,20034
76513,20092
76478,20145
76426,20181
76364,20194
75695,20194
75637,20183
75584,20148
75548,20096
75535,20034
75535,19365
75546,19307
75581,19254
75633,19218
75695,19205
76364,19205
76422,19216
76475,19251
76511,19303
76524,19365
76676,19365
76676,19165
71824,19165
71824,19834
71813,19892
71778,19945
71726,19981
71664,19994
70995,19994
70937,19983
70884,19948
70848,19896
70835,19834
70835,19165
70846,19107
70881,19054
70933,19018
70995,19005
71664,19005
71722,19016
71775,19051
71811,19103
71824,19165
76676,19165
76676,18996
73270,15589
71727,15589
71655,15773
71518,15915
71337,15994
71319,15997
71240,15962
71240,15510
71219,15510
71219,15962
71140,15997
71122,15994
70941,15915
70804,15773
70732,15589
70767,15510
71219,15510
71240,15510
71692,15510
71727,15589
73270,15589
73090,15410
71727,15410
71692,15489
71240,15489
71240,15037
71219,15037
71219,15489
70767,15489
70732,15410
70804,15226
70863,15165
70724,15165
70724,15834
70713,15892
70678,15945
70626,15981
70564,15994
69895,15994
69837,15983
69784,15948
69748,15896
69735,15834
69735,15165
69746,15107
69781,15054
69833,15018
69895,15005
70564,15005
70622,15016
70675,15051
70711,15103
70724,15165
70863,15165
70941,15084
71122,15005
71140,15002
71219,15037
71240,15037
71319,15002
71337,15005
71518,15084
71655,15226
71727,15410
73090,15410
72780,15099
72750,15054
72745,15053
72515,14900
72362,14670
72308,14400
72362,14129
72515,13899
72745,13746
73016,13692
73043,13692
73314,13746
73544,13899
73697,14129
73751,14400
73697,14670
73558,14878
77279,18600
77356,18714
77383,18850
77383,21200
77356,21335
77279,21449
76929,21799
76847,21854
76942,21873
77123,21993
77243,22174
77286,22387
77286,22406
77576,22696
79480,22696
79615,22723
79729,22800
82129,25200
82206,25314
82233,25450
101394,25450
101394,22652
100867,22652
100731,22821
100241,23043
99703,23060
99200,22869
99128,22821
98992,22652
99930,21715
100867,22652
101394,22652
101394,21926
101290,21926
101099,22429
101051,22501
100882,22637
99945,21700
99914,21700
98977,22637
98808,22501
98586,22011
98575,21655
90333,21655
90245,21783
89897,21939
89516,21950
89160,21814
89114,21783
89026,21655
89680,21002
90333,21655
98575,21655
98569,21473
98692,21150
90643,21150
90507,21506
90476,21552
90348,21640
89695,20987
89664,20987
89011,21640
88883,21552
88727,21204
88716,20823
88852,20467
88883,20421
89011,20333
89664,20987
89695,20987
90348,20333
90476,20421
90632,20769
90643,21150
98692,21150
98760,20970
98808,20898
98977,20762
99914,21700
99945,21700
100882,20762
101051,20898
101273,21388
101290,21926
101394,21926
101394,20747
100867,20747
99930,21684
98992,20747
99128,20578
99618,20356
100156,20339
100659,20530
100731,20578
100867,20747
101394,20747
101394,20318
90333,20318
89680,20971
89026,20318
89114,20190
89462,20034
89843,20023
90199,20159
90245,20190
90333,20318
101394,20318
101394,17964
101267,17964
101064,18456
100688,18833
100197,19037
99665,19037
99173,18834
98796,18458
98592,17967
98592,17435
98795,16943
99171,16566
99662,16362
100194,16362
100686,16565
101063,16941
101267,17432
101267,17964
101394,17964
101394,16262
90626,16262
90626,17837
90615,17895
90581,17948
90529,17984
90467,17996
88892,17996
88834,17985
88781,17951
88745,17899
88733,17837
88733,16262
88744,16204
88778,16151
88830,16115
88892,16103
90467,16103
90525,16114
90578,16148
90614,16200
90626,16262
101394,16262
101394,13848
78740,13848
78740,14951
78729,15009
78695,15062
78643,15097
78581,15110
77478,15110
77420,15099
77367,15065
77332,15013
77319,14951
77319,13848
77330,13790
77364,13737
77416,13702
77478,13689
77570,13689
76983,13103
69132,13103
69592,13563
69642,13573
69823,13693
69930,13853
70036,13693
70217,13573
70430,13530
70642,13573
70823,13693
70930,13853
71036,13693
71217,13573
71430,13530
71642,13573
71823,13693
71943,13874
71986,14087
71986,14312
71943,14525
71823,14706
71642,14826
71430,14869
71217,14826
71036,14706
70930,14546
70823,14706
70642,14826
70430,14869
70217,14826
70036,14706
69930,14546
69823,14706
69642,14826
69430,14869
69217,14826
69036,14706
68916,14525
68873,14312
68873,14087
68914,13883
68795,13765
68324,13765
68324,14434
68313,14492
68278,14545
68226,14581
68164,14594
67495,14594
67437,14583
67384,14548
67348,14496
67335,14434
67335,13765
67346,13707
67381,13654
67433,13618
67495,13605
68164,13605
68222,13616
68275,13651
68311,13703
68324,13765
68795,13765
68133,13103
67476,13103
67033,13546
67033,14700
67006,14835
66929,14949
66429,15449
66315,15526
66180,15553
66003,15553
65991,15571
65825,15681
65733,15700
65825,15718
65991,15828
66101,15994
66140,16189
66140,16210
66101,16405
65991,16571
65825,16681
65630,16720
65434,16681
65268,16571
65158,16405
65119,16210
65119,16189
65158,15994
65268,15828
65434,15718
65526,15700
65434,15681
65268,15571
65158,15405
65119,15210
65119,15189
65158,14994
65268,14828
65434,14718
65457,14713
65275,14713
65217,14702
65164,14668
65128,14616
65116,14554
65116,14553
64426,14553
64329,14649
64329,14649
64252,14701
64215,14726
64080,14753
63831,14753
63664,15156
63288,15533
62797,15737
62265,15737
61773,15534
61396,15158
61192,14667
61192,14135
61395,13643
61771,13266
62262,13062
62794,13062
63286,13265
63663,13641
63831,14046
63933,14046
64030,13950
64144,13873
64280,13846
65116,13846
65116,13845
65127,13787
65161,13734
65213,13698
65275,13686
65984,13686
66042,13697
66095,13731
66131,13783
66143,13845
66143,14554
66132,14612
66098,14665
66046,14701
65984,14713
65802,14713
65825,14718
65991,14828
66003,14846
66033,14846
66326,14553
66326,13400
66326,13400
66353,13264
66430,13150
66430,13150
67080,12500
67194,12423
67330,12396
77130,12396
77265,12423
77379,12500
78279,13400
78356,13514
78383,13650
78383,13689
78581,13689
78639,13700
78692,13734
78727,13786
78740,13848
101394,13848
101394,11285
60065,11285
60065,37114
" /> 
</g>
<g style="fill:#FFFFFF; fill-opacity:1.0; 
stroke:#FFFFFF; stroke-width:100; stroke-opacity:1; 
stroke-linecap:round; stroke-linejoin:round;">
</g>
<g style="fill:#FFFFFF; fill-opacity:1.0; 
stroke:#FFFFFF; stroke-width:0; stroke-opacity:1; 
stroke-linecap:round; stroke-linejoin:round;">
<circle cx="79330" cy="35450" r="68.8976" /> 
</g>
<g style="fill:#FFFFFF; fill-opacity:1.0; 
stroke:#FFFFFF; stroke-width:39.3701; stroke-opacity:1; 
stroke-linecap:round; stroke-linejoin:round;">
</g>
<g style="fill:#FFFFFF; fill-opacity:1.0; 
stroke:#FFFFFF; stroke-width:0; stroke-opacity:1; 
stroke-linecap:round; stroke-linejoin:round;">
<circle cx="68680" cy="31800" r="68.8976" /> 
</g>
<g style="fill:#FFFFFF; fill-opacity:1.0; 
stroke:#FFFFFF; stroke-width:39.3701; stroke-opacity:1; 
stroke-linecap:round; stroke-linejoin:round;">
</g>
<g style="fill:#FFFFFF; fill-opacity:1.0; 
stroke:#FFFFFF; stroke-width:0; stroke-opacity:1; 
stroke-linecap:round; stroke-linejoin:round;">
<circle cx="81030" cy="21300" r="68.8976" /> 
</g>
<g style="fill:#FFFFFF; fill-opacity:1.0; 
stroke:#FFFFFF; stroke-width:39.3701; stroke-opacity:1; 
stroke-linecap:round; stroke-linejoin:round;">
</g>
<g style="fill:#FFFFFF; fill-opacity:1.0; 
stroke:#FFFFFF; stroke-width:0; stroke-opacity:1; 
stroke-linecap:round; stroke-linejoin:round;">
<circle cx="95630" cy="26150" r="68.8976" /> 
</g>
<g style="fill:#FFFFFF; fill-opacity:1.0; 
stroke:#FFFFFF; stroke-width:39.3701; stroke-opacity:1; 
stroke-linecap:round; stroke-linejoin:round;">
</g>
<g style="fill:#FFFFFF; fill-opacity:1.0; 
stroke:#FFFFFF; stroke-width:0; stroke-opacity:1; 
stroke-linecap:round; stroke-linejoin:round;">
<circle cx="66230" cy="21900" r="68.8976" /> 
</g>
<g style="fill:#FFFFFF; fill-opacity:1.0; 
stroke:#FFFFFF; stroke-width:39.3701; stroke-opacity:1; 
stroke-linecap:round; stroke-linejoin:round;">
</g>
<g style="fill:#FFFFFF; fill-opacity:1.0; 
stroke:#FFFFFF; stroke-width:0; stroke-opacity:1; 
stroke-linecap:round; stroke-linejoin:round;">
<circle cx="74480" cy="31150" r="68.8976" /> 
</g>
<g style="fill:#FFFFFF; fill-opacity:1.0; 
stroke:#FFFFFF; stroke-width:39.3701; stroke-opacity:1; 
stroke-linecap:round; stroke-linejoin:round;">
</g>
<g style="fill:#FFFFFF; fill-opacity:1.0; 
stroke:#FFFFFF; stroke-width:0; stroke-opacity:1; 
stroke-linecap:round; stroke-linejoin:round;">
<circle cx="77430" cy="23700" r="68.8976" /> 
</g>
<g style="fill:#FFFFFF; fill-opacity:1.0; 
stroke:#FFFFFF; stroke-width:39.3701; stroke-opacity:1; 
stroke-linecap:round; stroke-linejoin:round;">
</g>
<g style="fill:#FFFFFF; fill-opacity:1.0; 
stroke:#FFFFFF; stroke-width:0; stroke-opacity:1; 
stroke-linecap:round; stroke-linejoin:round;">
<circle cx="76430" cy="23700" r="68.8976" /> 
</g>
<g style="fill:#FFFFFF; fill-opacity:1.0; 
stroke:#FFFFFF; stroke-width:39.3701; stroke-opacity:1; 
stroke-linecap:round; stroke-linejoin:round;">
</g>
<g style="fill:#FFFFFF; fill-opacity:1.0; 
stroke:#FFFFFF; stroke-width:0; stroke-opacity:1; 
stroke-linecap:round; stroke-linejoin:round;">
<circle cx="70230" cy="15500" r="68.8976" /> 
</g>
<g style="fill:#FFFFFF; fill-opacity:1.0; 
stroke:#FFFFFF; stroke-width:39.3701; stroke-opacity:1; 
stroke-linecap:round; stroke-linejoin:round;">
</g>
<g style="fill:#FFFFFF; fill-opacity:1.0; 
stroke:#FFFFFF; stroke-width:0; stroke-opacity:1; 
stroke-linecap:round; stroke-linejoin:round;">
<circle cx="71230" cy="15500" r="68.8976" /> 
</g>
<g style="fill:#FFFFFF; fill-opacity:1.0; 
stroke:#FFFFFF; stroke-width:39.3701; stroke-opacity:1; 
stroke-linecap:round; stroke-linejoin:round;">
</g>
<g style="fill:#FFFFFF; fill-opacity:1.0; 
stroke:#FFFFFF; stroke-width:0; stroke-opacity:1; 
stroke-linecap:round; stroke-linejoin:round;">
<circle cx="75230" cy="26700" r="68.8976" /> 
</g>
<g style="fill:#FFFFFF; fill-opacity:1.0; 
stroke:#FFFFFF; stroke-width:39.3701; stroke-opacity:1; 
stroke-linecap:round; stroke-linejoin:round;">
</g>
<g style="fill:#FFFFFF; fill-opacity:1.0; 
stroke:#FFFFFF; stroke-width:0; stroke-opacity:1; 
stroke-linecap:round; stroke-linejoin:round;">
<circle cx="75230" cy="27700" r="68.8976" /> 
</g>
<g style="fill:#FFFFFF; fill-opacity:1.0; 
stroke:#FFFFFF; stroke-width:39.3701; stroke-opacity:1; 
stroke-linecap:round; stroke-linejoin:round;">
</g>
<g style="fill:#FFFFFF; fill-opacity:1.0; 
stroke:#FFFFFF; stroke-width:0; stroke-opacity:1; 
stroke-linecap:round; stroke-linejoin:round;">
<circle cx="79930" cy="27300" r="68.8976" /> 
</g>
<g style="fill:#FFFFFF; fill-opacity:1.0; 
stroke:#FFFFFF; stroke-width:39.3701; stroke-opacity:1; 
stroke-linecap:round; stroke-linejoin:round;">
</g>
<g style="fill:#FFFFFF; fill-opacity:1.0; 
stroke:#FFFFFF; stroke-width:0; stroke-opacity:1; 
stroke-linecap:round; stroke-linejoin:round;">
<circle cx="79930" cy="26300" r="68.8976" /> 
</g>
<g style="fill:#FFFFFF; fill-opacity:1.0; 
stroke:#FFFFFF; stroke-width:39.3701; stroke-opacity:1; 
stroke-linecap:round; stroke-linejoin:round;">
</g>
<g style="fill:#FFFFFF; fill-opacity:1.0; 
stroke:#FFFFFF; stroke-width:0; stroke-opacity:1; 
stroke-linecap:round; stroke-linejoin:round;">
<circle cx="78630" cy="27300" r="68.8976" /> 
</g>
<g style="fill:#FFFFFF; fill-opacity:1.0; 
stroke:#FFFFFF; stroke-width:39.3701; stroke-opacity:1; 
stroke-linecap:round; stroke-linejoin:round;">
</g>
<g style="fill:#FFFFFF; fill-opacity:1.0; 
stroke:#FFFFFF; stroke-width:0; stroke-opacity:1; 
stroke-linecap:round; stroke-linejoin:round;">
<circle cx="78630" cy="26300" r="68.8976" /> 
</g>
<g style="fill:#FFFFFF; fill-opacity:1.0; 
stroke:#FFFFFF; stroke-width:39.3701; stroke-opacity:1; 
stroke-linecap:round; stroke-linejoin:round;">
</g>
<g style="fill:#FFFFFF; fill-opacity:1.0; 
stroke:#FFFFFF; stroke-width:0; stroke-opacity:1; 
stroke-linecap:round; stroke-linejoin:round;">
<circle cx="76030" cy="19700" r="68.8976" /> 
</g>
<g style="fill:#FFFFFF; fill-opacity:1.0; 
stroke:#FFFFFF; stroke-width:39.3701; stroke-opacity:1; 
stroke-linecap:round; stroke-linejoin:round;">
</g>
<g style="fill:#FFFFFF; fill-opacity:1.0; 
stroke:#FFFFFF; stroke-width:0; stroke-opacity:1; 
stroke-linecap:round; stroke-linejoin:round;">
<circle cx="76030" cy="20700" r="68.8976" /> 
</g>
<g style="fill:#FFFFFF; fill-opacity:1.0; 
stroke:#FFFFFF; stroke-width:39.3701; stroke-opacity:1; 
stroke-linecap:round; stroke-linejoin:round;">
</g>
<g style="fill:#FFFFFF; fill-opacity:1.0; 
stroke:#FFFFFF; stroke-width:0; stroke-opacity:1; 
stroke-linecap:round; stroke-linejoin:round;">
<circle cx="71330" cy="19500" r="68.8976" /> 
</g>
<g style="fill:#FFFFFF; fill-opacity:1.0; 
stroke:#FFFFFF; stroke-width:39.3701; stroke-opacity:1; 
stroke-linecap:round; stroke-linejoin:round;">
</g>
<g style="fill:#FFFFFF; fill-opacity:1.0; 
stroke:#FFFFFF; stroke-width:0; stroke-opacity:1; 
stroke-linecap:round; stroke-linejoin:round;">
<circle cx="71330" cy="18500" r="68.8976" /> 
</g>
<g style="fill:#FFFFFF; fill-opacity:1.0; 
stroke:#FFFFFF; stroke-width:39.3701; stroke-opacity:1; 
stroke-linecap:round; stroke-linejoin:round;">
</g>
<g style="fill:#FFFFFF; fill-opacity:1.0; 
stroke:#FFFFFF; stroke-width:0; stroke-opacity:1; 
stroke-linecap:round; stroke-linejoin:round;">
<circle cx="89680" cy="17050" r="68.8976" /> 
</g>
<g style="fill:#FFFFFF; fill-opacity:1.0; 
stroke:#FFFFFF; stroke-width:39.3701; stroke-opacity:1; 
stroke-linecap:round; stroke-linejoin:round;">
</g>
<g style="fill:#FFFFFF; fill-opacity:1.0; 
stroke:#FFFFFF; stroke-width:0; stroke-opacity:1; 
stroke-linecap:round; stroke-linejoin:round;">
<circle cx="89680" cy="20987" r="68.8976" /> 
</g>
<g style="fill:#FFFFFF; fill-opacity:1.0; 
stroke:#FFFFFF; stroke-width:39.3701; stroke-opacity:1; 
stroke-linecap:round; stroke-linejoin:round;">
</g>
<g style="fill:#FFFFFF; fill-opacity:1.0; 
stroke:#FFFFFF; stroke-width:0; stroke-opacity:1; 
stroke-linecap:round; stroke-linejoin:round;">
<circle cx="78030" cy="14400" r="68.8976" /> 
</g>
<g style="fill:#FFFFFF; fill-opacity:1.0; 
stroke:#FFFFFF; stroke-width:39.3701; stroke-opacity:1; 
stroke-linecap:round; stroke-linejoin:round;">
</g>
<g style="fill:#FFFFFF; fill-opacity:1.0; 
stroke:#FFFFFF; stroke-width:0; stroke-opacity:1; 
stroke-linecap:round; stroke-linejoin:round;">
<circle cx="73030" cy="14400" r="68.8976" /> 
</g>
<g style="fill:#FFFFFF; fill-opacity:1.0; 
stroke:#FFFFFF; stroke-width:39.3701; stroke-opacity:1; 
stroke-linecap:round; stroke-linejoin:round;">
</g>
<g style="fill:#FFFFFF; fill-opacity:1.0; 
stroke:#FFFFFF; stroke-width:0; stroke-opacity:1; 
stroke-linecap:round; stroke-linejoin:round;">
<circle cx="87680.4" cy="33300" r="68.8976" /> 
</g>
<g style="fill:#FFFFFF; fill-opacity:1.0; 
stroke:#FFFFFF; stroke-width:39.3701; stroke-opacity:1; 
stroke-linecap:round; stroke-linejoin:round;">
</g>
<g style="fill:#FFFFFF; fill-opacity:1.0; 
stroke:#FFFFFF; stroke-width:0; stroke-opacity:1; 
stroke-linecap:round; stroke-linejoin:round;">
<circle cx="89767" cy="33300" r="68.8976" /> 
</g>
<g style="fill:#FFFFFF; fill-opacity:1.0; 
stroke:#FFFFFF; stroke-width:39.3701; stroke-opacity:1; 
stroke-linecap:round; stroke-linejoin:round;">
</g>
<g style="fill:#FFFFFF; fill-opacity:1.0; 
stroke:#FFFFFF; stroke-width:0; stroke-opacity:1; 
stroke-linecap:round; stroke-linejoin:round;">
<circle cx="91893" cy="33300" r="68.8976" /> 
</g>
<g style="fill:#FFFFFF; fill-opacity:1.0; 
stroke:#FFFFFF; stroke-width:39.3701; stroke-opacity:1; 
stroke-linecap:round; stroke-linejoin:round;">
</g>
<g style="fill:#FFFFFF; fill-opacity:1.0; 
stroke:#FFFFFF; stroke-width:0; stroke-opacity:1; 
stroke-linecap:round; stroke-linejoin:round;">
<circle cx="93979.6" cy="33260.6" r="68.8976" /> 
</g>
<g style="fill:#FFFFFF; fill-opacity:1.0; 
stroke:#FFFFFF; stroke-width:39.3701; stroke-opacity:1; 
stroke-linecap:round; stroke-linejoin:round;">
</g>
<g style="fill:#FFFFFF; fill-opacity:1.0; 
stroke:#FFFFFF; stroke-width:0; stroke-opacity:1; 
stroke-linecap:round; stroke-linejoin:round;">
<circle cx="95191.4" cy="29300" r="68.8976" /> 
</g>
<g style="fill:#FFFFFF; fill-opacity:1.0; 
stroke:#FFFFFF; stroke-width:39.3701; stroke-opacity:1; 
stroke-linecap:round; stroke-linejoin:round;">
</g>
<g style="fill:#FFFFFF; fill-opacity:1.0; 
stroke:#FFFFFF; stroke-width:0; stroke-opacity:1; 
stroke-linecap:round; stroke-linejoin:round;">
<circle cx="86530" cy="29300" r="68.8976" /> 
</g>
<g style="fill:#FFFFFF; fill-opacity:1.0; 
stroke:#FFFFFF; stroke-width:39.3701; stroke-opacity:1; 
stroke-linecap:round; stroke-linejoin:round;">
</g>
<g style="fill:#FFFFFF; fill-opacity:1.0; 
stroke:#FFFFFF; stroke-width:0; stroke-opacity:1; 
stroke-linecap:round; stroke-linejoin:round;">
<circle cx="99930" cy="28300" r="68.8976" /> 
</g>
<g style="fill:#FFFFFF; fill-opacity:1.0; 
stroke:#FFFFFF; stroke-width:39.3701; stroke-opacity:1; 
stroke-linecap:round; stroke-linejoin:round;">
</g>
<g style="fill:#FFFFFF; fill-opacity:1.0; 
stroke:#FFFFFF; stroke-width:0; stroke-opacity:1; 
stroke-linecap:round; stroke-linejoin:round;">
<circle cx="99930" cy="32300" r="68.8976" /> 
</g>
<g style="fill:#FFFFFF; fill-opacity:1.0; 
stroke:#FFFFFF; stroke-width:39.3701; stroke-opacity:1; 
stroke-linecap:round; stroke-linejoin:round;">
</g>
<g style="fill:#FFFFFF; fill-opacity:1.0; 
stroke:#FFFFFF; stroke-width:0; stroke-opacity:1; 
stroke-linecap:round; stroke-linejoin:round;">
<circle cx="66530" cy="34200" r="68.8976" /> 
</g>
<g style="fill:#FFFFFF; fill-opacity:1.0; 
stroke:#FFFFFF; stroke-width:39.3701; stroke-opacity:1; 
stroke-linecap:round; stroke-linejoin:round;">
</g>
<g style="fill:#FFFFFF; fill-opacity:1.0; 
stroke:#FFFFFF; stroke-width:0; stroke-opacity:1; 
stroke-linecap:round; stroke-linejoin:round;">
<circle cx="62530" cy="34200" r="68.8976" /> 
</g>
<g style="fill:#FFFFFF; fill-opacity:1.0; 
stroke:#FFFFFF; stroke-width:39.3701; stroke-opacity:1; 
stroke-linecap:round; stroke-linejoin:round;">
</g>
<g style="fill:#FFFFFF; fill-opacity:1.0; 
stroke:#FFFFFF; stroke-width:0; stroke-opacity:1; 
stroke-linecap:round; stroke-linejoin:round;">
<circle cx="62530" cy="18400" r="68.8976" /> 
</g>
<g style="fill:#FFFFFF; fill-opacity:1.0; 
stroke:#FFFFFF; stroke-width:39.3701; stroke-opacity:1; 
stroke-linecap:round; stroke-linejoin:round;">
</g>
<g style="fill:#FFFFFF; fill-opacity:1.0; 
stroke:#FFFFFF; stroke-width:0; stroke-opacity:1; 
stroke-linecap:round; stroke-linejoin:round;">
<circle cx="62530" cy="14400" r="68.8976" /> 
</g>
<g style="fill:#FFFFFF; fill-opacity:1.0; 
stroke:#FFFFFF; stroke-width:39.3701; stroke-opacity:1; 
stroke-linecap:round; stroke-linejoin:round;">
</g>
<g style="fill:#FFFFFF; fill-opacity:1.0; 
stroke:#FFFFFF; stroke-width:0; stroke-opacity:1; 
stroke-linecap:round; stroke-linejoin:round;">
<circle cx="99930" cy="17700" r="68.8976" /> 
</g>
<g style="fill:#FFFFFF; fill-opacity:1.0; 
stroke:#FFFFFF; stroke-width:39.3701; stroke-opacity:1; 
stroke-linecap:round; stroke-linejoin:round;">
</g>
<g style="fill:#FFFFFF; fill-opacity:1.0; 
stroke:#FFFFFF; stroke-width:0; stroke-opacity:1; 
stroke-linecap:round; stroke-linejoin:round;">
<circle cx="99930" cy="21700" r="68.8976" /> 
</g>
<g style="fill:#FFFFFF; fill-opacity:1.0; 
stroke:#FFFFFF; stroke-width:39.3701; stroke-opacity:1; 
stroke-linecap:round; stroke-linejoin:round;">
</g>
<g style="fill:#FFFFFF; fill-opacity:1.0; 
stroke:#FFFFFF; stroke-width:0; stroke-opacity:1; 
stroke-linecap:round; stroke-linejoin:round;">
<circle cx="71480" cy="34950" r="68.8976" /> 
</g>
<g style="fill:#FFFFFF; fill-opacity:1.0; 
stroke:#FFFFFF; stroke-width:39.3701; stroke-opacity:1; 
stroke-linecap:round; stroke-linejoin:round;">
</g>
<g style="fill:#FFFFFF; fill-opacity:1.0; 
stroke:#FFFFFF; stroke-width:0; stroke-opacity:1; 
stroke-linecap:round; stroke-linejoin:round;">
<circle cx="72480" cy="34950" r="68.8976" /> 
</g>
<g style="fill:#FFFFFF; fill-opacity:1.0; 
stroke:#FFFFFF; stroke-width:39.3701; stroke-opacity:1; 
stroke-linecap:round; stroke-linejoin:round;">
</g>
<g style="fill:#FFFFFF; fill-opacity:1.0; 
stroke:#FFFFFF; stroke-width:0; stroke-opacity:1; 
stroke-linecap:round; stroke-linejoin:round;">
<circle cx="73480" cy="34950" r="68.8976" /> 
</g>
<g style="fill:#FFFFFF; fill-opacity:1.0; 
stroke:#FFFFFF; stroke-width:39.3701; stroke-opacity:1; 
stroke-linecap:round; stroke-linejoin:round;">
</g>
<g style="fill:#FFFFFF; fill-opacity:1.0; 
stroke:#FFFFFF; stroke-width:0; stroke-opacity:1; 
stroke-linecap:round; stroke-linejoin:round;">
<circle cx="74480" cy="34950" r="68.8976" /> 
</g>
<g style="fill:#FFFFFF; fill-opacity:1.0; 
stroke:#FFFFFF; stroke-width:39.3701; stroke-opacity:1; 
stroke-linecap:round; stroke-linejoin:round;">
</g>
<g style="fill:#FFFFFF; fill-opacity:1.0; 
stroke:#FFFFFF; stroke-width:0; stroke-opacity:1; 
stroke-linecap:round; stroke-linejoin:round;">
<circle cx="75480" cy="34950" r="68.8976" /> 
</g>
<g style="fill:#FFFFFF; fill-opacity:1.0; 
stroke:#FFFFFF; stroke-width:39.3701; stroke-opacity:1; 
stroke-linecap:round; stroke-linejoin:round;">
</g>
<g style="fill:#FFFFFF; fill-opacity:1.0; 
stroke:#FFFFFF; stroke-width:0; stroke-opacity:1; 
stroke-linecap:round; stroke-linejoin:round;">
<circle cx="76480" cy="34950" r="68.8976" /> 
</g>
<g style="fill:#FFFFFF; fill-opacity:1.0; 
stroke:#FFFFFF; stroke-width:39.3701; stroke-opacity:1; 
stroke-linecap:round; stroke-linejoin:round;">
</g>
<g style="fill:#FFFFFF; fill-opacity:1.0; 
stroke:#FFFFFF; stroke-width:0; stroke-opacity:1; 
stroke-linecap:round; stroke-linejoin:round;">
<circle cx="77480" cy="34950" r="68.8976" /> 
</g>
<g style="fill:#FFFFFF; fill-opacity:1.0; 
stroke:#FFFFFF; stroke-width:39.3701; stroke-opacity:1; 
stroke-linecap:round; stroke-linejoin:round;">
</g>
<g style="fill:#FFFFFF; fill-opacity:1.0; 
stroke:#FFFFFF; stroke-width:0; stroke-opacity:1; 
stroke-linecap:round; stroke-linejoin:round;">
<circle cx="78630" cy="31800" r="68.8976" /> 
</g>
<g style="fill:#FFFFFF; fill-opacity:1.0; 
stroke:#FFFFFF; stroke-width:39.3701; stroke-opacity:1; 
stroke-linecap:round; stroke-linejoin:round;">
</g>
<g style="fill:#FFFFFF; fill-opacity:1.0; 
stroke:#FFFFFF; stroke-width:0; stroke-opacity:1; 
stroke-linecap:round; stroke-linejoin:round;">
<circle cx="73330" cy="21900" r="68.8976" /> 
</g>
<g style="fill:#FFFFFF; fill-opacity:1.0; 
stroke:#FFFFFF; stroke-width:39.3701; stroke-opacity:1; 
stroke-linecap:round; stroke-linejoin:round;">
</g>
<g style="fill:#FFFFFF; fill-opacity:1.0; 
stroke:#FFFFFF; stroke-width:0; stroke-opacity:1; 
stroke-linecap:round; stroke-linejoin:round;">
<circle cx="80430" cy="29200" r="68.8976" /> 
</g>
<g style="fill:#FFFFFF; fill-opacity:1.0; 
stroke:#FFFFFF; stroke-width:39.3701; stroke-opacity:1; 
stroke-linecap:round; stroke-linejoin:round;">
</g>
<g style="fill:#FFFFFF; fill-opacity:1.0; 
stroke:#FFFFFF; stroke-width:0; stroke-opacity:1; 
stroke-linecap:round; stroke-linejoin:round;">
<circle cx="70180" cy="25500" r="68.8976" /> 
</g>
<g style="fill:#FFFFFF; fill-opacity:1.0; 
stroke:#FFFFFF; stroke-width:39.3701; stroke-opacity:1; 
stroke-linecap:round; stroke-linejoin:round;">
</g>
<g style="fill:#FFFFFF; fill-opacity:1.0; 
stroke:#FFFFFF; stroke-width:0; stroke-opacity:1; 
stroke-linecap:round; stroke-linejoin:round;">
<circle cx="69930" cy="28100" r="68.8976" /> 
</g>
<g style="fill:#FFFFFF; fill-opacity:1.0; 
stroke:#FFFFFF; stroke-width:39.3701; stroke-opacity:1; 
stroke-linecap:round; stroke-linejoin:round;">
</g>
<g style="fill:#FFFFFF; fill-opacity:1.0; 
stroke:#FFFFFF; stroke-width:0; stroke-opacity:1; 
stroke-linecap:round; stroke-linejoin:round;">
<circle cx="67830" cy="14100" r="68.8976" /> 
</g>
<g style="fill:#FFFFFF; fill-opacity:1.0; 
stroke:#FFFFFF; stroke-width:39.3701; stroke-opacity:1; 
stroke-linecap:round; stroke-linejoin:round;">
</g>
<g style="fill:#FFFFFF; fill-opacity:1.0; 
stroke:#FFFFFF; stroke-width:0; stroke-opacity:1; 
stroke-linecap:round; stroke-linejoin:round;">
<circle cx="65630" cy="14200" r="68.8976" /> 
</g>
<g style="fill:#FFFFFF; fill-opacity:1.0; 
stroke:#FFFFFF; stroke-width:39.3701; stroke-opacity:1; 
stroke-linecap:round; stroke-linejoin:round;">
</g>
<g style="fill:#FFFFFF; fill-opacity:1.0; 
stroke:#FFFFFF; stroke-width:0; stroke-opacity:1; 
stroke-linecap:round; stroke-linejoin:round;">
<circle cx="65630" cy="15200" r="68.8976" /> 
</g>
<g style="fill:#FFFFFF; fill-opacity:1.0; 
stroke:#FFFFFF; stroke-width:39.3701; stroke-opacity:1; 
stroke-linecap:round; stroke-linejoin:round;">
</g>
<g style="fill:#FFFFFF; fill-opacity:1.0; 
stroke:#FFFFFF; stroke-width:0; stroke-opacity:1; 
stroke-linecap:round; stroke-linejoin:round;">
<circle cx="65630" cy="16200" r="68.8976" /> 
</g>
<g style="fill:#FFFFFF; fill-opacity:1.0; 
stroke:#FFFFFF; stroke-width:39.3701; stroke-opacity:1; 
stroke-linecap:round; stroke-linejoin:round;">
</g>
<g style="fill:#FFFFFF; fill-opacity:1.0; 
stroke:#FFFFFF; stroke-width:0; stroke-opacity:1; 
stroke-linecap:round; stroke-linejoin:round;">
<circle cx="62530" cy="21200" r="68.8976" /> 
</g>
<g style="fill:#FFFFFF; fill-opacity:1.0; 
stroke:#FFFFFF; stroke-width:39.3701; stroke-opacity:1; 
stroke-linecap:round; stroke-linejoin:round;">
</g>
<g style="fill:#FFFFFF; fill-opacity:1.0; 
stroke:#FFFFFF; stroke-width:0; stroke-opacity:1; 
stroke-linecap:round; stroke-linejoin:round;">
<circle cx="62530" cy="31200" r="68.8976" /> 
</g>
<g style="fill:#FFFFFF; fill-opacity:1.0; 
stroke:#FFFFFF; stroke-width:39.3701; stroke-opacity:1; 
stroke-linecap:round; stroke-linejoin:round;">
</g>
<g style="fill:#FFFFFF; fill-opacity:1.0; 
stroke:#FFFFFF; stroke-width:0; stroke-opacity:1; 
stroke-linecap:round; stroke-linejoin:round;">
<circle cx="75730" cy="22500" r="68.8976" /> 
</g>
<g style="fill:#FFFFFF; fill-opacity:1.0; 
stroke:#FFFFFF; stroke-width:39.3701; stroke-opacity:1; 
stroke-linecap:round; stroke-linejoin:round;">
</g>
<g style="fill:#FFFFFF; fill-opacity:1.0; 
stroke:#FFFFFF; stroke-width:0; stroke-opacity:1; 
stroke-linecap:round; stroke-linejoin:round;">
<circle cx="76730" cy="22500" r="68.8976" /> 
</g>
<g style="fill:#FFFFFF; fill-opacity:1.0; 
stroke:#FFFFFF; stroke-width:39.3701; stroke-opacity:1; 
stroke-linecap:round; stroke-linejoin:round;">
</g>
<g style="fill:#FFFFFF; fill-opacity:1.0; 
stroke:#FFFFFF; stroke-width:0; stroke-opacity:1; 
stroke-linecap:round; stroke-linejoin:round;">
<circle cx="74730" cy="22500" r="68.8976" /> 
</g>
<g style="fill:#FFFFFF; fill-opacity:1.0; 
stroke:#FFFFFF; stroke-width:39.3701; stroke-opacity:1; 
stroke-linecap:round; stroke-linejoin:round;">
</g>
<g style="fill:#FFFFFF; fill-opacity:1.0; 
stroke:#FFFFFF; stroke-width:0; stroke-opacity:1; 
stroke-linecap:round; stroke-linejoin:round;">
<circle cx="70430" cy="14200" r="68.8976" /> 
</g>
<g style="fill:#FFFFFF; fill-opacity:1.0; 
stroke:#FFFFFF; stroke-width:39.3701; stroke-opacity:1; 
stroke-linecap:round; stroke-linejoin:round;">
</g>
<g style="fill:#FFFFFF; fill-opacity:1.0; 
stroke:#FFFFFF; stroke-width:0; stroke-opacity:1; 
stroke-linecap:round; stroke-linejoin:round;">
<circle cx="69430" cy="14200" r="68.8976" /> 
</g>
<g style="fill:#FFFFFF; fill-opacity:1.0; 
stroke:#FFFFFF; stroke-width:39.3701; stroke-opacity:1; 
stroke-linecap:round; stroke-linejoin:round;">
</g>
<g style="fill:#FFFFFF; fill-opacity:1.0; 
stroke:#FFFFFF; stroke-width:0; stroke-opacity:1; 
stroke-linecap:round; stroke-linejoin:round;">
<circle cx="71430" cy="14200" r="68.8976" /> 
</g>
<g style="fill:#FFFFFF; fill-opacity:1.0; 
stroke:#FFFFFF; stroke-width:39.3701; stroke-opacity:1; 
stroke-linecap:round; stroke-linejoin:round;">
</g>
<g style="fill:#000000; fill-opacity:1.0; 
stroke:#000000; stroke-width:39.3701; stroke-opacity:1; 
stroke-linecap:round; stroke-linejoin:round;">
</g> 
</svg>
