M48
; DRILL file {KiCad (5.1.4)-1} date 18-Nov-19 22:26:12
; FORMAT={-:-/ absolute / inch / decimal}
; #@! TF.CreationDate,2019-11-18T22:26:12+02:00
; #@! TF.GenerationSoftware,Kicad,Pcbnew,(5.1.4)-1
FMAT,2
INCH
T1C0.0276
T2C0.0315
T3C0.0394
T4C0.0433
T5C0.0450
T6C0.0512
T7C0.0551
T8C0.0591
T9C0.0598
T10C0.0787
T11C0.1693
%
G90
G05
T1
X1.9875Y-2.125
X2.1075Y-2.275
X2.1075Y-2.535
X2.1075Y-2.795
X3.135Y-2.9425
X3.1375Y-2.41
X3.82Y-1.89
X3.95Y-1.89
X3.96Y-2.125
X4.115Y-1.515
X4.485Y-1.62
X4.5575Y-1.3473
X4.56Y-1.49
X4.57Y-1.67
X4.67Y-1.57
X4.91Y-1.42
X5.17Y-1.605
X5.205Y-1.84
X5.245Y-1.535
X5.315Y-1.475
X5.335Y-1.68
X5.39Y-1.605
X5.44Y-1.535
X5.5Y-1.475
X6.51Y-2.385
X6.66Y-3.65
X6.6823Y-2.21
X6.74Y-2.72
X6.74Y-2.895
X6.75Y-3.65
X6.955Y-2.895
T2
X7.0531Y-1.45
X7.25Y-1.45
X4.585Y-2.54
X4.585Y-2.6384
T3
X3.8Y-2.05
X1.6205Y-2.1363
X1.6205Y-2.2363
X1.6205Y-2.3363
X1.6205Y-2.4363
X1.6205Y-2.5363
X1.6205Y-2.6363
X1.6205Y-2.7363
X1.6205Y-2.8363
X3.89Y-1.515
X3.89Y-1.615
X3.89Y-1.715
X3.99Y-1.515
X3.99Y-1.615
X3.99Y-1.715
X5.93Y-3.74
X6.03Y-3.74
X6.13Y-3.74
X6.59Y-1.57
X6.69Y-1.57
X7.255Y-3.93
X7.355Y-3.93
X7.455Y-3.93
X5.6925Y-3.7075
X5.6925Y-3.9044
X6.44Y-1.4
X6.54Y-1.4
T4
X7.255Y-3.266
X7.44Y-2.5377
X7.44Y-2.8132
X7.44Y-3.266
X5.0575Y-2.041
X5.3575Y-2.041
X7.255Y-3.5
X7.555Y-3.5
T5
X4.07Y-2.42
X4.17Y-2.42
X4.27Y-2.42
T6
X2.6341Y-4.121
X2.638Y-3.491
X2.638Y-3.6997
X2.638Y-3.9123
T7
X7.045Y-1.79
X7.045Y-2.29
X4.985Y-2.455
X5.485Y-2.455
X3.512Y-2.942
X4.012Y-2.942
T8
X1.5419Y-3.318
X2.408Y-3.318
T9
X7.439Y-1.786
X7.439Y-1.986
X5.935Y-4.104
X6.135Y-4.104
X6.335Y-4.104
X2.075Y-3.77
X2.075Y-3.97
T10
X4.811Y-3.3083
X4.811Y-3.702
X3.44Y-3.5243
X3.44Y-3.918
T11
X7.675Y-1.325
X7.675Y-4.225
X1.575Y-4.225
X1.575Y-1.325
T0
M30
