G04 #@! TF.GenerationSoftware,KiCad,Pcbnew,(5.1.4)-1*
G04 #@! TF.CreationDate,2019-11-19T00:16:12+02:00*
G04 #@! TF.ProjectId,pcb_1,7063625f-312e-46b6-9963-61645f706362,rev?*
G04 #@! TF.SameCoordinates,Original*
G04 #@! TF.FileFunction,Paste,Top*
G04 #@! TF.FilePolarity,Positive*
%FSLAX46Y46*%
G04 Gerber Fmt 4.6, Leading zero omitted, Abs format (unit mm)*
G04 Created by KiCad (PCBNEW (5.1.4)-1) date 2019-11-19 00:16:12*
%MOMM*%
%LPD*%
G04 APERTURE LIST*
%ADD10C,0.400000*%
%ADD11C,1.150000*%
%ADD12C,0.950000*%
%ADD13R,1.500000X1.300000*%
%ADD14R,2.032000X1.524000*%
%ADD15R,1.600000X0.550000*%
%ADD16R,0.550000X1.600000*%
%ADD17R,1.550000X0.600000*%
%ADD18R,1.300000X1.500000*%
%ADD19R,1.500000X1.050000*%
%ADD20R,1.500000X2.400000*%
%ADD21R,0.600000X1.550000*%
%ADD22R,1.000000X1.400000*%
G04 APERTURE END LIST*
D10*
G36*
X156663605Y-48615304D02*
G01*
X156687873Y-48618904D01*
X156711672Y-48624865D01*
X156734771Y-48633130D01*
X156756950Y-48643620D01*
X156777993Y-48656232D01*
X156797699Y-48670847D01*
X156815877Y-48687323D01*
X156832353Y-48705501D01*
X156846968Y-48725207D01*
X156859580Y-48746250D01*
X156870070Y-48768429D01*
X156878335Y-48791528D01*
X156884296Y-48815327D01*
X156887896Y-48839595D01*
X156889100Y-48864099D01*
X156889100Y-49764101D01*
X156887896Y-49788605D01*
X156884296Y-49812873D01*
X156878335Y-49836672D01*
X156870070Y-49859771D01*
X156859580Y-49881950D01*
X156846968Y-49902993D01*
X156832353Y-49922699D01*
X156815877Y-49940877D01*
X156797699Y-49957353D01*
X156777993Y-49971968D01*
X156756950Y-49984580D01*
X156734771Y-49995070D01*
X156711672Y-50003335D01*
X156687873Y-50009296D01*
X156663605Y-50012896D01*
X156639101Y-50014100D01*
X155989099Y-50014100D01*
X155964595Y-50012896D01*
X155940327Y-50009296D01*
X155916528Y-50003335D01*
X155893429Y-49995070D01*
X155871250Y-49984580D01*
X155850207Y-49971968D01*
X155830501Y-49957353D01*
X155812323Y-49940877D01*
X155795847Y-49922699D01*
X155781232Y-49902993D01*
X155768620Y-49881950D01*
X155758130Y-49859771D01*
X155749865Y-49836672D01*
X155743904Y-49812873D01*
X155740304Y-49788605D01*
X155739100Y-49764101D01*
X155739100Y-48864099D01*
X155740304Y-48839595D01*
X155743904Y-48815327D01*
X155749865Y-48791528D01*
X155758130Y-48768429D01*
X155768620Y-48746250D01*
X155781232Y-48725207D01*
X155795847Y-48705501D01*
X155812323Y-48687323D01*
X155830501Y-48670847D01*
X155850207Y-48656232D01*
X155871250Y-48643620D01*
X155893429Y-48633130D01*
X155916528Y-48624865D01*
X155940327Y-48618904D01*
X155964595Y-48615304D01*
X155989099Y-48614100D01*
X156639101Y-48614100D01*
X156663605Y-48615304D01*
X156663605Y-48615304D01*
G37*
D11*
X156314100Y-49314100D03*
D10*
G36*
X158713605Y-48615304D02*
G01*
X158737873Y-48618904D01*
X158761672Y-48624865D01*
X158784771Y-48633130D01*
X158806950Y-48643620D01*
X158827993Y-48656232D01*
X158847699Y-48670847D01*
X158865877Y-48687323D01*
X158882353Y-48705501D01*
X158896968Y-48725207D01*
X158909580Y-48746250D01*
X158920070Y-48768429D01*
X158928335Y-48791528D01*
X158934296Y-48815327D01*
X158937896Y-48839595D01*
X158939100Y-48864099D01*
X158939100Y-49764101D01*
X158937896Y-49788605D01*
X158934296Y-49812873D01*
X158928335Y-49836672D01*
X158920070Y-49859771D01*
X158909580Y-49881950D01*
X158896968Y-49902993D01*
X158882353Y-49922699D01*
X158865877Y-49940877D01*
X158847699Y-49957353D01*
X158827993Y-49971968D01*
X158806950Y-49984580D01*
X158784771Y-49995070D01*
X158761672Y-50003335D01*
X158737873Y-50009296D01*
X158713605Y-50012896D01*
X158689101Y-50014100D01*
X158039099Y-50014100D01*
X158014595Y-50012896D01*
X157990327Y-50009296D01*
X157966528Y-50003335D01*
X157943429Y-49995070D01*
X157921250Y-49984580D01*
X157900207Y-49971968D01*
X157880501Y-49957353D01*
X157862323Y-49940877D01*
X157845847Y-49922699D01*
X157831232Y-49902993D01*
X157818620Y-49881950D01*
X157808130Y-49859771D01*
X157799865Y-49836672D01*
X157793904Y-49812873D01*
X157790304Y-49788605D01*
X157789100Y-49764101D01*
X157789100Y-48864099D01*
X157790304Y-48839595D01*
X157793904Y-48815327D01*
X157799865Y-48791528D01*
X157808130Y-48768429D01*
X157818620Y-48746250D01*
X157831232Y-48725207D01*
X157845847Y-48705501D01*
X157862323Y-48687323D01*
X157880501Y-48670847D01*
X157900207Y-48656232D01*
X157921250Y-48643620D01*
X157943429Y-48633130D01*
X157966528Y-48624865D01*
X157990327Y-48618904D01*
X158014595Y-48615304D01*
X158039099Y-48614100D01*
X158689101Y-48614100D01*
X158713605Y-48615304D01*
X158713605Y-48615304D01*
G37*
D11*
X158364100Y-49314100D03*
D10*
G36*
X151197605Y-48615304D02*
G01*
X151221873Y-48618904D01*
X151245672Y-48624865D01*
X151268771Y-48633130D01*
X151290950Y-48643620D01*
X151311993Y-48656232D01*
X151331699Y-48670847D01*
X151349877Y-48687323D01*
X151366353Y-48705501D01*
X151380968Y-48725207D01*
X151393580Y-48746250D01*
X151404070Y-48768429D01*
X151412335Y-48791528D01*
X151418296Y-48815327D01*
X151421896Y-48839595D01*
X151423100Y-48864099D01*
X151423100Y-49764101D01*
X151421896Y-49788605D01*
X151418296Y-49812873D01*
X151412335Y-49836672D01*
X151404070Y-49859771D01*
X151393580Y-49881950D01*
X151380968Y-49902993D01*
X151366353Y-49922699D01*
X151349877Y-49940877D01*
X151331699Y-49957353D01*
X151311993Y-49971968D01*
X151290950Y-49984580D01*
X151268771Y-49995070D01*
X151245672Y-50003335D01*
X151221873Y-50009296D01*
X151197605Y-50012896D01*
X151173101Y-50014100D01*
X150523099Y-50014100D01*
X150498595Y-50012896D01*
X150474327Y-50009296D01*
X150450528Y-50003335D01*
X150427429Y-49995070D01*
X150405250Y-49984580D01*
X150384207Y-49971968D01*
X150364501Y-49957353D01*
X150346323Y-49940877D01*
X150329847Y-49922699D01*
X150315232Y-49902993D01*
X150302620Y-49881950D01*
X150292130Y-49859771D01*
X150283865Y-49836672D01*
X150277904Y-49812873D01*
X150274304Y-49788605D01*
X150273100Y-49764101D01*
X150273100Y-48864099D01*
X150274304Y-48839595D01*
X150277904Y-48815327D01*
X150283865Y-48791528D01*
X150292130Y-48768429D01*
X150302620Y-48746250D01*
X150315232Y-48725207D01*
X150329847Y-48705501D01*
X150346323Y-48687323D01*
X150364501Y-48670847D01*
X150384207Y-48656232D01*
X150405250Y-48643620D01*
X150427429Y-48633130D01*
X150450528Y-48624865D01*
X150474327Y-48618904D01*
X150498595Y-48615304D01*
X150523099Y-48614100D01*
X151173101Y-48614100D01*
X151197605Y-48615304D01*
X151197605Y-48615304D01*
G37*
D11*
X150848100Y-49314100D03*
D10*
G36*
X149147605Y-48615304D02*
G01*
X149171873Y-48618904D01*
X149195672Y-48624865D01*
X149218771Y-48633130D01*
X149240950Y-48643620D01*
X149261993Y-48656232D01*
X149281699Y-48670847D01*
X149299877Y-48687323D01*
X149316353Y-48705501D01*
X149330968Y-48725207D01*
X149343580Y-48746250D01*
X149354070Y-48768429D01*
X149362335Y-48791528D01*
X149368296Y-48815327D01*
X149371896Y-48839595D01*
X149373100Y-48864099D01*
X149373100Y-49764101D01*
X149371896Y-49788605D01*
X149368296Y-49812873D01*
X149362335Y-49836672D01*
X149354070Y-49859771D01*
X149343580Y-49881950D01*
X149330968Y-49902993D01*
X149316353Y-49922699D01*
X149299877Y-49940877D01*
X149281699Y-49957353D01*
X149261993Y-49971968D01*
X149240950Y-49984580D01*
X149218771Y-49995070D01*
X149195672Y-50003335D01*
X149171873Y-50009296D01*
X149147605Y-50012896D01*
X149123101Y-50014100D01*
X148473099Y-50014100D01*
X148448595Y-50012896D01*
X148424327Y-50009296D01*
X148400528Y-50003335D01*
X148377429Y-49995070D01*
X148355250Y-49984580D01*
X148334207Y-49971968D01*
X148314501Y-49957353D01*
X148296323Y-49940877D01*
X148279847Y-49922699D01*
X148265232Y-49902993D01*
X148252620Y-49881950D01*
X148242130Y-49859771D01*
X148233865Y-49836672D01*
X148227904Y-49812873D01*
X148224304Y-49788605D01*
X148223100Y-49764101D01*
X148223100Y-48864099D01*
X148224304Y-48839595D01*
X148227904Y-48815327D01*
X148233865Y-48791528D01*
X148242130Y-48768429D01*
X148252620Y-48746250D01*
X148265232Y-48725207D01*
X148279847Y-48705501D01*
X148296323Y-48687323D01*
X148314501Y-48670847D01*
X148334207Y-48656232D01*
X148355250Y-48643620D01*
X148377429Y-48633130D01*
X148400528Y-48624865D01*
X148424327Y-48618904D01*
X148448595Y-48615304D01*
X148473099Y-48614100D01*
X149123101Y-48614100D01*
X149147605Y-48615304D01*
X149147605Y-48615304D01*
G37*
D11*
X148798100Y-49314100D03*
D10*
G36*
X159516605Y-41911304D02*
G01*
X159540873Y-41914904D01*
X159564672Y-41920865D01*
X159587771Y-41929130D01*
X159609950Y-41939620D01*
X159630993Y-41952232D01*
X159650699Y-41966847D01*
X159668877Y-41983323D01*
X159685353Y-42001501D01*
X159699968Y-42021207D01*
X159712580Y-42042250D01*
X159723070Y-42064429D01*
X159731335Y-42087528D01*
X159737296Y-42111327D01*
X159740896Y-42135595D01*
X159742100Y-42160099D01*
X159742100Y-42810101D01*
X159740896Y-42834605D01*
X159737296Y-42858873D01*
X159731335Y-42882672D01*
X159723070Y-42905771D01*
X159712580Y-42927950D01*
X159699968Y-42948993D01*
X159685353Y-42968699D01*
X159668877Y-42986877D01*
X159650699Y-43003353D01*
X159630993Y-43017968D01*
X159609950Y-43030580D01*
X159587771Y-43041070D01*
X159564672Y-43049335D01*
X159540873Y-43055296D01*
X159516605Y-43058896D01*
X159492101Y-43060100D01*
X158592099Y-43060100D01*
X158567595Y-43058896D01*
X158543327Y-43055296D01*
X158519528Y-43049335D01*
X158496429Y-43041070D01*
X158474250Y-43030580D01*
X158453207Y-43017968D01*
X158433501Y-43003353D01*
X158415323Y-42986877D01*
X158398847Y-42968699D01*
X158384232Y-42948993D01*
X158371620Y-42927950D01*
X158361130Y-42905771D01*
X158352865Y-42882672D01*
X158346904Y-42858873D01*
X158343304Y-42834605D01*
X158342100Y-42810101D01*
X158342100Y-42160099D01*
X158343304Y-42135595D01*
X158346904Y-42111327D01*
X158352865Y-42087528D01*
X158361130Y-42064429D01*
X158371620Y-42042250D01*
X158384232Y-42021207D01*
X158398847Y-42001501D01*
X158415323Y-41983323D01*
X158433501Y-41966847D01*
X158453207Y-41952232D01*
X158474250Y-41939620D01*
X158496429Y-41929130D01*
X158519528Y-41920865D01*
X158543327Y-41914904D01*
X158567595Y-41911304D01*
X158592099Y-41910100D01*
X159492101Y-41910100D01*
X159516605Y-41911304D01*
X159516605Y-41911304D01*
G37*
D11*
X159042100Y-42485100D03*
D10*
G36*
X159516605Y-39861304D02*
G01*
X159540873Y-39864904D01*
X159564672Y-39870865D01*
X159587771Y-39879130D01*
X159609950Y-39889620D01*
X159630993Y-39902232D01*
X159650699Y-39916847D01*
X159668877Y-39933323D01*
X159685353Y-39951501D01*
X159699968Y-39971207D01*
X159712580Y-39992250D01*
X159723070Y-40014429D01*
X159731335Y-40037528D01*
X159737296Y-40061327D01*
X159740896Y-40085595D01*
X159742100Y-40110099D01*
X159742100Y-40760101D01*
X159740896Y-40784605D01*
X159737296Y-40808873D01*
X159731335Y-40832672D01*
X159723070Y-40855771D01*
X159712580Y-40877950D01*
X159699968Y-40898993D01*
X159685353Y-40918699D01*
X159668877Y-40936877D01*
X159650699Y-40953353D01*
X159630993Y-40967968D01*
X159609950Y-40980580D01*
X159587771Y-40991070D01*
X159564672Y-40999335D01*
X159540873Y-41005296D01*
X159516605Y-41008896D01*
X159492101Y-41010100D01*
X158592099Y-41010100D01*
X158567595Y-41008896D01*
X158543327Y-41005296D01*
X158519528Y-40999335D01*
X158496429Y-40991070D01*
X158474250Y-40980580D01*
X158453207Y-40967968D01*
X158433501Y-40953353D01*
X158415323Y-40936877D01*
X158398847Y-40918699D01*
X158384232Y-40898993D01*
X158371620Y-40877950D01*
X158361130Y-40855771D01*
X158352865Y-40832672D01*
X158346904Y-40808873D01*
X158343304Y-40784605D01*
X158342100Y-40760101D01*
X158342100Y-40110099D01*
X158343304Y-40085595D01*
X158346904Y-40061327D01*
X158352865Y-40037528D01*
X158361130Y-40014429D01*
X158371620Y-39992250D01*
X158384232Y-39971207D01*
X158398847Y-39951501D01*
X158415323Y-39933323D01*
X158433501Y-39916847D01*
X158453207Y-39902232D01*
X158474250Y-39889620D01*
X158496429Y-39879130D01*
X158519528Y-39870865D01*
X158543327Y-39864904D01*
X158567595Y-39861304D01*
X158592099Y-39860100D01*
X159492101Y-39860100D01*
X159516605Y-39861304D01*
X159516605Y-39861304D01*
G37*
D11*
X159042100Y-40435100D03*
D10*
G36*
X122171505Y-52260204D02*
G01*
X122195773Y-52263804D01*
X122219572Y-52269765D01*
X122242671Y-52278030D01*
X122264850Y-52288520D01*
X122285893Y-52301132D01*
X122305599Y-52315747D01*
X122323777Y-52332223D01*
X122340253Y-52350401D01*
X122354868Y-52370107D01*
X122367480Y-52391150D01*
X122377970Y-52413329D01*
X122386235Y-52436428D01*
X122392196Y-52460227D01*
X122395796Y-52484495D01*
X122397000Y-52508999D01*
X122397000Y-53409001D01*
X122395796Y-53433505D01*
X122392196Y-53457773D01*
X122386235Y-53481572D01*
X122377970Y-53504671D01*
X122367480Y-53526850D01*
X122354868Y-53547893D01*
X122340253Y-53567599D01*
X122323777Y-53585777D01*
X122305599Y-53602253D01*
X122285893Y-53616868D01*
X122264850Y-53629480D01*
X122242671Y-53639970D01*
X122219572Y-53648235D01*
X122195773Y-53654196D01*
X122171505Y-53657796D01*
X122147001Y-53659000D01*
X121496999Y-53659000D01*
X121472495Y-53657796D01*
X121448227Y-53654196D01*
X121424428Y-53648235D01*
X121401329Y-53639970D01*
X121379150Y-53629480D01*
X121358107Y-53616868D01*
X121338401Y-53602253D01*
X121320223Y-53585777D01*
X121303747Y-53567599D01*
X121289132Y-53547893D01*
X121276520Y-53526850D01*
X121266030Y-53504671D01*
X121257765Y-53481572D01*
X121251804Y-53457773D01*
X121248204Y-53433505D01*
X121247000Y-53409001D01*
X121247000Y-52508999D01*
X121248204Y-52484495D01*
X121251804Y-52460227D01*
X121257765Y-52436428D01*
X121266030Y-52413329D01*
X121276520Y-52391150D01*
X121289132Y-52370107D01*
X121303747Y-52350401D01*
X121320223Y-52332223D01*
X121338401Y-52315747D01*
X121358107Y-52301132D01*
X121379150Y-52288520D01*
X121401329Y-52278030D01*
X121424428Y-52269765D01*
X121448227Y-52263804D01*
X121472495Y-52260204D01*
X121496999Y-52259000D01*
X122147001Y-52259000D01*
X122171505Y-52260204D01*
X122171505Y-52260204D01*
G37*
D11*
X121822000Y-52959000D03*
D10*
G36*
X120121505Y-52260204D02*
G01*
X120145773Y-52263804D01*
X120169572Y-52269765D01*
X120192671Y-52278030D01*
X120214850Y-52288520D01*
X120235893Y-52301132D01*
X120255599Y-52315747D01*
X120273777Y-52332223D01*
X120290253Y-52350401D01*
X120304868Y-52370107D01*
X120317480Y-52391150D01*
X120327970Y-52413329D01*
X120336235Y-52436428D01*
X120342196Y-52460227D01*
X120345796Y-52484495D01*
X120347000Y-52508999D01*
X120347000Y-53409001D01*
X120345796Y-53433505D01*
X120342196Y-53457773D01*
X120336235Y-53481572D01*
X120327970Y-53504671D01*
X120317480Y-53526850D01*
X120304868Y-53547893D01*
X120290253Y-53567599D01*
X120273777Y-53585777D01*
X120255599Y-53602253D01*
X120235893Y-53616868D01*
X120214850Y-53629480D01*
X120192671Y-53639970D01*
X120169572Y-53648235D01*
X120145773Y-53654196D01*
X120121505Y-53657796D01*
X120097001Y-53659000D01*
X119446999Y-53659000D01*
X119422495Y-53657796D01*
X119398227Y-53654196D01*
X119374428Y-53648235D01*
X119351329Y-53639970D01*
X119329150Y-53629480D01*
X119308107Y-53616868D01*
X119288401Y-53602253D01*
X119270223Y-53585777D01*
X119253747Y-53567599D01*
X119239132Y-53547893D01*
X119226520Y-53526850D01*
X119216030Y-53504671D01*
X119207765Y-53481572D01*
X119201804Y-53457773D01*
X119198204Y-53433505D01*
X119197000Y-53409001D01*
X119197000Y-52508999D01*
X119198204Y-52484495D01*
X119201804Y-52460227D01*
X119207765Y-52436428D01*
X119216030Y-52413329D01*
X119226520Y-52391150D01*
X119239132Y-52370107D01*
X119253747Y-52350401D01*
X119270223Y-52332223D01*
X119288401Y-52315747D01*
X119308107Y-52301132D01*
X119329150Y-52288520D01*
X119351329Y-52278030D01*
X119374428Y-52269765D01*
X119398227Y-52263804D01*
X119422495Y-52260204D01*
X119446999Y-52259000D01*
X120097001Y-52259000D01*
X120121505Y-52260204D01*
X120121505Y-52260204D01*
G37*
D11*
X119772000Y-52959000D03*
D10*
G36*
X144556005Y-64686204D02*
G01*
X144580273Y-64689804D01*
X144604072Y-64695765D01*
X144627171Y-64704030D01*
X144649350Y-64714520D01*
X144670393Y-64727132D01*
X144690099Y-64741747D01*
X144708277Y-64758223D01*
X144724753Y-64776401D01*
X144739368Y-64796107D01*
X144751980Y-64817150D01*
X144762470Y-64839329D01*
X144770735Y-64862428D01*
X144776696Y-64886227D01*
X144780296Y-64910495D01*
X144781500Y-64934999D01*
X144781500Y-65585001D01*
X144780296Y-65609505D01*
X144776696Y-65633773D01*
X144770735Y-65657572D01*
X144762470Y-65680671D01*
X144751980Y-65702850D01*
X144739368Y-65723893D01*
X144724753Y-65743599D01*
X144708277Y-65761777D01*
X144690099Y-65778253D01*
X144670393Y-65792868D01*
X144649350Y-65805480D01*
X144627171Y-65815970D01*
X144604072Y-65824235D01*
X144580273Y-65830196D01*
X144556005Y-65833796D01*
X144531501Y-65835000D01*
X143631499Y-65835000D01*
X143606995Y-65833796D01*
X143582727Y-65830196D01*
X143558928Y-65824235D01*
X143535829Y-65815970D01*
X143513650Y-65805480D01*
X143492607Y-65792868D01*
X143472901Y-65778253D01*
X143454723Y-65761777D01*
X143438247Y-65743599D01*
X143423632Y-65723893D01*
X143411020Y-65702850D01*
X143400530Y-65680671D01*
X143392265Y-65657572D01*
X143386304Y-65633773D01*
X143382704Y-65609505D01*
X143381500Y-65585001D01*
X143381500Y-64934999D01*
X143382704Y-64910495D01*
X143386304Y-64886227D01*
X143392265Y-64862428D01*
X143400530Y-64839329D01*
X143411020Y-64817150D01*
X143423632Y-64796107D01*
X143438247Y-64776401D01*
X143454723Y-64758223D01*
X143472901Y-64741747D01*
X143492607Y-64727132D01*
X143513650Y-64714520D01*
X143535829Y-64704030D01*
X143558928Y-64695765D01*
X143582727Y-64689804D01*
X143606995Y-64686204D01*
X143631499Y-64685000D01*
X144531501Y-64685000D01*
X144556005Y-64686204D01*
X144556005Y-64686204D01*
G37*
D11*
X144081500Y-65260000D03*
D10*
G36*
X144556005Y-66736204D02*
G01*
X144580273Y-66739804D01*
X144604072Y-66745765D01*
X144627171Y-66754030D01*
X144649350Y-66764520D01*
X144670393Y-66777132D01*
X144690099Y-66791747D01*
X144708277Y-66808223D01*
X144724753Y-66826401D01*
X144739368Y-66846107D01*
X144751980Y-66867150D01*
X144762470Y-66889329D01*
X144770735Y-66912428D01*
X144776696Y-66936227D01*
X144780296Y-66960495D01*
X144781500Y-66984999D01*
X144781500Y-67635001D01*
X144780296Y-67659505D01*
X144776696Y-67683773D01*
X144770735Y-67707572D01*
X144762470Y-67730671D01*
X144751980Y-67752850D01*
X144739368Y-67773893D01*
X144724753Y-67793599D01*
X144708277Y-67811777D01*
X144690099Y-67828253D01*
X144670393Y-67842868D01*
X144649350Y-67855480D01*
X144627171Y-67865970D01*
X144604072Y-67874235D01*
X144580273Y-67880196D01*
X144556005Y-67883796D01*
X144531501Y-67885000D01*
X143631499Y-67885000D01*
X143606995Y-67883796D01*
X143582727Y-67880196D01*
X143558928Y-67874235D01*
X143535829Y-67865970D01*
X143513650Y-67855480D01*
X143492607Y-67842868D01*
X143472901Y-67828253D01*
X143454723Y-67811777D01*
X143438247Y-67793599D01*
X143423632Y-67773893D01*
X143411020Y-67752850D01*
X143400530Y-67730671D01*
X143392265Y-67707572D01*
X143386304Y-67683773D01*
X143382704Y-67659505D01*
X143381500Y-67635001D01*
X143381500Y-66984999D01*
X143382704Y-66960495D01*
X143386304Y-66936227D01*
X143392265Y-66912428D01*
X143400530Y-66889329D01*
X143411020Y-66867150D01*
X143423632Y-66846107D01*
X143438247Y-66826401D01*
X143454723Y-66808223D01*
X143472901Y-66791747D01*
X143492607Y-66777132D01*
X143513650Y-66764520D01*
X143535829Y-66754030D01*
X143558928Y-66745765D01*
X143582727Y-66739804D01*
X143606995Y-66736204D01*
X143631499Y-66735000D01*
X144531501Y-66735000D01*
X144556005Y-66736204D01*
X144556005Y-66736204D01*
G37*
D11*
X144081500Y-67310000D03*
D10*
G36*
X146016505Y-75147204D02*
G01*
X146040773Y-75150804D01*
X146064572Y-75156765D01*
X146087671Y-75165030D01*
X146109850Y-75175520D01*
X146130893Y-75188132D01*
X146150599Y-75202747D01*
X146168777Y-75219223D01*
X146185253Y-75237401D01*
X146199868Y-75257107D01*
X146212480Y-75278150D01*
X146222970Y-75300329D01*
X146231235Y-75323428D01*
X146237196Y-75347227D01*
X146240796Y-75371495D01*
X146242000Y-75395999D01*
X146242000Y-76046001D01*
X146240796Y-76070505D01*
X146237196Y-76094773D01*
X146231235Y-76118572D01*
X146222970Y-76141671D01*
X146212480Y-76163850D01*
X146199868Y-76184893D01*
X146185253Y-76204599D01*
X146168777Y-76222777D01*
X146150599Y-76239253D01*
X146130893Y-76253868D01*
X146109850Y-76266480D01*
X146087671Y-76276970D01*
X146064572Y-76285235D01*
X146040773Y-76291196D01*
X146016505Y-76294796D01*
X145992001Y-76296000D01*
X145091999Y-76296000D01*
X145067495Y-76294796D01*
X145043227Y-76291196D01*
X145019428Y-76285235D01*
X144996329Y-76276970D01*
X144974150Y-76266480D01*
X144953107Y-76253868D01*
X144933401Y-76239253D01*
X144915223Y-76222777D01*
X144898747Y-76204599D01*
X144884132Y-76184893D01*
X144871520Y-76163850D01*
X144861030Y-76141671D01*
X144852765Y-76118572D01*
X144846804Y-76094773D01*
X144843204Y-76070505D01*
X144842000Y-76046001D01*
X144842000Y-75395999D01*
X144843204Y-75371495D01*
X144846804Y-75347227D01*
X144852765Y-75323428D01*
X144861030Y-75300329D01*
X144871520Y-75278150D01*
X144884132Y-75257107D01*
X144898747Y-75237401D01*
X144915223Y-75219223D01*
X144933401Y-75202747D01*
X144953107Y-75188132D01*
X144974150Y-75175520D01*
X144996329Y-75165030D01*
X145019428Y-75156765D01*
X145043227Y-75150804D01*
X145067495Y-75147204D01*
X145091999Y-75146000D01*
X145992001Y-75146000D01*
X146016505Y-75147204D01*
X146016505Y-75147204D01*
G37*
D11*
X145542000Y-75721000D03*
D10*
G36*
X146016505Y-73097204D02*
G01*
X146040773Y-73100804D01*
X146064572Y-73106765D01*
X146087671Y-73115030D01*
X146109850Y-73125520D01*
X146130893Y-73138132D01*
X146150599Y-73152747D01*
X146168777Y-73169223D01*
X146185253Y-73187401D01*
X146199868Y-73207107D01*
X146212480Y-73228150D01*
X146222970Y-73250329D01*
X146231235Y-73273428D01*
X146237196Y-73297227D01*
X146240796Y-73321495D01*
X146242000Y-73345999D01*
X146242000Y-73996001D01*
X146240796Y-74020505D01*
X146237196Y-74044773D01*
X146231235Y-74068572D01*
X146222970Y-74091671D01*
X146212480Y-74113850D01*
X146199868Y-74134893D01*
X146185253Y-74154599D01*
X146168777Y-74172777D01*
X146150599Y-74189253D01*
X146130893Y-74203868D01*
X146109850Y-74216480D01*
X146087671Y-74226970D01*
X146064572Y-74235235D01*
X146040773Y-74241196D01*
X146016505Y-74244796D01*
X145992001Y-74246000D01*
X145091999Y-74246000D01*
X145067495Y-74244796D01*
X145043227Y-74241196D01*
X145019428Y-74235235D01*
X144996329Y-74226970D01*
X144974150Y-74216480D01*
X144953107Y-74203868D01*
X144933401Y-74189253D01*
X144915223Y-74172777D01*
X144898747Y-74154599D01*
X144884132Y-74134893D01*
X144871520Y-74113850D01*
X144861030Y-74091671D01*
X144852765Y-74068572D01*
X144846804Y-74044773D01*
X144843204Y-74020505D01*
X144842000Y-73996001D01*
X144842000Y-73345999D01*
X144843204Y-73321495D01*
X144846804Y-73297227D01*
X144852765Y-73273428D01*
X144861030Y-73250329D01*
X144871520Y-73228150D01*
X144884132Y-73207107D01*
X144898747Y-73187401D01*
X144915223Y-73169223D01*
X144933401Y-73152747D01*
X144953107Y-73138132D01*
X144974150Y-73125520D01*
X144996329Y-73115030D01*
X145019428Y-73106765D01*
X145043227Y-73100804D01*
X145067495Y-73097204D01*
X145091999Y-73096000D01*
X145992001Y-73096000D01*
X146016505Y-73097204D01*
X146016505Y-73097204D01*
G37*
D11*
X145542000Y-73671000D03*
D10*
G36*
X63085505Y-42923704D02*
G01*
X63109773Y-42927304D01*
X63133572Y-42933265D01*
X63156671Y-42941530D01*
X63178850Y-42952020D01*
X63199893Y-42964632D01*
X63219599Y-42979247D01*
X63237777Y-42995723D01*
X63254253Y-43013901D01*
X63268868Y-43033607D01*
X63281480Y-43054650D01*
X63291970Y-43076829D01*
X63300235Y-43099928D01*
X63306196Y-43123727D01*
X63309796Y-43147995D01*
X63311000Y-43172499D01*
X63311000Y-43822501D01*
X63309796Y-43847005D01*
X63306196Y-43871273D01*
X63300235Y-43895072D01*
X63291970Y-43918171D01*
X63281480Y-43940350D01*
X63268868Y-43961393D01*
X63254253Y-43981099D01*
X63237777Y-43999277D01*
X63219599Y-44015753D01*
X63199893Y-44030368D01*
X63178850Y-44042980D01*
X63156671Y-44053470D01*
X63133572Y-44061735D01*
X63109773Y-44067696D01*
X63085505Y-44071296D01*
X63061001Y-44072500D01*
X62160999Y-44072500D01*
X62136495Y-44071296D01*
X62112227Y-44067696D01*
X62088428Y-44061735D01*
X62065329Y-44053470D01*
X62043150Y-44042980D01*
X62022107Y-44030368D01*
X62002401Y-44015753D01*
X61984223Y-43999277D01*
X61967747Y-43981099D01*
X61953132Y-43961393D01*
X61940520Y-43940350D01*
X61930030Y-43918171D01*
X61921765Y-43895072D01*
X61915804Y-43871273D01*
X61912204Y-43847005D01*
X61911000Y-43822501D01*
X61911000Y-43172499D01*
X61912204Y-43147995D01*
X61915804Y-43123727D01*
X61921765Y-43099928D01*
X61930030Y-43076829D01*
X61940520Y-43054650D01*
X61953132Y-43033607D01*
X61967747Y-43013901D01*
X61984223Y-42995723D01*
X62002401Y-42979247D01*
X62022107Y-42964632D01*
X62043150Y-42952020D01*
X62065329Y-42941530D01*
X62088428Y-42933265D01*
X62112227Y-42927304D01*
X62136495Y-42923704D01*
X62160999Y-42922500D01*
X63061001Y-42922500D01*
X63085505Y-42923704D01*
X63085505Y-42923704D01*
G37*
D11*
X62611000Y-43497500D03*
D10*
G36*
X63085505Y-40873704D02*
G01*
X63109773Y-40877304D01*
X63133572Y-40883265D01*
X63156671Y-40891530D01*
X63178850Y-40902020D01*
X63199893Y-40914632D01*
X63219599Y-40929247D01*
X63237777Y-40945723D01*
X63254253Y-40963901D01*
X63268868Y-40983607D01*
X63281480Y-41004650D01*
X63291970Y-41026829D01*
X63300235Y-41049928D01*
X63306196Y-41073727D01*
X63309796Y-41097995D01*
X63311000Y-41122499D01*
X63311000Y-41772501D01*
X63309796Y-41797005D01*
X63306196Y-41821273D01*
X63300235Y-41845072D01*
X63291970Y-41868171D01*
X63281480Y-41890350D01*
X63268868Y-41911393D01*
X63254253Y-41931099D01*
X63237777Y-41949277D01*
X63219599Y-41965753D01*
X63199893Y-41980368D01*
X63178850Y-41992980D01*
X63156671Y-42003470D01*
X63133572Y-42011735D01*
X63109773Y-42017696D01*
X63085505Y-42021296D01*
X63061001Y-42022500D01*
X62160999Y-42022500D01*
X62136495Y-42021296D01*
X62112227Y-42017696D01*
X62088428Y-42011735D01*
X62065329Y-42003470D01*
X62043150Y-41992980D01*
X62022107Y-41980368D01*
X62002401Y-41965753D01*
X61984223Y-41949277D01*
X61967747Y-41931099D01*
X61953132Y-41911393D01*
X61940520Y-41890350D01*
X61930030Y-41868171D01*
X61921765Y-41845072D01*
X61915804Y-41821273D01*
X61912204Y-41797005D01*
X61911000Y-41772501D01*
X61911000Y-41122499D01*
X61912204Y-41097995D01*
X61915804Y-41073727D01*
X61921765Y-41049928D01*
X61930030Y-41026829D01*
X61940520Y-41004650D01*
X61953132Y-40983607D01*
X61967747Y-40963901D01*
X61984223Y-40945723D01*
X62002401Y-40929247D01*
X62022107Y-40914632D01*
X62043150Y-40902020D01*
X62065329Y-40891530D01*
X62088428Y-40883265D01*
X62112227Y-40877304D01*
X62136495Y-40873704D01*
X62160999Y-40872500D01*
X63061001Y-40872500D01*
X63085505Y-40873704D01*
X63085505Y-40873704D01*
G37*
D11*
X62611000Y-41447500D03*
D10*
G36*
X124934505Y-40164204D02*
G01*
X124958773Y-40167804D01*
X124982572Y-40173765D01*
X125005671Y-40182030D01*
X125027850Y-40192520D01*
X125048893Y-40205132D01*
X125068599Y-40219747D01*
X125086777Y-40236223D01*
X125103253Y-40254401D01*
X125117868Y-40274107D01*
X125130480Y-40295150D01*
X125140970Y-40317329D01*
X125149235Y-40340428D01*
X125155196Y-40364227D01*
X125158796Y-40388495D01*
X125160000Y-40412999D01*
X125160000Y-41063001D01*
X125158796Y-41087505D01*
X125155196Y-41111773D01*
X125149235Y-41135572D01*
X125140970Y-41158671D01*
X125130480Y-41180850D01*
X125117868Y-41201893D01*
X125103253Y-41221599D01*
X125086777Y-41239777D01*
X125068599Y-41256253D01*
X125048893Y-41270868D01*
X125027850Y-41283480D01*
X125005671Y-41293970D01*
X124982572Y-41302235D01*
X124958773Y-41308196D01*
X124934505Y-41311796D01*
X124910001Y-41313000D01*
X124009999Y-41313000D01*
X123985495Y-41311796D01*
X123961227Y-41308196D01*
X123937428Y-41302235D01*
X123914329Y-41293970D01*
X123892150Y-41283480D01*
X123871107Y-41270868D01*
X123851401Y-41256253D01*
X123833223Y-41239777D01*
X123816747Y-41221599D01*
X123802132Y-41201893D01*
X123789520Y-41180850D01*
X123779030Y-41158671D01*
X123770765Y-41135572D01*
X123764804Y-41111773D01*
X123761204Y-41087505D01*
X123760000Y-41063001D01*
X123760000Y-40412999D01*
X123761204Y-40388495D01*
X123764804Y-40364227D01*
X123770765Y-40340428D01*
X123779030Y-40317329D01*
X123789520Y-40295150D01*
X123802132Y-40274107D01*
X123816747Y-40254401D01*
X123833223Y-40236223D01*
X123851401Y-40219747D01*
X123871107Y-40205132D01*
X123892150Y-40192520D01*
X123914329Y-40182030D01*
X123937428Y-40173765D01*
X123961227Y-40167804D01*
X123985495Y-40164204D01*
X124009999Y-40163000D01*
X124910001Y-40163000D01*
X124934505Y-40164204D01*
X124934505Y-40164204D01*
G37*
D11*
X124460000Y-40738000D03*
D10*
G36*
X124934505Y-42214204D02*
G01*
X124958773Y-42217804D01*
X124982572Y-42223765D01*
X125005671Y-42232030D01*
X125027850Y-42242520D01*
X125048893Y-42255132D01*
X125068599Y-42269747D01*
X125086777Y-42286223D01*
X125103253Y-42304401D01*
X125117868Y-42324107D01*
X125130480Y-42345150D01*
X125140970Y-42367329D01*
X125149235Y-42390428D01*
X125155196Y-42414227D01*
X125158796Y-42438495D01*
X125160000Y-42462999D01*
X125160000Y-43113001D01*
X125158796Y-43137505D01*
X125155196Y-43161773D01*
X125149235Y-43185572D01*
X125140970Y-43208671D01*
X125130480Y-43230850D01*
X125117868Y-43251893D01*
X125103253Y-43271599D01*
X125086777Y-43289777D01*
X125068599Y-43306253D01*
X125048893Y-43320868D01*
X125027850Y-43333480D01*
X125005671Y-43343970D01*
X124982572Y-43352235D01*
X124958773Y-43358196D01*
X124934505Y-43361796D01*
X124910001Y-43363000D01*
X124009999Y-43363000D01*
X123985495Y-43361796D01*
X123961227Y-43358196D01*
X123937428Y-43352235D01*
X123914329Y-43343970D01*
X123892150Y-43333480D01*
X123871107Y-43320868D01*
X123851401Y-43306253D01*
X123833223Y-43289777D01*
X123816747Y-43271599D01*
X123802132Y-43251893D01*
X123789520Y-43230850D01*
X123779030Y-43208671D01*
X123770765Y-43185572D01*
X123764804Y-43161773D01*
X123761204Y-43137505D01*
X123760000Y-43113001D01*
X123760000Y-42462999D01*
X123761204Y-42438495D01*
X123764804Y-42414227D01*
X123770765Y-42390428D01*
X123779030Y-42367329D01*
X123789520Y-42345150D01*
X123802132Y-42324107D01*
X123816747Y-42304401D01*
X123833223Y-42286223D01*
X123851401Y-42269747D01*
X123871107Y-42255132D01*
X123892150Y-42242520D01*
X123914329Y-42232030D01*
X123937428Y-42223765D01*
X123961227Y-42217804D01*
X123985495Y-42214204D01*
X124009999Y-42213000D01*
X124910001Y-42213000D01*
X124934505Y-42214204D01*
X124934505Y-42214204D01*
G37*
D11*
X124460000Y-42788000D03*
D10*
G36*
X128871505Y-42214204D02*
G01*
X128895773Y-42217804D01*
X128919572Y-42223765D01*
X128942671Y-42232030D01*
X128964850Y-42242520D01*
X128985893Y-42255132D01*
X129005599Y-42269747D01*
X129023777Y-42286223D01*
X129040253Y-42304401D01*
X129054868Y-42324107D01*
X129067480Y-42345150D01*
X129077970Y-42367329D01*
X129086235Y-42390428D01*
X129092196Y-42414227D01*
X129095796Y-42438495D01*
X129097000Y-42462999D01*
X129097000Y-43113001D01*
X129095796Y-43137505D01*
X129092196Y-43161773D01*
X129086235Y-43185572D01*
X129077970Y-43208671D01*
X129067480Y-43230850D01*
X129054868Y-43251893D01*
X129040253Y-43271599D01*
X129023777Y-43289777D01*
X129005599Y-43306253D01*
X128985893Y-43320868D01*
X128964850Y-43333480D01*
X128942671Y-43343970D01*
X128919572Y-43352235D01*
X128895773Y-43358196D01*
X128871505Y-43361796D01*
X128847001Y-43363000D01*
X127946999Y-43363000D01*
X127922495Y-43361796D01*
X127898227Y-43358196D01*
X127874428Y-43352235D01*
X127851329Y-43343970D01*
X127829150Y-43333480D01*
X127808107Y-43320868D01*
X127788401Y-43306253D01*
X127770223Y-43289777D01*
X127753747Y-43271599D01*
X127739132Y-43251893D01*
X127726520Y-43230850D01*
X127716030Y-43208671D01*
X127707765Y-43185572D01*
X127701804Y-43161773D01*
X127698204Y-43137505D01*
X127697000Y-43113001D01*
X127697000Y-42462999D01*
X127698204Y-42438495D01*
X127701804Y-42414227D01*
X127707765Y-42390428D01*
X127716030Y-42367329D01*
X127726520Y-42345150D01*
X127739132Y-42324107D01*
X127753747Y-42304401D01*
X127770223Y-42286223D01*
X127788401Y-42269747D01*
X127808107Y-42255132D01*
X127829150Y-42242520D01*
X127851329Y-42232030D01*
X127874428Y-42223765D01*
X127898227Y-42217804D01*
X127922495Y-42214204D01*
X127946999Y-42213000D01*
X128847001Y-42213000D01*
X128871505Y-42214204D01*
X128871505Y-42214204D01*
G37*
D11*
X128397000Y-42788000D03*
D10*
G36*
X128871505Y-40164204D02*
G01*
X128895773Y-40167804D01*
X128919572Y-40173765D01*
X128942671Y-40182030D01*
X128964850Y-40192520D01*
X128985893Y-40205132D01*
X129005599Y-40219747D01*
X129023777Y-40236223D01*
X129040253Y-40254401D01*
X129054868Y-40274107D01*
X129067480Y-40295150D01*
X129077970Y-40317329D01*
X129086235Y-40340428D01*
X129092196Y-40364227D01*
X129095796Y-40388495D01*
X129097000Y-40412999D01*
X129097000Y-41063001D01*
X129095796Y-41087505D01*
X129092196Y-41111773D01*
X129086235Y-41135572D01*
X129077970Y-41158671D01*
X129067480Y-41180850D01*
X129054868Y-41201893D01*
X129040253Y-41221599D01*
X129023777Y-41239777D01*
X129005599Y-41256253D01*
X128985893Y-41270868D01*
X128964850Y-41283480D01*
X128942671Y-41293970D01*
X128919572Y-41302235D01*
X128895773Y-41308196D01*
X128871505Y-41311796D01*
X128847001Y-41313000D01*
X127946999Y-41313000D01*
X127922495Y-41311796D01*
X127898227Y-41308196D01*
X127874428Y-41302235D01*
X127851329Y-41293970D01*
X127829150Y-41283480D01*
X127808107Y-41270868D01*
X127788401Y-41256253D01*
X127770223Y-41239777D01*
X127753747Y-41221599D01*
X127739132Y-41201893D01*
X127726520Y-41180850D01*
X127716030Y-41158671D01*
X127707765Y-41135572D01*
X127701804Y-41111773D01*
X127698204Y-41087505D01*
X127697000Y-41063001D01*
X127697000Y-40412999D01*
X127698204Y-40388495D01*
X127701804Y-40364227D01*
X127707765Y-40340428D01*
X127716030Y-40317329D01*
X127726520Y-40295150D01*
X127739132Y-40274107D01*
X127753747Y-40254401D01*
X127770223Y-40236223D01*
X127788401Y-40219747D01*
X127808107Y-40205132D01*
X127829150Y-40192520D01*
X127851329Y-40182030D01*
X127874428Y-40173765D01*
X127898227Y-40167804D01*
X127922495Y-40164204D01*
X127946999Y-40163000D01*
X128847001Y-40163000D01*
X128871505Y-40164204D01*
X128871505Y-40164204D01*
G37*
D11*
X128397000Y-40738000D03*
D10*
G36*
X107789505Y-40857204D02*
G01*
X107813773Y-40860804D01*
X107837572Y-40866765D01*
X107860671Y-40875030D01*
X107882850Y-40885520D01*
X107903893Y-40898132D01*
X107923599Y-40912747D01*
X107941777Y-40929223D01*
X107958253Y-40947401D01*
X107972868Y-40967107D01*
X107985480Y-40988150D01*
X107995970Y-41010329D01*
X108004235Y-41033428D01*
X108010196Y-41057227D01*
X108013796Y-41081495D01*
X108015000Y-41105999D01*
X108015000Y-41756001D01*
X108013796Y-41780505D01*
X108010196Y-41804773D01*
X108004235Y-41828572D01*
X107995970Y-41851671D01*
X107985480Y-41873850D01*
X107972868Y-41894893D01*
X107958253Y-41914599D01*
X107941777Y-41932777D01*
X107923599Y-41949253D01*
X107903893Y-41963868D01*
X107882850Y-41976480D01*
X107860671Y-41986970D01*
X107837572Y-41995235D01*
X107813773Y-42001196D01*
X107789505Y-42004796D01*
X107765001Y-42006000D01*
X106864999Y-42006000D01*
X106840495Y-42004796D01*
X106816227Y-42001196D01*
X106792428Y-41995235D01*
X106769329Y-41986970D01*
X106747150Y-41976480D01*
X106726107Y-41963868D01*
X106706401Y-41949253D01*
X106688223Y-41932777D01*
X106671747Y-41914599D01*
X106657132Y-41894893D01*
X106644520Y-41873850D01*
X106634030Y-41851671D01*
X106625765Y-41828572D01*
X106619804Y-41804773D01*
X106616204Y-41780505D01*
X106615000Y-41756001D01*
X106615000Y-41105999D01*
X106616204Y-41081495D01*
X106619804Y-41057227D01*
X106625765Y-41033428D01*
X106634030Y-41010329D01*
X106644520Y-40988150D01*
X106657132Y-40967107D01*
X106671747Y-40947401D01*
X106688223Y-40929223D01*
X106706401Y-40912747D01*
X106726107Y-40898132D01*
X106747150Y-40885520D01*
X106769329Y-40875030D01*
X106792428Y-40866765D01*
X106816227Y-40860804D01*
X106840495Y-40857204D01*
X106864999Y-40856000D01*
X107765001Y-40856000D01*
X107789505Y-40857204D01*
X107789505Y-40857204D01*
G37*
D11*
X107315000Y-41431000D03*
D10*
G36*
X107789505Y-38807204D02*
G01*
X107813773Y-38810804D01*
X107837572Y-38816765D01*
X107860671Y-38825030D01*
X107882850Y-38835520D01*
X107903893Y-38848132D01*
X107923599Y-38862747D01*
X107941777Y-38879223D01*
X107958253Y-38897401D01*
X107972868Y-38917107D01*
X107985480Y-38938150D01*
X107995970Y-38960329D01*
X108004235Y-38983428D01*
X108010196Y-39007227D01*
X108013796Y-39031495D01*
X108015000Y-39055999D01*
X108015000Y-39706001D01*
X108013796Y-39730505D01*
X108010196Y-39754773D01*
X108004235Y-39778572D01*
X107995970Y-39801671D01*
X107985480Y-39823850D01*
X107972868Y-39844893D01*
X107958253Y-39864599D01*
X107941777Y-39882777D01*
X107923599Y-39899253D01*
X107903893Y-39913868D01*
X107882850Y-39926480D01*
X107860671Y-39936970D01*
X107837572Y-39945235D01*
X107813773Y-39951196D01*
X107789505Y-39954796D01*
X107765001Y-39956000D01*
X106864999Y-39956000D01*
X106840495Y-39954796D01*
X106816227Y-39951196D01*
X106792428Y-39945235D01*
X106769329Y-39936970D01*
X106747150Y-39926480D01*
X106726107Y-39913868D01*
X106706401Y-39899253D01*
X106688223Y-39882777D01*
X106671747Y-39864599D01*
X106657132Y-39844893D01*
X106644520Y-39823850D01*
X106634030Y-39801671D01*
X106625765Y-39778572D01*
X106619804Y-39754773D01*
X106616204Y-39730505D01*
X106615000Y-39706001D01*
X106615000Y-39055999D01*
X106616204Y-39031495D01*
X106619804Y-39007227D01*
X106625765Y-38983428D01*
X106634030Y-38960329D01*
X106644520Y-38938150D01*
X106657132Y-38917107D01*
X106671747Y-38897401D01*
X106688223Y-38879223D01*
X106706401Y-38862747D01*
X106726107Y-38848132D01*
X106747150Y-38835520D01*
X106769329Y-38825030D01*
X106792428Y-38816765D01*
X106816227Y-38810804D01*
X106840495Y-38807204D01*
X106864999Y-38806000D01*
X107765001Y-38806000D01*
X107789505Y-38807204D01*
X107789505Y-38807204D01*
G37*
D11*
X107315000Y-39381000D03*
D10*
G36*
X83405505Y-70892704D02*
G01*
X83429773Y-70896304D01*
X83453572Y-70902265D01*
X83476671Y-70910530D01*
X83498850Y-70921020D01*
X83519893Y-70933632D01*
X83539599Y-70948247D01*
X83557777Y-70964723D01*
X83574253Y-70982901D01*
X83588868Y-71002607D01*
X83601480Y-71023650D01*
X83611970Y-71045829D01*
X83620235Y-71068928D01*
X83626196Y-71092727D01*
X83629796Y-71116995D01*
X83631000Y-71141499D01*
X83631000Y-71791501D01*
X83629796Y-71816005D01*
X83626196Y-71840273D01*
X83620235Y-71864072D01*
X83611970Y-71887171D01*
X83601480Y-71909350D01*
X83588868Y-71930393D01*
X83574253Y-71950099D01*
X83557777Y-71968277D01*
X83539599Y-71984753D01*
X83519893Y-71999368D01*
X83498850Y-72011980D01*
X83476671Y-72022470D01*
X83453572Y-72030735D01*
X83429773Y-72036696D01*
X83405505Y-72040296D01*
X83381001Y-72041500D01*
X82480999Y-72041500D01*
X82456495Y-72040296D01*
X82432227Y-72036696D01*
X82408428Y-72030735D01*
X82385329Y-72022470D01*
X82363150Y-72011980D01*
X82342107Y-71999368D01*
X82322401Y-71984753D01*
X82304223Y-71968277D01*
X82287747Y-71950099D01*
X82273132Y-71930393D01*
X82260520Y-71909350D01*
X82250030Y-71887171D01*
X82241765Y-71864072D01*
X82235804Y-71840273D01*
X82232204Y-71816005D01*
X82231000Y-71791501D01*
X82231000Y-71141499D01*
X82232204Y-71116995D01*
X82235804Y-71092727D01*
X82241765Y-71068928D01*
X82250030Y-71045829D01*
X82260520Y-71023650D01*
X82273132Y-71002607D01*
X82287747Y-70982901D01*
X82304223Y-70964723D01*
X82322401Y-70948247D01*
X82342107Y-70933632D01*
X82363150Y-70921020D01*
X82385329Y-70910530D01*
X82408428Y-70902265D01*
X82432227Y-70896304D01*
X82456495Y-70892704D01*
X82480999Y-70891500D01*
X83381001Y-70891500D01*
X83405505Y-70892704D01*
X83405505Y-70892704D01*
G37*
D11*
X82931000Y-71466500D03*
D10*
G36*
X83405505Y-68842704D02*
G01*
X83429773Y-68846304D01*
X83453572Y-68852265D01*
X83476671Y-68860530D01*
X83498850Y-68871020D01*
X83519893Y-68883632D01*
X83539599Y-68898247D01*
X83557777Y-68914723D01*
X83574253Y-68932901D01*
X83588868Y-68952607D01*
X83601480Y-68973650D01*
X83611970Y-68995829D01*
X83620235Y-69018928D01*
X83626196Y-69042727D01*
X83629796Y-69066995D01*
X83631000Y-69091499D01*
X83631000Y-69741501D01*
X83629796Y-69766005D01*
X83626196Y-69790273D01*
X83620235Y-69814072D01*
X83611970Y-69837171D01*
X83601480Y-69859350D01*
X83588868Y-69880393D01*
X83574253Y-69900099D01*
X83557777Y-69918277D01*
X83539599Y-69934753D01*
X83519893Y-69949368D01*
X83498850Y-69961980D01*
X83476671Y-69972470D01*
X83453572Y-69980735D01*
X83429773Y-69986696D01*
X83405505Y-69990296D01*
X83381001Y-69991500D01*
X82480999Y-69991500D01*
X82456495Y-69990296D01*
X82432227Y-69986696D01*
X82408428Y-69980735D01*
X82385329Y-69972470D01*
X82363150Y-69961980D01*
X82342107Y-69949368D01*
X82322401Y-69934753D01*
X82304223Y-69918277D01*
X82287747Y-69900099D01*
X82273132Y-69880393D01*
X82260520Y-69859350D01*
X82250030Y-69837171D01*
X82241765Y-69814072D01*
X82235804Y-69790273D01*
X82232204Y-69766005D01*
X82231000Y-69741501D01*
X82231000Y-69091499D01*
X82232204Y-69066995D01*
X82235804Y-69042727D01*
X82241765Y-69018928D01*
X82250030Y-68995829D01*
X82260520Y-68973650D01*
X82273132Y-68952607D01*
X82287747Y-68932901D01*
X82304223Y-68914723D01*
X82322401Y-68898247D01*
X82342107Y-68883632D01*
X82363150Y-68871020D01*
X82385329Y-68860530D01*
X82408428Y-68852265D01*
X82432227Y-68846304D01*
X82456495Y-68842704D01*
X82480999Y-68841500D01*
X83381001Y-68841500D01*
X83405505Y-68842704D01*
X83405505Y-68842704D01*
G37*
D11*
X82931000Y-69416500D03*
D10*
G36*
X83405505Y-57664704D02*
G01*
X83429773Y-57668304D01*
X83453572Y-57674265D01*
X83476671Y-57682530D01*
X83498850Y-57693020D01*
X83519893Y-57705632D01*
X83539599Y-57720247D01*
X83557777Y-57736723D01*
X83574253Y-57754901D01*
X83588868Y-57774607D01*
X83601480Y-57795650D01*
X83611970Y-57817829D01*
X83620235Y-57840928D01*
X83626196Y-57864727D01*
X83629796Y-57888995D01*
X83631000Y-57913499D01*
X83631000Y-58563501D01*
X83629796Y-58588005D01*
X83626196Y-58612273D01*
X83620235Y-58636072D01*
X83611970Y-58659171D01*
X83601480Y-58681350D01*
X83588868Y-58702393D01*
X83574253Y-58722099D01*
X83557777Y-58740277D01*
X83539599Y-58756753D01*
X83519893Y-58771368D01*
X83498850Y-58783980D01*
X83476671Y-58794470D01*
X83453572Y-58802735D01*
X83429773Y-58808696D01*
X83405505Y-58812296D01*
X83381001Y-58813500D01*
X82480999Y-58813500D01*
X82456495Y-58812296D01*
X82432227Y-58808696D01*
X82408428Y-58802735D01*
X82385329Y-58794470D01*
X82363150Y-58783980D01*
X82342107Y-58771368D01*
X82322401Y-58756753D01*
X82304223Y-58740277D01*
X82287747Y-58722099D01*
X82273132Y-58702393D01*
X82260520Y-58681350D01*
X82250030Y-58659171D01*
X82241765Y-58636072D01*
X82235804Y-58612273D01*
X82232204Y-58588005D01*
X82231000Y-58563501D01*
X82231000Y-57913499D01*
X82232204Y-57888995D01*
X82235804Y-57864727D01*
X82241765Y-57840928D01*
X82250030Y-57817829D01*
X82260520Y-57795650D01*
X82273132Y-57774607D01*
X82287747Y-57754901D01*
X82304223Y-57736723D01*
X82322401Y-57720247D01*
X82342107Y-57705632D01*
X82363150Y-57693020D01*
X82385329Y-57682530D01*
X82408428Y-57674265D01*
X82432227Y-57668304D01*
X82456495Y-57664704D01*
X82480999Y-57663500D01*
X83381001Y-57663500D01*
X83405505Y-57664704D01*
X83405505Y-57664704D01*
G37*
D11*
X82931000Y-58238500D03*
D10*
G36*
X83405505Y-55614704D02*
G01*
X83429773Y-55618304D01*
X83453572Y-55624265D01*
X83476671Y-55632530D01*
X83498850Y-55643020D01*
X83519893Y-55655632D01*
X83539599Y-55670247D01*
X83557777Y-55686723D01*
X83574253Y-55704901D01*
X83588868Y-55724607D01*
X83601480Y-55745650D01*
X83611970Y-55767829D01*
X83620235Y-55790928D01*
X83626196Y-55814727D01*
X83629796Y-55838995D01*
X83631000Y-55863499D01*
X83631000Y-56513501D01*
X83629796Y-56538005D01*
X83626196Y-56562273D01*
X83620235Y-56586072D01*
X83611970Y-56609171D01*
X83601480Y-56631350D01*
X83588868Y-56652393D01*
X83574253Y-56672099D01*
X83557777Y-56690277D01*
X83539599Y-56706753D01*
X83519893Y-56721368D01*
X83498850Y-56733980D01*
X83476671Y-56744470D01*
X83453572Y-56752735D01*
X83429773Y-56758696D01*
X83405505Y-56762296D01*
X83381001Y-56763500D01*
X82480999Y-56763500D01*
X82456495Y-56762296D01*
X82432227Y-56758696D01*
X82408428Y-56752735D01*
X82385329Y-56744470D01*
X82363150Y-56733980D01*
X82342107Y-56721368D01*
X82322401Y-56706753D01*
X82304223Y-56690277D01*
X82287747Y-56672099D01*
X82273132Y-56652393D01*
X82260520Y-56631350D01*
X82250030Y-56609171D01*
X82241765Y-56586072D01*
X82235804Y-56562273D01*
X82232204Y-56538005D01*
X82231000Y-56513501D01*
X82231000Y-55863499D01*
X82232204Y-55838995D01*
X82235804Y-55814727D01*
X82241765Y-55790928D01*
X82250030Y-55767829D01*
X82260520Y-55745650D01*
X82273132Y-55724607D01*
X82287747Y-55704901D01*
X82304223Y-55686723D01*
X82322401Y-55670247D01*
X82342107Y-55655632D01*
X82363150Y-55643020D01*
X82385329Y-55632530D01*
X82408428Y-55624265D01*
X82432227Y-55618304D01*
X82456495Y-55614704D01*
X82480999Y-55613500D01*
X83381001Y-55613500D01*
X83405505Y-55614704D01*
X83405505Y-55614704D01*
G37*
D11*
X82931000Y-56188500D03*
D10*
G36*
X161294605Y-55333304D02*
G01*
X161318873Y-55336904D01*
X161342672Y-55342865D01*
X161365771Y-55351130D01*
X161387950Y-55361620D01*
X161408993Y-55374232D01*
X161428699Y-55388847D01*
X161446877Y-55405323D01*
X161463353Y-55423501D01*
X161477968Y-55443207D01*
X161490580Y-55464250D01*
X161501070Y-55486429D01*
X161509335Y-55509528D01*
X161515296Y-55533327D01*
X161518896Y-55557595D01*
X161520100Y-55582099D01*
X161520100Y-56232101D01*
X161518896Y-56256605D01*
X161515296Y-56280873D01*
X161509335Y-56304672D01*
X161501070Y-56327771D01*
X161490580Y-56349950D01*
X161477968Y-56370993D01*
X161463353Y-56390699D01*
X161446877Y-56408877D01*
X161428699Y-56425353D01*
X161408993Y-56439968D01*
X161387950Y-56452580D01*
X161365771Y-56463070D01*
X161342672Y-56471335D01*
X161318873Y-56477296D01*
X161294605Y-56480896D01*
X161270101Y-56482100D01*
X160370099Y-56482100D01*
X160345595Y-56480896D01*
X160321327Y-56477296D01*
X160297528Y-56471335D01*
X160274429Y-56463070D01*
X160252250Y-56452580D01*
X160231207Y-56439968D01*
X160211501Y-56425353D01*
X160193323Y-56408877D01*
X160176847Y-56390699D01*
X160162232Y-56370993D01*
X160149620Y-56349950D01*
X160139130Y-56327771D01*
X160130865Y-56304672D01*
X160124904Y-56280873D01*
X160121304Y-56256605D01*
X160120100Y-56232101D01*
X160120100Y-55582099D01*
X160121304Y-55557595D01*
X160124904Y-55533327D01*
X160130865Y-55509528D01*
X160139130Y-55486429D01*
X160149620Y-55464250D01*
X160162232Y-55443207D01*
X160176847Y-55423501D01*
X160193323Y-55405323D01*
X160211501Y-55388847D01*
X160231207Y-55374232D01*
X160252250Y-55361620D01*
X160274429Y-55351130D01*
X160297528Y-55342865D01*
X160321327Y-55336904D01*
X160345595Y-55333304D01*
X160370099Y-55332100D01*
X161270101Y-55332100D01*
X161294605Y-55333304D01*
X161294605Y-55333304D01*
G37*
D11*
X160820100Y-55907100D03*
D10*
G36*
X161294605Y-53283304D02*
G01*
X161318873Y-53286904D01*
X161342672Y-53292865D01*
X161365771Y-53301130D01*
X161387950Y-53311620D01*
X161408993Y-53324232D01*
X161428699Y-53338847D01*
X161446877Y-53355323D01*
X161463353Y-53373501D01*
X161477968Y-53393207D01*
X161490580Y-53414250D01*
X161501070Y-53436429D01*
X161509335Y-53459528D01*
X161515296Y-53483327D01*
X161518896Y-53507595D01*
X161520100Y-53532099D01*
X161520100Y-54182101D01*
X161518896Y-54206605D01*
X161515296Y-54230873D01*
X161509335Y-54254672D01*
X161501070Y-54277771D01*
X161490580Y-54299950D01*
X161477968Y-54320993D01*
X161463353Y-54340699D01*
X161446877Y-54358877D01*
X161428699Y-54375353D01*
X161408993Y-54389968D01*
X161387950Y-54402580D01*
X161365771Y-54413070D01*
X161342672Y-54421335D01*
X161318873Y-54427296D01*
X161294605Y-54430896D01*
X161270101Y-54432100D01*
X160370099Y-54432100D01*
X160345595Y-54430896D01*
X160321327Y-54427296D01*
X160297528Y-54421335D01*
X160274429Y-54413070D01*
X160252250Y-54402580D01*
X160231207Y-54389968D01*
X160211501Y-54375353D01*
X160193323Y-54358877D01*
X160176847Y-54340699D01*
X160162232Y-54320993D01*
X160149620Y-54299950D01*
X160139130Y-54277771D01*
X160130865Y-54254672D01*
X160124904Y-54230873D01*
X160121304Y-54206605D01*
X160120100Y-54182101D01*
X160120100Y-53532099D01*
X160121304Y-53507595D01*
X160124904Y-53483327D01*
X160130865Y-53459528D01*
X160139130Y-53436429D01*
X160149620Y-53414250D01*
X160162232Y-53393207D01*
X160176847Y-53373501D01*
X160193323Y-53355323D01*
X160211501Y-53338847D01*
X160231207Y-53324232D01*
X160252250Y-53311620D01*
X160274429Y-53301130D01*
X160297528Y-53292865D01*
X160321327Y-53286904D01*
X160345595Y-53283304D01*
X160370099Y-53282100D01*
X161270101Y-53282100D01*
X161294605Y-53283304D01*
X161294605Y-53283304D01*
G37*
D11*
X160820100Y-53857100D03*
D10*
G36*
X146816605Y-55333304D02*
G01*
X146840873Y-55336904D01*
X146864672Y-55342865D01*
X146887771Y-55351130D01*
X146909950Y-55361620D01*
X146930993Y-55374232D01*
X146950699Y-55388847D01*
X146968877Y-55405323D01*
X146985353Y-55423501D01*
X146999968Y-55443207D01*
X147012580Y-55464250D01*
X147023070Y-55486429D01*
X147031335Y-55509528D01*
X147037296Y-55533327D01*
X147040896Y-55557595D01*
X147042100Y-55582099D01*
X147042100Y-56232101D01*
X147040896Y-56256605D01*
X147037296Y-56280873D01*
X147031335Y-56304672D01*
X147023070Y-56327771D01*
X147012580Y-56349950D01*
X146999968Y-56370993D01*
X146985353Y-56390699D01*
X146968877Y-56408877D01*
X146950699Y-56425353D01*
X146930993Y-56439968D01*
X146909950Y-56452580D01*
X146887771Y-56463070D01*
X146864672Y-56471335D01*
X146840873Y-56477296D01*
X146816605Y-56480896D01*
X146792101Y-56482100D01*
X145892099Y-56482100D01*
X145867595Y-56480896D01*
X145843327Y-56477296D01*
X145819528Y-56471335D01*
X145796429Y-56463070D01*
X145774250Y-56452580D01*
X145753207Y-56439968D01*
X145733501Y-56425353D01*
X145715323Y-56408877D01*
X145698847Y-56390699D01*
X145684232Y-56370993D01*
X145671620Y-56349950D01*
X145661130Y-56327771D01*
X145652865Y-56304672D01*
X145646904Y-56280873D01*
X145643304Y-56256605D01*
X145642100Y-56232101D01*
X145642100Y-55582099D01*
X145643304Y-55557595D01*
X145646904Y-55533327D01*
X145652865Y-55509528D01*
X145661130Y-55486429D01*
X145671620Y-55464250D01*
X145684232Y-55443207D01*
X145698847Y-55423501D01*
X145715323Y-55405323D01*
X145733501Y-55388847D01*
X145753207Y-55374232D01*
X145774250Y-55361620D01*
X145796429Y-55351130D01*
X145819528Y-55342865D01*
X145843327Y-55336904D01*
X145867595Y-55333304D01*
X145892099Y-55332100D01*
X146792101Y-55332100D01*
X146816605Y-55333304D01*
X146816605Y-55333304D01*
G37*
D11*
X146342100Y-55907100D03*
D10*
G36*
X146816605Y-53283304D02*
G01*
X146840873Y-53286904D01*
X146864672Y-53292865D01*
X146887771Y-53301130D01*
X146909950Y-53311620D01*
X146930993Y-53324232D01*
X146950699Y-53338847D01*
X146968877Y-53355323D01*
X146985353Y-53373501D01*
X146999968Y-53393207D01*
X147012580Y-53414250D01*
X147023070Y-53436429D01*
X147031335Y-53459528D01*
X147037296Y-53483327D01*
X147040896Y-53507595D01*
X147042100Y-53532099D01*
X147042100Y-54182101D01*
X147040896Y-54206605D01*
X147037296Y-54230873D01*
X147031335Y-54254672D01*
X147023070Y-54277771D01*
X147012580Y-54299950D01*
X146999968Y-54320993D01*
X146985353Y-54340699D01*
X146968877Y-54358877D01*
X146950699Y-54375353D01*
X146930993Y-54389968D01*
X146909950Y-54402580D01*
X146887771Y-54413070D01*
X146864672Y-54421335D01*
X146840873Y-54427296D01*
X146816605Y-54430896D01*
X146792101Y-54432100D01*
X145892099Y-54432100D01*
X145867595Y-54430896D01*
X145843327Y-54427296D01*
X145819528Y-54421335D01*
X145796429Y-54413070D01*
X145774250Y-54402580D01*
X145753207Y-54389968D01*
X145733501Y-54375353D01*
X145715323Y-54358877D01*
X145698847Y-54340699D01*
X145684232Y-54320993D01*
X145671620Y-54299950D01*
X145661130Y-54277771D01*
X145652865Y-54254672D01*
X145646904Y-54230873D01*
X145643304Y-54206605D01*
X145642100Y-54182101D01*
X145642100Y-53532099D01*
X145643304Y-53507595D01*
X145646904Y-53483327D01*
X145652865Y-53459528D01*
X145661130Y-53436429D01*
X145671620Y-53414250D01*
X145684232Y-53393207D01*
X145698847Y-53373501D01*
X145715323Y-53355323D01*
X145733501Y-53338847D01*
X145753207Y-53324232D01*
X145774250Y-53311620D01*
X145796429Y-53301130D01*
X145819528Y-53292865D01*
X145843327Y-53286904D01*
X145867595Y-53283304D01*
X145892099Y-53282100D01*
X146792101Y-53282100D01*
X146816605Y-53283304D01*
X146816605Y-53283304D01*
G37*
D11*
X146342100Y-53857100D03*
D10*
G36*
X167479505Y-66493204D02*
G01*
X167503773Y-66496804D01*
X167527572Y-66502765D01*
X167550671Y-66511030D01*
X167572850Y-66521520D01*
X167593893Y-66534132D01*
X167613599Y-66548747D01*
X167631777Y-66565223D01*
X167648253Y-66583401D01*
X167662868Y-66603107D01*
X167675480Y-66624150D01*
X167685970Y-66646329D01*
X167694235Y-66669428D01*
X167700196Y-66693227D01*
X167703796Y-66717495D01*
X167705000Y-66741999D01*
X167705000Y-67392001D01*
X167703796Y-67416505D01*
X167700196Y-67440773D01*
X167694235Y-67464572D01*
X167685970Y-67487671D01*
X167675480Y-67509850D01*
X167662868Y-67530893D01*
X167648253Y-67550599D01*
X167631777Y-67568777D01*
X167613599Y-67585253D01*
X167593893Y-67599868D01*
X167572850Y-67612480D01*
X167550671Y-67622970D01*
X167527572Y-67631235D01*
X167503773Y-67637196D01*
X167479505Y-67640796D01*
X167455001Y-67642000D01*
X166554999Y-67642000D01*
X166530495Y-67640796D01*
X166506227Y-67637196D01*
X166482428Y-67631235D01*
X166459329Y-67622970D01*
X166437150Y-67612480D01*
X166416107Y-67599868D01*
X166396401Y-67585253D01*
X166378223Y-67568777D01*
X166361747Y-67550599D01*
X166347132Y-67530893D01*
X166334520Y-67509850D01*
X166324030Y-67487671D01*
X166315765Y-67464572D01*
X166309804Y-67440773D01*
X166306204Y-67416505D01*
X166305000Y-67392001D01*
X166305000Y-66741999D01*
X166306204Y-66717495D01*
X166309804Y-66693227D01*
X166315765Y-66669428D01*
X166324030Y-66646329D01*
X166334520Y-66624150D01*
X166347132Y-66603107D01*
X166361747Y-66583401D01*
X166378223Y-66565223D01*
X166396401Y-66548747D01*
X166416107Y-66534132D01*
X166437150Y-66521520D01*
X166459329Y-66511030D01*
X166482428Y-66502765D01*
X166506227Y-66496804D01*
X166530495Y-66493204D01*
X166554999Y-66492000D01*
X167455001Y-66492000D01*
X167479505Y-66493204D01*
X167479505Y-66493204D01*
G37*
D11*
X167005000Y-67067000D03*
D10*
G36*
X167479505Y-68543204D02*
G01*
X167503773Y-68546804D01*
X167527572Y-68552765D01*
X167550671Y-68561030D01*
X167572850Y-68571520D01*
X167593893Y-68584132D01*
X167613599Y-68598747D01*
X167631777Y-68615223D01*
X167648253Y-68633401D01*
X167662868Y-68653107D01*
X167675480Y-68674150D01*
X167685970Y-68696329D01*
X167694235Y-68719428D01*
X167700196Y-68743227D01*
X167703796Y-68767495D01*
X167705000Y-68791999D01*
X167705000Y-69442001D01*
X167703796Y-69466505D01*
X167700196Y-69490773D01*
X167694235Y-69514572D01*
X167685970Y-69537671D01*
X167675480Y-69559850D01*
X167662868Y-69580893D01*
X167648253Y-69600599D01*
X167631777Y-69618777D01*
X167613599Y-69635253D01*
X167593893Y-69649868D01*
X167572850Y-69662480D01*
X167550671Y-69672970D01*
X167527572Y-69681235D01*
X167503773Y-69687196D01*
X167479505Y-69690796D01*
X167455001Y-69692000D01*
X166554999Y-69692000D01*
X166530495Y-69690796D01*
X166506227Y-69687196D01*
X166482428Y-69681235D01*
X166459329Y-69672970D01*
X166437150Y-69662480D01*
X166416107Y-69649868D01*
X166396401Y-69635253D01*
X166378223Y-69618777D01*
X166361747Y-69600599D01*
X166347132Y-69580893D01*
X166334520Y-69559850D01*
X166324030Y-69537671D01*
X166315765Y-69514572D01*
X166309804Y-69490773D01*
X166306204Y-69466505D01*
X166305000Y-69442001D01*
X166305000Y-68791999D01*
X166306204Y-68767495D01*
X166309804Y-68743227D01*
X166315765Y-68719428D01*
X166324030Y-68696329D01*
X166334520Y-68674150D01*
X166347132Y-68653107D01*
X166361747Y-68633401D01*
X166378223Y-68615223D01*
X166396401Y-68598747D01*
X166416107Y-68584132D01*
X166437150Y-68571520D01*
X166459329Y-68561030D01*
X166482428Y-68552765D01*
X166506227Y-68546804D01*
X166530495Y-68543204D01*
X166554999Y-68542000D01*
X167455001Y-68542000D01*
X167479505Y-68543204D01*
X167479505Y-68543204D01*
G37*
D11*
X167005000Y-69117000D03*
D10*
G36*
X164558505Y-68523204D02*
G01*
X164582773Y-68526804D01*
X164606572Y-68532765D01*
X164629671Y-68541030D01*
X164651850Y-68551520D01*
X164672893Y-68564132D01*
X164692599Y-68578747D01*
X164710777Y-68595223D01*
X164727253Y-68613401D01*
X164741868Y-68633107D01*
X164754480Y-68654150D01*
X164764970Y-68676329D01*
X164773235Y-68699428D01*
X164779196Y-68723227D01*
X164782796Y-68747495D01*
X164784000Y-68771999D01*
X164784000Y-69422001D01*
X164782796Y-69446505D01*
X164779196Y-69470773D01*
X164773235Y-69494572D01*
X164764970Y-69517671D01*
X164754480Y-69539850D01*
X164741868Y-69560893D01*
X164727253Y-69580599D01*
X164710777Y-69598777D01*
X164692599Y-69615253D01*
X164672893Y-69629868D01*
X164651850Y-69642480D01*
X164629671Y-69652970D01*
X164606572Y-69661235D01*
X164582773Y-69667196D01*
X164558505Y-69670796D01*
X164534001Y-69672000D01*
X163633999Y-69672000D01*
X163609495Y-69670796D01*
X163585227Y-69667196D01*
X163561428Y-69661235D01*
X163538329Y-69652970D01*
X163516150Y-69642480D01*
X163495107Y-69629868D01*
X163475401Y-69615253D01*
X163457223Y-69598777D01*
X163440747Y-69580599D01*
X163426132Y-69560893D01*
X163413520Y-69539850D01*
X163403030Y-69517671D01*
X163394765Y-69494572D01*
X163388804Y-69470773D01*
X163385204Y-69446505D01*
X163384000Y-69422001D01*
X163384000Y-68771999D01*
X163385204Y-68747495D01*
X163388804Y-68723227D01*
X163394765Y-68699428D01*
X163403030Y-68676329D01*
X163413520Y-68654150D01*
X163426132Y-68633107D01*
X163440747Y-68613401D01*
X163457223Y-68595223D01*
X163475401Y-68578747D01*
X163495107Y-68564132D01*
X163516150Y-68551520D01*
X163538329Y-68541030D01*
X163561428Y-68532765D01*
X163585227Y-68526804D01*
X163609495Y-68523204D01*
X163633999Y-68522000D01*
X164534001Y-68522000D01*
X164558505Y-68523204D01*
X164558505Y-68523204D01*
G37*
D11*
X164084000Y-69097000D03*
D10*
G36*
X164558505Y-66473204D02*
G01*
X164582773Y-66476804D01*
X164606572Y-66482765D01*
X164629671Y-66491030D01*
X164651850Y-66501520D01*
X164672893Y-66514132D01*
X164692599Y-66528747D01*
X164710777Y-66545223D01*
X164727253Y-66563401D01*
X164741868Y-66583107D01*
X164754480Y-66604150D01*
X164764970Y-66626329D01*
X164773235Y-66649428D01*
X164779196Y-66673227D01*
X164782796Y-66697495D01*
X164784000Y-66721999D01*
X164784000Y-67372001D01*
X164782796Y-67396505D01*
X164779196Y-67420773D01*
X164773235Y-67444572D01*
X164764970Y-67467671D01*
X164754480Y-67489850D01*
X164741868Y-67510893D01*
X164727253Y-67530599D01*
X164710777Y-67548777D01*
X164692599Y-67565253D01*
X164672893Y-67579868D01*
X164651850Y-67592480D01*
X164629671Y-67602970D01*
X164606572Y-67611235D01*
X164582773Y-67617196D01*
X164558505Y-67620796D01*
X164534001Y-67622000D01*
X163633999Y-67622000D01*
X163609495Y-67620796D01*
X163585227Y-67617196D01*
X163561428Y-67611235D01*
X163538329Y-67602970D01*
X163516150Y-67592480D01*
X163495107Y-67579868D01*
X163475401Y-67565253D01*
X163457223Y-67548777D01*
X163440747Y-67530599D01*
X163426132Y-67510893D01*
X163413520Y-67489850D01*
X163403030Y-67467671D01*
X163394765Y-67444572D01*
X163388804Y-67420773D01*
X163385204Y-67396505D01*
X163384000Y-67372001D01*
X163384000Y-66721999D01*
X163385204Y-66697495D01*
X163388804Y-66673227D01*
X163394765Y-66649428D01*
X163403030Y-66626329D01*
X163413520Y-66604150D01*
X163426132Y-66583107D01*
X163440747Y-66563401D01*
X163457223Y-66545223D01*
X163475401Y-66528747D01*
X163495107Y-66514132D01*
X163516150Y-66501520D01*
X163538329Y-66491030D01*
X163561428Y-66482765D01*
X163585227Y-66476804D01*
X163609495Y-66473204D01*
X163633999Y-66472000D01*
X164534001Y-66472000D01*
X164558505Y-66473204D01*
X164558505Y-66473204D01*
G37*
D11*
X164084000Y-67047000D03*
D10*
G36*
X117263779Y-57946144D02*
G01*
X117286834Y-57949563D01*
X117309443Y-57955227D01*
X117331387Y-57963079D01*
X117352457Y-57973044D01*
X117372448Y-57985026D01*
X117391168Y-57998910D01*
X117408438Y-58014562D01*
X117424090Y-58031832D01*
X117437974Y-58050552D01*
X117449956Y-58070543D01*
X117459921Y-58091613D01*
X117467773Y-58113557D01*
X117473437Y-58136166D01*
X117476856Y-58159221D01*
X117478000Y-58182500D01*
X117478000Y-58657500D01*
X117476856Y-58680779D01*
X117473437Y-58703834D01*
X117467773Y-58726443D01*
X117459921Y-58748387D01*
X117449956Y-58769457D01*
X117437974Y-58789448D01*
X117424090Y-58808168D01*
X117408438Y-58825438D01*
X117391168Y-58841090D01*
X117372448Y-58854974D01*
X117352457Y-58866956D01*
X117331387Y-58876921D01*
X117309443Y-58884773D01*
X117286834Y-58890437D01*
X117263779Y-58893856D01*
X117240500Y-58895000D01*
X116665500Y-58895000D01*
X116642221Y-58893856D01*
X116619166Y-58890437D01*
X116596557Y-58884773D01*
X116574613Y-58876921D01*
X116553543Y-58866956D01*
X116533552Y-58854974D01*
X116514832Y-58841090D01*
X116497562Y-58825438D01*
X116481910Y-58808168D01*
X116468026Y-58789448D01*
X116456044Y-58769457D01*
X116446079Y-58748387D01*
X116438227Y-58726443D01*
X116432563Y-58703834D01*
X116429144Y-58680779D01*
X116428000Y-58657500D01*
X116428000Y-58182500D01*
X116429144Y-58159221D01*
X116432563Y-58136166D01*
X116438227Y-58113557D01*
X116446079Y-58091613D01*
X116456044Y-58070543D01*
X116468026Y-58050552D01*
X116481910Y-58031832D01*
X116497562Y-58014562D01*
X116514832Y-57998910D01*
X116533552Y-57985026D01*
X116553543Y-57973044D01*
X116574613Y-57963079D01*
X116596557Y-57955227D01*
X116619166Y-57949563D01*
X116642221Y-57946144D01*
X116665500Y-57945000D01*
X117240500Y-57945000D01*
X117263779Y-57946144D01*
X117263779Y-57946144D01*
G37*
D12*
X116953000Y-58420000D03*
D10*
G36*
X115513779Y-57946144D02*
G01*
X115536834Y-57949563D01*
X115559443Y-57955227D01*
X115581387Y-57963079D01*
X115602457Y-57973044D01*
X115622448Y-57985026D01*
X115641168Y-57998910D01*
X115658438Y-58014562D01*
X115674090Y-58031832D01*
X115687974Y-58050552D01*
X115699956Y-58070543D01*
X115709921Y-58091613D01*
X115717773Y-58113557D01*
X115723437Y-58136166D01*
X115726856Y-58159221D01*
X115728000Y-58182500D01*
X115728000Y-58657500D01*
X115726856Y-58680779D01*
X115723437Y-58703834D01*
X115717773Y-58726443D01*
X115709921Y-58748387D01*
X115699956Y-58769457D01*
X115687974Y-58789448D01*
X115674090Y-58808168D01*
X115658438Y-58825438D01*
X115641168Y-58841090D01*
X115622448Y-58854974D01*
X115602457Y-58866956D01*
X115581387Y-58876921D01*
X115559443Y-58884773D01*
X115536834Y-58890437D01*
X115513779Y-58893856D01*
X115490500Y-58895000D01*
X114915500Y-58895000D01*
X114892221Y-58893856D01*
X114869166Y-58890437D01*
X114846557Y-58884773D01*
X114824613Y-58876921D01*
X114803543Y-58866956D01*
X114783552Y-58854974D01*
X114764832Y-58841090D01*
X114747562Y-58825438D01*
X114731910Y-58808168D01*
X114718026Y-58789448D01*
X114706044Y-58769457D01*
X114696079Y-58748387D01*
X114688227Y-58726443D01*
X114682563Y-58703834D01*
X114679144Y-58680779D01*
X114678000Y-58657500D01*
X114678000Y-58182500D01*
X114679144Y-58159221D01*
X114682563Y-58136166D01*
X114688227Y-58113557D01*
X114696079Y-58091613D01*
X114706044Y-58070543D01*
X114718026Y-58050552D01*
X114731910Y-58031832D01*
X114747562Y-58014562D01*
X114764832Y-57998910D01*
X114783552Y-57985026D01*
X114803543Y-57973044D01*
X114824613Y-57963079D01*
X114846557Y-57955227D01*
X114869166Y-57949563D01*
X114892221Y-57946144D01*
X114915500Y-57945000D01*
X115490500Y-57945000D01*
X115513779Y-57946144D01*
X115513779Y-57946144D01*
G37*
D12*
X115203000Y-58420000D03*
D10*
G36*
X105748505Y-66611204D02*
G01*
X105772773Y-66614804D01*
X105796572Y-66620765D01*
X105819671Y-66629030D01*
X105841850Y-66639520D01*
X105862893Y-66652132D01*
X105882599Y-66666747D01*
X105900777Y-66683223D01*
X105917253Y-66701401D01*
X105931868Y-66721107D01*
X105944480Y-66742150D01*
X105954970Y-66764329D01*
X105963235Y-66787428D01*
X105969196Y-66811227D01*
X105972796Y-66835495D01*
X105974000Y-66859999D01*
X105974000Y-67760001D01*
X105972796Y-67784505D01*
X105969196Y-67808773D01*
X105963235Y-67832572D01*
X105954970Y-67855671D01*
X105944480Y-67877850D01*
X105931868Y-67898893D01*
X105917253Y-67918599D01*
X105900777Y-67936777D01*
X105882599Y-67953253D01*
X105862893Y-67967868D01*
X105841850Y-67980480D01*
X105819671Y-67990970D01*
X105796572Y-67999235D01*
X105772773Y-68005196D01*
X105748505Y-68008796D01*
X105724001Y-68010000D01*
X105073999Y-68010000D01*
X105049495Y-68008796D01*
X105025227Y-68005196D01*
X105001428Y-67999235D01*
X104978329Y-67990970D01*
X104956150Y-67980480D01*
X104935107Y-67967868D01*
X104915401Y-67953253D01*
X104897223Y-67936777D01*
X104880747Y-67918599D01*
X104866132Y-67898893D01*
X104853520Y-67877850D01*
X104843030Y-67855671D01*
X104834765Y-67832572D01*
X104828804Y-67808773D01*
X104825204Y-67784505D01*
X104824000Y-67760001D01*
X104824000Y-66859999D01*
X104825204Y-66835495D01*
X104828804Y-66811227D01*
X104834765Y-66787428D01*
X104843030Y-66764329D01*
X104853520Y-66742150D01*
X104866132Y-66721107D01*
X104880747Y-66701401D01*
X104897223Y-66683223D01*
X104915401Y-66666747D01*
X104935107Y-66652132D01*
X104956150Y-66639520D01*
X104978329Y-66629030D01*
X105001428Y-66620765D01*
X105025227Y-66614804D01*
X105049495Y-66611204D01*
X105073999Y-66610000D01*
X105724001Y-66610000D01*
X105748505Y-66611204D01*
X105748505Y-66611204D01*
G37*
D11*
X105399000Y-67310000D03*
D10*
G36*
X103698505Y-66611204D02*
G01*
X103722773Y-66614804D01*
X103746572Y-66620765D01*
X103769671Y-66629030D01*
X103791850Y-66639520D01*
X103812893Y-66652132D01*
X103832599Y-66666747D01*
X103850777Y-66683223D01*
X103867253Y-66701401D01*
X103881868Y-66721107D01*
X103894480Y-66742150D01*
X103904970Y-66764329D01*
X103913235Y-66787428D01*
X103919196Y-66811227D01*
X103922796Y-66835495D01*
X103924000Y-66859999D01*
X103924000Y-67760001D01*
X103922796Y-67784505D01*
X103919196Y-67808773D01*
X103913235Y-67832572D01*
X103904970Y-67855671D01*
X103894480Y-67877850D01*
X103881868Y-67898893D01*
X103867253Y-67918599D01*
X103850777Y-67936777D01*
X103832599Y-67953253D01*
X103812893Y-67967868D01*
X103791850Y-67980480D01*
X103769671Y-67990970D01*
X103746572Y-67999235D01*
X103722773Y-68005196D01*
X103698505Y-68008796D01*
X103674001Y-68010000D01*
X103023999Y-68010000D01*
X102999495Y-68008796D01*
X102975227Y-68005196D01*
X102951428Y-67999235D01*
X102928329Y-67990970D01*
X102906150Y-67980480D01*
X102885107Y-67967868D01*
X102865401Y-67953253D01*
X102847223Y-67936777D01*
X102830747Y-67918599D01*
X102816132Y-67898893D01*
X102803520Y-67877850D01*
X102793030Y-67855671D01*
X102784765Y-67832572D01*
X102778804Y-67808773D01*
X102775204Y-67784505D01*
X102774000Y-67760001D01*
X102774000Y-66859999D01*
X102775204Y-66835495D01*
X102778804Y-66811227D01*
X102784765Y-66787428D01*
X102793030Y-66764329D01*
X102803520Y-66742150D01*
X102816132Y-66721107D01*
X102830747Y-66701401D01*
X102847223Y-66683223D01*
X102865401Y-66666747D01*
X102885107Y-66652132D01*
X102906150Y-66639520D01*
X102928329Y-66629030D01*
X102951428Y-66620765D01*
X102975227Y-66614804D01*
X102999495Y-66611204D01*
X103023999Y-66610000D01*
X103674001Y-66610000D01*
X103698505Y-66611204D01*
X103698505Y-66611204D01*
G37*
D11*
X103349000Y-67310000D03*
D10*
G36*
X160621505Y-74200204D02*
G01*
X160645773Y-74203804D01*
X160669572Y-74209765D01*
X160692671Y-74218030D01*
X160714850Y-74228520D01*
X160735893Y-74241132D01*
X160755599Y-74255747D01*
X160773777Y-74272223D01*
X160790253Y-74290401D01*
X160804868Y-74310107D01*
X160817480Y-74331150D01*
X160827970Y-74353329D01*
X160836235Y-74376428D01*
X160842196Y-74400227D01*
X160845796Y-74424495D01*
X160847000Y-74448999D01*
X160847000Y-75099001D01*
X160845796Y-75123505D01*
X160842196Y-75147773D01*
X160836235Y-75171572D01*
X160827970Y-75194671D01*
X160817480Y-75216850D01*
X160804868Y-75237893D01*
X160790253Y-75257599D01*
X160773777Y-75275777D01*
X160755599Y-75292253D01*
X160735893Y-75306868D01*
X160714850Y-75319480D01*
X160692671Y-75329970D01*
X160669572Y-75338235D01*
X160645773Y-75344196D01*
X160621505Y-75347796D01*
X160597001Y-75349000D01*
X159696999Y-75349000D01*
X159672495Y-75347796D01*
X159648227Y-75344196D01*
X159624428Y-75338235D01*
X159601329Y-75329970D01*
X159579150Y-75319480D01*
X159558107Y-75306868D01*
X159538401Y-75292253D01*
X159520223Y-75275777D01*
X159503747Y-75257599D01*
X159489132Y-75237893D01*
X159476520Y-75216850D01*
X159466030Y-75194671D01*
X159457765Y-75171572D01*
X159451804Y-75147773D01*
X159448204Y-75123505D01*
X159447000Y-75099001D01*
X159447000Y-74448999D01*
X159448204Y-74424495D01*
X159451804Y-74400227D01*
X159457765Y-74376428D01*
X159466030Y-74353329D01*
X159476520Y-74331150D01*
X159489132Y-74310107D01*
X159503747Y-74290401D01*
X159520223Y-74272223D01*
X159538401Y-74255747D01*
X159558107Y-74241132D01*
X159579150Y-74228520D01*
X159601329Y-74218030D01*
X159624428Y-74209765D01*
X159648227Y-74203804D01*
X159672495Y-74200204D01*
X159696999Y-74199000D01*
X160597001Y-74199000D01*
X160621505Y-74200204D01*
X160621505Y-74200204D01*
G37*
D11*
X160147000Y-74774000D03*
D10*
G36*
X160621505Y-76250204D02*
G01*
X160645773Y-76253804D01*
X160669572Y-76259765D01*
X160692671Y-76268030D01*
X160714850Y-76278520D01*
X160735893Y-76291132D01*
X160755599Y-76305747D01*
X160773777Y-76322223D01*
X160790253Y-76340401D01*
X160804868Y-76360107D01*
X160817480Y-76381150D01*
X160827970Y-76403329D01*
X160836235Y-76426428D01*
X160842196Y-76450227D01*
X160845796Y-76474495D01*
X160847000Y-76498999D01*
X160847000Y-77149001D01*
X160845796Y-77173505D01*
X160842196Y-77197773D01*
X160836235Y-77221572D01*
X160827970Y-77244671D01*
X160817480Y-77266850D01*
X160804868Y-77287893D01*
X160790253Y-77307599D01*
X160773777Y-77325777D01*
X160755599Y-77342253D01*
X160735893Y-77356868D01*
X160714850Y-77369480D01*
X160692671Y-77379970D01*
X160669572Y-77388235D01*
X160645773Y-77394196D01*
X160621505Y-77397796D01*
X160597001Y-77399000D01*
X159696999Y-77399000D01*
X159672495Y-77397796D01*
X159648227Y-77394196D01*
X159624428Y-77388235D01*
X159601329Y-77379970D01*
X159579150Y-77369480D01*
X159558107Y-77356868D01*
X159538401Y-77342253D01*
X159520223Y-77325777D01*
X159503747Y-77307599D01*
X159489132Y-77287893D01*
X159476520Y-77266850D01*
X159466030Y-77244671D01*
X159457765Y-77221572D01*
X159451804Y-77197773D01*
X159448204Y-77173505D01*
X159447000Y-77149001D01*
X159447000Y-76498999D01*
X159448204Y-76474495D01*
X159451804Y-76450227D01*
X159457765Y-76426428D01*
X159466030Y-76403329D01*
X159476520Y-76381150D01*
X159489132Y-76360107D01*
X159503747Y-76340401D01*
X159520223Y-76322223D01*
X159538401Y-76305747D01*
X159558107Y-76291132D01*
X159579150Y-76278520D01*
X159601329Y-76268030D01*
X159624428Y-76259765D01*
X159648227Y-76253804D01*
X159672495Y-76250204D01*
X159696999Y-76249000D01*
X160597001Y-76249000D01*
X160621505Y-76250204D01*
X160621505Y-76250204D01*
G37*
D11*
X160147000Y-76824000D03*
D10*
G36*
X153540505Y-81470204D02*
G01*
X153564773Y-81473804D01*
X153588572Y-81479765D01*
X153611671Y-81488030D01*
X153633850Y-81498520D01*
X153654893Y-81511132D01*
X153674599Y-81525747D01*
X153692777Y-81542223D01*
X153709253Y-81560401D01*
X153723868Y-81580107D01*
X153736480Y-81601150D01*
X153746970Y-81623329D01*
X153755235Y-81646428D01*
X153761196Y-81670227D01*
X153764796Y-81694495D01*
X153766000Y-81718999D01*
X153766000Y-82619001D01*
X153764796Y-82643505D01*
X153761196Y-82667773D01*
X153755235Y-82691572D01*
X153746970Y-82714671D01*
X153736480Y-82736850D01*
X153723868Y-82757893D01*
X153709253Y-82777599D01*
X153692777Y-82795777D01*
X153674599Y-82812253D01*
X153654893Y-82826868D01*
X153633850Y-82839480D01*
X153611671Y-82849970D01*
X153588572Y-82858235D01*
X153564773Y-82864196D01*
X153540505Y-82867796D01*
X153516001Y-82869000D01*
X152865999Y-82869000D01*
X152841495Y-82867796D01*
X152817227Y-82864196D01*
X152793428Y-82858235D01*
X152770329Y-82849970D01*
X152748150Y-82839480D01*
X152727107Y-82826868D01*
X152707401Y-82812253D01*
X152689223Y-82795777D01*
X152672747Y-82777599D01*
X152658132Y-82757893D01*
X152645520Y-82736850D01*
X152635030Y-82714671D01*
X152626765Y-82691572D01*
X152620804Y-82667773D01*
X152617204Y-82643505D01*
X152616000Y-82619001D01*
X152616000Y-81718999D01*
X152617204Y-81694495D01*
X152620804Y-81670227D01*
X152626765Y-81646428D01*
X152635030Y-81623329D01*
X152645520Y-81601150D01*
X152658132Y-81580107D01*
X152672747Y-81560401D01*
X152689223Y-81542223D01*
X152707401Y-81525747D01*
X152727107Y-81511132D01*
X152748150Y-81498520D01*
X152770329Y-81488030D01*
X152793428Y-81479765D01*
X152817227Y-81473804D01*
X152841495Y-81470204D01*
X152865999Y-81469000D01*
X153516001Y-81469000D01*
X153540505Y-81470204D01*
X153540505Y-81470204D01*
G37*
D11*
X153191000Y-82169000D03*
D10*
G36*
X151490505Y-81470204D02*
G01*
X151514773Y-81473804D01*
X151538572Y-81479765D01*
X151561671Y-81488030D01*
X151583850Y-81498520D01*
X151604893Y-81511132D01*
X151624599Y-81525747D01*
X151642777Y-81542223D01*
X151659253Y-81560401D01*
X151673868Y-81580107D01*
X151686480Y-81601150D01*
X151696970Y-81623329D01*
X151705235Y-81646428D01*
X151711196Y-81670227D01*
X151714796Y-81694495D01*
X151716000Y-81718999D01*
X151716000Y-82619001D01*
X151714796Y-82643505D01*
X151711196Y-82667773D01*
X151705235Y-82691572D01*
X151696970Y-82714671D01*
X151686480Y-82736850D01*
X151673868Y-82757893D01*
X151659253Y-82777599D01*
X151642777Y-82795777D01*
X151624599Y-82812253D01*
X151604893Y-82826868D01*
X151583850Y-82839480D01*
X151561671Y-82849970D01*
X151538572Y-82858235D01*
X151514773Y-82864196D01*
X151490505Y-82867796D01*
X151466001Y-82869000D01*
X150815999Y-82869000D01*
X150791495Y-82867796D01*
X150767227Y-82864196D01*
X150743428Y-82858235D01*
X150720329Y-82849970D01*
X150698150Y-82839480D01*
X150677107Y-82826868D01*
X150657401Y-82812253D01*
X150639223Y-82795777D01*
X150622747Y-82777599D01*
X150608132Y-82757893D01*
X150595520Y-82736850D01*
X150585030Y-82714671D01*
X150576765Y-82691572D01*
X150570804Y-82667773D01*
X150567204Y-82643505D01*
X150566000Y-82619001D01*
X150566000Y-81718999D01*
X150567204Y-81694495D01*
X150570804Y-81670227D01*
X150576765Y-81646428D01*
X150585030Y-81623329D01*
X150595520Y-81601150D01*
X150608132Y-81580107D01*
X150622747Y-81560401D01*
X150639223Y-81542223D01*
X150657401Y-81525747D01*
X150677107Y-81511132D01*
X150698150Y-81498520D01*
X150720329Y-81488030D01*
X150743428Y-81479765D01*
X150767227Y-81473804D01*
X150791495Y-81470204D01*
X150815999Y-81469000D01*
X151466001Y-81469000D01*
X151490505Y-81470204D01*
X151490505Y-81470204D01*
G37*
D11*
X151141000Y-82169000D03*
D10*
G36*
X96994505Y-56848204D02*
G01*
X97018773Y-56851804D01*
X97042572Y-56857765D01*
X97065671Y-56866030D01*
X97087850Y-56876520D01*
X97108893Y-56889132D01*
X97128599Y-56903747D01*
X97146777Y-56920223D01*
X97163253Y-56938401D01*
X97177868Y-56958107D01*
X97190480Y-56979150D01*
X97200970Y-57001329D01*
X97209235Y-57024428D01*
X97215196Y-57048227D01*
X97218796Y-57072495D01*
X97220000Y-57096999D01*
X97220000Y-57747001D01*
X97218796Y-57771505D01*
X97215196Y-57795773D01*
X97209235Y-57819572D01*
X97200970Y-57842671D01*
X97190480Y-57864850D01*
X97177868Y-57885893D01*
X97163253Y-57905599D01*
X97146777Y-57923777D01*
X97128599Y-57940253D01*
X97108893Y-57954868D01*
X97087850Y-57967480D01*
X97065671Y-57977970D01*
X97042572Y-57986235D01*
X97018773Y-57992196D01*
X96994505Y-57995796D01*
X96970001Y-57997000D01*
X96069999Y-57997000D01*
X96045495Y-57995796D01*
X96021227Y-57992196D01*
X95997428Y-57986235D01*
X95974329Y-57977970D01*
X95952150Y-57967480D01*
X95931107Y-57954868D01*
X95911401Y-57940253D01*
X95893223Y-57923777D01*
X95876747Y-57905599D01*
X95862132Y-57885893D01*
X95849520Y-57864850D01*
X95839030Y-57842671D01*
X95830765Y-57819572D01*
X95824804Y-57795773D01*
X95821204Y-57771505D01*
X95820000Y-57747001D01*
X95820000Y-57096999D01*
X95821204Y-57072495D01*
X95824804Y-57048227D01*
X95830765Y-57024428D01*
X95839030Y-57001329D01*
X95849520Y-56979150D01*
X95862132Y-56958107D01*
X95876747Y-56938401D01*
X95893223Y-56920223D01*
X95911401Y-56903747D01*
X95931107Y-56889132D01*
X95952150Y-56876520D01*
X95974329Y-56866030D01*
X95997428Y-56857765D01*
X96021227Y-56851804D01*
X96045495Y-56848204D01*
X96069999Y-56847000D01*
X96970001Y-56847000D01*
X96994505Y-56848204D01*
X96994505Y-56848204D01*
G37*
D11*
X96520000Y-57422000D03*
D10*
G36*
X96994505Y-54798204D02*
G01*
X97018773Y-54801804D01*
X97042572Y-54807765D01*
X97065671Y-54816030D01*
X97087850Y-54826520D01*
X97108893Y-54839132D01*
X97128599Y-54853747D01*
X97146777Y-54870223D01*
X97163253Y-54888401D01*
X97177868Y-54908107D01*
X97190480Y-54929150D01*
X97200970Y-54951329D01*
X97209235Y-54974428D01*
X97215196Y-54998227D01*
X97218796Y-55022495D01*
X97220000Y-55046999D01*
X97220000Y-55697001D01*
X97218796Y-55721505D01*
X97215196Y-55745773D01*
X97209235Y-55769572D01*
X97200970Y-55792671D01*
X97190480Y-55814850D01*
X97177868Y-55835893D01*
X97163253Y-55855599D01*
X97146777Y-55873777D01*
X97128599Y-55890253D01*
X97108893Y-55904868D01*
X97087850Y-55917480D01*
X97065671Y-55927970D01*
X97042572Y-55936235D01*
X97018773Y-55942196D01*
X96994505Y-55945796D01*
X96970001Y-55947000D01*
X96069999Y-55947000D01*
X96045495Y-55945796D01*
X96021227Y-55942196D01*
X95997428Y-55936235D01*
X95974329Y-55927970D01*
X95952150Y-55917480D01*
X95931107Y-55904868D01*
X95911401Y-55890253D01*
X95893223Y-55873777D01*
X95876747Y-55855599D01*
X95862132Y-55835893D01*
X95849520Y-55814850D01*
X95839030Y-55792671D01*
X95830765Y-55769572D01*
X95824804Y-55745773D01*
X95821204Y-55721505D01*
X95820000Y-55697001D01*
X95820000Y-55046999D01*
X95821204Y-55022495D01*
X95824804Y-54998227D01*
X95830765Y-54974428D01*
X95839030Y-54951329D01*
X95849520Y-54929150D01*
X95862132Y-54908107D01*
X95876747Y-54888401D01*
X95893223Y-54870223D01*
X95911401Y-54853747D01*
X95931107Y-54839132D01*
X95952150Y-54826520D01*
X95974329Y-54816030D01*
X95997428Y-54807765D01*
X96021227Y-54801804D01*
X96045495Y-54798204D01*
X96069999Y-54797000D01*
X96970001Y-54797000D01*
X96994505Y-54798204D01*
X96994505Y-54798204D01*
G37*
D11*
X96520000Y-55372000D03*
D13*
X182880000Y-106172000D03*
X180180000Y-106172000D03*
D14*
X77467500Y-53568600D03*
X77467500Y-56108600D03*
X77467500Y-58648600D03*
X77467500Y-61188600D03*
X67947500Y-61188600D03*
X67947500Y-58648600D03*
X67947500Y-56108600D03*
X67947500Y-53568600D03*
X77467500Y-67132200D03*
X77467500Y-69672200D03*
X77467500Y-72212200D03*
X77467500Y-74752200D03*
X67947500Y-74752200D03*
X67947500Y-72212200D03*
X67947500Y-69672200D03*
X67947500Y-67132200D03*
D13*
X56255900Y-60509777D03*
X53555900Y-60509777D03*
X53555900Y-53848000D03*
X56255900Y-53848000D03*
X56255900Y-67136888D03*
X53555900Y-67136888D03*
X53555900Y-73764000D03*
X56255900Y-73764000D03*
D14*
X77467500Y-47561500D03*
X77467500Y-45021500D03*
X77467500Y-42481500D03*
X77467500Y-39941500D03*
X67947500Y-39941500D03*
X67947500Y-42481500D03*
X67947500Y-45021500D03*
X67947500Y-47561500D03*
D13*
X93044000Y-48133000D03*
X90344000Y-48133000D03*
X93044000Y-39327666D03*
X90344000Y-39327666D03*
X90344000Y-34925000D03*
X93044000Y-34925000D03*
X93044000Y-43730332D03*
X90344000Y-43730332D03*
D15*
X111955000Y-37459000D03*
X111955000Y-38259000D03*
X111955000Y-39059000D03*
X111955000Y-39859000D03*
X111955000Y-40659000D03*
X111955000Y-41459000D03*
X111955000Y-42259000D03*
X111955000Y-43059000D03*
D16*
X113405000Y-44509000D03*
X114205000Y-44509000D03*
X115005000Y-44509000D03*
X115805000Y-44509000D03*
X116605000Y-44509000D03*
X117405000Y-44509000D03*
X118205000Y-44509000D03*
X119005000Y-44509000D03*
D15*
X120455000Y-43059000D03*
X120455000Y-42259000D03*
X120455000Y-41459000D03*
X120455000Y-40659000D03*
X120455000Y-39859000D03*
X120455000Y-39059000D03*
X120455000Y-38259000D03*
X120455000Y-37459000D03*
D16*
X119005000Y-36009000D03*
X118205000Y-36009000D03*
X117405000Y-36009000D03*
X116605000Y-36009000D03*
X115805000Y-36009000D03*
X115005000Y-36009000D03*
X114205000Y-36009000D03*
X113405000Y-36009000D03*
D17*
X155227000Y-77089000D03*
X155227000Y-75819000D03*
X155227000Y-74549000D03*
X155227000Y-73279000D03*
X149827000Y-73279000D03*
X149827000Y-74549000D03*
X149827000Y-75819000D03*
X149827000Y-77089000D03*
D18*
X179578000Y-69563000D03*
X179578000Y-72263000D03*
X153223500Y-86868000D03*
X153223500Y-89568000D03*
X145669000Y-89568000D03*
X145669000Y-86868000D03*
D19*
X161163000Y-89893000D03*
D20*
X161163000Y-87518000D03*
D21*
X173736000Y-65499000D03*
X172466000Y-65499000D03*
X171196000Y-65499000D03*
X169926000Y-65499000D03*
X169926000Y-70899000D03*
X171196000Y-70899000D03*
X172466000Y-70899000D03*
X173736000Y-70899000D03*
D17*
X167607000Y-90551000D03*
X167607000Y-89281000D03*
X167607000Y-88011000D03*
X167607000Y-86741000D03*
X173007000Y-86741000D03*
X173007000Y-88011000D03*
X173007000Y-89281000D03*
X173007000Y-90551000D03*
D13*
X136131300Y-56210200D03*
X138831300Y-56210200D03*
X133090900Y-56210200D03*
X130390900Y-56210200D03*
X139969000Y-68580000D03*
X137269000Y-68580000D03*
D18*
X179578000Y-66167000D03*
X179578000Y-63467000D03*
X151158100Y-53632100D03*
X151158100Y-56332100D03*
X156004100Y-53632100D03*
X156004100Y-56332100D03*
D13*
X84678500Y-49339500D03*
X81978500Y-49339500D03*
X163990000Y-38862000D03*
X161290000Y-38862000D03*
X157480000Y-36576000D03*
X160180000Y-36576000D03*
X173261000Y-61722000D03*
X170561000Y-61722000D03*
D18*
X172339000Y-54356000D03*
X172339000Y-57056000D03*
D13*
X104615000Y-35814000D03*
X107315000Y-35814000D03*
D21*
X155613100Y-43886100D03*
X154343100Y-43886100D03*
X153073100Y-43886100D03*
X151803100Y-43886100D03*
X151803100Y-38486100D03*
X153073100Y-38486100D03*
X154343100Y-38486100D03*
X155613100Y-38486100D03*
D22*
X82296000Y-42672000D03*
X81346000Y-40472000D03*
X83246000Y-40472000D03*
X63500000Y-60368000D03*
X64450000Y-62568000D03*
X62550000Y-62568000D03*
X63500000Y-53764000D03*
X64450000Y-55964000D03*
X62550000Y-55964000D03*
X63652400Y-67378400D03*
X64602400Y-69578400D03*
X62702400Y-69578400D03*
X62702400Y-75928400D03*
X64602400Y-75928400D03*
X63652400Y-73728400D03*
X187467200Y-95435600D03*
X189367200Y-95435600D03*
X188417200Y-93235600D03*
M02*
