G04 #@! TF.GenerationSoftware,KiCad,Pcbnew,(5.1.4)-1*
G04 #@! TF.CreationDate,2019-11-18T22:26:11+02:00*
G04 #@! TF.ProjectId,pcb_1,7063625f-312e-46b6-9963-61645f706362,rev?*
G04 #@! TF.SameCoordinates,Original*
G04 #@! TF.FileFunction,Soldermask,Top*
G04 #@! TF.FilePolarity,Negative*
%FSLAX46Y46*%
G04 Gerber Fmt 4.6, Leading zero omitted, Abs format (unit mm)*
G04 Created by KiCad (PCBNEW (5.1.4)-1) date 2019-11-18 22:26:11*
%MOMM*%
%LPD*%
G04 APERTURE LIST*
%ADD10C,0.400000*%
%ADD11C,1.550000*%
%ADD12C,1.350000*%
%ADD13R,2.100000X2.100000*%
%ADD14C,4.700000*%
%ADD15C,2.000000*%
%ADD16R,2.000000X2.000000*%
%ADD17R,1.900000X1.700000*%
%ADD18O,4.400000X2.900000*%
%ADD19R,3.400000X3.400000*%
%ADD20C,3.400000*%
%ADD21C,4.400000*%
%ADD22R,4.400000X4.400000*%
%ADD23C,2.400000*%
%ADD24O,2.432000X2.940000*%
%ADD25R,2.432000X1.924000*%
%ADD26O,2.100000X2.100000*%
%ADD27R,2.000000X0.950000*%
%ADD28R,0.950000X2.000000*%
%ADD29R,1.950000X1.000000*%
%ADD30R,1.700000X1.900000*%
%ADD31R,1.900000X1.450000*%
%ADD32R,1.900000X2.800000*%
%ADD33R,1.000000X1.950000*%
%ADD34O,3.200000X3.200000*%
%ADD35R,3.200000X3.200000*%
%ADD36R,2.600000X2.600000*%
%ADD37O,2.600000X2.600000*%
%ADD38C,2.924000*%
%ADD39C,2.900000*%
%ADD40R,2.200000X2.200000*%
%ADD41O,2.200000X2.200000*%
%ADD42R,1.400000X1.800000*%
G04 APERTURE END LIST*
D10*
G36*
X156785171Y-48415723D02*
G01*
X156817881Y-48420575D01*
X156849957Y-48428609D01*
X156881091Y-48439749D01*
X156910984Y-48453887D01*
X156939347Y-48470887D01*
X156965907Y-48490585D01*
X156990408Y-48512792D01*
X157012615Y-48537293D01*
X157032313Y-48563853D01*
X157049313Y-48592216D01*
X157063451Y-48622109D01*
X157074591Y-48653243D01*
X157082625Y-48685319D01*
X157087477Y-48718029D01*
X157089100Y-48751056D01*
X157089100Y-49877144D01*
X157087477Y-49910171D01*
X157082625Y-49942881D01*
X157074591Y-49974957D01*
X157063451Y-50006091D01*
X157049313Y-50035984D01*
X157032313Y-50064347D01*
X157012615Y-50090907D01*
X156990408Y-50115408D01*
X156965907Y-50137615D01*
X156939347Y-50157313D01*
X156910984Y-50174313D01*
X156881091Y-50188451D01*
X156849957Y-50199591D01*
X156817881Y-50207625D01*
X156785171Y-50212477D01*
X156752144Y-50214100D01*
X155876056Y-50214100D01*
X155843029Y-50212477D01*
X155810319Y-50207625D01*
X155778243Y-50199591D01*
X155747109Y-50188451D01*
X155717216Y-50174313D01*
X155688853Y-50157313D01*
X155662293Y-50137615D01*
X155637792Y-50115408D01*
X155615585Y-50090907D01*
X155595887Y-50064347D01*
X155578887Y-50035984D01*
X155564749Y-50006091D01*
X155553609Y-49974957D01*
X155545575Y-49942881D01*
X155540723Y-49910171D01*
X155539100Y-49877144D01*
X155539100Y-48751056D01*
X155540723Y-48718029D01*
X155545575Y-48685319D01*
X155553609Y-48653243D01*
X155564749Y-48622109D01*
X155578887Y-48592216D01*
X155595887Y-48563853D01*
X155615585Y-48537293D01*
X155637792Y-48512792D01*
X155662293Y-48490585D01*
X155688853Y-48470887D01*
X155717216Y-48453887D01*
X155747109Y-48439749D01*
X155778243Y-48428609D01*
X155810319Y-48420575D01*
X155843029Y-48415723D01*
X155876056Y-48414100D01*
X156752144Y-48414100D01*
X156785171Y-48415723D01*
X156785171Y-48415723D01*
G37*
D11*
X156314100Y-49314100D03*
D10*
G36*
X158835171Y-48415723D02*
G01*
X158867881Y-48420575D01*
X158899957Y-48428609D01*
X158931091Y-48439749D01*
X158960984Y-48453887D01*
X158989347Y-48470887D01*
X159015907Y-48490585D01*
X159040408Y-48512792D01*
X159062615Y-48537293D01*
X159082313Y-48563853D01*
X159099313Y-48592216D01*
X159113451Y-48622109D01*
X159124591Y-48653243D01*
X159132625Y-48685319D01*
X159137477Y-48718029D01*
X159139100Y-48751056D01*
X159139100Y-49877144D01*
X159137477Y-49910171D01*
X159132625Y-49942881D01*
X159124591Y-49974957D01*
X159113451Y-50006091D01*
X159099313Y-50035984D01*
X159082313Y-50064347D01*
X159062615Y-50090907D01*
X159040408Y-50115408D01*
X159015907Y-50137615D01*
X158989347Y-50157313D01*
X158960984Y-50174313D01*
X158931091Y-50188451D01*
X158899957Y-50199591D01*
X158867881Y-50207625D01*
X158835171Y-50212477D01*
X158802144Y-50214100D01*
X157926056Y-50214100D01*
X157893029Y-50212477D01*
X157860319Y-50207625D01*
X157828243Y-50199591D01*
X157797109Y-50188451D01*
X157767216Y-50174313D01*
X157738853Y-50157313D01*
X157712293Y-50137615D01*
X157687792Y-50115408D01*
X157665585Y-50090907D01*
X157645887Y-50064347D01*
X157628887Y-50035984D01*
X157614749Y-50006091D01*
X157603609Y-49974957D01*
X157595575Y-49942881D01*
X157590723Y-49910171D01*
X157589100Y-49877144D01*
X157589100Y-48751056D01*
X157590723Y-48718029D01*
X157595575Y-48685319D01*
X157603609Y-48653243D01*
X157614749Y-48622109D01*
X157628887Y-48592216D01*
X157645887Y-48563853D01*
X157665585Y-48537293D01*
X157687792Y-48512792D01*
X157712293Y-48490585D01*
X157738853Y-48470887D01*
X157767216Y-48453887D01*
X157797109Y-48439749D01*
X157828243Y-48428609D01*
X157860319Y-48420575D01*
X157893029Y-48415723D01*
X157926056Y-48414100D01*
X158802144Y-48414100D01*
X158835171Y-48415723D01*
X158835171Y-48415723D01*
G37*
D11*
X158364100Y-49314100D03*
D10*
G36*
X151319171Y-48415723D02*
G01*
X151351881Y-48420575D01*
X151383957Y-48428609D01*
X151415091Y-48439749D01*
X151444984Y-48453887D01*
X151473347Y-48470887D01*
X151499907Y-48490585D01*
X151524408Y-48512792D01*
X151546615Y-48537293D01*
X151566313Y-48563853D01*
X151583313Y-48592216D01*
X151597451Y-48622109D01*
X151608591Y-48653243D01*
X151616625Y-48685319D01*
X151621477Y-48718029D01*
X151623100Y-48751056D01*
X151623100Y-49877144D01*
X151621477Y-49910171D01*
X151616625Y-49942881D01*
X151608591Y-49974957D01*
X151597451Y-50006091D01*
X151583313Y-50035984D01*
X151566313Y-50064347D01*
X151546615Y-50090907D01*
X151524408Y-50115408D01*
X151499907Y-50137615D01*
X151473347Y-50157313D01*
X151444984Y-50174313D01*
X151415091Y-50188451D01*
X151383957Y-50199591D01*
X151351881Y-50207625D01*
X151319171Y-50212477D01*
X151286144Y-50214100D01*
X150410056Y-50214100D01*
X150377029Y-50212477D01*
X150344319Y-50207625D01*
X150312243Y-50199591D01*
X150281109Y-50188451D01*
X150251216Y-50174313D01*
X150222853Y-50157313D01*
X150196293Y-50137615D01*
X150171792Y-50115408D01*
X150149585Y-50090907D01*
X150129887Y-50064347D01*
X150112887Y-50035984D01*
X150098749Y-50006091D01*
X150087609Y-49974957D01*
X150079575Y-49942881D01*
X150074723Y-49910171D01*
X150073100Y-49877144D01*
X150073100Y-48751056D01*
X150074723Y-48718029D01*
X150079575Y-48685319D01*
X150087609Y-48653243D01*
X150098749Y-48622109D01*
X150112887Y-48592216D01*
X150129887Y-48563853D01*
X150149585Y-48537293D01*
X150171792Y-48512792D01*
X150196293Y-48490585D01*
X150222853Y-48470887D01*
X150251216Y-48453887D01*
X150281109Y-48439749D01*
X150312243Y-48428609D01*
X150344319Y-48420575D01*
X150377029Y-48415723D01*
X150410056Y-48414100D01*
X151286144Y-48414100D01*
X151319171Y-48415723D01*
X151319171Y-48415723D01*
G37*
D11*
X150848100Y-49314100D03*
D10*
G36*
X149269171Y-48415723D02*
G01*
X149301881Y-48420575D01*
X149333957Y-48428609D01*
X149365091Y-48439749D01*
X149394984Y-48453887D01*
X149423347Y-48470887D01*
X149449907Y-48490585D01*
X149474408Y-48512792D01*
X149496615Y-48537293D01*
X149516313Y-48563853D01*
X149533313Y-48592216D01*
X149547451Y-48622109D01*
X149558591Y-48653243D01*
X149566625Y-48685319D01*
X149571477Y-48718029D01*
X149573100Y-48751056D01*
X149573100Y-49877144D01*
X149571477Y-49910171D01*
X149566625Y-49942881D01*
X149558591Y-49974957D01*
X149547451Y-50006091D01*
X149533313Y-50035984D01*
X149516313Y-50064347D01*
X149496615Y-50090907D01*
X149474408Y-50115408D01*
X149449907Y-50137615D01*
X149423347Y-50157313D01*
X149394984Y-50174313D01*
X149365091Y-50188451D01*
X149333957Y-50199591D01*
X149301881Y-50207625D01*
X149269171Y-50212477D01*
X149236144Y-50214100D01*
X148360056Y-50214100D01*
X148327029Y-50212477D01*
X148294319Y-50207625D01*
X148262243Y-50199591D01*
X148231109Y-50188451D01*
X148201216Y-50174313D01*
X148172853Y-50157313D01*
X148146293Y-50137615D01*
X148121792Y-50115408D01*
X148099585Y-50090907D01*
X148079887Y-50064347D01*
X148062887Y-50035984D01*
X148048749Y-50006091D01*
X148037609Y-49974957D01*
X148029575Y-49942881D01*
X148024723Y-49910171D01*
X148023100Y-49877144D01*
X148023100Y-48751056D01*
X148024723Y-48718029D01*
X148029575Y-48685319D01*
X148037609Y-48653243D01*
X148048749Y-48622109D01*
X148062887Y-48592216D01*
X148079887Y-48563853D01*
X148099585Y-48537293D01*
X148121792Y-48512792D01*
X148146293Y-48490585D01*
X148172853Y-48470887D01*
X148201216Y-48453887D01*
X148231109Y-48439749D01*
X148262243Y-48428609D01*
X148294319Y-48420575D01*
X148327029Y-48415723D01*
X148360056Y-48414100D01*
X149236144Y-48414100D01*
X149269171Y-48415723D01*
X149269171Y-48415723D01*
G37*
D11*
X148798100Y-49314100D03*
D10*
G36*
X159638171Y-41711723D02*
G01*
X159670881Y-41716575D01*
X159702957Y-41724609D01*
X159734091Y-41735749D01*
X159763984Y-41749887D01*
X159792347Y-41766887D01*
X159818907Y-41786585D01*
X159843408Y-41808792D01*
X159865615Y-41833293D01*
X159885313Y-41859853D01*
X159902313Y-41888216D01*
X159916451Y-41918109D01*
X159927591Y-41949243D01*
X159935625Y-41981319D01*
X159940477Y-42014029D01*
X159942100Y-42047056D01*
X159942100Y-42923144D01*
X159940477Y-42956171D01*
X159935625Y-42988881D01*
X159927591Y-43020957D01*
X159916451Y-43052091D01*
X159902313Y-43081984D01*
X159885313Y-43110347D01*
X159865615Y-43136907D01*
X159843408Y-43161408D01*
X159818907Y-43183615D01*
X159792347Y-43203313D01*
X159763984Y-43220313D01*
X159734091Y-43234451D01*
X159702957Y-43245591D01*
X159670881Y-43253625D01*
X159638171Y-43258477D01*
X159605144Y-43260100D01*
X158479056Y-43260100D01*
X158446029Y-43258477D01*
X158413319Y-43253625D01*
X158381243Y-43245591D01*
X158350109Y-43234451D01*
X158320216Y-43220313D01*
X158291853Y-43203313D01*
X158265293Y-43183615D01*
X158240792Y-43161408D01*
X158218585Y-43136907D01*
X158198887Y-43110347D01*
X158181887Y-43081984D01*
X158167749Y-43052091D01*
X158156609Y-43020957D01*
X158148575Y-42988881D01*
X158143723Y-42956171D01*
X158142100Y-42923144D01*
X158142100Y-42047056D01*
X158143723Y-42014029D01*
X158148575Y-41981319D01*
X158156609Y-41949243D01*
X158167749Y-41918109D01*
X158181887Y-41888216D01*
X158198887Y-41859853D01*
X158218585Y-41833293D01*
X158240792Y-41808792D01*
X158265293Y-41786585D01*
X158291853Y-41766887D01*
X158320216Y-41749887D01*
X158350109Y-41735749D01*
X158381243Y-41724609D01*
X158413319Y-41716575D01*
X158446029Y-41711723D01*
X158479056Y-41710100D01*
X159605144Y-41710100D01*
X159638171Y-41711723D01*
X159638171Y-41711723D01*
G37*
D11*
X159042100Y-42485100D03*
D10*
G36*
X159638171Y-39661723D02*
G01*
X159670881Y-39666575D01*
X159702957Y-39674609D01*
X159734091Y-39685749D01*
X159763984Y-39699887D01*
X159792347Y-39716887D01*
X159818907Y-39736585D01*
X159843408Y-39758792D01*
X159865615Y-39783293D01*
X159885313Y-39809853D01*
X159902313Y-39838216D01*
X159916451Y-39868109D01*
X159927591Y-39899243D01*
X159935625Y-39931319D01*
X159940477Y-39964029D01*
X159942100Y-39997056D01*
X159942100Y-40873144D01*
X159940477Y-40906171D01*
X159935625Y-40938881D01*
X159927591Y-40970957D01*
X159916451Y-41002091D01*
X159902313Y-41031984D01*
X159885313Y-41060347D01*
X159865615Y-41086907D01*
X159843408Y-41111408D01*
X159818907Y-41133615D01*
X159792347Y-41153313D01*
X159763984Y-41170313D01*
X159734091Y-41184451D01*
X159702957Y-41195591D01*
X159670881Y-41203625D01*
X159638171Y-41208477D01*
X159605144Y-41210100D01*
X158479056Y-41210100D01*
X158446029Y-41208477D01*
X158413319Y-41203625D01*
X158381243Y-41195591D01*
X158350109Y-41184451D01*
X158320216Y-41170313D01*
X158291853Y-41153313D01*
X158265293Y-41133615D01*
X158240792Y-41111408D01*
X158218585Y-41086907D01*
X158198887Y-41060347D01*
X158181887Y-41031984D01*
X158167749Y-41002091D01*
X158156609Y-40970957D01*
X158148575Y-40938881D01*
X158143723Y-40906171D01*
X158142100Y-40873144D01*
X158142100Y-39997056D01*
X158143723Y-39964029D01*
X158148575Y-39931319D01*
X158156609Y-39899243D01*
X158167749Y-39868109D01*
X158181887Y-39838216D01*
X158198887Y-39809853D01*
X158218585Y-39783293D01*
X158240792Y-39758792D01*
X158265293Y-39736585D01*
X158291853Y-39716887D01*
X158320216Y-39699887D01*
X158350109Y-39685749D01*
X158381243Y-39674609D01*
X158413319Y-39666575D01*
X158446029Y-39661723D01*
X158479056Y-39660100D01*
X159605144Y-39660100D01*
X159638171Y-39661723D01*
X159638171Y-39661723D01*
G37*
D11*
X159042100Y-40435100D03*
D10*
G36*
X122293071Y-52060623D02*
G01*
X122325781Y-52065475D01*
X122357857Y-52073509D01*
X122388991Y-52084649D01*
X122418884Y-52098787D01*
X122447247Y-52115787D01*
X122473807Y-52135485D01*
X122498308Y-52157692D01*
X122520515Y-52182193D01*
X122540213Y-52208753D01*
X122557213Y-52237116D01*
X122571351Y-52267009D01*
X122582491Y-52298143D01*
X122590525Y-52330219D01*
X122595377Y-52362929D01*
X122597000Y-52395956D01*
X122597000Y-53522044D01*
X122595377Y-53555071D01*
X122590525Y-53587781D01*
X122582491Y-53619857D01*
X122571351Y-53650991D01*
X122557213Y-53680884D01*
X122540213Y-53709247D01*
X122520515Y-53735807D01*
X122498308Y-53760308D01*
X122473807Y-53782515D01*
X122447247Y-53802213D01*
X122418884Y-53819213D01*
X122388991Y-53833351D01*
X122357857Y-53844491D01*
X122325781Y-53852525D01*
X122293071Y-53857377D01*
X122260044Y-53859000D01*
X121383956Y-53859000D01*
X121350929Y-53857377D01*
X121318219Y-53852525D01*
X121286143Y-53844491D01*
X121255009Y-53833351D01*
X121225116Y-53819213D01*
X121196753Y-53802213D01*
X121170193Y-53782515D01*
X121145692Y-53760308D01*
X121123485Y-53735807D01*
X121103787Y-53709247D01*
X121086787Y-53680884D01*
X121072649Y-53650991D01*
X121061509Y-53619857D01*
X121053475Y-53587781D01*
X121048623Y-53555071D01*
X121047000Y-53522044D01*
X121047000Y-52395956D01*
X121048623Y-52362929D01*
X121053475Y-52330219D01*
X121061509Y-52298143D01*
X121072649Y-52267009D01*
X121086787Y-52237116D01*
X121103787Y-52208753D01*
X121123485Y-52182193D01*
X121145692Y-52157692D01*
X121170193Y-52135485D01*
X121196753Y-52115787D01*
X121225116Y-52098787D01*
X121255009Y-52084649D01*
X121286143Y-52073509D01*
X121318219Y-52065475D01*
X121350929Y-52060623D01*
X121383956Y-52059000D01*
X122260044Y-52059000D01*
X122293071Y-52060623D01*
X122293071Y-52060623D01*
G37*
D11*
X121822000Y-52959000D03*
D10*
G36*
X120243071Y-52060623D02*
G01*
X120275781Y-52065475D01*
X120307857Y-52073509D01*
X120338991Y-52084649D01*
X120368884Y-52098787D01*
X120397247Y-52115787D01*
X120423807Y-52135485D01*
X120448308Y-52157692D01*
X120470515Y-52182193D01*
X120490213Y-52208753D01*
X120507213Y-52237116D01*
X120521351Y-52267009D01*
X120532491Y-52298143D01*
X120540525Y-52330219D01*
X120545377Y-52362929D01*
X120547000Y-52395956D01*
X120547000Y-53522044D01*
X120545377Y-53555071D01*
X120540525Y-53587781D01*
X120532491Y-53619857D01*
X120521351Y-53650991D01*
X120507213Y-53680884D01*
X120490213Y-53709247D01*
X120470515Y-53735807D01*
X120448308Y-53760308D01*
X120423807Y-53782515D01*
X120397247Y-53802213D01*
X120368884Y-53819213D01*
X120338991Y-53833351D01*
X120307857Y-53844491D01*
X120275781Y-53852525D01*
X120243071Y-53857377D01*
X120210044Y-53859000D01*
X119333956Y-53859000D01*
X119300929Y-53857377D01*
X119268219Y-53852525D01*
X119236143Y-53844491D01*
X119205009Y-53833351D01*
X119175116Y-53819213D01*
X119146753Y-53802213D01*
X119120193Y-53782515D01*
X119095692Y-53760308D01*
X119073485Y-53735807D01*
X119053787Y-53709247D01*
X119036787Y-53680884D01*
X119022649Y-53650991D01*
X119011509Y-53619857D01*
X119003475Y-53587781D01*
X118998623Y-53555071D01*
X118997000Y-53522044D01*
X118997000Y-52395956D01*
X118998623Y-52362929D01*
X119003475Y-52330219D01*
X119011509Y-52298143D01*
X119022649Y-52267009D01*
X119036787Y-52237116D01*
X119053787Y-52208753D01*
X119073485Y-52182193D01*
X119095692Y-52157692D01*
X119120193Y-52135485D01*
X119146753Y-52115787D01*
X119175116Y-52098787D01*
X119205009Y-52084649D01*
X119236143Y-52073509D01*
X119268219Y-52065475D01*
X119300929Y-52060623D01*
X119333956Y-52059000D01*
X120210044Y-52059000D01*
X120243071Y-52060623D01*
X120243071Y-52060623D01*
G37*
D11*
X119772000Y-52959000D03*
D10*
G36*
X144677571Y-64486623D02*
G01*
X144710281Y-64491475D01*
X144742357Y-64499509D01*
X144773491Y-64510649D01*
X144803384Y-64524787D01*
X144831747Y-64541787D01*
X144858307Y-64561485D01*
X144882808Y-64583692D01*
X144905015Y-64608193D01*
X144924713Y-64634753D01*
X144941713Y-64663116D01*
X144955851Y-64693009D01*
X144966991Y-64724143D01*
X144975025Y-64756219D01*
X144979877Y-64788929D01*
X144981500Y-64821956D01*
X144981500Y-65698044D01*
X144979877Y-65731071D01*
X144975025Y-65763781D01*
X144966991Y-65795857D01*
X144955851Y-65826991D01*
X144941713Y-65856884D01*
X144924713Y-65885247D01*
X144905015Y-65911807D01*
X144882808Y-65936308D01*
X144858307Y-65958515D01*
X144831747Y-65978213D01*
X144803384Y-65995213D01*
X144773491Y-66009351D01*
X144742357Y-66020491D01*
X144710281Y-66028525D01*
X144677571Y-66033377D01*
X144644544Y-66035000D01*
X143518456Y-66035000D01*
X143485429Y-66033377D01*
X143452719Y-66028525D01*
X143420643Y-66020491D01*
X143389509Y-66009351D01*
X143359616Y-65995213D01*
X143331253Y-65978213D01*
X143304693Y-65958515D01*
X143280192Y-65936308D01*
X143257985Y-65911807D01*
X143238287Y-65885247D01*
X143221287Y-65856884D01*
X143207149Y-65826991D01*
X143196009Y-65795857D01*
X143187975Y-65763781D01*
X143183123Y-65731071D01*
X143181500Y-65698044D01*
X143181500Y-64821956D01*
X143183123Y-64788929D01*
X143187975Y-64756219D01*
X143196009Y-64724143D01*
X143207149Y-64693009D01*
X143221287Y-64663116D01*
X143238287Y-64634753D01*
X143257985Y-64608193D01*
X143280192Y-64583692D01*
X143304693Y-64561485D01*
X143331253Y-64541787D01*
X143359616Y-64524787D01*
X143389509Y-64510649D01*
X143420643Y-64499509D01*
X143452719Y-64491475D01*
X143485429Y-64486623D01*
X143518456Y-64485000D01*
X144644544Y-64485000D01*
X144677571Y-64486623D01*
X144677571Y-64486623D01*
G37*
D11*
X144081500Y-65260000D03*
D10*
G36*
X144677571Y-66536623D02*
G01*
X144710281Y-66541475D01*
X144742357Y-66549509D01*
X144773491Y-66560649D01*
X144803384Y-66574787D01*
X144831747Y-66591787D01*
X144858307Y-66611485D01*
X144882808Y-66633692D01*
X144905015Y-66658193D01*
X144924713Y-66684753D01*
X144941713Y-66713116D01*
X144955851Y-66743009D01*
X144966991Y-66774143D01*
X144975025Y-66806219D01*
X144979877Y-66838929D01*
X144981500Y-66871956D01*
X144981500Y-67748044D01*
X144979877Y-67781071D01*
X144975025Y-67813781D01*
X144966991Y-67845857D01*
X144955851Y-67876991D01*
X144941713Y-67906884D01*
X144924713Y-67935247D01*
X144905015Y-67961807D01*
X144882808Y-67986308D01*
X144858307Y-68008515D01*
X144831747Y-68028213D01*
X144803384Y-68045213D01*
X144773491Y-68059351D01*
X144742357Y-68070491D01*
X144710281Y-68078525D01*
X144677571Y-68083377D01*
X144644544Y-68085000D01*
X143518456Y-68085000D01*
X143485429Y-68083377D01*
X143452719Y-68078525D01*
X143420643Y-68070491D01*
X143389509Y-68059351D01*
X143359616Y-68045213D01*
X143331253Y-68028213D01*
X143304693Y-68008515D01*
X143280192Y-67986308D01*
X143257985Y-67961807D01*
X143238287Y-67935247D01*
X143221287Y-67906884D01*
X143207149Y-67876991D01*
X143196009Y-67845857D01*
X143187975Y-67813781D01*
X143183123Y-67781071D01*
X143181500Y-67748044D01*
X143181500Y-66871956D01*
X143183123Y-66838929D01*
X143187975Y-66806219D01*
X143196009Y-66774143D01*
X143207149Y-66743009D01*
X143221287Y-66713116D01*
X143238287Y-66684753D01*
X143257985Y-66658193D01*
X143280192Y-66633692D01*
X143304693Y-66611485D01*
X143331253Y-66591787D01*
X143359616Y-66574787D01*
X143389509Y-66560649D01*
X143420643Y-66549509D01*
X143452719Y-66541475D01*
X143485429Y-66536623D01*
X143518456Y-66535000D01*
X144644544Y-66535000D01*
X144677571Y-66536623D01*
X144677571Y-66536623D01*
G37*
D11*
X144081500Y-67310000D03*
D10*
G36*
X146138071Y-74947623D02*
G01*
X146170781Y-74952475D01*
X146202857Y-74960509D01*
X146233991Y-74971649D01*
X146263884Y-74985787D01*
X146292247Y-75002787D01*
X146318807Y-75022485D01*
X146343308Y-75044692D01*
X146365515Y-75069193D01*
X146385213Y-75095753D01*
X146402213Y-75124116D01*
X146416351Y-75154009D01*
X146427491Y-75185143D01*
X146435525Y-75217219D01*
X146440377Y-75249929D01*
X146442000Y-75282956D01*
X146442000Y-76159044D01*
X146440377Y-76192071D01*
X146435525Y-76224781D01*
X146427491Y-76256857D01*
X146416351Y-76287991D01*
X146402213Y-76317884D01*
X146385213Y-76346247D01*
X146365515Y-76372807D01*
X146343308Y-76397308D01*
X146318807Y-76419515D01*
X146292247Y-76439213D01*
X146263884Y-76456213D01*
X146233991Y-76470351D01*
X146202857Y-76481491D01*
X146170781Y-76489525D01*
X146138071Y-76494377D01*
X146105044Y-76496000D01*
X144978956Y-76496000D01*
X144945929Y-76494377D01*
X144913219Y-76489525D01*
X144881143Y-76481491D01*
X144850009Y-76470351D01*
X144820116Y-76456213D01*
X144791753Y-76439213D01*
X144765193Y-76419515D01*
X144740692Y-76397308D01*
X144718485Y-76372807D01*
X144698787Y-76346247D01*
X144681787Y-76317884D01*
X144667649Y-76287991D01*
X144656509Y-76256857D01*
X144648475Y-76224781D01*
X144643623Y-76192071D01*
X144642000Y-76159044D01*
X144642000Y-75282956D01*
X144643623Y-75249929D01*
X144648475Y-75217219D01*
X144656509Y-75185143D01*
X144667649Y-75154009D01*
X144681787Y-75124116D01*
X144698787Y-75095753D01*
X144718485Y-75069193D01*
X144740692Y-75044692D01*
X144765193Y-75022485D01*
X144791753Y-75002787D01*
X144820116Y-74985787D01*
X144850009Y-74971649D01*
X144881143Y-74960509D01*
X144913219Y-74952475D01*
X144945929Y-74947623D01*
X144978956Y-74946000D01*
X146105044Y-74946000D01*
X146138071Y-74947623D01*
X146138071Y-74947623D01*
G37*
D11*
X145542000Y-75721000D03*
D10*
G36*
X146138071Y-72897623D02*
G01*
X146170781Y-72902475D01*
X146202857Y-72910509D01*
X146233991Y-72921649D01*
X146263884Y-72935787D01*
X146292247Y-72952787D01*
X146318807Y-72972485D01*
X146343308Y-72994692D01*
X146365515Y-73019193D01*
X146385213Y-73045753D01*
X146402213Y-73074116D01*
X146416351Y-73104009D01*
X146427491Y-73135143D01*
X146435525Y-73167219D01*
X146440377Y-73199929D01*
X146442000Y-73232956D01*
X146442000Y-74109044D01*
X146440377Y-74142071D01*
X146435525Y-74174781D01*
X146427491Y-74206857D01*
X146416351Y-74237991D01*
X146402213Y-74267884D01*
X146385213Y-74296247D01*
X146365515Y-74322807D01*
X146343308Y-74347308D01*
X146318807Y-74369515D01*
X146292247Y-74389213D01*
X146263884Y-74406213D01*
X146233991Y-74420351D01*
X146202857Y-74431491D01*
X146170781Y-74439525D01*
X146138071Y-74444377D01*
X146105044Y-74446000D01*
X144978956Y-74446000D01*
X144945929Y-74444377D01*
X144913219Y-74439525D01*
X144881143Y-74431491D01*
X144850009Y-74420351D01*
X144820116Y-74406213D01*
X144791753Y-74389213D01*
X144765193Y-74369515D01*
X144740692Y-74347308D01*
X144718485Y-74322807D01*
X144698787Y-74296247D01*
X144681787Y-74267884D01*
X144667649Y-74237991D01*
X144656509Y-74206857D01*
X144648475Y-74174781D01*
X144643623Y-74142071D01*
X144642000Y-74109044D01*
X144642000Y-73232956D01*
X144643623Y-73199929D01*
X144648475Y-73167219D01*
X144656509Y-73135143D01*
X144667649Y-73104009D01*
X144681787Y-73074116D01*
X144698787Y-73045753D01*
X144718485Y-73019193D01*
X144740692Y-72994692D01*
X144765193Y-72972485D01*
X144791753Y-72952787D01*
X144820116Y-72935787D01*
X144850009Y-72921649D01*
X144881143Y-72910509D01*
X144913219Y-72902475D01*
X144945929Y-72897623D01*
X144978956Y-72896000D01*
X146105044Y-72896000D01*
X146138071Y-72897623D01*
X146138071Y-72897623D01*
G37*
D11*
X145542000Y-73671000D03*
D10*
G36*
X63207071Y-42724123D02*
G01*
X63239781Y-42728975D01*
X63271857Y-42737009D01*
X63302991Y-42748149D01*
X63332884Y-42762287D01*
X63361247Y-42779287D01*
X63387807Y-42798985D01*
X63412308Y-42821192D01*
X63434515Y-42845693D01*
X63454213Y-42872253D01*
X63471213Y-42900616D01*
X63485351Y-42930509D01*
X63496491Y-42961643D01*
X63504525Y-42993719D01*
X63509377Y-43026429D01*
X63511000Y-43059456D01*
X63511000Y-43935544D01*
X63509377Y-43968571D01*
X63504525Y-44001281D01*
X63496491Y-44033357D01*
X63485351Y-44064491D01*
X63471213Y-44094384D01*
X63454213Y-44122747D01*
X63434515Y-44149307D01*
X63412308Y-44173808D01*
X63387807Y-44196015D01*
X63361247Y-44215713D01*
X63332884Y-44232713D01*
X63302991Y-44246851D01*
X63271857Y-44257991D01*
X63239781Y-44266025D01*
X63207071Y-44270877D01*
X63174044Y-44272500D01*
X62047956Y-44272500D01*
X62014929Y-44270877D01*
X61982219Y-44266025D01*
X61950143Y-44257991D01*
X61919009Y-44246851D01*
X61889116Y-44232713D01*
X61860753Y-44215713D01*
X61834193Y-44196015D01*
X61809692Y-44173808D01*
X61787485Y-44149307D01*
X61767787Y-44122747D01*
X61750787Y-44094384D01*
X61736649Y-44064491D01*
X61725509Y-44033357D01*
X61717475Y-44001281D01*
X61712623Y-43968571D01*
X61711000Y-43935544D01*
X61711000Y-43059456D01*
X61712623Y-43026429D01*
X61717475Y-42993719D01*
X61725509Y-42961643D01*
X61736649Y-42930509D01*
X61750787Y-42900616D01*
X61767787Y-42872253D01*
X61787485Y-42845693D01*
X61809692Y-42821192D01*
X61834193Y-42798985D01*
X61860753Y-42779287D01*
X61889116Y-42762287D01*
X61919009Y-42748149D01*
X61950143Y-42737009D01*
X61982219Y-42728975D01*
X62014929Y-42724123D01*
X62047956Y-42722500D01*
X63174044Y-42722500D01*
X63207071Y-42724123D01*
X63207071Y-42724123D01*
G37*
D11*
X62611000Y-43497500D03*
D10*
G36*
X63207071Y-40674123D02*
G01*
X63239781Y-40678975D01*
X63271857Y-40687009D01*
X63302991Y-40698149D01*
X63332884Y-40712287D01*
X63361247Y-40729287D01*
X63387807Y-40748985D01*
X63412308Y-40771192D01*
X63434515Y-40795693D01*
X63454213Y-40822253D01*
X63471213Y-40850616D01*
X63485351Y-40880509D01*
X63496491Y-40911643D01*
X63504525Y-40943719D01*
X63509377Y-40976429D01*
X63511000Y-41009456D01*
X63511000Y-41885544D01*
X63509377Y-41918571D01*
X63504525Y-41951281D01*
X63496491Y-41983357D01*
X63485351Y-42014491D01*
X63471213Y-42044384D01*
X63454213Y-42072747D01*
X63434515Y-42099307D01*
X63412308Y-42123808D01*
X63387807Y-42146015D01*
X63361247Y-42165713D01*
X63332884Y-42182713D01*
X63302991Y-42196851D01*
X63271857Y-42207991D01*
X63239781Y-42216025D01*
X63207071Y-42220877D01*
X63174044Y-42222500D01*
X62047956Y-42222500D01*
X62014929Y-42220877D01*
X61982219Y-42216025D01*
X61950143Y-42207991D01*
X61919009Y-42196851D01*
X61889116Y-42182713D01*
X61860753Y-42165713D01*
X61834193Y-42146015D01*
X61809692Y-42123808D01*
X61787485Y-42099307D01*
X61767787Y-42072747D01*
X61750787Y-42044384D01*
X61736649Y-42014491D01*
X61725509Y-41983357D01*
X61717475Y-41951281D01*
X61712623Y-41918571D01*
X61711000Y-41885544D01*
X61711000Y-41009456D01*
X61712623Y-40976429D01*
X61717475Y-40943719D01*
X61725509Y-40911643D01*
X61736649Y-40880509D01*
X61750787Y-40850616D01*
X61767787Y-40822253D01*
X61787485Y-40795693D01*
X61809692Y-40771192D01*
X61834193Y-40748985D01*
X61860753Y-40729287D01*
X61889116Y-40712287D01*
X61919009Y-40698149D01*
X61950143Y-40687009D01*
X61982219Y-40678975D01*
X62014929Y-40674123D01*
X62047956Y-40672500D01*
X63174044Y-40672500D01*
X63207071Y-40674123D01*
X63207071Y-40674123D01*
G37*
D11*
X62611000Y-41447500D03*
D10*
G36*
X125056071Y-39964623D02*
G01*
X125088781Y-39969475D01*
X125120857Y-39977509D01*
X125151991Y-39988649D01*
X125181884Y-40002787D01*
X125210247Y-40019787D01*
X125236807Y-40039485D01*
X125261308Y-40061692D01*
X125283515Y-40086193D01*
X125303213Y-40112753D01*
X125320213Y-40141116D01*
X125334351Y-40171009D01*
X125345491Y-40202143D01*
X125353525Y-40234219D01*
X125358377Y-40266929D01*
X125360000Y-40299956D01*
X125360000Y-41176044D01*
X125358377Y-41209071D01*
X125353525Y-41241781D01*
X125345491Y-41273857D01*
X125334351Y-41304991D01*
X125320213Y-41334884D01*
X125303213Y-41363247D01*
X125283515Y-41389807D01*
X125261308Y-41414308D01*
X125236807Y-41436515D01*
X125210247Y-41456213D01*
X125181884Y-41473213D01*
X125151991Y-41487351D01*
X125120857Y-41498491D01*
X125088781Y-41506525D01*
X125056071Y-41511377D01*
X125023044Y-41513000D01*
X123896956Y-41513000D01*
X123863929Y-41511377D01*
X123831219Y-41506525D01*
X123799143Y-41498491D01*
X123768009Y-41487351D01*
X123738116Y-41473213D01*
X123709753Y-41456213D01*
X123683193Y-41436515D01*
X123658692Y-41414308D01*
X123636485Y-41389807D01*
X123616787Y-41363247D01*
X123599787Y-41334884D01*
X123585649Y-41304991D01*
X123574509Y-41273857D01*
X123566475Y-41241781D01*
X123561623Y-41209071D01*
X123560000Y-41176044D01*
X123560000Y-40299956D01*
X123561623Y-40266929D01*
X123566475Y-40234219D01*
X123574509Y-40202143D01*
X123585649Y-40171009D01*
X123599787Y-40141116D01*
X123616787Y-40112753D01*
X123636485Y-40086193D01*
X123658692Y-40061692D01*
X123683193Y-40039485D01*
X123709753Y-40019787D01*
X123738116Y-40002787D01*
X123768009Y-39988649D01*
X123799143Y-39977509D01*
X123831219Y-39969475D01*
X123863929Y-39964623D01*
X123896956Y-39963000D01*
X125023044Y-39963000D01*
X125056071Y-39964623D01*
X125056071Y-39964623D01*
G37*
D11*
X124460000Y-40738000D03*
D10*
G36*
X125056071Y-42014623D02*
G01*
X125088781Y-42019475D01*
X125120857Y-42027509D01*
X125151991Y-42038649D01*
X125181884Y-42052787D01*
X125210247Y-42069787D01*
X125236807Y-42089485D01*
X125261308Y-42111692D01*
X125283515Y-42136193D01*
X125303213Y-42162753D01*
X125320213Y-42191116D01*
X125334351Y-42221009D01*
X125345491Y-42252143D01*
X125353525Y-42284219D01*
X125358377Y-42316929D01*
X125360000Y-42349956D01*
X125360000Y-43226044D01*
X125358377Y-43259071D01*
X125353525Y-43291781D01*
X125345491Y-43323857D01*
X125334351Y-43354991D01*
X125320213Y-43384884D01*
X125303213Y-43413247D01*
X125283515Y-43439807D01*
X125261308Y-43464308D01*
X125236807Y-43486515D01*
X125210247Y-43506213D01*
X125181884Y-43523213D01*
X125151991Y-43537351D01*
X125120857Y-43548491D01*
X125088781Y-43556525D01*
X125056071Y-43561377D01*
X125023044Y-43563000D01*
X123896956Y-43563000D01*
X123863929Y-43561377D01*
X123831219Y-43556525D01*
X123799143Y-43548491D01*
X123768009Y-43537351D01*
X123738116Y-43523213D01*
X123709753Y-43506213D01*
X123683193Y-43486515D01*
X123658692Y-43464308D01*
X123636485Y-43439807D01*
X123616787Y-43413247D01*
X123599787Y-43384884D01*
X123585649Y-43354991D01*
X123574509Y-43323857D01*
X123566475Y-43291781D01*
X123561623Y-43259071D01*
X123560000Y-43226044D01*
X123560000Y-42349956D01*
X123561623Y-42316929D01*
X123566475Y-42284219D01*
X123574509Y-42252143D01*
X123585649Y-42221009D01*
X123599787Y-42191116D01*
X123616787Y-42162753D01*
X123636485Y-42136193D01*
X123658692Y-42111692D01*
X123683193Y-42089485D01*
X123709753Y-42069787D01*
X123738116Y-42052787D01*
X123768009Y-42038649D01*
X123799143Y-42027509D01*
X123831219Y-42019475D01*
X123863929Y-42014623D01*
X123896956Y-42013000D01*
X125023044Y-42013000D01*
X125056071Y-42014623D01*
X125056071Y-42014623D01*
G37*
D11*
X124460000Y-42788000D03*
D10*
G36*
X128993071Y-42014623D02*
G01*
X129025781Y-42019475D01*
X129057857Y-42027509D01*
X129088991Y-42038649D01*
X129118884Y-42052787D01*
X129147247Y-42069787D01*
X129173807Y-42089485D01*
X129198308Y-42111692D01*
X129220515Y-42136193D01*
X129240213Y-42162753D01*
X129257213Y-42191116D01*
X129271351Y-42221009D01*
X129282491Y-42252143D01*
X129290525Y-42284219D01*
X129295377Y-42316929D01*
X129297000Y-42349956D01*
X129297000Y-43226044D01*
X129295377Y-43259071D01*
X129290525Y-43291781D01*
X129282491Y-43323857D01*
X129271351Y-43354991D01*
X129257213Y-43384884D01*
X129240213Y-43413247D01*
X129220515Y-43439807D01*
X129198308Y-43464308D01*
X129173807Y-43486515D01*
X129147247Y-43506213D01*
X129118884Y-43523213D01*
X129088991Y-43537351D01*
X129057857Y-43548491D01*
X129025781Y-43556525D01*
X128993071Y-43561377D01*
X128960044Y-43563000D01*
X127833956Y-43563000D01*
X127800929Y-43561377D01*
X127768219Y-43556525D01*
X127736143Y-43548491D01*
X127705009Y-43537351D01*
X127675116Y-43523213D01*
X127646753Y-43506213D01*
X127620193Y-43486515D01*
X127595692Y-43464308D01*
X127573485Y-43439807D01*
X127553787Y-43413247D01*
X127536787Y-43384884D01*
X127522649Y-43354991D01*
X127511509Y-43323857D01*
X127503475Y-43291781D01*
X127498623Y-43259071D01*
X127497000Y-43226044D01*
X127497000Y-42349956D01*
X127498623Y-42316929D01*
X127503475Y-42284219D01*
X127511509Y-42252143D01*
X127522649Y-42221009D01*
X127536787Y-42191116D01*
X127553787Y-42162753D01*
X127573485Y-42136193D01*
X127595692Y-42111692D01*
X127620193Y-42089485D01*
X127646753Y-42069787D01*
X127675116Y-42052787D01*
X127705009Y-42038649D01*
X127736143Y-42027509D01*
X127768219Y-42019475D01*
X127800929Y-42014623D01*
X127833956Y-42013000D01*
X128960044Y-42013000D01*
X128993071Y-42014623D01*
X128993071Y-42014623D01*
G37*
D11*
X128397000Y-42788000D03*
D10*
G36*
X128993071Y-39964623D02*
G01*
X129025781Y-39969475D01*
X129057857Y-39977509D01*
X129088991Y-39988649D01*
X129118884Y-40002787D01*
X129147247Y-40019787D01*
X129173807Y-40039485D01*
X129198308Y-40061692D01*
X129220515Y-40086193D01*
X129240213Y-40112753D01*
X129257213Y-40141116D01*
X129271351Y-40171009D01*
X129282491Y-40202143D01*
X129290525Y-40234219D01*
X129295377Y-40266929D01*
X129297000Y-40299956D01*
X129297000Y-41176044D01*
X129295377Y-41209071D01*
X129290525Y-41241781D01*
X129282491Y-41273857D01*
X129271351Y-41304991D01*
X129257213Y-41334884D01*
X129240213Y-41363247D01*
X129220515Y-41389807D01*
X129198308Y-41414308D01*
X129173807Y-41436515D01*
X129147247Y-41456213D01*
X129118884Y-41473213D01*
X129088991Y-41487351D01*
X129057857Y-41498491D01*
X129025781Y-41506525D01*
X128993071Y-41511377D01*
X128960044Y-41513000D01*
X127833956Y-41513000D01*
X127800929Y-41511377D01*
X127768219Y-41506525D01*
X127736143Y-41498491D01*
X127705009Y-41487351D01*
X127675116Y-41473213D01*
X127646753Y-41456213D01*
X127620193Y-41436515D01*
X127595692Y-41414308D01*
X127573485Y-41389807D01*
X127553787Y-41363247D01*
X127536787Y-41334884D01*
X127522649Y-41304991D01*
X127511509Y-41273857D01*
X127503475Y-41241781D01*
X127498623Y-41209071D01*
X127497000Y-41176044D01*
X127497000Y-40299956D01*
X127498623Y-40266929D01*
X127503475Y-40234219D01*
X127511509Y-40202143D01*
X127522649Y-40171009D01*
X127536787Y-40141116D01*
X127553787Y-40112753D01*
X127573485Y-40086193D01*
X127595692Y-40061692D01*
X127620193Y-40039485D01*
X127646753Y-40019787D01*
X127675116Y-40002787D01*
X127705009Y-39988649D01*
X127736143Y-39977509D01*
X127768219Y-39969475D01*
X127800929Y-39964623D01*
X127833956Y-39963000D01*
X128960044Y-39963000D01*
X128993071Y-39964623D01*
X128993071Y-39964623D01*
G37*
D11*
X128397000Y-40738000D03*
D10*
G36*
X107911071Y-40657623D02*
G01*
X107943781Y-40662475D01*
X107975857Y-40670509D01*
X108006991Y-40681649D01*
X108036884Y-40695787D01*
X108065247Y-40712787D01*
X108091807Y-40732485D01*
X108116308Y-40754692D01*
X108138515Y-40779193D01*
X108158213Y-40805753D01*
X108175213Y-40834116D01*
X108189351Y-40864009D01*
X108200491Y-40895143D01*
X108208525Y-40927219D01*
X108213377Y-40959929D01*
X108215000Y-40992956D01*
X108215000Y-41869044D01*
X108213377Y-41902071D01*
X108208525Y-41934781D01*
X108200491Y-41966857D01*
X108189351Y-41997991D01*
X108175213Y-42027884D01*
X108158213Y-42056247D01*
X108138515Y-42082807D01*
X108116308Y-42107308D01*
X108091807Y-42129515D01*
X108065247Y-42149213D01*
X108036884Y-42166213D01*
X108006991Y-42180351D01*
X107975857Y-42191491D01*
X107943781Y-42199525D01*
X107911071Y-42204377D01*
X107878044Y-42206000D01*
X106751956Y-42206000D01*
X106718929Y-42204377D01*
X106686219Y-42199525D01*
X106654143Y-42191491D01*
X106623009Y-42180351D01*
X106593116Y-42166213D01*
X106564753Y-42149213D01*
X106538193Y-42129515D01*
X106513692Y-42107308D01*
X106491485Y-42082807D01*
X106471787Y-42056247D01*
X106454787Y-42027884D01*
X106440649Y-41997991D01*
X106429509Y-41966857D01*
X106421475Y-41934781D01*
X106416623Y-41902071D01*
X106415000Y-41869044D01*
X106415000Y-40992956D01*
X106416623Y-40959929D01*
X106421475Y-40927219D01*
X106429509Y-40895143D01*
X106440649Y-40864009D01*
X106454787Y-40834116D01*
X106471787Y-40805753D01*
X106491485Y-40779193D01*
X106513692Y-40754692D01*
X106538193Y-40732485D01*
X106564753Y-40712787D01*
X106593116Y-40695787D01*
X106623009Y-40681649D01*
X106654143Y-40670509D01*
X106686219Y-40662475D01*
X106718929Y-40657623D01*
X106751956Y-40656000D01*
X107878044Y-40656000D01*
X107911071Y-40657623D01*
X107911071Y-40657623D01*
G37*
D11*
X107315000Y-41431000D03*
D10*
G36*
X107911071Y-38607623D02*
G01*
X107943781Y-38612475D01*
X107975857Y-38620509D01*
X108006991Y-38631649D01*
X108036884Y-38645787D01*
X108065247Y-38662787D01*
X108091807Y-38682485D01*
X108116308Y-38704692D01*
X108138515Y-38729193D01*
X108158213Y-38755753D01*
X108175213Y-38784116D01*
X108189351Y-38814009D01*
X108200491Y-38845143D01*
X108208525Y-38877219D01*
X108213377Y-38909929D01*
X108215000Y-38942956D01*
X108215000Y-39819044D01*
X108213377Y-39852071D01*
X108208525Y-39884781D01*
X108200491Y-39916857D01*
X108189351Y-39947991D01*
X108175213Y-39977884D01*
X108158213Y-40006247D01*
X108138515Y-40032807D01*
X108116308Y-40057308D01*
X108091807Y-40079515D01*
X108065247Y-40099213D01*
X108036884Y-40116213D01*
X108006991Y-40130351D01*
X107975857Y-40141491D01*
X107943781Y-40149525D01*
X107911071Y-40154377D01*
X107878044Y-40156000D01*
X106751956Y-40156000D01*
X106718929Y-40154377D01*
X106686219Y-40149525D01*
X106654143Y-40141491D01*
X106623009Y-40130351D01*
X106593116Y-40116213D01*
X106564753Y-40099213D01*
X106538193Y-40079515D01*
X106513692Y-40057308D01*
X106491485Y-40032807D01*
X106471787Y-40006247D01*
X106454787Y-39977884D01*
X106440649Y-39947991D01*
X106429509Y-39916857D01*
X106421475Y-39884781D01*
X106416623Y-39852071D01*
X106415000Y-39819044D01*
X106415000Y-38942956D01*
X106416623Y-38909929D01*
X106421475Y-38877219D01*
X106429509Y-38845143D01*
X106440649Y-38814009D01*
X106454787Y-38784116D01*
X106471787Y-38755753D01*
X106491485Y-38729193D01*
X106513692Y-38704692D01*
X106538193Y-38682485D01*
X106564753Y-38662787D01*
X106593116Y-38645787D01*
X106623009Y-38631649D01*
X106654143Y-38620509D01*
X106686219Y-38612475D01*
X106718929Y-38607623D01*
X106751956Y-38606000D01*
X107878044Y-38606000D01*
X107911071Y-38607623D01*
X107911071Y-38607623D01*
G37*
D11*
X107315000Y-39381000D03*
D10*
G36*
X83527071Y-70693123D02*
G01*
X83559781Y-70697975D01*
X83591857Y-70706009D01*
X83622991Y-70717149D01*
X83652884Y-70731287D01*
X83681247Y-70748287D01*
X83707807Y-70767985D01*
X83732308Y-70790192D01*
X83754515Y-70814693D01*
X83774213Y-70841253D01*
X83791213Y-70869616D01*
X83805351Y-70899509D01*
X83816491Y-70930643D01*
X83824525Y-70962719D01*
X83829377Y-70995429D01*
X83831000Y-71028456D01*
X83831000Y-71904544D01*
X83829377Y-71937571D01*
X83824525Y-71970281D01*
X83816491Y-72002357D01*
X83805351Y-72033491D01*
X83791213Y-72063384D01*
X83774213Y-72091747D01*
X83754515Y-72118307D01*
X83732308Y-72142808D01*
X83707807Y-72165015D01*
X83681247Y-72184713D01*
X83652884Y-72201713D01*
X83622991Y-72215851D01*
X83591857Y-72226991D01*
X83559781Y-72235025D01*
X83527071Y-72239877D01*
X83494044Y-72241500D01*
X82367956Y-72241500D01*
X82334929Y-72239877D01*
X82302219Y-72235025D01*
X82270143Y-72226991D01*
X82239009Y-72215851D01*
X82209116Y-72201713D01*
X82180753Y-72184713D01*
X82154193Y-72165015D01*
X82129692Y-72142808D01*
X82107485Y-72118307D01*
X82087787Y-72091747D01*
X82070787Y-72063384D01*
X82056649Y-72033491D01*
X82045509Y-72002357D01*
X82037475Y-71970281D01*
X82032623Y-71937571D01*
X82031000Y-71904544D01*
X82031000Y-71028456D01*
X82032623Y-70995429D01*
X82037475Y-70962719D01*
X82045509Y-70930643D01*
X82056649Y-70899509D01*
X82070787Y-70869616D01*
X82087787Y-70841253D01*
X82107485Y-70814693D01*
X82129692Y-70790192D01*
X82154193Y-70767985D01*
X82180753Y-70748287D01*
X82209116Y-70731287D01*
X82239009Y-70717149D01*
X82270143Y-70706009D01*
X82302219Y-70697975D01*
X82334929Y-70693123D01*
X82367956Y-70691500D01*
X83494044Y-70691500D01*
X83527071Y-70693123D01*
X83527071Y-70693123D01*
G37*
D11*
X82931000Y-71466500D03*
D10*
G36*
X83527071Y-68643123D02*
G01*
X83559781Y-68647975D01*
X83591857Y-68656009D01*
X83622991Y-68667149D01*
X83652884Y-68681287D01*
X83681247Y-68698287D01*
X83707807Y-68717985D01*
X83732308Y-68740192D01*
X83754515Y-68764693D01*
X83774213Y-68791253D01*
X83791213Y-68819616D01*
X83805351Y-68849509D01*
X83816491Y-68880643D01*
X83824525Y-68912719D01*
X83829377Y-68945429D01*
X83831000Y-68978456D01*
X83831000Y-69854544D01*
X83829377Y-69887571D01*
X83824525Y-69920281D01*
X83816491Y-69952357D01*
X83805351Y-69983491D01*
X83791213Y-70013384D01*
X83774213Y-70041747D01*
X83754515Y-70068307D01*
X83732308Y-70092808D01*
X83707807Y-70115015D01*
X83681247Y-70134713D01*
X83652884Y-70151713D01*
X83622991Y-70165851D01*
X83591857Y-70176991D01*
X83559781Y-70185025D01*
X83527071Y-70189877D01*
X83494044Y-70191500D01*
X82367956Y-70191500D01*
X82334929Y-70189877D01*
X82302219Y-70185025D01*
X82270143Y-70176991D01*
X82239009Y-70165851D01*
X82209116Y-70151713D01*
X82180753Y-70134713D01*
X82154193Y-70115015D01*
X82129692Y-70092808D01*
X82107485Y-70068307D01*
X82087787Y-70041747D01*
X82070787Y-70013384D01*
X82056649Y-69983491D01*
X82045509Y-69952357D01*
X82037475Y-69920281D01*
X82032623Y-69887571D01*
X82031000Y-69854544D01*
X82031000Y-68978456D01*
X82032623Y-68945429D01*
X82037475Y-68912719D01*
X82045509Y-68880643D01*
X82056649Y-68849509D01*
X82070787Y-68819616D01*
X82087787Y-68791253D01*
X82107485Y-68764693D01*
X82129692Y-68740192D01*
X82154193Y-68717985D01*
X82180753Y-68698287D01*
X82209116Y-68681287D01*
X82239009Y-68667149D01*
X82270143Y-68656009D01*
X82302219Y-68647975D01*
X82334929Y-68643123D01*
X82367956Y-68641500D01*
X83494044Y-68641500D01*
X83527071Y-68643123D01*
X83527071Y-68643123D01*
G37*
D11*
X82931000Y-69416500D03*
D10*
G36*
X83527071Y-57465123D02*
G01*
X83559781Y-57469975D01*
X83591857Y-57478009D01*
X83622991Y-57489149D01*
X83652884Y-57503287D01*
X83681247Y-57520287D01*
X83707807Y-57539985D01*
X83732308Y-57562192D01*
X83754515Y-57586693D01*
X83774213Y-57613253D01*
X83791213Y-57641616D01*
X83805351Y-57671509D01*
X83816491Y-57702643D01*
X83824525Y-57734719D01*
X83829377Y-57767429D01*
X83831000Y-57800456D01*
X83831000Y-58676544D01*
X83829377Y-58709571D01*
X83824525Y-58742281D01*
X83816491Y-58774357D01*
X83805351Y-58805491D01*
X83791213Y-58835384D01*
X83774213Y-58863747D01*
X83754515Y-58890307D01*
X83732308Y-58914808D01*
X83707807Y-58937015D01*
X83681247Y-58956713D01*
X83652884Y-58973713D01*
X83622991Y-58987851D01*
X83591857Y-58998991D01*
X83559781Y-59007025D01*
X83527071Y-59011877D01*
X83494044Y-59013500D01*
X82367956Y-59013500D01*
X82334929Y-59011877D01*
X82302219Y-59007025D01*
X82270143Y-58998991D01*
X82239009Y-58987851D01*
X82209116Y-58973713D01*
X82180753Y-58956713D01*
X82154193Y-58937015D01*
X82129692Y-58914808D01*
X82107485Y-58890307D01*
X82087787Y-58863747D01*
X82070787Y-58835384D01*
X82056649Y-58805491D01*
X82045509Y-58774357D01*
X82037475Y-58742281D01*
X82032623Y-58709571D01*
X82031000Y-58676544D01*
X82031000Y-57800456D01*
X82032623Y-57767429D01*
X82037475Y-57734719D01*
X82045509Y-57702643D01*
X82056649Y-57671509D01*
X82070787Y-57641616D01*
X82087787Y-57613253D01*
X82107485Y-57586693D01*
X82129692Y-57562192D01*
X82154193Y-57539985D01*
X82180753Y-57520287D01*
X82209116Y-57503287D01*
X82239009Y-57489149D01*
X82270143Y-57478009D01*
X82302219Y-57469975D01*
X82334929Y-57465123D01*
X82367956Y-57463500D01*
X83494044Y-57463500D01*
X83527071Y-57465123D01*
X83527071Y-57465123D01*
G37*
D11*
X82931000Y-58238500D03*
D10*
G36*
X83527071Y-55415123D02*
G01*
X83559781Y-55419975D01*
X83591857Y-55428009D01*
X83622991Y-55439149D01*
X83652884Y-55453287D01*
X83681247Y-55470287D01*
X83707807Y-55489985D01*
X83732308Y-55512192D01*
X83754515Y-55536693D01*
X83774213Y-55563253D01*
X83791213Y-55591616D01*
X83805351Y-55621509D01*
X83816491Y-55652643D01*
X83824525Y-55684719D01*
X83829377Y-55717429D01*
X83831000Y-55750456D01*
X83831000Y-56626544D01*
X83829377Y-56659571D01*
X83824525Y-56692281D01*
X83816491Y-56724357D01*
X83805351Y-56755491D01*
X83791213Y-56785384D01*
X83774213Y-56813747D01*
X83754515Y-56840307D01*
X83732308Y-56864808D01*
X83707807Y-56887015D01*
X83681247Y-56906713D01*
X83652884Y-56923713D01*
X83622991Y-56937851D01*
X83591857Y-56948991D01*
X83559781Y-56957025D01*
X83527071Y-56961877D01*
X83494044Y-56963500D01*
X82367956Y-56963500D01*
X82334929Y-56961877D01*
X82302219Y-56957025D01*
X82270143Y-56948991D01*
X82239009Y-56937851D01*
X82209116Y-56923713D01*
X82180753Y-56906713D01*
X82154193Y-56887015D01*
X82129692Y-56864808D01*
X82107485Y-56840307D01*
X82087787Y-56813747D01*
X82070787Y-56785384D01*
X82056649Y-56755491D01*
X82045509Y-56724357D01*
X82037475Y-56692281D01*
X82032623Y-56659571D01*
X82031000Y-56626544D01*
X82031000Y-55750456D01*
X82032623Y-55717429D01*
X82037475Y-55684719D01*
X82045509Y-55652643D01*
X82056649Y-55621509D01*
X82070787Y-55591616D01*
X82087787Y-55563253D01*
X82107485Y-55536693D01*
X82129692Y-55512192D01*
X82154193Y-55489985D01*
X82180753Y-55470287D01*
X82209116Y-55453287D01*
X82239009Y-55439149D01*
X82270143Y-55428009D01*
X82302219Y-55419975D01*
X82334929Y-55415123D01*
X82367956Y-55413500D01*
X83494044Y-55413500D01*
X83527071Y-55415123D01*
X83527071Y-55415123D01*
G37*
D11*
X82931000Y-56188500D03*
D10*
G36*
X161416171Y-55133723D02*
G01*
X161448881Y-55138575D01*
X161480957Y-55146609D01*
X161512091Y-55157749D01*
X161541984Y-55171887D01*
X161570347Y-55188887D01*
X161596907Y-55208585D01*
X161621408Y-55230792D01*
X161643615Y-55255293D01*
X161663313Y-55281853D01*
X161680313Y-55310216D01*
X161694451Y-55340109D01*
X161705591Y-55371243D01*
X161713625Y-55403319D01*
X161718477Y-55436029D01*
X161720100Y-55469056D01*
X161720100Y-56345144D01*
X161718477Y-56378171D01*
X161713625Y-56410881D01*
X161705591Y-56442957D01*
X161694451Y-56474091D01*
X161680313Y-56503984D01*
X161663313Y-56532347D01*
X161643615Y-56558907D01*
X161621408Y-56583408D01*
X161596907Y-56605615D01*
X161570347Y-56625313D01*
X161541984Y-56642313D01*
X161512091Y-56656451D01*
X161480957Y-56667591D01*
X161448881Y-56675625D01*
X161416171Y-56680477D01*
X161383144Y-56682100D01*
X160257056Y-56682100D01*
X160224029Y-56680477D01*
X160191319Y-56675625D01*
X160159243Y-56667591D01*
X160128109Y-56656451D01*
X160098216Y-56642313D01*
X160069853Y-56625313D01*
X160043293Y-56605615D01*
X160018792Y-56583408D01*
X159996585Y-56558907D01*
X159976887Y-56532347D01*
X159959887Y-56503984D01*
X159945749Y-56474091D01*
X159934609Y-56442957D01*
X159926575Y-56410881D01*
X159921723Y-56378171D01*
X159920100Y-56345144D01*
X159920100Y-55469056D01*
X159921723Y-55436029D01*
X159926575Y-55403319D01*
X159934609Y-55371243D01*
X159945749Y-55340109D01*
X159959887Y-55310216D01*
X159976887Y-55281853D01*
X159996585Y-55255293D01*
X160018792Y-55230792D01*
X160043293Y-55208585D01*
X160069853Y-55188887D01*
X160098216Y-55171887D01*
X160128109Y-55157749D01*
X160159243Y-55146609D01*
X160191319Y-55138575D01*
X160224029Y-55133723D01*
X160257056Y-55132100D01*
X161383144Y-55132100D01*
X161416171Y-55133723D01*
X161416171Y-55133723D01*
G37*
D11*
X160820100Y-55907100D03*
D10*
G36*
X161416171Y-53083723D02*
G01*
X161448881Y-53088575D01*
X161480957Y-53096609D01*
X161512091Y-53107749D01*
X161541984Y-53121887D01*
X161570347Y-53138887D01*
X161596907Y-53158585D01*
X161621408Y-53180792D01*
X161643615Y-53205293D01*
X161663313Y-53231853D01*
X161680313Y-53260216D01*
X161694451Y-53290109D01*
X161705591Y-53321243D01*
X161713625Y-53353319D01*
X161718477Y-53386029D01*
X161720100Y-53419056D01*
X161720100Y-54295144D01*
X161718477Y-54328171D01*
X161713625Y-54360881D01*
X161705591Y-54392957D01*
X161694451Y-54424091D01*
X161680313Y-54453984D01*
X161663313Y-54482347D01*
X161643615Y-54508907D01*
X161621408Y-54533408D01*
X161596907Y-54555615D01*
X161570347Y-54575313D01*
X161541984Y-54592313D01*
X161512091Y-54606451D01*
X161480957Y-54617591D01*
X161448881Y-54625625D01*
X161416171Y-54630477D01*
X161383144Y-54632100D01*
X160257056Y-54632100D01*
X160224029Y-54630477D01*
X160191319Y-54625625D01*
X160159243Y-54617591D01*
X160128109Y-54606451D01*
X160098216Y-54592313D01*
X160069853Y-54575313D01*
X160043293Y-54555615D01*
X160018792Y-54533408D01*
X159996585Y-54508907D01*
X159976887Y-54482347D01*
X159959887Y-54453984D01*
X159945749Y-54424091D01*
X159934609Y-54392957D01*
X159926575Y-54360881D01*
X159921723Y-54328171D01*
X159920100Y-54295144D01*
X159920100Y-53419056D01*
X159921723Y-53386029D01*
X159926575Y-53353319D01*
X159934609Y-53321243D01*
X159945749Y-53290109D01*
X159959887Y-53260216D01*
X159976887Y-53231853D01*
X159996585Y-53205293D01*
X160018792Y-53180792D01*
X160043293Y-53158585D01*
X160069853Y-53138887D01*
X160098216Y-53121887D01*
X160128109Y-53107749D01*
X160159243Y-53096609D01*
X160191319Y-53088575D01*
X160224029Y-53083723D01*
X160257056Y-53082100D01*
X161383144Y-53082100D01*
X161416171Y-53083723D01*
X161416171Y-53083723D01*
G37*
D11*
X160820100Y-53857100D03*
D10*
G36*
X146938171Y-55133723D02*
G01*
X146970881Y-55138575D01*
X147002957Y-55146609D01*
X147034091Y-55157749D01*
X147063984Y-55171887D01*
X147092347Y-55188887D01*
X147118907Y-55208585D01*
X147143408Y-55230792D01*
X147165615Y-55255293D01*
X147185313Y-55281853D01*
X147202313Y-55310216D01*
X147216451Y-55340109D01*
X147227591Y-55371243D01*
X147235625Y-55403319D01*
X147240477Y-55436029D01*
X147242100Y-55469056D01*
X147242100Y-56345144D01*
X147240477Y-56378171D01*
X147235625Y-56410881D01*
X147227591Y-56442957D01*
X147216451Y-56474091D01*
X147202313Y-56503984D01*
X147185313Y-56532347D01*
X147165615Y-56558907D01*
X147143408Y-56583408D01*
X147118907Y-56605615D01*
X147092347Y-56625313D01*
X147063984Y-56642313D01*
X147034091Y-56656451D01*
X147002957Y-56667591D01*
X146970881Y-56675625D01*
X146938171Y-56680477D01*
X146905144Y-56682100D01*
X145779056Y-56682100D01*
X145746029Y-56680477D01*
X145713319Y-56675625D01*
X145681243Y-56667591D01*
X145650109Y-56656451D01*
X145620216Y-56642313D01*
X145591853Y-56625313D01*
X145565293Y-56605615D01*
X145540792Y-56583408D01*
X145518585Y-56558907D01*
X145498887Y-56532347D01*
X145481887Y-56503984D01*
X145467749Y-56474091D01*
X145456609Y-56442957D01*
X145448575Y-56410881D01*
X145443723Y-56378171D01*
X145442100Y-56345144D01*
X145442100Y-55469056D01*
X145443723Y-55436029D01*
X145448575Y-55403319D01*
X145456609Y-55371243D01*
X145467749Y-55340109D01*
X145481887Y-55310216D01*
X145498887Y-55281853D01*
X145518585Y-55255293D01*
X145540792Y-55230792D01*
X145565293Y-55208585D01*
X145591853Y-55188887D01*
X145620216Y-55171887D01*
X145650109Y-55157749D01*
X145681243Y-55146609D01*
X145713319Y-55138575D01*
X145746029Y-55133723D01*
X145779056Y-55132100D01*
X146905144Y-55132100D01*
X146938171Y-55133723D01*
X146938171Y-55133723D01*
G37*
D11*
X146342100Y-55907100D03*
D10*
G36*
X146938171Y-53083723D02*
G01*
X146970881Y-53088575D01*
X147002957Y-53096609D01*
X147034091Y-53107749D01*
X147063984Y-53121887D01*
X147092347Y-53138887D01*
X147118907Y-53158585D01*
X147143408Y-53180792D01*
X147165615Y-53205293D01*
X147185313Y-53231853D01*
X147202313Y-53260216D01*
X147216451Y-53290109D01*
X147227591Y-53321243D01*
X147235625Y-53353319D01*
X147240477Y-53386029D01*
X147242100Y-53419056D01*
X147242100Y-54295144D01*
X147240477Y-54328171D01*
X147235625Y-54360881D01*
X147227591Y-54392957D01*
X147216451Y-54424091D01*
X147202313Y-54453984D01*
X147185313Y-54482347D01*
X147165615Y-54508907D01*
X147143408Y-54533408D01*
X147118907Y-54555615D01*
X147092347Y-54575313D01*
X147063984Y-54592313D01*
X147034091Y-54606451D01*
X147002957Y-54617591D01*
X146970881Y-54625625D01*
X146938171Y-54630477D01*
X146905144Y-54632100D01*
X145779056Y-54632100D01*
X145746029Y-54630477D01*
X145713319Y-54625625D01*
X145681243Y-54617591D01*
X145650109Y-54606451D01*
X145620216Y-54592313D01*
X145591853Y-54575313D01*
X145565293Y-54555615D01*
X145540792Y-54533408D01*
X145518585Y-54508907D01*
X145498887Y-54482347D01*
X145481887Y-54453984D01*
X145467749Y-54424091D01*
X145456609Y-54392957D01*
X145448575Y-54360881D01*
X145443723Y-54328171D01*
X145442100Y-54295144D01*
X145442100Y-53419056D01*
X145443723Y-53386029D01*
X145448575Y-53353319D01*
X145456609Y-53321243D01*
X145467749Y-53290109D01*
X145481887Y-53260216D01*
X145498887Y-53231853D01*
X145518585Y-53205293D01*
X145540792Y-53180792D01*
X145565293Y-53158585D01*
X145591853Y-53138887D01*
X145620216Y-53121887D01*
X145650109Y-53107749D01*
X145681243Y-53096609D01*
X145713319Y-53088575D01*
X145746029Y-53083723D01*
X145779056Y-53082100D01*
X146905144Y-53082100D01*
X146938171Y-53083723D01*
X146938171Y-53083723D01*
G37*
D11*
X146342100Y-53857100D03*
D10*
G36*
X167601071Y-66293623D02*
G01*
X167633781Y-66298475D01*
X167665857Y-66306509D01*
X167696991Y-66317649D01*
X167726884Y-66331787D01*
X167755247Y-66348787D01*
X167781807Y-66368485D01*
X167806308Y-66390692D01*
X167828515Y-66415193D01*
X167848213Y-66441753D01*
X167865213Y-66470116D01*
X167879351Y-66500009D01*
X167890491Y-66531143D01*
X167898525Y-66563219D01*
X167903377Y-66595929D01*
X167905000Y-66628956D01*
X167905000Y-67505044D01*
X167903377Y-67538071D01*
X167898525Y-67570781D01*
X167890491Y-67602857D01*
X167879351Y-67633991D01*
X167865213Y-67663884D01*
X167848213Y-67692247D01*
X167828515Y-67718807D01*
X167806308Y-67743308D01*
X167781807Y-67765515D01*
X167755247Y-67785213D01*
X167726884Y-67802213D01*
X167696991Y-67816351D01*
X167665857Y-67827491D01*
X167633781Y-67835525D01*
X167601071Y-67840377D01*
X167568044Y-67842000D01*
X166441956Y-67842000D01*
X166408929Y-67840377D01*
X166376219Y-67835525D01*
X166344143Y-67827491D01*
X166313009Y-67816351D01*
X166283116Y-67802213D01*
X166254753Y-67785213D01*
X166228193Y-67765515D01*
X166203692Y-67743308D01*
X166181485Y-67718807D01*
X166161787Y-67692247D01*
X166144787Y-67663884D01*
X166130649Y-67633991D01*
X166119509Y-67602857D01*
X166111475Y-67570781D01*
X166106623Y-67538071D01*
X166105000Y-67505044D01*
X166105000Y-66628956D01*
X166106623Y-66595929D01*
X166111475Y-66563219D01*
X166119509Y-66531143D01*
X166130649Y-66500009D01*
X166144787Y-66470116D01*
X166161787Y-66441753D01*
X166181485Y-66415193D01*
X166203692Y-66390692D01*
X166228193Y-66368485D01*
X166254753Y-66348787D01*
X166283116Y-66331787D01*
X166313009Y-66317649D01*
X166344143Y-66306509D01*
X166376219Y-66298475D01*
X166408929Y-66293623D01*
X166441956Y-66292000D01*
X167568044Y-66292000D01*
X167601071Y-66293623D01*
X167601071Y-66293623D01*
G37*
D11*
X167005000Y-67067000D03*
D10*
G36*
X167601071Y-68343623D02*
G01*
X167633781Y-68348475D01*
X167665857Y-68356509D01*
X167696991Y-68367649D01*
X167726884Y-68381787D01*
X167755247Y-68398787D01*
X167781807Y-68418485D01*
X167806308Y-68440692D01*
X167828515Y-68465193D01*
X167848213Y-68491753D01*
X167865213Y-68520116D01*
X167879351Y-68550009D01*
X167890491Y-68581143D01*
X167898525Y-68613219D01*
X167903377Y-68645929D01*
X167905000Y-68678956D01*
X167905000Y-69555044D01*
X167903377Y-69588071D01*
X167898525Y-69620781D01*
X167890491Y-69652857D01*
X167879351Y-69683991D01*
X167865213Y-69713884D01*
X167848213Y-69742247D01*
X167828515Y-69768807D01*
X167806308Y-69793308D01*
X167781807Y-69815515D01*
X167755247Y-69835213D01*
X167726884Y-69852213D01*
X167696991Y-69866351D01*
X167665857Y-69877491D01*
X167633781Y-69885525D01*
X167601071Y-69890377D01*
X167568044Y-69892000D01*
X166441956Y-69892000D01*
X166408929Y-69890377D01*
X166376219Y-69885525D01*
X166344143Y-69877491D01*
X166313009Y-69866351D01*
X166283116Y-69852213D01*
X166254753Y-69835213D01*
X166228193Y-69815515D01*
X166203692Y-69793308D01*
X166181485Y-69768807D01*
X166161787Y-69742247D01*
X166144787Y-69713884D01*
X166130649Y-69683991D01*
X166119509Y-69652857D01*
X166111475Y-69620781D01*
X166106623Y-69588071D01*
X166105000Y-69555044D01*
X166105000Y-68678956D01*
X166106623Y-68645929D01*
X166111475Y-68613219D01*
X166119509Y-68581143D01*
X166130649Y-68550009D01*
X166144787Y-68520116D01*
X166161787Y-68491753D01*
X166181485Y-68465193D01*
X166203692Y-68440692D01*
X166228193Y-68418485D01*
X166254753Y-68398787D01*
X166283116Y-68381787D01*
X166313009Y-68367649D01*
X166344143Y-68356509D01*
X166376219Y-68348475D01*
X166408929Y-68343623D01*
X166441956Y-68342000D01*
X167568044Y-68342000D01*
X167601071Y-68343623D01*
X167601071Y-68343623D01*
G37*
D11*
X167005000Y-69117000D03*
D10*
G36*
X164680071Y-68323623D02*
G01*
X164712781Y-68328475D01*
X164744857Y-68336509D01*
X164775991Y-68347649D01*
X164805884Y-68361787D01*
X164834247Y-68378787D01*
X164860807Y-68398485D01*
X164885308Y-68420692D01*
X164907515Y-68445193D01*
X164927213Y-68471753D01*
X164944213Y-68500116D01*
X164958351Y-68530009D01*
X164969491Y-68561143D01*
X164977525Y-68593219D01*
X164982377Y-68625929D01*
X164984000Y-68658956D01*
X164984000Y-69535044D01*
X164982377Y-69568071D01*
X164977525Y-69600781D01*
X164969491Y-69632857D01*
X164958351Y-69663991D01*
X164944213Y-69693884D01*
X164927213Y-69722247D01*
X164907515Y-69748807D01*
X164885308Y-69773308D01*
X164860807Y-69795515D01*
X164834247Y-69815213D01*
X164805884Y-69832213D01*
X164775991Y-69846351D01*
X164744857Y-69857491D01*
X164712781Y-69865525D01*
X164680071Y-69870377D01*
X164647044Y-69872000D01*
X163520956Y-69872000D01*
X163487929Y-69870377D01*
X163455219Y-69865525D01*
X163423143Y-69857491D01*
X163392009Y-69846351D01*
X163362116Y-69832213D01*
X163333753Y-69815213D01*
X163307193Y-69795515D01*
X163282692Y-69773308D01*
X163260485Y-69748807D01*
X163240787Y-69722247D01*
X163223787Y-69693884D01*
X163209649Y-69663991D01*
X163198509Y-69632857D01*
X163190475Y-69600781D01*
X163185623Y-69568071D01*
X163184000Y-69535044D01*
X163184000Y-68658956D01*
X163185623Y-68625929D01*
X163190475Y-68593219D01*
X163198509Y-68561143D01*
X163209649Y-68530009D01*
X163223787Y-68500116D01*
X163240787Y-68471753D01*
X163260485Y-68445193D01*
X163282692Y-68420692D01*
X163307193Y-68398485D01*
X163333753Y-68378787D01*
X163362116Y-68361787D01*
X163392009Y-68347649D01*
X163423143Y-68336509D01*
X163455219Y-68328475D01*
X163487929Y-68323623D01*
X163520956Y-68322000D01*
X164647044Y-68322000D01*
X164680071Y-68323623D01*
X164680071Y-68323623D01*
G37*
D11*
X164084000Y-69097000D03*
D10*
G36*
X164680071Y-66273623D02*
G01*
X164712781Y-66278475D01*
X164744857Y-66286509D01*
X164775991Y-66297649D01*
X164805884Y-66311787D01*
X164834247Y-66328787D01*
X164860807Y-66348485D01*
X164885308Y-66370692D01*
X164907515Y-66395193D01*
X164927213Y-66421753D01*
X164944213Y-66450116D01*
X164958351Y-66480009D01*
X164969491Y-66511143D01*
X164977525Y-66543219D01*
X164982377Y-66575929D01*
X164984000Y-66608956D01*
X164984000Y-67485044D01*
X164982377Y-67518071D01*
X164977525Y-67550781D01*
X164969491Y-67582857D01*
X164958351Y-67613991D01*
X164944213Y-67643884D01*
X164927213Y-67672247D01*
X164907515Y-67698807D01*
X164885308Y-67723308D01*
X164860807Y-67745515D01*
X164834247Y-67765213D01*
X164805884Y-67782213D01*
X164775991Y-67796351D01*
X164744857Y-67807491D01*
X164712781Y-67815525D01*
X164680071Y-67820377D01*
X164647044Y-67822000D01*
X163520956Y-67822000D01*
X163487929Y-67820377D01*
X163455219Y-67815525D01*
X163423143Y-67807491D01*
X163392009Y-67796351D01*
X163362116Y-67782213D01*
X163333753Y-67765213D01*
X163307193Y-67745515D01*
X163282692Y-67723308D01*
X163260485Y-67698807D01*
X163240787Y-67672247D01*
X163223787Y-67643884D01*
X163209649Y-67613991D01*
X163198509Y-67582857D01*
X163190475Y-67550781D01*
X163185623Y-67518071D01*
X163184000Y-67485044D01*
X163184000Y-66608956D01*
X163185623Y-66575929D01*
X163190475Y-66543219D01*
X163198509Y-66511143D01*
X163209649Y-66480009D01*
X163223787Y-66450116D01*
X163240787Y-66421753D01*
X163260485Y-66395193D01*
X163282692Y-66370692D01*
X163307193Y-66348485D01*
X163333753Y-66328787D01*
X163362116Y-66311787D01*
X163392009Y-66297649D01*
X163423143Y-66286509D01*
X163455219Y-66278475D01*
X163487929Y-66273623D01*
X163520956Y-66272000D01*
X164647044Y-66272000D01*
X164680071Y-66273623D01*
X164680071Y-66273623D01*
G37*
D11*
X164084000Y-67047000D03*
D10*
G36*
X117373581Y-57746625D02*
G01*
X117406343Y-57751485D01*
X117438471Y-57759533D01*
X117469656Y-57770691D01*
X117499596Y-57784852D01*
X117528005Y-57801879D01*
X117554608Y-57821609D01*
X117579149Y-57843851D01*
X117601391Y-57868392D01*
X117621121Y-57894995D01*
X117638148Y-57923404D01*
X117652309Y-57953344D01*
X117663467Y-57984529D01*
X117671515Y-58016657D01*
X117676375Y-58049419D01*
X117678000Y-58082500D01*
X117678000Y-58757500D01*
X117676375Y-58790581D01*
X117671515Y-58823343D01*
X117663467Y-58855471D01*
X117652309Y-58886656D01*
X117638148Y-58916596D01*
X117621121Y-58945005D01*
X117601391Y-58971608D01*
X117579149Y-58996149D01*
X117554608Y-59018391D01*
X117528005Y-59038121D01*
X117499596Y-59055148D01*
X117469656Y-59069309D01*
X117438471Y-59080467D01*
X117406343Y-59088515D01*
X117373581Y-59093375D01*
X117340500Y-59095000D01*
X116565500Y-59095000D01*
X116532419Y-59093375D01*
X116499657Y-59088515D01*
X116467529Y-59080467D01*
X116436344Y-59069309D01*
X116406404Y-59055148D01*
X116377995Y-59038121D01*
X116351392Y-59018391D01*
X116326851Y-58996149D01*
X116304609Y-58971608D01*
X116284879Y-58945005D01*
X116267852Y-58916596D01*
X116253691Y-58886656D01*
X116242533Y-58855471D01*
X116234485Y-58823343D01*
X116229625Y-58790581D01*
X116228000Y-58757500D01*
X116228000Y-58082500D01*
X116229625Y-58049419D01*
X116234485Y-58016657D01*
X116242533Y-57984529D01*
X116253691Y-57953344D01*
X116267852Y-57923404D01*
X116284879Y-57894995D01*
X116304609Y-57868392D01*
X116326851Y-57843851D01*
X116351392Y-57821609D01*
X116377995Y-57801879D01*
X116406404Y-57784852D01*
X116436344Y-57770691D01*
X116467529Y-57759533D01*
X116499657Y-57751485D01*
X116532419Y-57746625D01*
X116565500Y-57745000D01*
X117340500Y-57745000D01*
X117373581Y-57746625D01*
X117373581Y-57746625D01*
G37*
D12*
X116953000Y-58420000D03*
D10*
G36*
X115623581Y-57746625D02*
G01*
X115656343Y-57751485D01*
X115688471Y-57759533D01*
X115719656Y-57770691D01*
X115749596Y-57784852D01*
X115778005Y-57801879D01*
X115804608Y-57821609D01*
X115829149Y-57843851D01*
X115851391Y-57868392D01*
X115871121Y-57894995D01*
X115888148Y-57923404D01*
X115902309Y-57953344D01*
X115913467Y-57984529D01*
X115921515Y-58016657D01*
X115926375Y-58049419D01*
X115928000Y-58082500D01*
X115928000Y-58757500D01*
X115926375Y-58790581D01*
X115921515Y-58823343D01*
X115913467Y-58855471D01*
X115902309Y-58886656D01*
X115888148Y-58916596D01*
X115871121Y-58945005D01*
X115851391Y-58971608D01*
X115829149Y-58996149D01*
X115804608Y-59018391D01*
X115778005Y-59038121D01*
X115749596Y-59055148D01*
X115719656Y-59069309D01*
X115688471Y-59080467D01*
X115656343Y-59088515D01*
X115623581Y-59093375D01*
X115590500Y-59095000D01*
X114815500Y-59095000D01*
X114782419Y-59093375D01*
X114749657Y-59088515D01*
X114717529Y-59080467D01*
X114686344Y-59069309D01*
X114656404Y-59055148D01*
X114627995Y-59038121D01*
X114601392Y-59018391D01*
X114576851Y-58996149D01*
X114554609Y-58971608D01*
X114534879Y-58945005D01*
X114517852Y-58916596D01*
X114503691Y-58886656D01*
X114492533Y-58855471D01*
X114484485Y-58823343D01*
X114479625Y-58790581D01*
X114478000Y-58757500D01*
X114478000Y-58082500D01*
X114479625Y-58049419D01*
X114484485Y-58016657D01*
X114492533Y-57984529D01*
X114503691Y-57953344D01*
X114517852Y-57923404D01*
X114534879Y-57894995D01*
X114554609Y-57868392D01*
X114576851Y-57843851D01*
X114601392Y-57821609D01*
X114627995Y-57801879D01*
X114656404Y-57784852D01*
X114686344Y-57770691D01*
X114717529Y-57759533D01*
X114749657Y-57751485D01*
X114782419Y-57746625D01*
X114815500Y-57745000D01*
X115590500Y-57745000D01*
X115623581Y-57746625D01*
X115623581Y-57746625D01*
G37*
D12*
X115203000Y-58420000D03*
D10*
G36*
X105870071Y-66411623D02*
G01*
X105902781Y-66416475D01*
X105934857Y-66424509D01*
X105965991Y-66435649D01*
X105995884Y-66449787D01*
X106024247Y-66466787D01*
X106050807Y-66486485D01*
X106075308Y-66508692D01*
X106097515Y-66533193D01*
X106117213Y-66559753D01*
X106134213Y-66588116D01*
X106148351Y-66618009D01*
X106159491Y-66649143D01*
X106167525Y-66681219D01*
X106172377Y-66713929D01*
X106174000Y-66746956D01*
X106174000Y-67873044D01*
X106172377Y-67906071D01*
X106167525Y-67938781D01*
X106159491Y-67970857D01*
X106148351Y-68001991D01*
X106134213Y-68031884D01*
X106117213Y-68060247D01*
X106097515Y-68086807D01*
X106075308Y-68111308D01*
X106050807Y-68133515D01*
X106024247Y-68153213D01*
X105995884Y-68170213D01*
X105965991Y-68184351D01*
X105934857Y-68195491D01*
X105902781Y-68203525D01*
X105870071Y-68208377D01*
X105837044Y-68210000D01*
X104960956Y-68210000D01*
X104927929Y-68208377D01*
X104895219Y-68203525D01*
X104863143Y-68195491D01*
X104832009Y-68184351D01*
X104802116Y-68170213D01*
X104773753Y-68153213D01*
X104747193Y-68133515D01*
X104722692Y-68111308D01*
X104700485Y-68086807D01*
X104680787Y-68060247D01*
X104663787Y-68031884D01*
X104649649Y-68001991D01*
X104638509Y-67970857D01*
X104630475Y-67938781D01*
X104625623Y-67906071D01*
X104624000Y-67873044D01*
X104624000Y-66746956D01*
X104625623Y-66713929D01*
X104630475Y-66681219D01*
X104638509Y-66649143D01*
X104649649Y-66618009D01*
X104663787Y-66588116D01*
X104680787Y-66559753D01*
X104700485Y-66533193D01*
X104722692Y-66508692D01*
X104747193Y-66486485D01*
X104773753Y-66466787D01*
X104802116Y-66449787D01*
X104832009Y-66435649D01*
X104863143Y-66424509D01*
X104895219Y-66416475D01*
X104927929Y-66411623D01*
X104960956Y-66410000D01*
X105837044Y-66410000D01*
X105870071Y-66411623D01*
X105870071Y-66411623D01*
G37*
D11*
X105399000Y-67310000D03*
D10*
G36*
X103820071Y-66411623D02*
G01*
X103852781Y-66416475D01*
X103884857Y-66424509D01*
X103915991Y-66435649D01*
X103945884Y-66449787D01*
X103974247Y-66466787D01*
X104000807Y-66486485D01*
X104025308Y-66508692D01*
X104047515Y-66533193D01*
X104067213Y-66559753D01*
X104084213Y-66588116D01*
X104098351Y-66618009D01*
X104109491Y-66649143D01*
X104117525Y-66681219D01*
X104122377Y-66713929D01*
X104124000Y-66746956D01*
X104124000Y-67873044D01*
X104122377Y-67906071D01*
X104117525Y-67938781D01*
X104109491Y-67970857D01*
X104098351Y-68001991D01*
X104084213Y-68031884D01*
X104067213Y-68060247D01*
X104047515Y-68086807D01*
X104025308Y-68111308D01*
X104000807Y-68133515D01*
X103974247Y-68153213D01*
X103945884Y-68170213D01*
X103915991Y-68184351D01*
X103884857Y-68195491D01*
X103852781Y-68203525D01*
X103820071Y-68208377D01*
X103787044Y-68210000D01*
X102910956Y-68210000D01*
X102877929Y-68208377D01*
X102845219Y-68203525D01*
X102813143Y-68195491D01*
X102782009Y-68184351D01*
X102752116Y-68170213D01*
X102723753Y-68153213D01*
X102697193Y-68133515D01*
X102672692Y-68111308D01*
X102650485Y-68086807D01*
X102630787Y-68060247D01*
X102613787Y-68031884D01*
X102599649Y-68001991D01*
X102588509Y-67970857D01*
X102580475Y-67938781D01*
X102575623Y-67906071D01*
X102574000Y-67873044D01*
X102574000Y-66746956D01*
X102575623Y-66713929D01*
X102580475Y-66681219D01*
X102588509Y-66649143D01*
X102599649Y-66618009D01*
X102613787Y-66588116D01*
X102630787Y-66559753D01*
X102650485Y-66533193D01*
X102672692Y-66508692D01*
X102697193Y-66486485D01*
X102723753Y-66466787D01*
X102752116Y-66449787D01*
X102782009Y-66435649D01*
X102813143Y-66424509D01*
X102845219Y-66416475D01*
X102877929Y-66411623D01*
X102910956Y-66410000D01*
X103787044Y-66410000D01*
X103820071Y-66411623D01*
X103820071Y-66411623D01*
G37*
D11*
X103349000Y-67310000D03*
D10*
G36*
X160743071Y-74000623D02*
G01*
X160775781Y-74005475D01*
X160807857Y-74013509D01*
X160838991Y-74024649D01*
X160868884Y-74038787D01*
X160897247Y-74055787D01*
X160923807Y-74075485D01*
X160948308Y-74097692D01*
X160970515Y-74122193D01*
X160990213Y-74148753D01*
X161007213Y-74177116D01*
X161021351Y-74207009D01*
X161032491Y-74238143D01*
X161040525Y-74270219D01*
X161045377Y-74302929D01*
X161047000Y-74335956D01*
X161047000Y-75212044D01*
X161045377Y-75245071D01*
X161040525Y-75277781D01*
X161032491Y-75309857D01*
X161021351Y-75340991D01*
X161007213Y-75370884D01*
X160990213Y-75399247D01*
X160970515Y-75425807D01*
X160948308Y-75450308D01*
X160923807Y-75472515D01*
X160897247Y-75492213D01*
X160868884Y-75509213D01*
X160838991Y-75523351D01*
X160807857Y-75534491D01*
X160775781Y-75542525D01*
X160743071Y-75547377D01*
X160710044Y-75549000D01*
X159583956Y-75549000D01*
X159550929Y-75547377D01*
X159518219Y-75542525D01*
X159486143Y-75534491D01*
X159455009Y-75523351D01*
X159425116Y-75509213D01*
X159396753Y-75492213D01*
X159370193Y-75472515D01*
X159345692Y-75450308D01*
X159323485Y-75425807D01*
X159303787Y-75399247D01*
X159286787Y-75370884D01*
X159272649Y-75340991D01*
X159261509Y-75309857D01*
X159253475Y-75277781D01*
X159248623Y-75245071D01*
X159247000Y-75212044D01*
X159247000Y-74335956D01*
X159248623Y-74302929D01*
X159253475Y-74270219D01*
X159261509Y-74238143D01*
X159272649Y-74207009D01*
X159286787Y-74177116D01*
X159303787Y-74148753D01*
X159323485Y-74122193D01*
X159345692Y-74097692D01*
X159370193Y-74075485D01*
X159396753Y-74055787D01*
X159425116Y-74038787D01*
X159455009Y-74024649D01*
X159486143Y-74013509D01*
X159518219Y-74005475D01*
X159550929Y-74000623D01*
X159583956Y-73999000D01*
X160710044Y-73999000D01*
X160743071Y-74000623D01*
X160743071Y-74000623D01*
G37*
D11*
X160147000Y-74774000D03*
D10*
G36*
X160743071Y-76050623D02*
G01*
X160775781Y-76055475D01*
X160807857Y-76063509D01*
X160838991Y-76074649D01*
X160868884Y-76088787D01*
X160897247Y-76105787D01*
X160923807Y-76125485D01*
X160948308Y-76147692D01*
X160970515Y-76172193D01*
X160990213Y-76198753D01*
X161007213Y-76227116D01*
X161021351Y-76257009D01*
X161032491Y-76288143D01*
X161040525Y-76320219D01*
X161045377Y-76352929D01*
X161047000Y-76385956D01*
X161047000Y-77262044D01*
X161045377Y-77295071D01*
X161040525Y-77327781D01*
X161032491Y-77359857D01*
X161021351Y-77390991D01*
X161007213Y-77420884D01*
X160990213Y-77449247D01*
X160970515Y-77475807D01*
X160948308Y-77500308D01*
X160923807Y-77522515D01*
X160897247Y-77542213D01*
X160868884Y-77559213D01*
X160838991Y-77573351D01*
X160807857Y-77584491D01*
X160775781Y-77592525D01*
X160743071Y-77597377D01*
X160710044Y-77599000D01*
X159583956Y-77599000D01*
X159550929Y-77597377D01*
X159518219Y-77592525D01*
X159486143Y-77584491D01*
X159455009Y-77573351D01*
X159425116Y-77559213D01*
X159396753Y-77542213D01*
X159370193Y-77522515D01*
X159345692Y-77500308D01*
X159323485Y-77475807D01*
X159303787Y-77449247D01*
X159286787Y-77420884D01*
X159272649Y-77390991D01*
X159261509Y-77359857D01*
X159253475Y-77327781D01*
X159248623Y-77295071D01*
X159247000Y-77262044D01*
X159247000Y-76385956D01*
X159248623Y-76352929D01*
X159253475Y-76320219D01*
X159261509Y-76288143D01*
X159272649Y-76257009D01*
X159286787Y-76227116D01*
X159303787Y-76198753D01*
X159323485Y-76172193D01*
X159345692Y-76147692D01*
X159370193Y-76125485D01*
X159396753Y-76105787D01*
X159425116Y-76088787D01*
X159455009Y-76074649D01*
X159486143Y-76063509D01*
X159518219Y-76055475D01*
X159550929Y-76050623D01*
X159583956Y-76049000D01*
X160710044Y-76049000D01*
X160743071Y-76050623D01*
X160743071Y-76050623D01*
G37*
D11*
X160147000Y-76824000D03*
D10*
G36*
X153662071Y-81270623D02*
G01*
X153694781Y-81275475D01*
X153726857Y-81283509D01*
X153757991Y-81294649D01*
X153787884Y-81308787D01*
X153816247Y-81325787D01*
X153842807Y-81345485D01*
X153867308Y-81367692D01*
X153889515Y-81392193D01*
X153909213Y-81418753D01*
X153926213Y-81447116D01*
X153940351Y-81477009D01*
X153951491Y-81508143D01*
X153959525Y-81540219D01*
X153964377Y-81572929D01*
X153966000Y-81605956D01*
X153966000Y-82732044D01*
X153964377Y-82765071D01*
X153959525Y-82797781D01*
X153951491Y-82829857D01*
X153940351Y-82860991D01*
X153926213Y-82890884D01*
X153909213Y-82919247D01*
X153889515Y-82945807D01*
X153867308Y-82970308D01*
X153842807Y-82992515D01*
X153816247Y-83012213D01*
X153787884Y-83029213D01*
X153757991Y-83043351D01*
X153726857Y-83054491D01*
X153694781Y-83062525D01*
X153662071Y-83067377D01*
X153629044Y-83069000D01*
X152752956Y-83069000D01*
X152719929Y-83067377D01*
X152687219Y-83062525D01*
X152655143Y-83054491D01*
X152624009Y-83043351D01*
X152594116Y-83029213D01*
X152565753Y-83012213D01*
X152539193Y-82992515D01*
X152514692Y-82970308D01*
X152492485Y-82945807D01*
X152472787Y-82919247D01*
X152455787Y-82890884D01*
X152441649Y-82860991D01*
X152430509Y-82829857D01*
X152422475Y-82797781D01*
X152417623Y-82765071D01*
X152416000Y-82732044D01*
X152416000Y-81605956D01*
X152417623Y-81572929D01*
X152422475Y-81540219D01*
X152430509Y-81508143D01*
X152441649Y-81477009D01*
X152455787Y-81447116D01*
X152472787Y-81418753D01*
X152492485Y-81392193D01*
X152514692Y-81367692D01*
X152539193Y-81345485D01*
X152565753Y-81325787D01*
X152594116Y-81308787D01*
X152624009Y-81294649D01*
X152655143Y-81283509D01*
X152687219Y-81275475D01*
X152719929Y-81270623D01*
X152752956Y-81269000D01*
X153629044Y-81269000D01*
X153662071Y-81270623D01*
X153662071Y-81270623D01*
G37*
D11*
X153191000Y-82169000D03*
D10*
G36*
X151612071Y-81270623D02*
G01*
X151644781Y-81275475D01*
X151676857Y-81283509D01*
X151707991Y-81294649D01*
X151737884Y-81308787D01*
X151766247Y-81325787D01*
X151792807Y-81345485D01*
X151817308Y-81367692D01*
X151839515Y-81392193D01*
X151859213Y-81418753D01*
X151876213Y-81447116D01*
X151890351Y-81477009D01*
X151901491Y-81508143D01*
X151909525Y-81540219D01*
X151914377Y-81572929D01*
X151916000Y-81605956D01*
X151916000Y-82732044D01*
X151914377Y-82765071D01*
X151909525Y-82797781D01*
X151901491Y-82829857D01*
X151890351Y-82860991D01*
X151876213Y-82890884D01*
X151859213Y-82919247D01*
X151839515Y-82945807D01*
X151817308Y-82970308D01*
X151792807Y-82992515D01*
X151766247Y-83012213D01*
X151737884Y-83029213D01*
X151707991Y-83043351D01*
X151676857Y-83054491D01*
X151644781Y-83062525D01*
X151612071Y-83067377D01*
X151579044Y-83069000D01*
X150702956Y-83069000D01*
X150669929Y-83067377D01*
X150637219Y-83062525D01*
X150605143Y-83054491D01*
X150574009Y-83043351D01*
X150544116Y-83029213D01*
X150515753Y-83012213D01*
X150489193Y-82992515D01*
X150464692Y-82970308D01*
X150442485Y-82945807D01*
X150422787Y-82919247D01*
X150405787Y-82890884D01*
X150391649Y-82860991D01*
X150380509Y-82829857D01*
X150372475Y-82797781D01*
X150367623Y-82765071D01*
X150366000Y-82732044D01*
X150366000Y-81605956D01*
X150367623Y-81572929D01*
X150372475Y-81540219D01*
X150380509Y-81508143D01*
X150391649Y-81477009D01*
X150405787Y-81447116D01*
X150422787Y-81418753D01*
X150442485Y-81392193D01*
X150464692Y-81367692D01*
X150489193Y-81345485D01*
X150515753Y-81325787D01*
X150544116Y-81308787D01*
X150574009Y-81294649D01*
X150605143Y-81283509D01*
X150637219Y-81275475D01*
X150669929Y-81270623D01*
X150702956Y-81269000D01*
X151579044Y-81269000D01*
X151612071Y-81270623D01*
X151612071Y-81270623D01*
G37*
D11*
X151141000Y-82169000D03*
D10*
G36*
X97116071Y-56648623D02*
G01*
X97148781Y-56653475D01*
X97180857Y-56661509D01*
X97211991Y-56672649D01*
X97241884Y-56686787D01*
X97270247Y-56703787D01*
X97296807Y-56723485D01*
X97321308Y-56745692D01*
X97343515Y-56770193D01*
X97363213Y-56796753D01*
X97380213Y-56825116D01*
X97394351Y-56855009D01*
X97405491Y-56886143D01*
X97413525Y-56918219D01*
X97418377Y-56950929D01*
X97420000Y-56983956D01*
X97420000Y-57860044D01*
X97418377Y-57893071D01*
X97413525Y-57925781D01*
X97405491Y-57957857D01*
X97394351Y-57988991D01*
X97380213Y-58018884D01*
X97363213Y-58047247D01*
X97343515Y-58073807D01*
X97321308Y-58098308D01*
X97296807Y-58120515D01*
X97270247Y-58140213D01*
X97241884Y-58157213D01*
X97211991Y-58171351D01*
X97180857Y-58182491D01*
X97148781Y-58190525D01*
X97116071Y-58195377D01*
X97083044Y-58197000D01*
X95956956Y-58197000D01*
X95923929Y-58195377D01*
X95891219Y-58190525D01*
X95859143Y-58182491D01*
X95828009Y-58171351D01*
X95798116Y-58157213D01*
X95769753Y-58140213D01*
X95743193Y-58120515D01*
X95718692Y-58098308D01*
X95696485Y-58073807D01*
X95676787Y-58047247D01*
X95659787Y-58018884D01*
X95645649Y-57988991D01*
X95634509Y-57957857D01*
X95626475Y-57925781D01*
X95621623Y-57893071D01*
X95620000Y-57860044D01*
X95620000Y-56983956D01*
X95621623Y-56950929D01*
X95626475Y-56918219D01*
X95634509Y-56886143D01*
X95645649Y-56855009D01*
X95659787Y-56825116D01*
X95676787Y-56796753D01*
X95696485Y-56770193D01*
X95718692Y-56745692D01*
X95743193Y-56723485D01*
X95769753Y-56703787D01*
X95798116Y-56686787D01*
X95828009Y-56672649D01*
X95859143Y-56661509D01*
X95891219Y-56653475D01*
X95923929Y-56648623D01*
X95956956Y-56647000D01*
X97083044Y-56647000D01*
X97116071Y-56648623D01*
X97116071Y-56648623D01*
G37*
D11*
X96520000Y-57422000D03*
D10*
G36*
X97116071Y-54598623D02*
G01*
X97148781Y-54603475D01*
X97180857Y-54611509D01*
X97211991Y-54622649D01*
X97241884Y-54636787D01*
X97270247Y-54653787D01*
X97296807Y-54673485D01*
X97321308Y-54695692D01*
X97343515Y-54720193D01*
X97363213Y-54746753D01*
X97380213Y-54775116D01*
X97394351Y-54805009D01*
X97405491Y-54836143D01*
X97413525Y-54868219D01*
X97418377Y-54900929D01*
X97420000Y-54933956D01*
X97420000Y-55810044D01*
X97418377Y-55843071D01*
X97413525Y-55875781D01*
X97405491Y-55907857D01*
X97394351Y-55938991D01*
X97380213Y-55968884D01*
X97363213Y-55997247D01*
X97343515Y-56023807D01*
X97321308Y-56048308D01*
X97296807Y-56070515D01*
X97270247Y-56090213D01*
X97241884Y-56107213D01*
X97211991Y-56121351D01*
X97180857Y-56132491D01*
X97148781Y-56140525D01*
X97116071Y-56145377D01*
X97083044Y-56147000D01*
X95956956Y-56147000D01*
X95923929Y-56145377D01*
X95891219Y-56140525D01*
X95859143Y-56132491D01*
X95828009Y-56121351D01*
X95798116Y-56107213D01*
X95769753Y-56090213D01*
X95743193Y-56070515D01*
X95718692Y-56048308D01*
X95696485Y-56023807D01*
X95676787Y-55997247D01*
X95659787Y-55968884D01*
X95645649Y-55938991D01*
X95634509Y-55907857D01*
X95626475Y-55875781D01*
X95621623Y-55843071D01*
X95620000Y-55810044D01*
X95620000Y-54933956D01*
X95621623Y-54900929D01*
X95626475Y-54868219D01*
X95634509Y-54836143D01*
X95645649Y-54805009D01*
X95659787Y-54775116D01*
X95676787Y-54746753D01*
X95696485Y-54720193D01*
X95718692Y-54695692D01*
X95743193Y-54673485D01*
X95769753Y-54653787D01*
X95798116Y-54636787D01*
X95828009Y-54622649D01*
X95859143Y-54611509D01*
X95891219Y-54603475D01*
X95923929Y-54598623D01*
X95956956Y-54597000D01*
X97083044Y-54597000D01*
X97116071Y-54598623D01*
X97116071Y-54598623D01*
G37*
D11*
X96520000Y-55372000D03*
D13*
X96520000Y-52070000D03*
D14*
X194945000Y-33655000D03*
X194945000Y-107315000D03*
X40005000Y-107315000D03*
X40005000Y-33655000D03*
D15*
X116459000Y-67016000D03*
D16*
X116459000Y-64516000D03*
D17*
X182880000Y-106172000D03*
X180180000Y-106172000D03*
D18*
X61163200Y-84277200D03*
X39163200Y-84277200D03*
D19*
X52705000Y-95758000D03*
D20*
X52705000Y-100838000D03*
D21*
X87376000Y-89517200D03*
D22*
X87376000Y-99517200D03*
D20*
X143433800Y-104470200D03*
D23*
X144589500Y-99170500D03*
X144589500Y-94170500D03*
D16*
X184150000Y-36830000D03*
D15*
X179150000Y-36830000D03*
D24*
X103378000Y-61468000D03*
X108458000Y-61468000D03*
X105918000Y-61468000D03*
D25*
X77467500Y-53568600D03*
X77467500Y-56108600D03*
X77467500Y-58648600D03*
X77467500Y-61188600D03*
X67947500Y-61188600D03*
X67947500Y-58648600D03*
X67947500Y-56108600D03*
X67947500Y-53568600D03*
X77467500Y-67132200D03*
X77467500Y-69672200D03*
X77467500Y-72212200D03*
X77467500Y-74752200D03*
X67947500Y-74752200D03*
X67947500Y-72212200D03*
X67947500Y-69672200D03*
X67947500Y-67132200D03*
D17*
X56255900Y-60509777D03*
X53555900Y-60509777D03*
X53555900Y-53848000D03*
X56255900Y-53848000D03*
X56255900Y-67136888D03*
X53555900Y-67136888D03*
X53555900Y-73764000D03*
X56255900Y-73764000D03*
D26*
X41160700Y-72041001D03*
X41160700Y-69501001D03*
X41160700Y-66961001D03*
X41160700Y-64421001D03*
X41160700Y-61881001D03*
X41160700Y-59341001D03*
X41160700Y-56801001D03*
D13*
X41160700Y-54261001D03*
D25*
X77467500Y-47561500D03*
X77467500Y-45021500D03*
X77467500Y-42481500D03*
X77467500Y-39941500D03*
X67947500Y-39941500D03*
X67947500Y-42481500D03*
X67947500Y-45021500D03*
X67947500Y-47561500D03*
D26*
X98806000Y-38481000D03*
X101346000Y-38481000D03*
X98806000Y-41021000D03*
X101346000Y-41021000D03*
X98806000Y-43561000D03*
D13*
X101346000Y-43561000D03*
D17*
X93044000Y-48133000D03*
X90344000Y-48133000D03*
X93044000Y-39327666D03*
X90344000Y-39327666D03*
X90344000Y-34925000D03*
X93044000Y-34925000D03*
X93044000Y-43730332D03*
X90344000Y-43730332D03*
D27*
X111955000Y-37459000D03*
X111955000Y-38259000D03*
X111955000Y-39059000D03*
X111955000Y-39859000D03*
X111955000Y-40659000D03*
X111955000Y-41459000D03*
X111955000Y-42259000D03*
X111955000Y-43059000D03*
D28*
X113405000Y-44509000D03*
X114205000Y-44509000D03*
X115005000Y-44509000D03*
X115805000Y-44509000D03*
X116605000Y-44509000D03*
X117405000Y-44509000D03*
X118205000Y-44509000D03*
X119005000Y-44509000D03*
D27*
X120455000Y-43059000D03*
X120455000Y-42259000D03*
X120455000Y-41459000D03*
X120455000Y-40659000D03*
X120455000Y-39859000D03*
X120455000Y-39059000D03*
X120455000Y-38259000D03*
X120455000Y-37459000D03*
D28*
X119005000Y-36009000D03*
X118205000Y-36009000D03*
X117405000Y-36009000D03*
X116605000Y-36009000D03*
X115805000Y-36009000D03*
X115005000Y-36009000D03*
X114205000Y-36009000D03*
X113405000Y-36009000D03*
D29*
X155227000Y-77089000D03*
X155227000Y-75819000D03*
X155227000Y-74549000D03*
X155227000Y-73279000D03*
X149827000Y-73279000D03*
X149827000Y-74549000D03*
X149827000Y-75819000D03*
X149827000Y-77089000D03*
D30*
X179578000Y-69563000D03*
X179578000Y-72263000D03*
X153223500Y-86868000D03*
X153223500Y-89568000D03*
X145669000Y-89568000D03*
X145669000Y-86868000D03*
D31*
X161163000Y-89893000D03*
D32*
X161163000Y-87518000D03*
D33*
X173736000Y-65499000D03*
X172466000Y-65499000D03*
X171196000Y-65499000D03*
X169926000Y-65499000D03*
X169926000Y-70899000D03*
X171196000Y-70899000D03*
X172466000Y-70899000D03*
X173736000Y-70899000D03*
D34*
X178943000Y-45466000D03*
D35*
X178943000Y-58166000D03*
D29*
X167607000Y-90551000D03*
X167607000Y-89281000D03*
X167607000Y-88011000D03*
X167607000Y-86741000D03*
X173007000Y-86741000D03*
X173007000Y-88011000D03*
X173007000Y-89281000D03*
X173007000Y-90551000D03*
D13*
X184277000Y-99822000D03*
D26*
X186817000Y-99822000D03*
X189357000Y-99822000D03*
D36*
X184277000Y-88900000D03*
D37*
X191897000Y-88900000D03*
D21*
X122199400Y-84030800D03*
D22*
X122199400Y-94030800D03*
D38*
X67005200Y-88672400D03*
X67005200Y-93972400D03*
X67005200Y-99372400D03*
X66905200Y-104672400D03*
D37*
X128460500Y-51841400D03*
D36*
X136080500Y-51841400D03*
D34*
X126619000Y-62357000D03*
D35*
X139319000Y-62357000D03*
X89204800Y-74726800D03*
D34*
X101904800Y-74726800D03*
D26*
X163576000Y-35560000D03*
D13*
X166116000Y-35560000D03*
X169926000Y-39878000D03*
D26*
X167386000Y-39878000D03*
D39*
X188976000Y-82956400D03*
X184276000Y-82956400D03*
X188976000Y-71456400D03*
X188976000Y-64456400D03*
D40*
X155702000Y-94996000D03*
D41*
X153162000Y-94996000D03*
X150622000Y-94996000D03*
D17*
X136131300Y-56210200D03*
X138831300Y-56210200D03*
X133090900Y-56210200D03*
X130390900Y-56210200D03*
X139969000Y-68580000D03*
X137269000Y-68580000D03*
D30*
X179578000Y-66167000D03*
X179578000Y-63467000D03*
X151158100Y-53632100D03*
X151158100Y-56332100D03*
X156004100Y-53632100D03*
X156004100Y-56332100D03*
D17*
X84678500Y-49339500D03*
X81978500Y-49339500D03*
X163990000Y-38862000D03*
X161290000Y-38862000D03*
X157480000Y-36576000D03*
X160180000Y-36576000D03*
X173261000Y-61722000D03*
X170561000Y-61722000D03*
D30*
X172339000Y-54356000D03*
X172339000Y-57056000D03*
D17*
X104615000Y-35814000D03*
X107315000Y-35814000D03*
D20*
X143294100Y-45504100D03*
X162814000Y-46736000D03*
D33*
X155613100Y-43886100D03*
X154343100Y-43886100D03*
X153073100Y-43886100D03*
X151803100Y-43886100D03*
X151803100Y-38486100D03*
X153073100Y-38486100D03*
X154343100Y-38486100D03*
X155613100Y-38486100D03*
D20*
X188950600Y-45364400D03*
D19*
X188950600Y-50444400D03*
D20*
X160909000Y-104241600D03*
X155829000Y-104241600D03*
D19*
X150749000Y-104241600D03*
D42*
X82296000Y-42672000D03*
X81346000Y-40472000D03*
X83246000Y-40472000D03*
X63500000Y-60368000D03*
X64450000Y-62568000D03*
X62550000Y-62568000D03*
X63500000Y-53764000D03*
X64450000Y-55964000D03*
X62550000Y-55964000D03*
X63652400Y-67378400D03*
X64602400Y-69578400D03*
X62702400Y-69578400D03*
X62702400Y-75928400D03*
X64602400Y-75928400D03*
X63652400Y-73728400D03*
X187467200Y-95435600D03*
X189367200Y-95435600D03*
X188417200Y-93235600D03*
M02*
